M48
;DRILL file {KiCad 5.0.2-bee76a0~70~ubuntu18.04.1} date Tue 19 Mar 2019 11:43:17 PM +07
;FORMAT={-:-/ absolute / inch / decimal}
FMAT,2
INCH,TZ
T1C0.0157
T2C0.0276
T3C0.0280
T4C0.0295
T5C0.0300
T6C0.0315
T7C0.0394
T8C0.0472
T9C0.0598
%
G90
G05
T1
X0.9525Y-0.3325
X1.0652Y-0.588
X1.105Y-3.0019
X1.5082Y-3.2801
X1.5432Y-3.7101
X1.5932Y-3.9601
X1.6649Y-0.6624
X2.02Y-0.2475
X2.3923Y-1.4782
X2.3983Y-1.4202
X2.4583Y-1.5222
X2.4583Y-1.7062
X2.52Y-1.26
X2.6322Y-1.3342
X2.6332Y-1.2582
X2.76Y-1.2574
X2.76Y-1.35
X2.7943Y-1.6382
X2.9006Y-1.1256
X3.1093Y-1.6282
X3.1293Y-1.6602
X3.1463Y-1.6932
X3.4533Y-1.6932
X3.46Y-1.52
T2
X0.4008Y-2.2138
X0.4008Y-2.4138
X0.7008Y-2.2138
X0.7008Y-2.4138
X1.7682Y-0.7682
X1.9682Y-0.7682
X0.6008Y-2.2138
X0.6008Y-2.4138
X0.5008Y-2.2138
X0.5008Y-2.4138
T3
X0.1264Y-3.2335
X0.1264Y-3.387
X0.9437Y-3.1827
X0.9437Y-3.5827
X0.9437Y-4.0327
T4
X3.3071Y-3.2677
X3.3071Y-3.3465
X3.3071Y-3.4252
X3.3071Y-3.5039
X3.3071Y-3.5827
X3.3071Y-3.6614
X3.3071Y-3.7402
X3.3071Y-3.8189
X3.3071Y-3.8976
X3.3071Y-3.9764
X3.3071Y-4.0551
X3.3071Y-4.1339
T5
X2.1942Y-0.0683
X2.1942Y-0.462
X3.0982Y-0.1683
X3.1982Y-0.462
T6
X2.3002Y-1.2547
X2.3002Y-1.4476
X0.2007Y-0.4207
X0.496Y-0.527
T7
X2.6932Y-2.2441
X2.6932Y-2.6441
X2.7932Y-2.2441
X2.7932Y-2.6441
X2.8932Y-2.2441
X2.8932Y-2.6441
X2.9932Y-2.2441
X2.9932Y-2.6441
X3.0932Y-2.2441
X3.0932Y-2.6441
X3.1932Y-2.2441
X3.1932Y-2.6441
X1.4002Y-0.5682
X0.3008Y-2.0882
X0.3008Y-2.9882
X0.4008Y-2.0882
X0.4008Y-2.9882
X0.5008Y-2.0882
X0.5008Y-2.9882
X0.6008Y-2.0882
X0.6008Y-2.9882
X0.7008Y-2.0882
X0.7008Y-2.9882
X0.8008Y-2.0882
X0.8008Y-2.9882
X0.9008Y-2.0882
X0.9008Y-2.9882
X1.0008Y-2.0882
X1.0008Y-2.9882
X1.9257Y1.6923
X1.8412Y-1.6712
X1.9412Y-1.6712
X2.3573Y-1.8102
X1.8372Y-1.0332
X1.9372Y-1.0332
X2.3207Y-1.0412
X2.4207Y-1.0412
X3.0953Y-1.7452
X3.0953Y-1.8452
X1.36Y-2.6119
X1.36Y-2.7119
X1.36Y-2.8119
X1.36Y-2.9119
X1.36Y-3.0119
X1.36Y-3.1119
X1.36Y-3.2119
X1.36Y-3.3119
X1.36Y-3.4119
X1.36Y-3.5119
X1.36Y-3.6119
X1.36Y-3.7119
X1.36Y-3.8119
X1.36Y-3.9119
X1.36Y-4.0119
X2.36Y-2.6119
X2.36Y-2.7119
X2.36Y-2.8119
X2.36Y-2.9119
X2.36Y-3.0119
X2.36Y-3.1119
X2.36Y-3.2119
X2.36Y-3.3119
X2.36Y-3.4119
X2.36Y-3.5119
X2.36Y-3.6119
X2.36Y-3.7119
X2.36Y-3.8119
X2.36Y-3.9119
X2.36Y-4.0119
X2.3207Y-0.9247
X2.4207Y-0.9247
X2.6932Y-2.0472
X2.7932Y-2.0472
X2.8932Y-2.0472
X2.9932Y-2.0472
X3.0932Y-2.0472
X3.1932Y-2.0472
X1.3042Y-0.9722
X0.383Y-1.684
X0.483Y-1.684
X2.8953Y-1.7452
X2.8953Y-1.8452
X2.9953Y-1.7452
X2.9953Y-1.8452
X1.8372Y-0.9182
X1.9372Y-0.9182
X2.7953Y-1.7452
X2.7953Y-1.8452
X3.1953Y-1.7452
X3.1953Y-1.8452
X2.0125Y-0.53
X2.6953Y-1.7452
X2.6953Y-1.8452
T8
X0.1274Y-1.2807
X1.0132Y-1.2807
X1.7032Y-1.2863
X1.7032Y-1.4832
X0.81Y-0.08
X0.81Y-0.88
T9
X0.3482Y-0.1682
X0.5482Y-0.1682
X0.3543Y-4.2913
X0.5543Y-4.2913
T0
M30
