%TF.GenerationSoftware,KiCad,Pcbnew,5.0.2-bee76a0~70~ubuntu18.04.1*%
%TF.CreationDate,2019-03-20T00:35:03+07:00*%
%TF.ProjectId,Display,44697370-6c61-4792-9e6b-696361645f70,rev?*%
%TF.SameCoordinates,PX1036640PY112a880*%
%TF.FileFunction,Legend,Top*%
%TF.FilePolarity,Positive*%
%FSLAX46Y46*%
G04 Gerber Fmt 4.6, Leading zero omitted, Abs format (unit mm)*
G04 Created by KiCad (PCBNEW 5.0.2-bee76a0~70~ubuntu18.04.1) date Wed 20 Mar 2019 12:35:03 AM +07*
%MOMM*%
%LPD*%
G01*
G04 APERTURE LIST*
%ADD10C,0.300000*%
%ADD11C,0.120000*%
%ADD12C,0.150000*%
G04 APERTURE END LIST*
D10*
X39071428Y6278572D02*
X38928571Y6350000D01*
X38857142Y6421429D01*
X38785714Y6564286D01*
X38785714Y6635715D01*
X38857142Y6778572D01*
X38928571Y6850000D01*
X39071428Y6921429D01*
X39357142Y6921429D01*
X39500000Y6850000D01*
X39571428Y6778572D01*
X39642857Y6635715D01*
X39642857Y6564286D01*
X39571428Y6421429D01*
X39500000Y6350000D01*
X39357142Y6278572D01*
X39071428Y6278572D01*
X38928571Y6207143D01*
X38857142Y6135715D01*
X38785714Y5992858D01*
X38785714Y5707143D01*
X38857142Y5564286D01*
X38928571Y5492858D01*
X39071428Y5421429D01*
X39357142Y5421429D01*
X39500000Y5492858D01*
X39571428Y5564286D01*
X39642857Y5707143D01*
X39642857Y5992858D01*
X39571428Y6135715D01*
X39500000Y6207143D01*
X39357142Y6278572D01*
X40928571Y6421429D02*
X40928571Y5421429D01*
X40571428Y6992858D02*
X40214285Y5921429D01*
X41142857Y5921429D01*
X41714285Y5564286D02*
X41785714Y5492858D01*
X41714285Y5421429D01*
X41642857Y5492858D01*
X41714285Y5564286D01*
X41714285Y5421429D01*
X42714285Y6921429D02*
X42857142Y6921429D01*
X43000000Y6850000D01*
X43071428Y6778572D01*
X43142857Y6635715D01*
X43214285Y6350000D01*
X43214285Y5992858D01*
X43142857Y5707143D01*
X43071428Y5564286D01*
X43000000Y5492858D01*
X42857142Y5421429D01*
X42714285Y5421429D01*
X42571428Y5492858D01*
X42500000Y5564286D01*
X42428571Y5707143D01*
X42357142Y5992858D01*
X42357142Y6350000D01*
X42428571Y6635715D01*
X42500000Y6778572D01*
X42571428Y6850000D01*
X42714285Y6921429D01*
X44142857Y6921429D02*
X44285714Y6921429D01*
X44428571Y6850000D01*
X44500000Y6778572D01*
X44571428Y6635715D01*
X44642857Y6350000D01*
X44642857Y5992858D01*
X44571428Y5707143D01*
X44500000Y5564286D01*
X44428571Y5492858D01*
X44285714Y5421429D01*
X44142857Y5421429D01*
X44000000Y5492858D01*
X43928571Y5564286D01*
X43857142Y5707143D01*
X43785714Y5992858D01*
X43785714Y6350000D01*
X43857142Y6635715D01*
X43928571Y6778572D01*
X44000000Y6850000D01*
X44142857Y6921429D01*
X45571428Y6921429D02*
X45714285Y6921429D01*
X45857142Y6850000D01*
X45928571Y6778572D01*
X46000000Y6635715D01*
X46071428Y6350000D01*
X46071428Y5992858D01*
X46000000Y5707143D01*
X45928571Y5564286D01*
X45857142Y5492858D01*
X45714285Y5421429D01*
X45571428Y5421429D01*
X45428571Y5492858D01*
X45357142Y5564286D01*
X45285714Y5707143D01*
X45214285Y5992858D01*
X45214285Y6350000D01*
X45285714Y6635715D01*
X45357142Y6778572D01*
X45428571Y6850000D01*
X45571428Y6921429D01*
X47857142Y5421429D02*
X47857142Y6421429D01*
X47857142Y6278572D02*
X47928571Y6350000D01*
X48071428Y6421429D01*
X48285714Y6421429D01*
X48428571Y6350000D01*
X48500000Y6207143D01*
X48500000Y5421429D01*
X48500000Y6207143D02*
X48571428Y6350000D01*
X48714285Y6421429D01*
X48928571Y6421429D01*
X49071428Y6350000D01*
X49142857Y6207143D01*
X49142857Y5421429D01*
X49857142Y5421429D02*
X49857142Y6421429D01*
X49857142Y6278572D02*
X49928571Y6350000D01*
X50071428Y6421429D01*
X50285714Y6421429D01*
X50428571Y6350000D01*
X50500000Y6207143D01*
X50500000Y5421429D01*
X50500000Y6207143D02*
X50571428Y6350000D01*
X50714285Y6421429D01*
X50928571Y6421429D01*
X51071428Y6350000D01*
X51142857Y6207143D01*
X51142857Y5421429D01*
X3000000Y4000000D02*
X87000000Y4000000D01*
X3000000Y-3000000D02*
X3000000Y4586421D01*
X87000000Y-3000000D02*
X87000000Y4586421D01*
X87000000Y4000000D02*
X85873496Y3413579D01*
X87000000Y4000000D02*
X85873496Y4586421D01*
X3000000Y4000000D02*
X4126504Y3413579D01*
X3000000Y4000000D02*
X4126504Y4586421D01*
X95278571Y-33428571D02*
X95278571Y-34142857D01*
X95992857Y-34214285D01*
X95921428Y-34142857D01*
X95850000Y-34000000D01*
X95850000Y-33642857D01*
X95921428Y-33500000D01*
X95992857Y-33428571D01*
X96135714Y-33357142D01*
X96492857Y-33357142D01*
X96635714Y-33428571D01*
X96707142Y-33500000D01*
X96778571Y-33642857D01*
X96778571Y-34000000D01*
X96707142Y-34142857D01*
X96635714Y-34214285D01*
X95278571Y-32428571D02*
X95278571Y-32285714D01*
X95350000Y-32142857D01*
X95421428Y-32071428D01*
X95564285Y-32000000D01*
X95850000Y-31928571D01*
X96207142Y-31928571D01*
X96492857Y-32000000D01*
X96635714Y-32071428D01*
X96707142Y-32142857D01*
X96778571Y-32285714D01*
X96778571Y-32428571D01*
X96707142Y-32571428D01*
X96635714Y-32642857D01*
X96492857Y-32714285D01*
X96207142Y-32785714D01*
X95850000Y-32785714D01*
X95564285Y-32714285D01*
X95421428Y-32642857D01*
X95350000Y-32571428D01*
X95278571Y-32428571D01*
X96635714Y-31285714D02*
X96707142Y-31214285D01*
X96778571Y-31285714D01*
X96707142Y-31357142D01*
X96635714Y-31285714D01*
X96778571Y-31285714D01*
X95278571Y-30285714D02*
X95278571Y-30142857D01*
X95350000Y-30000000D01*
X95421428Y-29928571D01*
X95564285Y-29857142D01*
X95850000Y-29785714D01*
X96207142Y-29785714D01*
X96492857Y-29857142D01*
X96635714Y-29928571D01*
X96707142Y-30000000D01*
X96778571Y-30142857D01*
X96778571Y-30285714D01*
X96707142Y-30428571D01*
X96635714Y-30500000D01*
X96492857Y-30571428D01*
X96207142Y-30642857D01*
X95850000Y-30642857D01*
X95564285Y-30571428D01*
X95421428Y-30500000D01*
X95350000Y-30428571D01*
X95278571Y-30285714D01*
X95278571Y-28857142D02*
X95278571Y-28714285D01*
X95350000Y-28571428D01*
X95421428Y-28500000D01*
X95564285Y-28428571D01*
X95850000Y-28357142D01*
X96207142Y-28357142D01*
X96492857Y-28428571D01*
X96635714Y-28500000D01*
X96707142Y-28571428D01*
X96778571Y-28714285D01*
X96778571Y-28857142D01*
X96707142Y-29000000D01*
X96635714Y-29071428D01*
X96492857Y-29142857D01*
X96207142Y-29214285D01*
X95850000Y-29214285D01*
X95564285Y-29142857D01*
X95421428Y-29071428D01*
X95350000Y-29000000D01*
X95278571Y-28857142D01*
X95278571Y-27428571D02*
X95278571Y-27285714D01*
X95350000Y-27142857D01*
X95421428Y-27071428D01*
X95564285Y-27000000D01*
X95850000Y-26928571D01*
X96207142Y-26928571D01*
X96492857Y-27000000D01*
X96635714Y-27071428D01*
X96707142Y-27142857D01*
X96778571Y-27285714D01*
X96778571Y-27428571D01*
X96707142Y-27571428D01*
X96635714Y-27642857D01*
X96492857Y-27714285D01*
X96207142Y-27785714D01*
X95850000Y-27785714D01*
X95564285Y-27714285D01*
X95421428Y-27642857D01*
X95350000Y-27571428D01*
X95278571Y-27428571D01*
X96778571Y-25142857D02*
X95778571Y-25142857D01*
X95921428Y-25142857D02*
X95850000Y-25071428D01*
X95778571Y-24928571D01*
X95778571Y-24714285D01*
X95850000Y-24571428D01*
X95992857Y-24500000D01*
X96778571Y-24500000D01*
X95992857Y-24500000D02*
X95850000Y-24428571D01*
X95778571Y-24285714D01*
X95778571Y-24071428D01*
X95850000Y-23928571D01*
X95992857Y-23857142D01*
X96778571Y-23857142D01*
X96778571Y-23142857D02*
X95778571Y-23142857D01*
X95921428Y-23142857D02*
X95850000Y-23071428D01*
X95778571Y-22928571D01*
X95778571Y-22714285D01*
X95850000Y-22571428D01*
X95992857Y-22500000D01*
X96778571Y-22500000D01*
X95992857Y-22500000D02*
X95850000Y-22428571D01*
X95778571Y-22285714D01*
X95778571Y-22071428D01*
X95850000Y-21928571D01*
X95992857Y-21857142D01*
X96778571Y-21857142D01*
X94000000Y-53000000D02*
X94000000Y-3000000D01*
X87000000Y-53000000D02*
X94586421Y-53000000D01*
X87000000Y-3000000D02*
X94586421Y-3000000D01*
X94000000Y-3000000D02*
X94586421Y-4126504D01*
X94000000Y-3000000D02*
X93413579Y-4126504D01*
X94000000Y-53000000D02*
X94586421Y-51873496D01*
X94000000Y-53000000D02*
X93413579Y-51873496D01*
X95278571Y-86928571D02*
X95278571Y-87642857D01*
X95992857Y-87714285D01*
X95921428Y-87642857D01*
X95850000Y-87500000D01*
X95850000Y-87142857D01*
X95921428Y-87000000D01*
X95992857Y-86928571D01*
X96135714Y-86857142D01*
X96492857Y-86857142D01*
X96635714Y-86928571D01*
X96707142Y-87000000D01*
X96778571Y-87142857D01*
X96778571Y-87500000D01*
X96707142Y-87642857D01*
X96635714Y-87714285D01*
X95278571Y-86357142D02*
X95278571Y-85357142D01*
X96778571Y-86000000D01*
X96635714Y-84785714D02*
X96707142Y-84714285D01*
X96778571Y-84785714D01*
X96707142Y-84857142D01*
X96635714Y-84785714D01*
X96778571Y-84785714D01*
X95278571Y-83785714D02*
X95278571Y-83642857D01*
X95350000Y-83500000D01*
X95421428Y-83428571D01*
X95564285Y-83357142D01*
X95850000Y-83285714D01*
X96207142Y-83285714D01*
X96492857Y-83357142D01*
X96635714Y-83428571D01*
X96707142Y-83500000D01*
X96778571Y-83642857D01*
X96778571Y-83785714D01*
X96707142Y-83928571D01*
X96635714Y-84000000D01*
X96492857Y-84071428D01*
X96207142Y-84142857D01*
X95850000Y-84142857D01*
X95564285Y-84071428D01*
X95421428Y-84000000D01*
X95350000Y-83928571D01*
X95278571Y-83785714D01*
X95278571Y-82357142D02*
X95278571Y-82214285D01*
X95350000Y-82071428D01*
X95421428Y-82000000D01*
X95564285Y-81928571D01*
X95850000Y-81857142D01*
X96207142Y-81857142D01*
X96492857Y-81928571D01*
X96635714Y-82000000D01*
X96707142Y-82071428D01*
X96778571Y-82214285D01*
X96778571Y-82357142D01*
X96707142Y-82500000D01*
X96635714Y-82571428D01*
X96492857Y-82642857D01*
X96207142Y-82714285D01*
X95850000Y-82714285D01*
X95564285Y-82642857D01*
X95421428Y-82571428D01*
X95350000Y-82500000D01*
X95278571Y-82357142D01*
X95278571Y-80928571D02*
X95278571Y-80785714D01*
X95350000Y-80642857D01*
X95421428Y-80571428D01*
X95564285Y-80500000D01*
X95850000Y-80428571D01*
X96207142Y-80428571D01*
X96492857Y-80500000D01*
X96635714Y-80571428D01*
X96707142Y-80642857D01*
X96778571Y-80785714D01*
X96778571Y-80928571D01*
X96707142Y-81071428D01*
X96635714Y-81142857D01*
X96492857Y-81214285D01*
X96207142Y-81285714D01*
X95850000Y-81285714D01*
X95564285Y-81214285D01*
X95421428Y-81142857D01*
X95350000Y-81071428D01*
X95278571Y-80928571D01*
X96778571Y-78642857D02*
X95778571Y-78642857D01*
X95921428Y-78642857D02*
X95850000Y-78571428D01*
X95778571Y-78428571D01*
X95778571Y-78214285D01*
X95850000Y-78071428D01*
X95992857Y-78000000D01*
X96778571Y-78000000D01*
X95992857Y-78000000D02*
X95850000Y-77928571D01*
X95778571Y-77785714D01*
X95778571Y-77571428D01*
X95850000Y-77428571D01*
X95992857Y-77357142D01*
X96778571Y-77357142D01*
X96778571Y-76642857D02*
X95778571Y-76642857D01*
X95921428Y-76642857D02*
X95850000Y-76571428D01*
X95778571Y-76428571D01*
X95778571Y-76214285D01*
X95850000Y-76071428D01*
X95992857Y-76000000D01*
X96778571Y-76000000D01*
X95992857Y-76000000D02*
X95850000Y-75928571D01*
X95778571Y-75785714D01*
X95778571Y-75571428D01*
X95850000Y-75428571D01*
X95992857Y-75357142D01*
X96778571Y-75357142D01*
X94000000Y-110000000D02*
X94000000Y-53000000D01*
X87000000Y-110000000D02*
X94586421Y-110000000D01*
X87000000Y-53000000D02*
X94586421Y-53000000D01*
X94000000Y-53000000D02*
X94586421Y-54126504D01*
X94000000Y-53000000D02*
X93413579Y-54126504D01*
X94000000Y-110000000D02*
X94586421Y-108873496D01*
X94000000Y-110000000D02*
X93413579Y-108873496D01*
X-7421429Y-33000000D02*
X-6421429Y-33000000D01*
X-7992858Y-33357142D02*
X-6921429Y-33714285D01*
X-6921429Y-32785714D01*
X-6421429Y-32142857D02*
X-6421429Y-31857142D01*
X-6492858Y-31714285D01*
X-6564286Y-31642857D01*
X-6778572Y-31500000D01*
X-7064286Y-31428571D01*
X-7635715Y-31428571D01*
X-7778572Y-31500000D01*
X-7850000Y-31571428D01*
X-7921429Y-31714285D01*
X-7921429Y-32000000D01*
X-7850000Y-32142857D01*
X-7778572Y-32214285D01*
X-7635715Y-32285714D01*
X-7278572Y-32285714D01*
X-7135715Y-32214285D01*
X-7064286Y-32142857D01*
X-6992858Y-32000000D01*
X-6992858Y-31714285D01*
X-7064286Y-31571428D01*
X-7135715Y-31500000D01*
X-7278572Y-31428571D01*
X-6564286Y-30785714D02*
X-6492858Y-30714285D01*
X-6421429Y-30785714D01*
X-6492858Y-30857142D01*
X-6564286Y-30785714D01*
X-6421429Y-30785714D01*
X-7921429Y-29785714D02*
X-7921429Y-29642857D01*
X-7850000Y-29500000D01*
X-7778572Y-29428571D01*
X-7635715Y-29357142D01*
X-7350000Y-29285714D01*
X-6992858Y-29285714D01*
X-6707143Y-29357142D01*
X-6564286Y-29428571D01*
X-6492858Y-29500000D01*
X-6421429Y-29642857D01*
X-6421429Y-29785714D01*
X-6492858Y-29928571D01*
X-6564286Y-30000000D01*
X-6707143Y-30071428D01*
X-6992858Y-30142857D01*
X-7350000Y-30142857D01*
X-7635715Y-30071428D01*
X-7778572Y-30000000D01*
X-7850000Y-29928571D01*
X-7921429Y-29785714D01*
X-7921429Y-28357142D02*
X-7921429Y-28214285D01*
X-7850000Y-28071428D01*
X-7778572Y-28000000D01*
X-7635715Y-27928571D01*
X-7350000Y-27857142D01*
X-6992858Y-27857142D01*
X-6707143Y-27928571D01*
X-6564286Y-28000000D01*
X-6492858Y-28071428D01*
X-6421429Y-28214285D01*
X-6421429Y-28357142D01*
X-6492858Y-28500000D01*
X-6564286Y-28571428D01*
X-6707143Y-28642857D01*
X-6992858Y-28714285D01*
X-7350000Y-28714285D01*
X-7635715Y-28642857D01*
X-7778572Y-28571428D01*
X-7850000Y-28500000D01*
X-7921429Y-28357142D01*
X-7921429Y-26928571D02*
X-7921429Y-26785714D01*
X-7850000Y-26642857D01*
X-7778572Y-26571428D01*
X-7635715Y-26500000D01*
X-7350000Y-26428571D01*
X-6992858Y-26428571D01*
X-6707143Y-26500000D01*
X-6564286Y-26571428D01*
X-6492858Y-26642857D01*
X-6421429Y-26785714D01*
X-6421429Y-26928571D01*
X-6492858Y-27071428D01*
X-6564286Y-27142857D01*
X-6707143Y-27214285D01*
X-6992858Y-27285714D01*
X-7350000Y-27285714D01*
X-7635715Y-27214285D01*
X-7778572Y-27142857D01*
X-7850000Y-27071428D01*
X-7921429Y-26928571D01*
X-6421429Y-24642857D02*
X-7421429Y-24642857D01*
X-7278572Y-24642857D02*
X-7350000Y-24571428D01*
X-7421429Y-24428571D01*
X-7421429Y-24214285D01*
X-7350000Y-24071428D01*
X-7207143Y-24000000D01*
X-6421429Y-24000000D01*
X-7207143Y-24000000D02*
X-7350000Y-23928571D01*
X-7421429Y-23785714D01*
X-7421429Y-23571428D01*
X-7350000Y-23428571D01*
X-7207143Y-23357142D01*
X-6421429Y-23357142D01*
X-6421429Y-22642857D02*
X-7421429Y-22642857D01*
X-7278572Y-22642857D02*
X-7350000Y-22571428D01*
X-7421429Y-22428571D01*
X-7421429Y-22214285D01*
X-7350000Y-22071428D01*
X-7207143Y-22000000D01*
X-6421429Y-22000000D01*
X-7207143Y-22000000D02*
X-7350000Y-21928571D01*
X-7421429Y-21785714D01*
X-7421429Y-21571428D01*
X-7350000Y-21428571D01*
X-7207143Y-21357142D01*
X-6421429Y-21357142D01*
X-5000000Y-52000000D02*
X-5000000Y-3000000D01*
X3000000Y-52000000D02*
X-5586421Y-52000000D01*
X3000000Y-3000000D02*
X-5586421Y-3000000D01*
X-5000000Y-3000000D02*
X-4413579Y-4126504D01*
X-5000000Y-3000000D02*
X-5586421Y-4126504D01*
X-5000000Y-52000000D02*
X-4413579Y-50873496D01*
X-5000000Y-52000000D02*
X-5586421Y-50873496D01*
X-7921429Y-86428571D02*
X-7921429Y-87142857D01*
X-7207143Y-87214285D01*
X-7278572Y-87142857D01*
X-7350000Y-87000000D01*
X-7350000Y-86642857D01*
X-7278572Y-86500000D01*
X-7207143Y-86428571D01*
X-7064286Y-86357142D01*
X-6707143Y-86357142D01*
X-6564286Y-86428571D01*
X-6492858Y-86500000D01*
X-6421429Y-86642857D01*
X-6421429Y-87000000D01*
X-6492858Y-87142857D01*
X-6564286Y-87214285D01*
X-7278572Y-85500000D02*
X-7350000Y-85642857D01*
X-7421429Y-85714285D01*
X-7564286Y-85785714D01*
X-7635715Y-85785714D01*
X-7778572Y-85714285D01*
X-7850000Y-85642857D01*
X-7921429Y-85500000D01*
X-7921429Y-85214285D01*
X-7850000Y-85071428D01*
X-7778572Y-85000000D01*
X-7635715Y-84928571D01*
X-7564286Y-84928571D01*
X-7421429Y-85000000D01*
X-7350000Y-85071428D01*
X-7278572Y-85214285D01*
X-7278572Y-85500000D01*
X-7207143Y-85642857D01*
X-7135715Y-85714285D01*
X-6992858Y-85785714D01*
X-6707143Y-85785714D01*
X-6564286Y-85714285D01*
X-6492858Y-85642857D01*
X-6421429Y-85500000D01*
X-6421429Y-85214285D01*
X-6492858Y-85071428D01*
X-6564286Y-85000000D01*
X-6707143Y-84928571D01*
X-6992858Y-84928571D01*
X-7135715Y-85000000D01*
X-7207143Y-85071428D01*
X-7278572Y-85214285D01*
X-6564286Y-84285714D02*
X-6492858Y-84214285D01*
X-6421429Y-84285714D01*
X-6492858Y-84357142D01*
X-6564286Y-84285714D01*
X-6421429Y-84285714D01*
X-7921429Y-83285714D02*
X-7921429Y-83142857D01*
X-7850000Y-83000000D01*
X-7778572Y-82928571D01*
X-7635715Y-82857142D01*
X-7350000Y-82785714D01*
X-6992858Y-82785714D01*
X-6707143Y-82857142D01*
X-6564286Y-82928571D01*
X-6492858Y-83000000D01*
X-6421429Y-83142857D01*
X-6421429Y-83285714D01*
X-6492858Y-83428571D01*
X-6564286Y-83500000D01*
X-6707143Y-83571428D01*
X-6992858Y-83642857D01*
X-7350000Y-83642857D01*
X-7635715Y-83571428D01*
X-7778572Y-83500000D01*
X-7850000Y-83428571D01*
X-7921429Y-83285714D01*
X-7921429Y-81857142D02*
X-7921429Y-81714285D01*
X-7850000Y-81571428D01*
X-7778572Y-81500000D01*
X-7635715Y-81428571D01*
X-7350000Y-81357142D01*
X-6992858Y-81357142D01*
X-6707143Y-81428571D01*
X-6564286Y-81500000D01*
X-6492858Y-81571428D01*
X-6421429Y-81714285D01*
X-6421429Y-81857142D01*
X-6492858Y-82000000D01*
X-6564286Y-82071428D01*
X-6707143Y-82142857D01*
X-6992858Y-82214285D01*
X-7350000Y-82214285D01*
X-7635715Y-82142857D01*
X-7778572Y-82071428D01*
X-7850000Y-82000000D01*
X-7921429Y-81857142D01*
X-7921429Y-80428571D02*
X-7921429Y-80285714D01*
X-7850000Y-80142857D01*
X-7778572Y-80071428D01*
X-7635715Y-80000000D01*
X-7350000Y-79928571D01*
X-6992858Y-79928571D01*
X-6707143Y-80000000D01*
X-6564286Y-80071428D01*
X-6492858Y-80142857D01*
X-6421429Y-80285714D01*
X-6421429Y-80428571D01*
X-6492858Y-80571428D01*
X-6564286Y-80642857D01*
X-6707143Y-80714285D01*
X-6992858Y-80785714D01*
X-7350000Y-80785714D01*
X-7635715Y-80714285D01*
X-7778572Y-80642857D01*
X-7850000Y-80571428D01*
X-7921429Y-80428571D01*
X-6421429Y-78142857D02*
X-7421429Y-78142857D01*
X-7278572Y-78142857D02*
X-7350000Y-78071428D01*
X-7421429Y-77928571D01*
X-7421429Y-77714285D01*
X-7350000Y-77571428D01*
X-7207143Y-77500000D01*
X-6421429Y-77500000D01*
X-7207143Y-77500000D02*
X-7350000Y-77428571D01*
X-7421429Y-77285714D01*
X-7421429Y-77071428D01*
X-7350000Y-76928571D01*
X-7207143Y-76857142D01*
X-6421429Y-76857142D01*
X-6421429Y-76142857D02*
X-7421429Y-76142857D01*
X-7278572Y-76142857D02*
X-7350000Y-76071428D01*
X-7421429Y-75928571D01*
X-7421429Y-75714285D01*
X-7350000Y-75571428D01*
X-7207143Y-75500000D01*
X-6421429Y-75500000D01*
X-7207143Y-75500000D02*
X-7350000Y-75428571D01*
X-7421429Y-75285714D01*
X-7421429Y-75071428D01*
X-7350000Y-74928571D01*
X-7207143Y-74857142D01*
X-6421429Y-74857142D01*
X-5000000Y-110000000D02*
X-5000000Y-52000000D01*
X3000000Y-110000000D02*
X-5586421Y-110000000D01*
X3000000Y-52000000D02*
X-5586421Y-52000000D01*
X-5000000Y-52000000D02*
X-4413579Y-53126504D01*
X-5000000Y-52000000D02*
X-5586421Y-53126504D01*
X-5000000Y-110000000D02*
X-4413579Y-108873496D01*
X-5000000Y-110000000D02*
X-5586421Y-108873496D01*
D11*
X58945000Y-15487000D02*
X58945000Y-12827000D01*
X41105000Y-15487000D02*
X58945000Y-15487000D01*
X41105000Y-12827000D02*
X58945000Y-12827000D01*
X41105000Y-15487000D02*
X41105000Y-12827000D01*
X39835000Y-15487000D02*
X38505000Y-15487000D01*
X38505000Y-15487000D02*
X38505000Y-14157000D01*
X42461000Y-94351000D02*
X44401000Y-94351000D01*
X37281000Y-94351000D02*
X39401000Y-94351000D01*
X37281000Y-106651000D02*
X37281000Y-94351000D01*
X39401000Y-106651000D02*
X37281000Y-106651000D01*
X44401000Y-106651000D02*
X42461000Y-106651000D01*
X49581000Y-106651000D02*
X47461000Y-106651000D01*
X49581000Y-94351000D02*
X49581000Y-106651000D01*
X47461000Y-94351000D02*
X49581000Y-94351000D01*
X47970050Y-100601000D02*
G75*
G03X47970050Y-100601000I-4579050J0D01*
G01*
X31206050Y-100517000D02*
G75*
G03X31206050Y-100517000I-4579050J0D01*
G01*
X30697000Y-94267000D02*
X32817000Y-94267000D01*
X32817000Y-94267000D02*
X32817000Y-106567000D01*
X32817000Y-106567000D02*
X30697000Y-106567000D01*
X27637000Y-106567000D02*
X25697000Y-106567000D01*
X22637000Y-106567000D02*
X20517000Y-106567000D01*
X20517000Y-106567000D02*
X20517000Y-94267000D01*
X20517000Y-94267000D02*
X22637000Y-94267000D01*
X25697000Y-94267000D02*
X27637000Y-94267000D01*
X11530000Y-94267000D02*
X13470000Y-94267000D01*
X6350000Y-94267000D02*
X8470000Y-94267000D01*
X6350000Y-106567000D02*
X6350000Y-94267000D01*
X8470000Y-106567000D02*
X6350000Y-106567000D01*
X13470000Y-106567000D02*
X11530000Y-106567000D01*
X18650000Y-106567000D02*
X16530000Y-106567000D01*
X18650000Y-94267000D02*
X18650000Y-106567000D01*
X16530000Y-94267000D02*
X18650000Y-94267000D01*
X17039050Y-100517000D02*
G75*
G03X17039050Y-100517000I-4579050J0D01*
G01*
X65242050Y-46350000D02*
G75*
G03X65242050Y-46350000I-4579050J0D01*
G01*
X64733000Y-40100000D02*
X66853000Y-40100000D01*
X66853000Y-40100000D02*
X66853000Y-52400000D01*
X66853000Y-52400000D02*
X64733000Y-52400000D01*
X61673000Y-52400000D02*
X59733000Y-52400000D01*
X56673000Y-52400000D02*
X54553000Y-52400000D01*
X54553000Y-52400000D02*
X54553000Y-40100000D01*
X54553000Y-40100000D02*
X56673000Y-40100000D01*
X59733000Y-40100000D02*
X61673000Y-40100000D01*
X36873000Y-40100000D02*
X38813000Y-40100000D01*
X31693000Y-40100000D02*
X33813000Y-40100000D01*
X31693000Y-52400000D02*
X31693000Y-40100000D01*
X33813000Y-52400000D02*
X31693000Y-52400000D01*
X38813000Y-52400000D02*
X36873000Y-52400000D01*
X43993000Y-52400000D02*
X41873000Y-52400000D01*
X43993000Y-40100000D02*
X43993000Y-52400000D01*
X41873000Y-40100000D02*
X43993000Y-40100000D01*
X42382050Y-46350000D02*
G75*
G03X42382050Y-46350000I-4579050J0D01*
G01*
X64353050Y-100644000D02*
G75*
G03X64353050Y-100644000I-4579050J0D01*
G01*
X63844000Y-94394000D02*
X65964000Y-94394000D01*
X65964000Y-94394000D02*
X65964000Y-106694000D01*
X65964000Y-106694000D02*
X63844000Y-106694000D01*
X60784000Y-106694000D02*
X58844000Y-106694000D01*
X55784000Y-106694000D02*
X53664000Y-106694000D01*
X53664000Y-106694000D02*
X53664000Y-94394000D01*
X53664000Y-94394000D02*
X55784000Y-94394000D01*
X58844000Y-94394000D02*
X60784000Y-94394000D01*
X87600000Y-106329000D02*
X86270000Y-106329000D01*
X87600000Y-104999000D02*
X87600000Y-106329000D01*
X87600000Y-103729000D02*
X84940000Y-103729000D01*
X84940000Y-103729000D02*
X84940000Y-75729000D01*
X87600000Y-103729000D02*
X87600000Y-75729000D01*
X87600000Y-75729000D02*
X84940000Y-75729000D01*
X49382000Y-78832936D02*
X49382000Y-80037064D01*
X51202000Y-78832936D02*
X51202000Y-80037064D01*
X57129000Y-78832936D02*
X57129000Y-80037064D01*
X58949000Y-78832936D02*
X58949000Y-80037064D01*
X47265000Y-72925064D02*
X47265000Y-71720936D01*
X45445000Y-72925064D02*
X45445000Y-71720936D01*
X54377000Y-80037064D02*
X54377000Y-78832936D01*
X52557000Y-80037064D02*
X52557000Y-78832936D01*
X15176000Y-83277936D02*
X15176000Y-84482064D01*
X16996000Y-83277936D02*
X16996000Y-84482064D01*
X29697000Y-81245936D02*
X29697000Y-82450064D01*
X31517000Y-81245936D02*
X31517000Y-82450064D01*
X26903000Y-81209436D02*
X26903000Y-82413564D01*
X28723000Y-81209436D02*
X28723000Y-82413564D01*
X12382000Y-76292936D02*
X12382000Y-77497064D01*
X14202000Y-76292936D02*
X14202000Y-77497064D01*
X15176000Y-88484936D02*
X15176000Y-89689064D01*
X16996000Y-88484936D02*
X16996000Y-89689064D01*
X51456000Y-72925064D02*
X51456000Y-71720936D01*
X49636000Y-72925064D02*
X49636000Y-71720936D01*
X46460000Y-80037064D02*
X46460000Y-78832936D01*
X44640000Y-80037064D02*
X44640000Y-78832936D01*
X43201000Y-72925064D02*
X43201000Y-71720936D01*
X41381000Y-72925064D02*
X41381000Y-71720936D01*
X9250000Y-83277936D02*
X9250000Y-84482064D01*
X11070000Y-83277936D02*
X11070000Y-84482064D01*
X29769064Y-87669000D02*
X28564936Y-87669000D01*
X29769064Y-89489000D02*
X28564936Y-89489000D01*
X70633000Y-68861064D02*
X70633000Y-67656936D01*
X68813000Y-68861064D02*
X68813000Y-67656936D01*
X60685000Y-78832936D02*
X60685000Y-80037064D01*
X62505000Y-78832936D02*
X62505000Y-80037064D01*
X71310000Y-77689936D02*
X71310000Y-78894064D01*
X73130000Y-77689936D02*
X73130000Y-78894064D01*
X65976000Y-77689936D02*
X65976000Y-78894064D01*
X67796000Y-77689936D02*
X67796000Y-78894064D01*
D12*
X2238095Y-49102380D02*
X2238095Y-48102380D01*
X2238095Y-48578571D02*
X2809523Y-48578571D01*
X2809523Y-49102380D02*
X2809523Y-48102380D01*
X3714285Y-48102380D02*
X3523809Y-48102380D01*
X3428571Y-48150000D01*
X3380952Y-48197619D01*
X3285714Y-48340476D01*
X3238095Y-48530952D01*
X3238095Y-48911904D01*
X3285714Y-49007142D01*
X3333333Y-49054761D01*
X3428571Y-49102380D01*
X3619047Y-49102380D01*
X3714285Y-49054761D01*
X3761904Y-49007142D01*
X3809523Y-48911904D01*
X3809523Y-48673809D01*
X3761904Y-48578571D01*
X3714285Y-48530952D01*
X3619047Y-48483333D01*
X3428571Y-48483333D01*
X3333333Y-48530952D01*
X3285714Y-48578571D01*
X3238095Y-48673809D01*
X86238095Y-50102380D02*
X86238095Y-49102380D01*
X86238095Y-49578571D02*
X86809523Y-49578571D01*
X86809523Y-50102380D02*
X86809523Y-49102380D01*
X87761904Y-49102380D02*
X87285714Y-49102380D01*
X87238095Y-49578571D01*
X87285714Y-49530952D01*
X87380952Y-49483333D01*
X87619047Y-49483333D01*
X87714285Y-49530952D01*
X87761904Y-49578571D01*
X87809523Y-49673809D01*
X87809523Y-49911904D01*
X87761904Y-50007142D01*
X87714285Y-50054761D01*
X87619047Y-50102380D01*
X87380952Y-50102380D01*
X87285714Y-50054761D01*
X87238095Y-50007142D01*
X36957380Y-14490333D02*
X37671666Y-14490333D01*
X37814523Y-14537952D01*
X37909761Y-14633190D01*
X37957380Y-14776047D01*
X37957380Y-14871285D01*
X37052619Y-14061761D02*
X37005000Y-14014142D01*
X36957380Y-13918904D01*
X36957380Y-13680809D01*
X37005000Y-13585571D01*
X37052619Y-13537952D01*
X37147857Y-13490333D01*
X37243095Y-13490333D01*
X37385952Y-13537952D01*
X37957380Y-14109380D01*
X37957380Y-13490333D01*
X50995761Y-101934333D02*
X51043380Y-101791476D01*
X51043380Y-101553380D01*
X50995761Y-101458142D01*
X50948142Y-101410523D01*
X50852904Y-101362904D01*
X50757666Y-101362904D01*
X50662428Y-101410523D01*
X50614809Y-101458142D01*
X50567190Y-101553380D01*
X50519571Y-101743857D01*
X50471952Y-101839095D01*
X50424333Y-101886714D01*
X50329095Y-101934333D01*
X50233857Y-101934333D01*
X50138619Y-101886714D01*
X50091000Y-101839095D01*
X50043380Y-101743857D01*
X50043380Y-101505761D01*
X50091000Y-101362904D01*
X50043380Y-101029571D02*
X51043380Y-100791476D01*
X50329095Y-100601000D01*
X51043380Y-100410523D01*
X50043380Y-100172428D01*
X50043380Y-99362904D02*
X50043380Y-99553380D01*
X50091000Y-99648619D01*
X50138619Y-99696238D01*
X50281476Y-99791476D01*
X50471952Y-99839095D01*
X50852904Y-99839095D01*
X50948142Y-99791476D01*
X50995761Y-99743857D01*
X51043380Y-99648619D01*
X51043380Y-99458142D01*
X50995761Y-99362904D01*
X50948142Y-99315285D01*
X50852904Y-99267666D01*
X50614809Y-99267666D01*
X50519571Y-99315285D01*
X50471952Y-99362904D01*
X50424333Y-99458142D01*
X50424333Y-99648619D01*
X50471952Y-99743857D01*
X50519571Y-99791476D01*
X50614809Y-99839095D01*
X34231761Y-101850333D02*
X34279380Y-101707476D01*
X34279380Y-101469380D01*
X34231761Y-101374142D01*
X34184142Y-101326523D01*
X34088904Y-101278904D01*
X33993666Y-101278904D01*
X33898428Y-101326523D01*
X33850809Y-101374142D01*
X33803190Y-101469380D01*
X33755571Y-101659857D01*
X33707952Y-101755095D01*
X33660333Y-101802714D01*
X33565095Y-101850333D01*
X33469857Y-101850333D01*
X33374619Y-101802714D01*
X33327000Y-101755095D01*
X33279380Y-101659857D01*
X33279380Y-101421761D01*
X33327000Y-101278904D01*
X33279380Y-100945571D02*
X34279380Y-100707476D01*
X33565095Y-100517000D01*
X34279380Y-100326523D01*
X33279380Y-100088428D01*
X33279380Y-99231285D02*
X33279380Y-99707476D01*
X33755571Y-99755095D01*
X33707952Y-99707476D01*
X33660333Y-99612238D01*
X33660333Y-99374142D01*
X33707952Y-99278904D01*
X33755571Y-99231285D01*
X33850809Y-99183666D01*
X34088904Y-99183666D01*
X34184142Y-99231285D01*
X34231761Y-99278904D01*
X34279380Y-99374142D01*
X34279380Y-99612238D01*
X34231761Y-99707476D01*
X34184142Y-99755095D01*
X20064761Y-101850333D02*
X20112380Y-101707476D01*
X20112380Y-101469380D01*
X20064761Y-101374142D01*
X20017142Y-101326523D01*
X19921904Y-101278904D01*
X19826666Y-101278904D01*
X19731428Y-101326523D01*
X19683809Y-101374142D01*
X19636190Y-101469380D01*
X19588571Y-101659857D01*
X19540952Y-101755095D01*
X19493333Y-101802714D01*
X19398095Y-101850333D01*
X19302857Y-101850333D01*
X19207619Y-101802714D01*
X19160000Y-101755095D01*
X19112380Y-101659857D01*
X19112380Y-101421761D01*
X19160000Y-101278904D01*
X19112380Y-100945571D02*
X20112380Y-100707476D01*
X19398095Y-100517000D01*
X20112380Y-100326523D01*
X19112380Y-100088428D01*
X19445714Y-99278904D02*
X20112380Y-99278904D01*
X19064761Y-99517000D02*
X19779047Y-99755095D01*
X19779047Y-99136047D01*
X68267761Y-47683333D02*
X68315380Y-47540476D01*
X68315380Y-47302380D01*
X68267761Y-47207142D01*
X68220142Y-47159523D01*
X68124904Y-47111904D01*
X68029666Y-47111904D01*
X67934428Y-47159523D01*
X67886809Y-47207142D01*
X67839190Y-47302380D01*
X67791571Y-47492857D01*
X67743952Y-47588095D01*
X67696333Y-47635714D01*
X67601095Y-47683333D01*
X67505857Y-47683333D01*
X67410619Y-47635714D01*
X67363000Y-47588095D01*
X67315380Y-47492857D01*
X67315380Y-47254761D01*
X67363000Y-47111904D01*
X67315380Y-46778571D02*
X68315380Y-46540476D01*
X67601095Y-46350000D01*
X68315380Y-46159523D01*
X67315380Y-45921428D01*
X67315380Y-45635714D02*
X67315380Y-45016666D01*
X67696333Y-45350000D01*
X67696333Y-45207142D01*
X67743952Y-45111904D01*
X67791571Y-45064285D01*
X67886809Y-45016666D01*
X68124904Y-45016666D01*
X68220142Y-45064285D01*
X68267761Y-45111904D01*
X68315380Y-45207142D01*
X68315380Y-45492857D01*
X68267761Y-45588095D01*
X68220142Y-45635714D01*
X45407761Y-47683333D02*
X45455380Y-47540476D01*
X45455380Y-47302380D01*
X45407761Y-47207142D01*
X45360142Y-47159523D01*
X45264904Y-47111904D01*
X45169666Y-47111904D01*
X45074428Y-47159523D01*
X45026809Y-47207142D01*
X44979190Y-47302380D01*
X44931571Y-47492857D01*
X44883952Y-47588095D01*
X44836333Y-47635714D01*
X44741095Y-47683333D01*
X44645857Y-47683333D01*
X44550619Y-47635714D01*
X44503000Y-47588095D01*
X44455380Y-47492857D01*
X44455380Y-47254761D01*
X44503000Y-47111904D01*
X44455380Y-46778571D02*
X45455380Y-46540476D01*
X44741095Y-46350000D01*
X45455380Y-46159523D01*
X44455380Y-45921428D01*
X44550619Y-45588095D02*
X44503000Y-45540476D01*
X44455380Y-45445238D01*
X44455380Y-45207142D01*
X44503000Y-45111904D01*
X44550619Y-45064285D01*
X44645857Y-45016666D01*
X44741095Y-45016666D01*
X44883952Y-45064285D01*
X45455380Y-45635714D01*
X45455380Y-45016666D01*
X67378761Y-101977333D02*
X67426380Y-101834476D01*
X67426380Y-101596380D01*
X67378761Y-101501142D01*
X67331142Y-101453523D01*
X67235904Y-101405904D01*
X67140666Y-101405904D01*
X67045428Y-101453523D01*
X66997809Y-101501142D01*
X66950190Y-101596380D01*
X66902571Y-101786857D01*
X66854952Y-101882095D01*
X66807333Y-101929714D01*
X66712095Y-101977333D01*
X66616857Y-101977333D01*
X66521619Y-101929714D01*
X66474000Y-101882095D01*
X66426380Y-101786857D01*
X66426380Y-101548761D01*
X66474000Y-101405904D01*
X66426380Y-101072571D02*
X67426380Y-100834476D01*
X66712095Y-100644000D01*
X67426380Y-100453523D01*
X66426380Y-100215428D01*
X67426380Y-99310666D02*
X67426380Y-99882095D01*
X67426380Y-99596380D02*
X66426380Y-99596380D01*
X66569238Y-99691619D01*
X66664476Y-99786857D01*
X66712095Y-99882095D01*
X85936666Y-106781380D02*
X85936666Y-107495666D01*
X85889047Y-107638523D01*
X85793809Y-107733761D01*
X85650952Y-107781380D01*
X85555714Y-107781380D01*
X86936666Y-107781380D02*
X86365238Y-107781380D01*
X86650952Y-107781380D02*
X86650952Y-106781380D01*
X86555714Y-106924238D01*
X86460476Y-107019476D01*
X86365238Y-107067095D01*
X86238095Y-107102380D02*
X86238095Y-106102380D01*
X86238095Y-106578571D02*
X86809523Y-106578571D01*
X86809523Y-107102380D02*
X86809523Y-106102380D01*
X87190476Y-106102380D02*
X87809523Y-106102380D01*
X87476190Y-106483333D01*
X87619047Y-106483333D01*
X87714285Y-106530952D01*
X87761904Y-106578571D01*
X87809523Y-106673809D01*
X87809523Y-106911904D01*
X87761904Y-107007142D01*
X87714285Y-107054761D01*
X87619047Y-107102380D01*
X87333333Y-107102380D01*
X87238095Y-107054761D01*
X87190476Y-107007142D01*
X2238095Y-107102380D02*
X2238095Y-106102380D01*
X2238095Y-106578571D02*
X2809523Y-106578571D01*
X2809523Y-107102380D02*
X2809523Y-106102380D01*
X3809523Y-107102380D02*
X3238095Y-107102380D01*
X3523809Y-107102380D02*
X3523809Y-106102380D01*
X3428571Y-106245238D01*
X3333333Y-106340476D01*
X3238095Y-106388095D01*
X2238095Y-102380D02*
X2238095Y897620D01*
X2238095Y421429D02*
X2809523Y421429D01*
X2809523Y-102380D02*
X2809523Y897620D01*
X3238095Y802381D02*
X3285714Y850000D01*
X3380952Y897620D01*
X3619047Y897620D01*
X3714285Y850000D01*
X3761904Y802381D01*
X3809523Y707143D01*
X3809523Y611905D01*
X3761904Y469048D01*
X3190476Y-102380D01*
X3809523Y-102380D01*
X86238095Y-102380D02*
X86238095Y897620D01*
X86238095Y421429D02*
X86809523Y421429D01*
X86809523Y-102380D02*
X86809523Y897620D01*
X87714285Y564286D02*
X87714285Y-102380D01*
X87476190Y945239D02*
X87238095Y230953D01*
X87857142Y230953D01*
X52564380Y-79601666D02*
X52088190Y-79935000D01*
X52564380Y-80173095D02*
X51564380Y-80173095D01*
X51564380Y-79792142D01*
X51612000Y-79696904D01*
X51659619Y-79649285D01*
X51754857Y-79601666D01*
X51897714Y-79601666D01*
X51992952Y-79649285D01*
X52040571Y-79696904D01*
X52088190Y-79792142D01*
X52088190Y-80173095D01*
X51564380Y-79268333D02*
X51564380Y-78649285D01*
X51945333Y-78982619D01*
X51945333Y-78839761D01*
X51992952Y-78744523D01*
X52040571Y-78696904D01*
X52135809Y-78649285D01*
X52373904Y-78649285D01*
X52469142Y-78696904D01*
X52516761Y-78744523D01*
X52564380Y-78839761D01*
X52564380Y-79125476D01*
X52516761Y-79220714D01*
X52469142Y-79268333D01*
X60311380Y-79601666D02*
X59835190Y-79935000D01*
X60311380Y-80173095D02*
X59311380Y-80173095D01*
X59311380Y-79792142D01*
X59359000Y-79696904D01*
X59406619Y-79649285D01*
X59501857Y-79601666D01*
X59644714Y-79601666D01*
X59739952Y-79649285D01*
X59787571Y-79696904D01*
X59835190Y-79792142D01*
X59835190Y-80173095D01*
X59311380Y-78696904D02*
X59311380Y-79173095D01*
X59787571Y-79220714D01*
X59739952Y-79173095D01*
X59692333Y-79077857D01*
X59692333Y-78839761D01*
X59739952Y-78744523D01*
X59787571Y-78696904D01*
X59882809Y-78649285D01*
X60120904Y-78649285D01*
X60216142Y-78696904D01*
X60263761Y-78744523D01*
X60311380Y-78839761D01*
X60311380Y-79077857D01*
X60263761Y-79173095D01*
X60216142Y-79220714D01*
X44368333Y-72680142D02*
X44320714Y-72727761D01*
X44177857Y-72775380D01*
X44082619Y-72775380D01*
X43939761Y-72727761D01*
X43844523Y-72632523D01*
X43796904Y-72537285D01*
X43749285Y-72346809D01*
X43749285Y-72203952D01*
X43796904Y-72013476D01*
X43844523Y-71918238D01*
X43939761Y-71823000D01*
X44082619Y-71775380D01*
X44177857Y-71775380D01*
X44320714Y-71823000D01*
X44368333Y-71870619D01*
X45320714Y-72775380D02*
X44749285Y-72775380D01*
X45035000Y-72775380D02*
X45035000Y-71775380D01*
X44939761Y-71918238D01*
X44844523Y-72013476D01*
X44749285Y-72061095D01*
X52004142Y-79601666D02*
X52051761Y-79649285D01*
X52099380Y-79792142D01*
X52099380Y-79887380D01*
X52051761Y-80030238D01*
X51956523Y-80125476D01*
X51861285Y-80173095D01*
X51670809Y-80220714D01*
X51527952Y-80220714D01*
X51337476Y-80173095D01*
X51242238Y-80125476D01*
X51147000Y-80030238D01*
X51099380Y-79887380D01*
X51099380Y-79792142D01*
X51147000Y-79649285D01*
X51194619Y-79601666D01*
X51099380Y-79268333D02*
X51099380Y-78649285D01*
X51480333Y-78982619D01*
X51480333Y-78839761D01*
X51527952Y-78744523D01*
X51575571Y-78696904D01*
X51670809Y-78649285D01*
X51908904Y-78649285D01*
X52004142Y-78696904D01*
X52051761Y-78744523D01*
X52099380Y-78839761D01*
X52099380Y-79125476D01*
X52051761Y-79220714D01*
X52004142Y-79268333D01*
X18263142Y-84046666D02*
X18310761Y-84094285D01*
X18358380Y-84237142D01*
X18358380Y-84332380D01*
X18310761Y-84475238D01*
X18215523Y-84570476D01*
X18120285Y-84618095D01*
X17929809Y-84665714D01*
X17786952Y-84665714D01*
X17596476Y-84618095D01*
X17501238Y-84570476D01*
X17406000Y-84475238D01*
X17358380Y-84332380D01*
X17358380Y-84237142D01*
X17406000Y-84094285D01*
X17453619Y-84046666D01*
X17691714Y-83189523D02*
X18358380Y-83189523D01*
X17310761Y-83427619D02*
X18025047Y-83665714D01*
X18025047Y-83046666D01*
X32784142Y-82014666D02*
X32831761Y-82062285D01*
X32879380Y-82205142D01*
X32879380Y-82300380D01*
X32831761Y-82443238D01*
X32736523Y-82538476D01*
X32641285Y-82586095D01*
X32450809Y-82633714D01*
X32307952Y-82633714D01*
X32117476Y-82586095D01*
X32022238Y-82538476D01*
X31927000Y-82443238D01*
X31879380Y-82300380D01*
X31879380Y-82205142D01*
X31927000Y-82062285D01*
X31974619Y-82014666D01*
X31879380Y-81109904D02*
X31879380Y-81586095D01*
X32355571Y-81633714D01*
X32307952Y-81586095D01*
X32260333Y-81490857D01*
X32260333Y-81252761D01*
X32307952Y-81157523D01*
X32355571Y-81109904D01*
X32450809Y-81062285D01*
X32688904Y-81062285D01*
X32784142Y-81109904D01*
X32831761Y-81157523D01*
X32879380Y-81252761D01*
X32879380Y-81490857D01*
X32831761Y-81586095D01*
X32784142Y-81633714D01*
X29990142Y-81978166D02*
X30037761Y-82025785D01*
X30085380Y-82168642D01*
X30085380Y-82263880D01*
X30037761Y-82406738D01*
X29942523Y-82501976D01*
X29847285Y-82549595D01*
X29656809Y-82597214D01*
X29513952Y-82597214D01*
X29323476Y-82549595D01*
X29228238Y-82501976D01*
X29133000Y-82406738D01*
X29085380Y-82263880D01*
X29085380Y-82168642D01*
X29133000Y-82025785D01*
X29180619Y-81978166D01*
X29085380Y-81121023D02*
X29085380Y-81311500D01*
X29133000Y-81406738D01*
X29180619Y-81454357D01*
X29323476Y-81549595D01*
X29513952Y-81597214D01*
X29894904Y-81597214D01*
X29990142Y-81549595D01*
X30037761Y-81501976D01*
X30085380Y-81406738D01*
X30085380Y-81216261D01*
X30037761Y-81121023D01*
X29990142Y-81073404D01*
X29894904Y-81025785D01*
X29656809Y-81025785D01*
X29561571Y-81073404D01*
X29513952Y-81121023D01*
X29466333Y-81216261D01*
X29466333Y-81406738D01*
X29513952Y-81501976D01*
X29561571Y-81549595D01*
X29656809Y-81597214D01*
X15469142Y-77061666D02*
X15516761Y-77109285D01*
X15564380Y-77252142D01*
X15564380Y-77347380D01*
X15516761Y-77490238D01*
X15421523Y-77585476D01*
X15326285Y-77633095D01*
X15135809Y-77680714D01*
X14992952Y-77680714D01*
X14802476Y-77633095D01*
X14707238Y-77585476D01*
X14612000Y-77490238D01*
X14564380Y-77347380D01*
X14564380Y-77252142D01*
X14612000Y-77109285D01*
X14659619Y-77061666D01*
X14659619Y-76680714D02*
X14612000Y-76633095D01*
X14564380Y-76537857D01*
X14564380Y-76299761D01*
X14612000Y-76204523D01*
X14659619Y-76156904D01*
X14754857Y-76109285D01*
X14850095Y-76109285D01*
X14992952Y-76156904D01*
X15564380Y-76728333D01*
X15564380Y-76109285D01*
X18358380Y-89253666D02*
X17882190Y-89587000D01*
X18358380Y-89825095D02*
X17358380Y-89825095D01*
X17358380Y-89444142D01*
X17406000Y-89348904D01*
X17453619Y-89301285D01*
X17548857Y-89253666D01*
X17691714Y-89253666D01*
X17786952Y-89301285D01*
X17834571Y-89348904D01*
X17882190Y-89444142D01*
X17882190Y-89825095D01*
X17786952Y-88682238D02*
X17739333Y-88777476D01*
X17691714Y-88825095D01*
X17596476Y-88872714D01*
X17548857Y-88872714D01*
X17453619Y-88825095D01*
X17406000Y-88777476D01*
X17358380Y-88682238D01*
X17358380Y-88491761D01*
X17406000Y-88396523D01*
X17453619Y-88348904D01*
X17548857Y-88301285D01*
X17596476Y-88301285D01*
X17691714Y-88348904D01*
X17739333Y-88396523D01*
X17786952Y-88491761D01*
X17786952Y-88682238D01*
X17834571Y-88777476D01*
X17882190Y-88825095D01*
X17977428Y-88872714D01*
X18167904Y-88872714D01*
X18263142Y-88825095D01*
X18310761Y-88777476D01*
X18358380Y-88682238D01*
X18358380Y-88491761D01*
X18310761Y-88396523D01*
X18263142Y-88348904D01*
X18167904Y-88301285D01*
X17977428Y-88301285D01*
X17882190Y-88348904D01*
X17834571Y-88396523D01*
X17786952Y-88491761D01*
X49178380Y-72489666D02*
X48702190Y-72823000D01*
X49178380Y-73061095D02*
X48178380Y-73061095D01*
X48178380Y-72680142D01*
X48226000Y-72584904D01*
X48273619Y-72537285D01*
X48368857Y-72489666D01*
X48511714Y-72489666D01*
X48606952Y-72537285D01*
X48654571Y-72584904D01*
X48702190Y-72680142D01*
X48702190Y-73061095D01*
X48178380Y-71632523D02*
X48178380Y-71823000D01*
X48226000Y-71918238D01*
X48273619Y-71965857D01*
X48416476Y-72061095D01*
X48606952Y-72108714D01*
X48987904Y-72108714D01*
X49083142Y-72061095D01*
X49130761Y-72013476D01*
X49178380Y-71918238D01*
X49178380Y-71727761D01*
X49130761Y-71632523D01*
X49083142Y-71584904D01*
X48987904Y-71537285D01*
X48749809Y-71537285D01*
X48654571Y-71584904D01*
X48606952Y-71632523D01*
X48559333Y-71727761D01*
X48559333Y-71918238D01*
X48606952Y-72013476D01*
X48654571Y-72061095D01*
X48749809Y-72108714D01*
X44182380Y-79601666D02*
X43706190Y-79935000D01*
X44182380Y-80173095D02*
X43182380Y-80173095D01*
X43182380Y-79792142D01*
X43230000Y-79696904D01*
X43277619Y-79649285D01*
X43372857Y-79601666D01*
X43515714Y-79601666D01*
X43610952Y-79649285D01*
X43658571Y-79696904D01*
X43706190Y-79792142D01*
X43706190Y-80173095D01*
X44182380Y-78649285D02*
X44182380Y-79220714D01*
X44182380Y-78935000D02*
X43182380Y-78935000D01*
X43325238Y-79030238D01*
X43420476Y-79125476D01*
X43468095Y-79220714D01*
X40923380Y-72489666D02*
X40447190Y-72823000D01*
X40923380Y-73061095D02*
X39923380Y-73061095D01*
X39923380Y-72680142D01*
X39971000Y-72584904D01*
X40018619Y-72537285D01*
X40113857Y-72489666D01*
X40256714Y-72489666D01*
X40351952Y-72537285D01*
X40399571Y-72584904D01*
X40447190Y-72680142D01*
X40447190Y-73061095D01*
X40018619Y-72108714D02*
X39971000Y-72061095D01*
X39923380Y-71965857D01*
X39923380Y-71727761D01*
X39971000Y-71632523D01*
X40018619Y-71584904D01*
X40113857Y-71537285D01*
X40209095Y-71537285D01*
X40351952Y-71584904D01*
X40923380Y-72156333D01*
X40923380Y-71537285D01*
X12432380Y-84046666D02*
X11956190Y-84380000D01*
X12432380Y-84618095D02*
X11432380Y-84618095D01*
X11432380Y-84237142D01*
X11480000Y-84141904D01*
X11527619Y-84094285D01*
X11622857Y-84046666D01*
X11765714Y-84046666D01*
X11860952Y-84094285D01*
X11908571Y-84141904D01*
X11956190Y-84237142D01*
X11956190Y-84618095D01*
X11765714Y-83189523D02*
X12432380Y-83189523D01*
X11384761Y-83427619D02*
X12099047Y-83665714D01*
X12099047Y-83046666D01*
X28524142Y-90851380D02*
X28190809Y-90375190D01*
X27952714Y-90851380D02*
X27952714Y-89851380D01*
X28333666Y-89851380D01*
X28428904Y-89899000D01*
X28476523Y-89946619D01*
X28524142Y-90041857D01*
X28524142Y-90184714D01*
X28476523Y-90279952D01*
X28428904Y-90327571D01*
X28333666Y-90375190D01*
X27952714Y-90375190D01*
X29476523Y-90851380D02*
X28905095Y-90851380D01*
X29190809Y-90851380D02*
X29190809Y-89851380D01*
X29095571Y-89994238D01*
X29000333Y-90089476D01*
X28905095Y-90137095D01*
X30095571Y-89851380D02*
X30190809Y-89851380D01*
X30286047Y-89899000D01*
X30333666Y-89946619D01*
X30381285Y-90041857D01*
X30428904Y-90232333D01*
X30428904Y-90470428D01*
X30381285Y-90660904D01*
X30333666Y-90756142D01*
X30286047Y-90803761D01*
X30190809Y-90851380D01*
X30095571Y-90851380D01*
X30000333Y-90803761D01*
X29952714Y-90756142D01*
X29905095Y-90660904D01*
X29857476Y-90470428D01*
X29857476Y-90232333D01*
X29905095Y-90041857D01*
X29952714Y-89946619D01*
X30000333Y-89899000D01*
X30095571Y-89851380D01*
X68355380Y-68901857D02*
X67879190Y-69235190D01*
X68355380Y-69473285D02*
X67355380Y-69473285D01*
X67355380Y-69092333D01*
X67403000Y-68997095D01*
X67450619Y-68949476D01*
X67545857Y-68901857D01*
X67688714Y-68901857D01*
X67783952Y-68949476D01*
X67831571Y-68997095D01*
X67879190Y-69092333D01*
X67879190Y-69473285D01*
X68355380Y-67949476D02*
X68355380Y-68520904D01*
X68355380Y-68235190D02*
X67355380Y-68235190D01*
X67498238Y-68330428D01*
X67593476Y-68425666D01*
X67641095Y-68520904D01*
X67450619Y-67568523D02*
X67403000Y-67520904D01*
X67355380Y-67425666D01*
X67355380Y-67187571D01*
X67403000Y-67092333D01*
X67450619Y-67044714D01*
X67545857Y-66997095D01*
X67641095Y-66997095D01*
X67783952Y-67044714D01*
X68355380Y-67616142D01*
X68355380Y-66997095D01*
X63867380Y-79601666D02*
X63391190Y-79935000D01*
X63867380Y-80173095D02*
X62867380Y-80173095D01*
X62867380Y-79792142D01*
X62915000Y-79696904D01*
X62962619Y-79649285D01*
X63057857Y-79601666D01*
X63200714Y-79601666D01*
X63295952Y-79649285D01*
X63343571Y-79696904D01*
X63391190Y-79792142D01*
X63391190Y-80173095D01*
X62867380Y-79268333D02*
X62867380Y-78601666D01*
X63867380Y-79030238D01*
X74492380Y-78458666D02*
X74016190Y-78792000D01*
X74492380Y-79030095D02*
X73492380Y-79030095D01*
X73492380Y-78649142D01*
X73540000Y-78553904D01*
X73587619Y-78506285D01*
X73682857Y-78458666D01*
X73825714Y-78458666D01*
X73920952Y-78506285D01*
X73968571Y-78553904D01*
X74016190Y-78649142D01*
X74016190Y-79030095D01*
X74492380Y-77982476D02*
X74492380Y-77792000D01*
X74444761Y-77696761D01*
X74397142Y-77649142D01*
X74254285Y-77553904D01*
X74063809Y-77506285D01*
X73682857Y-77506285D01*
X73587619Y-77553904D01*
X73540000Y-77601523D01*
X73492380Y-77696761D01*
X73492380Y-77887238D01*
X73540000Y-77982476D01*
X73587619Y-78030095D01*
X73682857Y-78077714D01*
X73920952Y-78077714D01*
X74016190Y-78030095D01*
X74063809Y-77982476D01*
X74111428Y-77887238D01*
X74111428Y-77696761D01*
X74063809Y-77601523D01*
X74016190Y-77553904D01*
X73920952Y-77506285D01*
X69158380Y-78934857D02*
X68682190Y-79268190D01*
X69158380Y-79506285D02*
X68158380Y-79506285D01*
X68158380Y-79125333D01*
X68206000Y-79030095D01*
X68253619Y-78982476D01*
X68348857Y-78934857D01*
X68491714Y-78934857D01*
X68586952Y-78982476D01*
X68634571Y-79030095D01*
X68682190Y-79125333D01*
X68682190Y-79506285D01*
X69158380Y-77982476D02*
X69158380Y-78553904D01*
X69158380Y-78268190D02*
X68158380Y-78268190D01*
X68301238Y-78363428D01*
X68396476Y-78458666D01*
X68444095Y-78553904D01*
X69158380Y-77030095D02*
X69158380Y-77601523D01*
X69158380Y-77315809D02*
X68158380Y-77315809D01*
X68301238Y-77411047D01*
X68396476Y-77506285D01*
X68444095Y-77601523D01*
M02*
