M48
;DRILL file {KiCad 5.0.2-bee76a0~70~ubuntu18.04.1} date Wed 20 Mar 2019 12:35:05 AM +07
;FORMAT={-:-/ absolute / inch / decimal}
FMAT,2
INCH,TZ
T1C0.0157
T2C0.0394
T3C0.0472
%
G90
G05
T1
X1.1033Y-3.3774
X1.1747Y-2.9688
X1.2733Y-2.6824
X1.4183Y-2.7824
X1.52Y-2.9059
X1.5683Y-3.1824
X1.6533Y-3.2724
X1.6957Y-3.0688
X1.8883Y-3.5374
X2.105Y-3.2531
X2.1583Y-2.9024
X2.19Y-3.3381
X2.485Y-3.3931
X2.6383Y-2.9174
X2.8433Y-2.9174
X2.9783Y-3.7374
X3.0933Y-1.6774
T2
X1.5683Y-0.5574
X1.6683Y-0.5574
X1.7683Y-0.5574
X1.8683Y-0.5574
X1.9683Y-0.5574
X2.0683Y-0.5574
X2.1683Y-0.5574
X2.2683Y-0.5574
X0.9483Y-0.8574
X0.9483Y-0.9574
X0.9483Y-1.0574
X0.9483Y-1.1574
X0.9483Y-1.2574
X0.9483Y-1.3574
X0.9483Y-1.4574
X0.9483Y-1.5574
X0.9483Y-1.6574
X0.9483Y-1.7574
X0.9483Y-1.8574
X0.9483Y-1.9574
X1.6483Y-0.8574
X1.7483Y-0.8574
X1.8483Y-0.8574
X1.8617Y-1.5074
X1.8617Y-1.6074
X1.9483Y-0.8574
X1.9483Y-0.9574
X1.9483Y-1.0574
X1.9483Y-1.1574
X1.9483Y-1.2574
X1.9483Y-1.3574
X1.9483Y-1.4574
X1.9483Y-1.5574
X1.9483Y-1.6574
X1.9483Y-1.7574
X1.9483Y-1.8574
X1.9483Y-1.9574
X3.3965Y-3.0338
X3.3965Y-3.1338
X3.3965Y-3.2338
X3.3965Y-3.3338
X3.3965Y-3.4338
X3.3965Y-3.5338
X3.3965Y-3.6338
X3.3965Y-3.7338
X3.3965Y-3.8338
X3.3965Y-3.9338
X3.3965Y-4.0338
X3.3965Y-4.1338
T3
X1.3915Y-1.5748
X1.3915Y-2.0669
X1.5883Y-1.5748
X1.5883Y-2.0669
X1.6115Y-3.7107
X1.6115Y-4.2028
X1.8083Y-3.7107
X1.8083Y-4.2028
X2.2565Y-3.7124
X2.2565Y-4.2045
X2.4533Y-3.7124
X2.4533Y-4.2045
X2.2915Y-1.5748
X2.2915Y-2.0669
X2.4883Y-1.5748
X2.4883Y-2.0669
X0.3937Y-3.7074
X0.3937Y-4.1995
X0.5906Y-3.7074
X0.5906Y-4.1995
X0.9515Y-3.7074
X0.9515Y-4.1995
X1.1483Y-3.7074
X1.1483Y-4.1995
T0
M30
