%TF.GenerationSoftware,KiCad,Pcbnew,5.0.2-bee76a0~70~ubuntu18.04.1*%
%TF.CreationDate,2019-03-20T00:35:03+07:00*%
%TF.ProjectId,Display,44697370-6c61-4792-9e6b-696361645f70,rev?*%
%TF.SameCoordinates,PX1036640PY112a880*%
%TF.FileFunction,Paste,Top*%
%TF.FilePolarity,Positive*%
%FSLAX46Y46*%
G04 Gerber Fmt 4.6, Leading zero omitted, Abs format (unit mm)*
G04 Created by KiCad (PCBNEW 5.0.2-bee76a0~70~ubuntu18.04.1) date Wed 20 Mar 2019 12:35:03 AM +07*
%MOMM*%
%LPD*%
G01*
G04 APERTURE LIST*
%ADD10C,0.100000*%
%ADD11C,1.425000*%
G04 APERTURE END LIST*
D10*
G36*
X50941504Y-80211204D02*
X50965773Y-80214804D01*
X50989571Y-80220765D01*
X51012671Y-80229030D01*
X51034849Y-80239520D01*
X51055893Y-80252133D01*
X51075598Y-80266747D01*
X51093777Y-80283223D01*
X51110253Y-80301402D01*
X51124867Y-80321107D01*
X51137480Y-80342151D01*
X51147970Y-80364329D01*
X51156235Y-80387429D01*
X51162196Y-80411227D01*
X51165796Y-80435496D01*
X51167000Y-80460000D01*
X51167000Y-81385000D01*
X51165796Y-81409504D01*
X51162196Y-81433773D01*
X51156235Y-81457571D01*
X51147970Y-81480671D01*
X51137480Y-81502849D01*
X51124867Y-81523893D01*
X51110253Y-81543598D01*
X51093777Y-81561777D01*
X51075598Y-81578253D01*
X51055893Y-81592867D01*
X51034849Y-81605480D01*
X51012671Y-81615970D01*
X50989571Y-81624235D01*
X50965773Y-81630196D01*
X50941504Y-81633796D01*
X50917000Y-81635000D01*
X49667000Y-81635000D01*
X49642496Y-81633796D01*
X49618227Y-81630196D01*
X49594429Y-81624235D01*
X49571329Y-81615970D01*
X49549151Y-81605480D01*
X49528107Y-81592867D01*
X49508402Y-81578253D01*
X49490223Y-81561777D01*
X49473747Y-81543598D01*
X49459133Y-81523893D01*
X49446520Y-81502849D01*
X49436030Y-81480671D01*
X49427765Y-81457571D01*
X49421804Y-81433773D01*
X49418204Y-81409504D01*
X49417000Y-81385000D01*
X49417000Y-80460000D01*
X49418204Y-80435496D01*
X49421804Y-80411227D01*
X49427765Y-80387429D01*
X49436030Y-80364329D01*
X49446520Y-80342151D01*
X49459133Y-80321107D01*
X49473747Y-80301402D01*
X49490223Y-80283223D01*
X49508402Y-80266747D01*
X49528107Y-80252133D01*
X49549151Y-80239520D01*
X49571329Y-80229030D01*
X49594429Y-80220765D01*
X49618227Y-80214804D01*
X49642496Y-80211204D01*
X49667000Y-80210000D01*
X50917000Y-80210000D01*
X50941504Y-80211204D01*
X50941504Y-80211204D01*
G37*
D11*
X50292000Y-80922500D03*
D10*
G36*
X50941504Y-77236204D02*
X50965773Y-77239804D01*
X50989571Y-77245765D01*
X51012671Y-77254030D01*
X51034849Y-77264520D01*
X51055893Y-77277133D01*
X51075598Y-77291747D01*
X51093777Y-77308223D01*
X51110253Y-77326402D01*
X51124867Y-77346107D01*
X51137480Y-77367151D01*
X51147970Y-77389329D01*
X51156235Y-77412429D01*
X51162196Y-77436227D01*
X51165796Y-77460496D01*
X51167000Y-77485000D01*
X51167000Y-78410000D01*
X51165796Y-78434504D01*
X51162196Y-78458773D01*
X51156235Y-78482571D01*
X51147970Y-78505671D01*
X51137480Y-78527849D01*
X51124867Y-78548893D01*
X51110253Y-78568598D01*
X51093777Y-78586777D01*
X51075598Y-78603253D01*
X51055893Y-78617867D01*
X51034849Y-78630480D01*
X51012671Y-78640970D01*
X50989571Y-78649235D01*
X50965773Y-78655196D01*
X50941504Y-78658796D01*
X50917000Y-78660000D01*
X49667000Y-78660000D01*
X49642496Y-78658796D01*
X49618227Y-78655196D01*
X49594429Y-78649235D01*
X49571329Y-78640970D01*
X49549151Y-78630480D01*
X49528107Y-78617867D01*
X49508402Y-78603253D01*
X49490223Y-78586777D01*
X49473747Y-78568598D01*
X49459133Y-78548893D01*
X49446520Y-78527849D01*
X49436030Y-78505671D01*
X49427765Y-78482571D01*
X49421804Y-78458773D01*
X49418204Y-78434504D01*
X49417000Y-78410000D01*
X49417000Y-77485000D01*
X49418204Y-77460496D01*
X49421804Y-77436227D01*
X49427765Y-77412429D01*
X49436030Y-77389329D01*
X49446520Y-77367151D01*
X49459133Y-77346107D01*
X49473747Y-77326402D01*
X49490223Y-77308223D01*
X49508402Y-77291747D01*
X49528107Y-77277133D01*
X49549151Y-77264520D01*
X49571329Y-77254030D01*
X49594429Y-77245765D01*
X49618227Y-77239804D01*
X49642496Y-77236204D01*
X49667000Y-77235000D01*
X50917000Y-77235000D01*
X50941504Y-77236204D01*
X50941504Y-77236204D01*
G37*
D11*
X50292000Y-77947500D03*
D10*
G36*
X58688504Y-80211204D02*
X58712773Y-80214804D01*
X58736571Y-80220765D01*
X58759671Y-80229030D01*
X58781849Y-80239520D01*
X58802893Y-80252133D01*
X58822598Y-80266747D01*
X58840777Y-80283223D01*
X58857253Y-80301402D01*
X58871867Y-80321107D01*
X58884480Y-80342151D01*
X58894970Y-80364329D01*
X58903235Y-80387429D01*
X58909196Y-80411227D01*
X58912796Y-80435496D01*
X58914000Y-80460000D01*
X58914000Y-81385000D01*
X58912796Y-81409504D01*
X58909196Y-81433773D01*
X58903235Y-81457571D01*
X58894970Y-81480671D01*
X58884480Y-81502849D01*
X58871867Y-81523893D01*
X58857253Y-81543598D01*
X58840777Y-81561777D01*
X58822598Y-81578253D01*
X58802893Y-81592867D01*
X58781849Y-81605480D01*
X58759671Y-81615970D01*
X58736571Y-81624235D01*
X58712773Y-81630196D01*
X58688504Y-81633796D01*
X58664000Y-81635000D01*
X57414000Y-81635000D01*
X57389496Y-81633796D01*
X57365227Y-81630196D01*
X57341429Y-81624235D01*
X57318329Y-81615970D01*
X57296151Y-81605480D01*
X57275107Y-81592867D01*
X57255402Y-81578253D01*
X57237223Y-81561777D01*
X57220747Y-81543598D01*
X57206133Y-81523893D01*
X57193520Y-81502849D01*
X57183030Y-81480671D01*
X57174765Y-81457571D01*
X57168804Y-81433773D01*
X57165204Y-81409504D01*
X57164000Y-81385000D01*
X57164000Y-80460000D01*
X57165204Y-80435496D01*
X57168804Y-80411227D01*
X57174765Y-80387429D01*
X57183030Y-80364329D01*
X57193520Y-80342151D01*
X57206133Y-80321107D01*
X57220747Y-80301402D01*
X57237223Y-80283223D01*
X57255402Y-80266747D01*
X57275107Y-80252133D01*
X57296151Y-80239520D01*
X57318329Y-80229030D01*
X57341429Y-80220765D01*
X57365227Y-80214804D01*
X57389496Y-80211204D01*
X57414000Y-80210000D01*
X58664000Y-80210000D01*
X58688504Y-80211204D01*
X58688504Y-80211204D01*
G37*
D11*
X58039000Y-80922500D03*
D10*
G36*
X58688504Y-77236204D02*
X58712773Y-77239804D01*
X58736571Y-77245765D01*
X58759671Y-77254030D01*
X58781849Y-77264520D01*
X58802893Y-77277133D01*
X58822598Y-77291747D01*
X58840777Y-77308223D01*
X58857253Y-77326402D01*
X58871867Y-77346107D01*
X58884480Y-77367151D01*
X58894970Y-77389329D01*
X58903235Y-77412429D01*
X58909196Y-77436227D01*
X58912796Y-77460496D01*
X58914000Y-77485000D01*
X58914000Y-78410000D01*
X58912796Y-78434504D01*
X58909196Y-78458773D01*
X58903235Y-78482571D01*
X58894970Y-78505671D01*
X58884480Y-78527849D01*
X58871867Y-78548893D01*
X58857253Y-78568598D01*
X58840777Y-78586777D01*
X58822598Y-78603253D01*
X58802893Y-78617867D01*
X58781849Y-78630480D01*
X58759671Y-78640970D01*
X58736571Y-78649235D01*
X58712773Y-78655196D01*
X58688504Y-78658796D01*
X58664000Y-78660000D01*
X57414000Y-78660000D01*
X57389496Y-78658796D01*
X57365227Y-78655196D01*
X57341429Y-78649235D01*
X57318329Y-78640970D01*
X57296151Y-78630480D01*
X57275107Y-78617867D01*
X57255402Y-78603253D01*
X57237223Y-78586777D01*
X57220747Y-78568598D01*
X57206133Y-78548893D01*
X57193520Y-78527849D01*
X57183030Y-78505671D01*
X57174765Y-78482571D01*
X57168804Y-78458773D01*
X57165204Y-78434504D01*
X57164000Y-78410000D01*
X57164000Y-77485000D01*
X57165204Y-77460496D01*
X57168804Y-77436227D01*
X57174765Y-77412429D01*
X57183030Y-77389329D01*
X57193520Y-77367151D01*
X57206133Y-77346107D01*
X57220747Y-77326402D01*
X57237223Y-77308223D01*
X57255402Y-77291747D01*
X57275107Y-77277133D01*
X57296151Y-77264520D01*
X57318329Y-77254030D01*
X57341429Y-77245765D01*
X57365227Y-77239804D01*
X57389496Y-77236204D01*
X57414000Y-77235000D01*
X58664000Y-77235000D01*
X58688504Y-77236204D01*
X58688504Y-77236204D01*
G37*
D11*
X58039000Y-77947500D03*
D10*
G36*
X47004504Y-70124204D02*
X47028773Y-70127804D01*
X47052571Y-70133765D01*
X47075671Y-70142030D01*
X47097849Y-70152520D01*
X47118893Y-70165133D01*
X47138598Y-70179747D01*
X47156777Y-70196223D01*
X47173253Y-70214402D01*
X47187867Y-70234107D01*
X47200480Y-70255151D01*
X47210970Y-70277329D01*
X47219235Y-70300429D01*
X47225196Y-70324227D01*
X47228796Y-70348496D01*
X47230000Y-70373000D01*
X47230000Y-71298000D01*
X47228796Y-71322504D01*
X47225196Y-71346773D01*
X47219235Y-71370571D01*
X47210970Y-71393671D01*
X47200480Y-71415849D01*
X47187867Y-71436893D01*
X47173253Y-71456598D01*
X47156777Y-71474777D01*
X47138598Y-71491253D01*
X47118893Y-71505867D01*
X47097849Y-71518480D01*
X47075671Y-71528970D01*
X47052571Y-71537235D01*
X47028773Y-71543196D01*
X47004504Y-71546796D01*
X46980000Y-71548000D01*
X45730000Y-71548000D01*
X45705496Y-71546796D01*
X45681227Y-71543196D01*
X45657429Y-71537235D01*
X45634329Y-71528970D01*
X45612151Y-71518480D01*
X45591107Y-71505867D01*
X45571402Y-71491253D01*
X45553223Y-71474777D01*
X45536747Y-71456598D01*
X45522133Y-71436893D01*
X45509520Y-71415849D01*
X45499030Y-71393671D01*
X45490765Y-71370571D01*
X45484804Y-71346773D01*
X45481204Y-71322504D01*
X45480000Y-71298000D01*
X45480000Y-70373000D01*
X45481204Y-70348496D01*
X45484804Y-70324227D01*
X45490765Y-70300429D01*
X45499030Y-70277329D01*
X45509520Y-70255151D01*
X45522133Y-70234107D01*
X45536747Y-70214402D01*
X45553223Y-70196223D01*
X45571402Y-70179747D01*
X45591107Y-70165133D01*
X45612151Y-70152520D01*
X45634329Y-70142030D01*
X45657429Y-70133765D01*
X45681227Y-70127804D01*
X45705496Y-70124204D01*
X45730000Y-70123000D01*
X46980000Y-70123000D01*
X47004504Y-70124204D01*
X47004504Y-70124204D01*
G37*
D11*
X46355000Y-70835500D03*
D10*
G36*
X47004504Y-73099204D02*
X47028773Y-73102804D01*
X47052571Y-73108765D01*
X47075671Y-73117030D01*
X47097849Y-73127520D01*
X47118893Y-73140133D01*
X47138598Y-73154747D01*
X47156777Y-73171223D01*
X47173253Y-73189402D01*
X47187867Y-73209107D01*
X47200480Y-73230151D01*
X47210970Y-73252329D01*
X47219235Y-73275429D01*
X47225196Y-73299227D01*
X47228796Y-73323496D01*
X47230000Y-73348000D01*
X47230000Y-74273000D01*
X47228796Y-74297504D01*
X47225196Y-74321773D01*
X47219235Y-74345571D01*
X47210970Y-74368671D01*
X47200480Y-74390849D01*
X47187867Y-74411893D01*
X47173253Y-74431598D01*
X47156777Y-74449777D01*
X47138598Y-74466253D01*
X47118893Y-74480867D01*
X47097849Y-74493480D01*
X47075671Y-74503970D01*
X47052571Y-74512235D01*
X47028773Y-74518196D01*
X47004504Y-74521796D01*
X46980000Y-74523000D01*
X45730000Y-74523000D01*
X45705496Y-74521796D01*
X45681227Y-74518196D01*
X45657429Y-74512235D01*
X45634329Y-74503970D01*
X45612151Y-74493480D01*
X45591107Y-74480867D01*
X45571402Y-74466253D01*
X45553223Y-74449777D01*
X45536747Y-74431598D01*
X45522133Y-74411893D01*
X45509520Y-74390849D01*
X45499030Y-74368671D01*
X45490765Y-74345571D01*
X45484804Y-74321773D01*
X45481204Y-74297504D01*
X45480000Y-74273000D01*
X45480000Y-73348000D01*
X45481204Y-73323496D01*
X45484804Y-73299227D01*
X45490765Y-73275429D01*
X45499030Y-73252329D01*
X45509520Y-73230151D01*
X45522133Y-73209107D01*
X45536747Y-73189402D01*
X45553223Y-73171223D01*
X45571402Y-73154747D01*
X45591107Y-73140133D01*
X45612151Y-73127520D01*
X45634329Y-73117030D01*
X45657429Y-73108765D01*
X45681227Y-73102804D01*
X45705496Y-73099204D01*
X45730000Y-73098000D01*
X46980000Y-73098000D01*
X47004504Y-73099204D01*
X47004504Y-73099204D01*
G37*
D11*
X46355000Y-73810500D03*
D10*
G36*
X54116504Y-77236204D02*
X54140773Y-77239804D01*
X54164571Y-77245765D01*
X54187671Y-77254030D01*
X54209849Y-77264520D01*
X54230893Y-77277133D01*
X54250598Y-77291747D01*
X54268777Y-77308223D01*
X54285253Y-77326402D01*
X54299867Y-77346107D01*
X54312480Y-77367151D01*
X54322970Y-77389329D01*
X54331235Y-77412429D01*
X54337196Y-77436227D01*
X54340796Y-77460496D01*
X54342000Y-77485000D01*
X54342000Y-78410000D01*
X54340796Y-78434504D01*
X54337196Y-78458773D01*
X54331235Y-78482571D01*
X54322970Y-78505671D01*
X54312480Y-78527849D01*
X54299867Y-78548893D01*
X54285253Y-78568598D01*
X54268777Y-78586777D01*
X54250598Y-78603253D01*
X54230893Y-78617867D01*
X54209849Y-78630480D01*
X54187671Y-78640970D01*
X54164571Y-78649235D01*
X54140773Y-78655196D01*
X54116504Y-78658796D01*
X54092000Y-78660000D01*
X52842000Y-78660000D01*
X52817496Y-78658796D01*
X52793227Y-78655196D01*
X52769429Y-78649235D01*
X52746329Y-78640970D01*
X52724151Y-78630480D01*
X52703107Y-78617867D01*
X52683402Y-78603253D01*
X52665223Y-78586777D01*
X52648747Y-78568598D01*
X52634133Y-78548893D01*
X52621520Y-78527849D01*
X52611030Y-78505671D01*
X52602765Y-78482571D01*
X52596804Y-78458773D01*
X52593204Y-78434504D01*
X52592000Y-78410000D01*
X52592000Y-77485000D01*
X52593204Y-77460496D01*
X52596804Y-77436227D01*
X52602765Y-77412429D01*
X52611030Y-77389329D01*
X52621520Y-77367151D01*
X52634133Y-77346107D01*
X52648747Y-77326402D01*
X52665223Y-77308223D01*
X52683402Y-77291747D01*
X52703107Y-77277133D01*
X52724151Y-77264520D01*
X52746329Y-77254030D01*
X52769429Y-77245765D01*
X52793227Y-77239804D01*
X52817496Y-77236204D01*
X52842000Y-77235000D01*
X54092000Y-77235000D01*
X54116504Y-77236204D01*
X54116504Y-77236204D01*
G37*
D11*
X53467000Y-77947500D03*
D10*
G36*
X54116504Y-80211204D02*
X54140773Y-80214804D01*
X54164571Y-80220765D01*
X54187671Y-80229030D01*
X54209849Y-80239520D01*
X54230893Y-80252133D01*
X54250598Y-80266747D01*
X54268777Y-80283223D01*
X54285253Y-80301402D01*
X54299867Y-80321107D01*
X54312480Y-80342151D01*
X54322970Y-80364329D01*
X54331235Y-80387429D01*
X54337196Y-80411227D01*
X54340796Y-80435496D01*
X54342000Y-80460000D01*
X54342000Y-81385000D01*
X54340796Y-81409504D01*
X54337196Y-81433773D01*
X54331235Y-81457571D01*
X54322970Y-81480671D01*
X54312480Y-81502849D01*
X54299867Y-81523893D01*
X54285253Y-81543598D01*
X54268777Y-81561777D01*
X54250598Y-81578253D01*
X54230893Y-81592867D01*
X54209849Y-81605480D01*
X54187671Y-81615970D01*
X54164571Y-81624235D01*
X54140773Y-81630196D01*
X54116504Y-81633796D01*
X54092000Y-81635000D01*
X52842000Y-81635000D01*
X52817496Y-81633796D01*
X52793227Y-81630196D01*
X52769429Y-81624235D01*
X52746329Y-81615970D01*
X52724151Y-81605480D01*
X52703107Y-81592867D01*
X52683402Y-81578253D01*
X52665223Y-81561777D01*
X52648747Y-81543598D01*
X52634133Y-81523893D01*
X52621520Y-81502849D01*
X52611030Y-81480671D01*
X52602765Y-81457571D01*
X52596804Y-81433773D01*
X52593204Y-81409504D01*
X52592000Y-81385000D01*
X52592000Y-80460000D01*
X52593204Y-80435496D01*
X52596804Y-80411227D01*
X52602765Y-80387429D01*
X52611030Y-80364329D01*
X52621520Y-80342151D01*
X52634133Y-80321107D01*
X52648747Y-80301402D01*
X52665223Y-80283223D01*
X52683402Y-80266747D01*
X52703107Y-80252133D01*
X52724151Y-80239520D01*
X52746329Y-80229030D01*
X52769429Y-80220765D01*
X52793227Y-80214804D01*
X52817496Y-80211204D01*
X52842000Y-80210000D01*
X54092000Y-80210000D01*
X54116504Y-80211204D01*
X54116504Y-80211204D01*
G37*
D11*
X53467000Y-80922500D03*
D10*
G36*
X16735504Y-84656204D02*
X16759773Y-84659804D01*
X16783571Y-84665765D01*
X16806671Y-84674030D01*
X16828849Y-84684520D01*
X16849893Y-84697133D01*
X16869598Y-84711747D01*
X16887777Y-84728223D01*
X16904253Y-84746402D01*
X16918867Y-84766107D01*
X16931480Y-84787151D01*
X16941970Y-84809329D01*
X16950235Y-84832429D01*
X16956196Y-84856227D01*
X16959796Y-84880496D01*
X16961000Y-84905000D01*
X16961000Y-85830000D01*
X16959796Y-85854504D01*
X16956196Y-85878773D01*
X16950235Y-85902571D01*
X16941970Y-85925671D01*
X16931480Y-85947849D01*
X16918867Y-85968893D01*
X16904253Y-85988598D01*
X16887777Y-86006777D01*
X16869598Y-86023253D01*
X16849893Y-86037867D01*
X16828849Y-86050480D01*
X16806671Y-86060970D01*
X16783571Y-86069235D01*
X16759773Y-86075196D01*
X16735504Y-86078796D01*
X16711000Y-86080000D01*
X15461000Y-86080000D01*
X15436496Y-86078796D01*
X15412227Y-86075196D01*
X15388429Y-86069235D01*
X15365329Y-86060970D01*
X15343151Y-86050480D01*
X15322107Y-86037867D01*
X15302402Y-86023253D01*
X15284223Y-86006777D01*
X15267747Y-85988598D01*
X15253133Y-85968893D01*
X15240520Y-85947849D01*
X15230030Y-85925671D01*
X15221765Y-85902571D01*
X15215804Y-85878773D01*
X15212204Y-85854504D01*
X15211000Y-85830000D01*
X15211000Y-84905000D01*
X15212204Y-84880496D01*
X15215804Y-84856227D01*
X15221765Y-84832429D01*
X15230030Y-84809329D01*
X15240520Y-84787151D01*
X15253133Y-84766107D01*
X15267747Y-84746402D01*
X15284223Y-84728223D01*
X15302402Y-84711747D01*
X15322107Y-84697133D01*
X15343151Y-84684520D01*
X15365329Y-84674030D01*
X15388429Y-84665765D01*
X15412227Y-84659804D01*
X15436496Y-84656204D01*
X15461000Y-84655000D01*
X16711000Y-84655000D01*
X16735504Y-84656204D01*
X16735504Y-84656204D01*
G37*
D11*
X16086000Y-85367500D03*
D10*
G36*
X16735504Y-81681204D02*
X16759773Y-81684804D01*
X16783571Y-81690765D01*
X16806671Y-81699030D01*
X16828849Y-81709520D01*
X16849893Y-81722133D01*
X16869598Y-81736747D01*
X16887777Y-81753223D01*
X16904253Y-81771402D01*
X16918867Y-81791107D01*
X16931480Y-81812151D01*
X16941970Y-81834329D01*
X16950235Y-81857429D01*
X16956196Y-81881227D01*
X16959796Y-81905496D01*
X16961000Y-81930000D01*
X16961000Y-82855000D01*
X16959796Y-82879504D01*
X16956196Y-82903773D01*
X16950235Y-82927571D01*
X16941970Y-82950671D01*
X16931480Y-82972849D01*
X16918867Y-82993893D01*
X16904253Y-83013598D01*
X16887777Y-83031777D01*
X16869598Y-83048253D01*
X16849893Y-83062867D01*
X16828849Y-83075480D01*
X16806671Y-83085970D01*
X16783571Y-83094235D01*
X16759773Y-83100196D01*
X16735504Y-83103796D01*
X16711000Y-83105000D01*
X15461000Y-83105000D01*
X15436496Y-83103796D01*
X15412227Y-83100196D01*
X15388429Y-83094235D01*
X15365329Y-83085970D01*
X15343151Y-83075480D01*
X15322107Y-83062867D01*
X15302402Y-83048253D01*
X15284223Y-83031777D01*
X15267747Y-83013598D01*
X15253133Y-82993893D01*
X15240520Y-82972849D01*
X15230030Y-82950671D01*
X15221765Y-82927571D01*
X15215804Y-82903773D01*
X15212204Y-82879504D01*
X15211000Y-82855000D01*
X15211000Y-81930000D01*
X15212204Y-81905496D01*
X15215804Y-81881227D01*
X15221765Y-81857429D01*
X15230030Y-81834329D01*
X15240520Y-81812151D01*
X15253133Y-81791107D01*
X15267747Y-81771402D01*
X15284223Y-81753223D01*
X15302402Y-81736747D01*
X15322107Y-81722133D01*
X15343151Y-81709520D01*
X15365329Y-81699030D01*
X15388429Y-81690765D01*
X15412227Y-81684804D01*
X15436496Y-81681204D01*
X15461000Y-81680000D01*
X16711000Y-81680000D01*
X16735504Y-81681204D01*
X16735504Y-81681204D01*
G37*
D11*
X16086000Y-82392500D03*
D10*
G36*
X31256504Y-82624204D02*
X31280773Y-82627804D01*
X31304571Y-82633765D01*
X31327671Y-82642030D01*
X31349849Y-82652520D01*
X31370893Y-82665133D01*
X31390598Y-82679747D01*
X31408777Y-82696223D01*
X31425253Y-82714402D01*
X31439867Y-82734107D01*
X31452480Y-82755151D01*
X31462970Y-82777329D01*
X31471235Y-82800429D01*
X31477196Y-82824227D01*
X31480796Y-82848496D01*
X31482000Y-82873000D01*
X31482000Y-83798000D01*
X31480796Y-83822504D01*
X31477196Y-83846773D01*
X31471235Y-83870571D01*
X31462970Y-83893671D01*
X31452480Y-83915849D01*
X31439867Y-83936893D01*
X31425253Y-83956598D01*
X31408777Y-83974777D01*
X31390598Y-83991253D01*
X31370893Y-84005867D01*
X31349849Y-84018480D01*
X31327671Y-84028970D01*
X31304571Y-84037235D01*
X31280773Y-84043196D01*
X31256504Y-84046796D01*
X31232000Y-84048000D01*
X29982000Y-84048000D01*
X29957496Y-84046796D01*
X29933227Y-84043196D01*
X29909429Y-84037235D01*
X29886329Y-84028970D01*
X29864151Y-84018480D01*
X29843107Y-84005867D01*
X29823402Y-83991253D01*
X29805223Y-83974777D01*
X29788747Y-83956598D01*
X29774133Y-83936893D01*
X29761520Y-83915849D01*
X29751030Y-83893671D01*
X29742765Y-83870571D01*
X29736804Y-83846773D01*
X29733204Y-83822504D01*
X29732000Y-83798000D01*
X29732000Y-82873000D01*
X29733204Y-82848496D01*
X29736804Y-82824227D01*
X29742765Y-82800429D01*
X29751030Y-82777329D01*
X29761520Y-82755151D01*
X29774133Y-82734107D01*
X29788747Y-82714402D01*
X29805223Y-82696223D01*
X29823402Y-82679747D01*
X29843107Y-82665133D01*
X29864151Y-82652520D01*
X29886329Y-82642030D01*
X29909429Y-82633765D01*
X29933227Y-82627804D01*
X29957496Y-82624204D01*
X29982000Y-82623000D01*
X31232000Y-82623000D01*
X31256504Y-82624204D01*
X31256504Y-82624204D01*
G37*
D11*
X30607000Y-83335500D03*
D10*
G36*
X31256504Y-79649204D02*
X31280773Y-79652804D01*
X31304571Y-79658765D01*
X31327671Y-79667030D01*
X31349849Y-79677520D01*
X31370893Y-79690133D01*
X31390598Y-79704747D01*
X31408777Y-79721223D01*
X31425253Y-79739402D01*
X31439867Y-79759107D01*
X31452480Y-79780151D01*
X31462970Y-79802329D01*
X31471235Y-79825429D01*
X31477196Y-79849227D01*
X31480796Y-79873496D01*
X31482000Y-79898000D01*
X31482000Y-80823000D01*
X31480796Y-80847504D01*
X31477196Y-80871773D01*
X31471235Y-80895571D01*
X31462970Y-80918671D01*
X31452480Y-80940849D01*
X31439867Y-80961893D01*
X31425253Y-80981598D01*
X31408777Y-80999777D01*
X31390598Y-81016253D01*
X31370893Y-81030867D01*
X31349849Y-81043480D01*
X31327671Y-81053970D01*
X31304571Y-81062235D01*
X31280773Y-81068196D01*
X31256504Y-81071796D01*
X31232000Y-81073000D01*
X29982000Y-81073000D01*
X29957496Y-81071796D01*
X29933227Y-81068196D01*
X29909429Y-81062235D01*
X29886329Y-81053970D01*
X29864151Y-81043480D01*
X29843107Y-81030867D01*
X29823402Y-81016253D01*
X29805223Y-80999777D01*
X29788747Y-80981598D01*
X29774133Y-80961893D01*
X29761520Y-80940849D01*
X29751030Y-80918671D01*
X29742765Y-80895571D01*
X29736804Y-80871773D01*
X29733204Y-80847504D01*
X29732000Y-80823000D01*
X29732000Y-79898000D01*
X29733204Y-79873496D01*
X29736804Y-79849227D01*
X29742765Y-79825429D01*
X29751030Y-79802329D01*
X29761520Y-79780151D01*
X29774133Y-79759107D01*
X29788747Y-79739402D01*
X29805223Y-79721223D01*
X29823402Y-79704747D01*
X29843107Y-79690133D01*
X29864151Y-79677520D01*
X29886329Y-79667030D01*
X29909429Y-79658765D01*
X29933227Y-79652804D01*
X29957496Y-79649204D01*
X29982000Y-79648000D01*
X31232000Y-79648000D01*
X31256504Y-79649204D01*
X31256504Y-79649204D01*
G37*
D11*
X30607000Y-80360500D03*
D10*
G36*
X28462504Y-82587704D02*
X28486773Y-82591304D01*
X28510571Y-82597265D01*
X28533671Y-82605530D01*
X28555849Y-82616020D01*
X28576893Y-82628633D01*
X28596598Y-82643247D01*
X28614777Y-82659723D01*
X28631253Y-82677902D01*
X28645867Y-82697607D01*
X28658480Y-82718651D01*
X28668970Y-82740829D01*
X28677235Y-82763929D01*
X28683196Y-82787727D01*
X28686796Y-82811996D01*
X28688000Y-82836500D01*
X28688000Y-83761500D01*
X28686796Y-83786004D01*
X28683196Y-83810273D01*
X28677235Y-83834071D01*
X28668970Y-83857171D01*
X28658480Y-83879349D01*
X28645867Y-83900393D01*
X28631253Y-83920098D01*
X28614777Y-83938277D01*
X28596598Y-83954753D01*
X28576893Y-83969367D01*
X28555849Y-83981980D01*
X28533671Y-83992470D01*
X28510571Y-84000735D01*
X28486773Y-84006696D01*
X28462504Y-84010296D01*
X28438000Y-84011500D01*
X27188000Y-84011500D01*
X27163496Y-84010296D01*
X27139227Y-84006696D01*
X27115429Y-84000735D01*
X27092329Y-83992470D01*
X27070151Y-83981980D01*
X27049107Y-83969367D01*
X27029402Y-83954753D01*
X27011223Y-83938277D01*
X26994747Y-83920098D01*
X26980133Y-83900393D01*
X26967520Y-83879349D01*
X26957030Y-83857171D01*
X26948765Y-83834071D01*
X26942804Y-83810273D01*
X26939204Y-83786004D01*
X26938000Y-83761500D01*
X26938000Y-82836500D01*
X26939204Y-82811996D01*
X26942804Y-82787727D01*
X26948765Y-82763929D01*
X26957030Y-82740829D01*
X26967520Y-82718651D01*
X26980133Y-82697607D01*
X26994747Y-82677902D01*
X27011223Y-82659723D01*
X27029402Y-82643247D01*
X27049107Y-82628633D01*
X27070151Y-82616020D01*
X27092329Y-82605530D01*
X27115429Y-82597265D01*
X27139227Y-82591304D01*
X27163496Y-82587704D01*
X27188000Y-82586500D01*
X28438000Y-82586500D01*
X28462504Y-82587704D01*
X28462504Y-82587704D01*
G37*
D11*
X27813000Y-83299000D03*
D10*
G36*
X28462504Y-79612704D02*
X28486773Y-79616304D01*
X28510571Y-79622265D01*
X28533671Y-79630530D01*
X28555849Y-79641020D01*
X28576893Y-79653633D01*
X28596598Y-79668247D01*
X28614777Y-79684723D01*
X28631253Y-79702902D01*
X28645867Y-79722607D01*
X28658480Y-79743651D01*
X28668970Y-79765829D01*
X28677235Y-79788929D01*
X28683196Y-79812727D01*
X28686796Y-79836996D01*
X28688000Y-79861500D01*
X28688000Y-80786500D01*
X28686796Y-80811004D01*
X28683196Y-80835273D01*
X28677235Y-80859071D01*
X28668970Y-80882171D01*
X28658480Y-80904349D01*
X28645867Y-80925393D01*
X28631253Y-80945098D01*
X28614777Y-80963277D01*
X28596598Y-80979753D01*
X28576893Y-80994367D01*
X28555849Y-81006980D01*
X28533671Y-81017470D01*
X28510571Y-81025735D01*
X28486773Y-81031696D01*
X28462504Y-81035296D01*
X28438000Y-81036500D01*
X27188000Y-81036500D01*
X27163496Y-81035296D01*
X27139227Y-81031696D01*
X27115429Y-81025735D01*
X27092329Y-81017470D01*
X27070151Y-81006980D01*
X27049107Y-80994367D01*
X27029402Y-80979753D01*
X27011223Y-80963277D01*
X26994747Y-80945098D01*
X26980133Y-80925393D01*
X26967520Y-80904349D01*
X26957030Y-80882171D01*
X26948765Y-80859071D01*
X26942804Y-80835273D01*
X26939204Y-80811004D01*
X26938000Y-80786500D01*
X26938000Y-79861500D01*
X26939204Y-79836996D01*
X26942804Y-79812727D01*
X26948765Y-79788929D01*
X26957030Y-79765829D01*
X26967520Y-79743651D01*
X26980133Y-79722607D01*
X26994747Y-79702902D01*
X27011223Y-79684723D01*
X27029402Y-79668247D01*
X27049107Y-79653633D01*
X27070151Y-79641020D01*
X27092329Y-79630530D01*
X27115429Y-79622265D01*
X27139227Y-79616304D01*
X27163496Y-79612704D01*
X27188000Y-79611500D01*
X28438000Y-79611500D01*
X28462504Y-79612704D01*
X28462504Y-79612704D01*
G37*
D11*
X27813000Y-80324000D03*
D10*
G36*
X13941504Y-77671204D02*
X13965773Y-77674804D01*
X13989571Y-77680765D01*
X14012671Y-77689030D01*
X14034849Y-77699520D01*
X14055893Y-77712133D01*
X14075598Y-77726747D01*
X14093777Y-77743223D01*
X14110253Y-77761402D01*
X14124867Y-77781107D01*
X14137480Y-77802151D01*
X14147970Y-77824329D01*
X14156235Y-77847429D01*
X14162196Y-77871227D01*
X14165796Y-77895496D01*
X14167000Y-77920000D01*
X14167000Y-78845000D01*
X14165796Y-78869504D01*
X14162196Y-78893773D01*
X14156235Y-78917571D01*
X14147970Y-78940671D01*
X14137480Y-78962849D01*
X14124867Y-78983893D01*
X14110253Y-79003598D01*
X14093777Y-79021777D01*
X14075598Y-79038253D01*
X14055893Y-79052867D01*
X14034849Y-79065480D01*
X14012671Y-79075970D01*
X13989571Y-79084235D01*
X13965773Y-79090196D01*
X13941504Y-79093796D01*
X13917000Y-79095000D01*
X12667000Y-79095000D01*
X12642496Y-79093796D01*
X12618227Y-79090196D01*
X12594429Y-79084235D01*
X12571329Y-79075970D01*
X12549151Y-79065480D01*
X12528107Y-79052867D01*
X12508402Y-79038253D01*
X12490223Y-79021777D01*
X12473747Y-79003598D01*
X12459133Y-78983893D01*
X12446520Y-78962849D01*
X12436030Y-78940671D01*
X12427765Y-78917571D01*
X12421804Y-78893773D01*
X12418204Y-78869504D01*
X12417000Y-78845000D01*
X12417000Y-77920000D01*
X12418204Y-77895496D01*
X12421804Y-77871227D01*
X12427765Y-77847429D01*
X12436030Y-77824329D01*
X12446520Y-77802151D01*
X12459133Y-77781107D01*
X12473747Y-77761402D01*
X12490223Y-77743223D01*
X12508402Y-77726747D01*
X12528107Y-77712133D01*
X12549151Y-77699520D01*
X12571329Y-77689030D01*
X12594429Y-77680765D01*
X12618227Y-77674804D01*
X12642496Y-77671204D01*
X12667000Y-77670000D01*
X13917000Y-77670000D01*
X13941504Y-77671204D01*
X13941504Y-77671204D01*
G37*
D11*
X13292000Y-78382500D03*
D10*
G36*
X13941504Y-74696204D02*
X13965773Y-74699804D01*
X13989571Y-74705765D01*
X14012671Y-74714030D01*
X14034849Y-74724520D01*
X14055893Y-74737133D01*
X14075598Y-74751747D01*
X14093777Y-74768223D01*
X14110253Y-74786402D01*
X14124867Y-74806107D01*
X14137480Y-74827151D01*
X14147970Y-74849329D01*
X14156235Y-74872429D01*
X14162196Y-74896227D01*
X14165796Y-74920496D01*
X14167000Y-74945000D01*
X14167000Y-75870000D01*
X14165796Y-75894504D01*
X14162196Y-75918773D01*
X14156235Y-75942571D01*
X14147970Y-75965671D01*
X14137480Y-75987849D01*
X14124867Y-76008893D01*
X14110253Y-76028598D01*
X14093777Y-76046777D01*
X14075598Y-76063253D01*
X14055893Y-76077867D01*
X14034849Y-76090480D01*
X14012671Y-76100970D01*
X13989571Y-76109235D01*
X13965773Y-76115196D01*
X13941504Y-76118796D01*
X13917000Y-76120000D01*
X12667000Y-76120000D01*
X12642496Y-76118796D01*
X12618227Y-76115196D01*
X12594429Y-76109235D01*
X12571329Y-76100970D01*
X12549151Y-76090480D01*
X12528107Y-76077867D01*
X12508402Y-76063253D01*
X12490223Y-76046777D01*
X12473747Y-76028598D01*
X12459133Y-76008893D01*
X12446520Y-75987849D01*
X12436030Y-75965671D01*
X12427765Y-75942571D01*
X12421804Y-75918773D01*
X12418204Y-75894504D01*
X12417000Y-75870000D01*
X12417000Y-74945000D01*
X12418204Y-74920496D01*
X12421804Y-74896227D01*
X12427765Y-74872429D01*
X12436030Y-74849329D01*
X12446520Y-74827151D01*
X12459133Y-74806107D01*
X12473747Y-74786402D01*
X12490223Y-74768223D01*
X12508402Y-74751747D01*
X12528107Y-74737133D01*
X12549151Y-74724520D01*
X12571329Y-74714030D01*
X12594429Y-74705765D01*
X12618227Y-74699804D01*
X12642496Y-74696204D01*
X12667000Y-74695000D01*
X13917000Y-74695000D01*
X13941504Y-74696204D01*
X13941504Y-74696204D01*
G37*
D11*
X13292000Y-75407500D03*
D10*
G36*
X16735504Y-89863204D02*
X16759773Y-89866804D01*
X16783571Y-89872765D01*
X16806671Y-89881030D01*
X16828849Y-89891520D01*
X16849893Y-89904133D01*
X16869598Y-89918747D01*
X16887777Y-89935223D01*
X16904253Y-89953402D01*
X16918867Y-89973107D01*
X16931480Y-89994151D01*
X16941970Y-90016329D01*
X16950235Y-90039429D01*
X16956196Y-90063227D01*
X16959796Y-90087496D01*
X16961000Y-90112000D01*
X16961000Y-91037000D01*
X16959796Y-91061504D01*
X16956196Y-91085773D01*
X16950235Y-91109571D01*
X16941970Y-91132671D01*
X16931480Y-91154849D01*
X16918867Y-91175893D01*
X16904253Y-91195598D01*
X16887777Y-91213777D01*
X16869598Y-91230253D01*
X16849893Y-91244867D01*
X16828849Y-91257480D01*
X16806671Y-91267970D01*
X16783571Y-91276235D01*
X16759773Y-91282196D01*
X16735504Y-91285796D01*
X16711000Y-91287000D01*
X15461000Y-91287000D01*
X15436496Y-91285796D01*
X15412227Y-91282196D01*
X15388429Y-91276235D01*
X15365329Y-91267970D01*
X15343151Y-91257480D01*
X15322107Y-91244867D01*
X15302402Y-91230253D01*
X15284223Y-91213777D01*
X15267747Y-91195598D01*
X15253133Y-91175893D01*
X15240520Y-91154849D01*
X15230030Y-91132671D01*
X15221765Y-91109571D01*
X15215804Y-91085773D01*
X15212204Y-91061504D01*
X15211000Y-91037000D01*
X15211000Y-90112000D01*
X15212204Y-90087496D01*
X15215804Y-90063227D01*
X15221765Y-90039429D01*
X15230030Y-90016329D01*
X15240520Y-89994151D01*
X15253133Y-89973107D01*
X15267747Y-89953402D01*
X15284223Y-89935223D01*
X15302402Y-89918747D01*
X15322107Y-89904133D01*
X15343151Y-89891520D01*
X15365329Y-89881030D01*
X15388429Y-89872765D01*
X15412227Y-89866804D01*
X15436496Y-89863204D01*
X15461000Y-89862000D01*
X16711000Y-89862000D01*
X16735504Y-89863204D01*
X16735504Y-89863204D01*
G37*
D11*
X16086000Y-90574500D03*
D10*
G36*
X16735504Y-86888204D02*
X16759773Y-86891804D01*
X16783571Y-86897765D01*
X16806671Y-86906030D01*
X16828849Y-86916520D01*
X16849893Y-86929133D01*
X16869598Y-86943747D01*
X16887777Y-86960223D01*
X16904253Y-86978402D01*
X16918867Y-86998107D01*
X16931480Y-87019151D01*
X16941970Y-87041329D01*
X16950235Y-87064429D01*
X16956196Y-87088227D01*
X16959796Y-87112496D01*
X16961000Y-87137000D01*
X16961000Y-88062000D01*
X16959796Y-88086504D01*
X16956196Y-88110773D01*
X16950235Y-88134571D01*
X16941970Y-88157671D01*
X16931480Y-88179849D01*
X16918867Y-88200893D01*
X16904253Y-88220598D01*
X16887777Y-88238777D01*
X16869598Y-88255253D01*
X16849893Y-88269867D01*
X16828849Y-88282480D01*
X16806671Y-88292970D01*
X16783571Y-88301235D01*
X16759773Y-88307196D01*
X16735504Y-88310796D01*
X16711000Y-88312000D01*
X15461000Y-88312000D01*
X15436496Y-88310796D01*
X15412227Y-88307196D01*
X15388429Y-88301235D01*
X15365329Y-88292970D01*
X15343151Y-88282480D01*
X15322107Y-88269867D01*
X15302402Y-88255253D01*
X15284223Y-88238777D01*
X15267747Y-88220598D01*
X15253133Y-88200893D01*
X15240520Y-88179849D01*
X15230030Y-88157671D01*
X15221765Y-88134571D01*
X15215804Y-88110773D01*
X15212204Y-88086504D01*
X15211000Y-88062000D01*
X15211000Y-87137000D01*
X15212204Y-87112496D01*
X15215804Y-87088227D01*
X15221765Y-87064429D01*
X15230030Y-87041329D01*
X15240520Y-87019151D01*
X15253133Y-86998107D01*
X15267747Y-86978402D01*
X15284223Y-86960223D01*
X15302402Y-86943747D01*
X15322107Y-86929133D01*
X15343151Y-86916520D01*
X15365329Y-86906030D01*
X15388429Y-86897765D01*
X15412227Y-86891804D01*
X15436496Y-86888204D01*
X15461000Y-86887000D01*
X16711000Y-86887000D01*
X16735504Y-86888204D01*
X16735504Y-86888204D01*
G37*
D11*
X16086000Y-87599500D03*
D10*
G36*
X51195504Y-70124204D02*
X51219773Y-70127804D01*
X51243571Y-70133765D01*
X51266671Y-70142030D01*
X51288849Y-70152520D01*
X51309893Y-70165133D01*
X51329598Y-70179747D01*
X51347777Y-70196223D01*
X51364253Y-70214402D01*
X51378867Y-70234107D01*
X51391480Y-70255151D01*
X51401970Y-70277329D01*
X51410235Y-70300429D01*
X51416196Y-70324227D01*
X51419796Y-70348496D01*
X51421000Y-70373000D01*
X51421000Y-71298000D01*
X51419796Y-71322504D01*
X51416196Y-71346773D01*
X51410235Y-71370571D01*
X51401970Y-71393671D01*
X51391480Y-71415849D01*
X51378867Y-71436893D01*
X51364253Y-71456598D01*
X51347777Y-71474777D01*
X51329598Y-71491253D01*
X51309893Y-71505867D01*
X51288849Y-71518480D01*
X51266671Y-71528970D01*
X51243571Y-71537235D01*
X51219773Y-71543196D01*
X51195504Y-71546796D01*
X51171000Y-71548000D01*
X49921000Y-71548000D01*
X49896496Y-71546796D01*
X49872227Y-71543196D01*
X49848429Y-71537235D01*
X49825329Y-71528970D01*
X49803151Y-71518480D01*
X49782107Y-71505867D01*
X49762402Y-71491253D01*
X49744223Y-71474777D01*
X49727747Y-71456598D01*
X49713133Y-71436893D01*
X49700520Y-71415849D01*
X49690030Y-71393671D01*
X49681765Y-71370571D01*
X49675804Y-71346773D01*
X49672204Y-71322504D01*
X49671000Y-71298000D01*
X49671000Y-70373000D01*
X49672204Y-70348496D01*
X49675804Y-70324227D01*
X49681765Y-70300429D01*
X49690030Y-70277329D01*
X49700520Y-70255151D01*
X49713133Y-70234107D01*
X49727747Y-70214402D01*
X49744223Y-70196223D01*
X49762402Y-70179747D01*
X49782107Y-70165133D01*
X49803151Y-70152520D01*
X49825329Y-70142030D01*
X49848429Y-70133765D01*
X49872227Y-70127804D01*
X49896496Y-70124204D01*
X49921000Y-70123000D01*
X51171000Y-70123000D01*
X51195504Y-70124204D01*
X51195504Y-70124204D01*
G37*
D11*
X50546000Y-70835500D03*
D10*
G36*
X51195504Y-73099204D02*
X51219773Y-73102804D01*
X51243571Y-73108765D01*
X51266671Y-73117030D01*
X51288849Y-73127520D01*
X51309893Y-73140133D01*
X51329598Y-73154747D01*
X51347777Y-73171223D01*
X51364253Y-73189402D01*
X51378867Y-73209107D01*
X51391480Y-73230151D01*
X51401970Y-73252329D01*
X51410235Y-73275429D01*
X51416196Y-73299227D01*
X51419796Y-73323496D01*
X51421000Y-73348000D01*
X51421000Y-74273000D01*
X51419796Y-74297504D01*
X51416196Y-74321773D01*
X51410235Y-74345571D01*
X51401970Y-74368671D01*
X51391480Y-74390849D01*
X51378867Y-74411893D01*
X51364253Y-74431598D01*
X51347777Y-74449777D01*
X51329598Y-74466253D01*
X51309893Y-74480867D01*
X51288849Y-74493480D01*
X51266671Y-74503970D01*
X51243571Y-74512235D01*
X51219773Y-74518196D01*
X51195504Y-74521796D01*
X51171000Y-74523000D01*
X49921000Y-74523000D01*
X49896496Y-74521796D01*
X49872227Y-74518196D01*
X49848429Y-74512235D01*
X49825329Y-74503970D01*
X49803151Y-74493480D01*
X49782107Y-74480867D01*
X49762402Y-74466253D01*
X49744223Y-74449777D01*
X49727747Y-74431598D01*
X49713133Y-74411893D01*
X49700520Y-74390849D01*
X49690030Y-74368671D01*
X49681765Y-74345571D01*
X49675804Y-74321773D01*
X49672204Y-74297504D01*
X49671000Y-74273000D01*
X49671000Y-73348000D01*
X49672204Y-73323496D01*
X49675804Y-73299227D01*
X49681765Y-73275429D01*
X49690030Y-73252329D01*
X49700520Y-73230151D01*
X49713133Y-73209107D01*
X49727747Y-73189402D01*
X49744223Y-73171223D01*
X49762402Y-73154747D01*
X49782107Y-73140133D01*
X49803151Y-73127520D01*
X49825329Y-73117030D01*
X49848429Y-73108765D01*
X49872227Y-73102804D01*
X49896496Y-73099204D01*
X49921000Y-73098000D01*
X51171000Y-73098000D01*
X51195504Y-73099204D01*
X51195504Y-73099204D01*
G37*
D11*
X50546000Y-73810500D03*
D10*
G36*
X46199504Y-77236204D02*
X46223773Y-77239804D01*
X46247571Y-77245765D01*
X46270671Y-77254030D01*
X46292849Y-77264520D01*
X46313893Y-77277133D01*
X46333598Y-77291747D01*
X46351777Y-77308223D01*
X46368253Y-77326402D01*
X46382867Y-77346107D01*
X46395480Y-77367151D01*
X46405970Y-77389329D01*
X46414235Y-77412429D01*
X46420196Y-77436227D01*
X46423796Y-77460496D01*
X46425000Y-77485000D01*
X46425000Y-78410000D01*
X46423796Y-78434504D01*
X46420196Y-78458773D01*
X46414235Y-78482571D01*
X46405970Y-78505671D01*
X46395480Y-78527849D01*
X46382867Y-78548893D01*
X46368253Y-78568598D01*
X46351777Y-78586777D01*
X46333598Y-78603253D01*
X46313893Y-78617867D01*
X46292849Y-78630480D01*
X46270671Y-78640970D01*
X46247571Y-78649235D01*
X46223773Y-78655196D01*
X46199504Y-78658796D01*
X46175000Y-78660000D01*
X44925000Y-78660000D01*
X44900496Y-78658796D01*
X44876227Y-78655196D01*
X44852429Y-78649235D01*
X44829329Y-78640970D01*
X44807151Y-78630480D01*
X44786107Y-78617867D01*
X44766402Y-78603253D01*
X44748223Y-78586777D01*
X44731747Y-78568598D01*
X44717133Y-78548893D01*
X44704520Y-78527849D01*
X44694030Y-78505671D01*
X44685765Y-78482571D01*
X44679804Y-78458773D01*
X44676204Y-78434504D01*
X44675000Y-78410000D01*
X44675000Y-77485000D01*
X44676204Y-77460496D01*
X44679804Y-77436227D01*
X44685765Y-77412429D01*
X44694030Y-77389329D01*
X44704520Y-77367151D01*
X44717133Y-77346107D01*
X44731747Y-77326402D01*
X44748223Y-77308223D01*
X44766402Y-77291747D01*
X44786107Y-77277133D01*
X44807151Y-77264520D01*
X44829329Y-77254030D01*
X44852429Y-77245765D01*
X44876227Y-77239804D01*
X44900496Y-77236204D01*
X44925000Y-77235000D01*
X46175000Y-77235000D01*
X46199504Y-77236204D01*
X46199504Y-77236204D01*
G37*
D11*
X45550000Y-77947500D03*
D10*
G36*
X46199504Y-80211204D02*
X46223773Y-80214804D01*
X46247571Y-80220765D01*
X46270671Y-80229030D01*
X46292849Y-80239520D01*
X46313893Y-80252133D01*
X46333598Y-80266747D01*
X46351777Y-80283223D01*
X46368253Y-80301402D01*
X46382867Y-80321107D01*
X46395480Y-80342151D01*
X46405970Y-80364329D01*
X46414235Y-80387429D01*
X46420196Y-80411227D01*
X46423796Y-80435496D01*
X46425000Y-80460000D01*
X46425000Y-81385000D01*
X46423796Y-81409504D01*
X46420196Y-81433773D01*
X46414235Y-81457571D01*
X46405970Y-81480671D01*
X46395480Y-81502849D01*
X46382867Y-81523893D01*
X46368253Y-81543598D01*
X46351777Y-81561777D01*
X46333598Y-81578253D01*
X46313893Y-81592867D01*
X46292849Y-81605480D01*
X46270671Y-81615970D01*
X46247571Y-81624235D01*
X46223773Y-81630196D01*
X46199504Y-81633796D01*
X46175000Y-81635000D01*
X44925000Y-81635000D01*
X44900496Y-81633796D01*
X44876227Y-81630196D01*
X44852429Y-81624235D01*
X44829329Y-81615970D01*
X44807151Y-81605480D01*
X44786107Y-81592867D01*
X44766402Y-81578253D01*
X44748223Y-81561777D01*
X44731747Y-81543598D01*
X44717133Y-81523893D01*
X44704520Y-81502849D01*
X44694030Y-81480671D01*
X44685765Y-81457571D01*
X44679804Y-81433773D01*
X44676204Y-81409504D01*
X44675000Y-81385000D01*
X44675000Y-80460000D01*
X44676204Y-80435496D01*
X44679804Y-80411227D01*
X44685765Y-80387429D01*
X44694030Y-80364329D01*
X44704520Y-80342151D01*
X44717133Y-80321107D01*
X44731747Y-80301402D01*
X44748223Y-80283223D01*
X44766402Y-80266747D01*
X44786107Y-80252133D01*
X44807151Y-80239520D01*
X44829329Y-80229030D01*
X44852429Y-80220765D01*
X44876227Y-80214804D01*
X44900496Y-80211204D01*
X44925000Y-80210000D01*
X46175000Y-80210000D01*
X46199504Y-80211204D01*
X46199504Y-80211204D01*
G37*
D11*
X45550000Y-80922500D03*
D10*
G36*
X42940504Y-70124204D02*
X42964773Y-70127804D01*
X42988571Y-70133765D01*
X43011671Y-70142030D01*
X43033849Y-70152520D01*
X43054893Y-70165133D01*
X43074598Y-70179747D01*
X43092777Y-70196223D01*
X43109253Y-70214402D01*
X43123867Y-70234107D01*
X43136480Y-70255151D01*
X43146970Y-70277329D01*
X43155235Y-70300429D01*
X43161196Y-70324227D01*
X43164796Y-70348496D01*
X43166000Y-70373000D01*
X43166000Y-71298000D01*
X43164796Y-71322504D01*
X43161196Y-71346773D01*
X43155235Y-71370571D01*
X43146970Y-71393671D01*
X43136480Y-71415849D01*
X43123867Y-71436893D01*
X43109253Y-71456598D01*
X43092777Y-71474777D01*
X43074598Y-71491253D01*
X43054893Y-71505867D01*
X43033849Y-71518480D01*
X43011671Y-71528970D01*
X42988571Y-71537235D01*
X42964773Y-71543196D01*
X42940504Y-71546796D01*
X42916000Y-71548000D01*
X41666000Y-71548000D01*
X41641496Y-71546796D01*
X41617227Y-71543196D01*
X41593429Y-71537235D01*
X41570329Y-71528970D01*
X41548151Y-71518480D01*
X41527107Y-71505867D01*
X41507402Y-71491253D01*
X41489223Y-71474777D01*
X41472747Y-71456598D01*
X41458133Y-71436893D01*
X41445520Y-71415849D01*
X41435030Y-71393671D01*
X41426765Y-71370571D01*
X41420804Y-71346773D01*
X41417204Y-71322504D01*
X41416000Y-71298000D01*
X41416000Y-70373000D01*
X41417204Y-70348496D01*
X41420804Y-70324227D01*
X41426765Y-70300429D01*
X41435030Y-70277329D01*
X41445520Y-70255151D01*
X41458133Y-70234107D01*
X41472747Y-70214402D01*
X41489223Y-70196223D01*
X41507402Y-70179747D01*
X41527107Y-70165133D01*
X41548151Y-70152520D01*
X41570329Y-70142030D01*
X41593429Y-70133765D01*
X41617227Y-70127804D01*
X41641496Y-70124204D01*
X41666000Y-70123000D01*
X42916000Y-70123000D01*
X42940504Y-70124204D01*
X42940504Y-70124204D01*
G37*
D11*
X42291000Y-70835500D03*
D10*
G36*
X42940504Y-73099204D02*
X42964773Y-73102804D01*
X42988571Y-73108765D01*
X43011671Y-73117030D01*
X43033849Y-73127520D01*
X43054893Y-73140133D01*
X43074598Y-73154747D01*
X43092777Y-73171223D01*
X43109253Y-73189402D01*
X43123867Y-73209107D01*
X43136480Y-73230151D01*
X43146970Y-73252329D01*
X43155235Y-73275429D01*
X43161196Y-73299227D01*
X43164796Y-73323496D01*
X43166000Y-73348000D01*
X43166000Y-74273000D01*
X43164796Y-74297504D01*
X43161196Y-74321773D01*
X43155235Y-74345571D01*
X43146970Y-74368671D01*
X43136480Y-74390849D01*
X43123867Y-74411893D01*
X43109253Y-74431598D01*
X43092777Y-74449777D01*
X43074598Y-74466253D01*
X43054893Y-74480867D01*
X43033849Y-74493480D01*
X43011671Y-74503970D01*
X42988571Y-74512235D01*
X42964773Y-74518196D01*
X42940504Y-74521796D01*
X42916000Y-74523000D01*
X41666000Y-74523000D01*
X41641496Y-74521796D01*
X41617227Y-74518196D01*
X41593429Y-74512235D01*
X41570329Y-74503970D01*
X41548151Y-74493480D01*
X41527107Y-74480867D01*
X41507402Y-74466253D01*
X41489223Y-74449777D01*
X41472747Y-74431598D01*
X41458133Y-74411893D01*
X41445520Y-74390849D01*
X41435030Y-74368671D01*
X41426765Y-74345571D01*
X41420804Y-74321773D01*
X41417204Y-74297504D01*
X41416000Y-74273000D01*
X41416000Y-73348000D01*
X41417204Y-73323496D01*
X41420804Y-73299227D01*
X41426765Y-73275429D01*
X41435030Y-73252329D01*
X41445520Y-73230151D01*
X41458133Y-73209107D01*
X41472747Y-73189402D01*
X41489223Y-73171223D01*
X41507402Y-73154747D01*
X41527107Y-73140133D01*
X41548151Y-73127520D01*
X41570329Y-73117030D01*
X41593429Y-73108765D01*
X41617227Y-73102804D01*
X41641496Y-73099204D01*
X41666000Y-73098000D01*
X42916000Y-73098000D01*
X42940504Y-73099204D01*
X42940504Y-73099204D01*
G37*
D11*
X42291000Y-73810500D03*
D10*
G36*
X10809504Y-84656204D02*
X10833773Y-84659804D01*
X10857571Y-84665765D01*
X10880671Y-84674030D01*
X10902849Y-84684520D01*
X10923893Y-84697133D01*
X10943598Y-84711747D01*
X10961777Y-84728223D01*
X10978253Y-84746402D01*
X10992867Y-84766107D01*
X11005480Y-84787151D01*
X11015970Y-84809329D01*
X11024235Y-84832429D01*
X11030196Y-84856227D01*
X11033796Y-84880496D01*
X11035000Y-84905000D01*
X11035000Y-85830000D01*
X11033796Y-85854504D01*
X11030196Y-85878773D01*
X11024235Y-85902571D01*
X11015970Y-85925671D01*
X11005480Y-85947849D01*
X10992867Y-85968893D01*
X10978253Y-85988598D01*
X10961777Y-86006777D01*
X10943598Y-86023253D01*
X10923893Y-86037867D01*
X10902849Y-86050480D01*
X10880671Y-86060970D01*
X10857571Y-86069235D01*
X10833773Y-86075196D01*
X10809504Y-86078796D01*
X10785000Y-86080000D01*
X9535000Y-86080000D01*
X9510496Y-86078796D01*
X9486227Y-86075196D01*
X9462429Y-86069235D01*
X9439329Y-86060970D01*
X9417151Y-86050480D01*
X9396107Y-86037867D01*
X9376402Y-86023253D01*
X9358223Y-86006777D01*
X9341747Y-85988598D01*
X9327133Y-85968893D01*
X9314520Y-85947849D01*
X9304030Y-85925671D01*
X9295765Y-85902571D01*
X9289804Y-85878773D01*
X9286204Y-85854504D01*
X9285000Y-85830000D01*
X9285000Y-84905000D01*
X9286204Y-84880496D01*
X9289804Y-84856227D01*
X9295765Y-84832429D01*
X9304030Y-84809329D01*
X9314520Y-84787151D01*
X9327133Y-84766107D01*
X9341747Y-84746402D01*
X9358223Y-84728223D01*
X9376402Y-84711747D01*
X9396107Y-84697133D01*
X9417151Y-84684520D01*
X9439329Y-84674030D01*
X9462429Y-84665765D01*
X9486227Y-84659804D01*
X9510496Y-84656204D01*
X9535000Y-84655000D01*
X10785000Y-84655000D01*
X10809504Y-84656204D01*
X10809504Y-84656204D01*
G37*
D11*
X10160000Y-85367500D03*
D10*
G36*
X10809504Y-81681204D02*
X10833773Y-81684804D01*
X10857571Y-81690765D01*
X10880671Y-81699030D01*
X10902849Y-81709520D01*
X10923893Y-81722133D01*
X10943598Y-81736747D01*
X10961777Y-81753223D01*
X10978253Y-81771402D01*
X10992867Y-81791107D01*
X11005480Y-81812151D01*
X11015970Y-81834329D01*
X11024235Y-81857429D01*
X11030196Y-81881227D01*
X11033796Y-81905496D01*
X11035000Y-81930000D01*
X11035000Y-82855000D01*
X11033796Y-82879504D01*
X11030196Y-82903773D01*
X11024235Y-82927571D01*
X11015970Y-82950671D01*
X11005480Y-82972849D01*
X10992867Y-82993893D01*
X10978253Y-83013598D01*
X10961777Y-83031777D01*
X10943598Y-83048253D01*
X10923893Y-83062867D01*
X10902849Y-83075480D01*
X10880671Y-83085970D01*
X10857571Y-83094235D01*
X10833773Y-83100196D01*
X10809504Y-83103796D01*
X10785000Y-83105000D01*
X9535000Y-83105000D01*
X9510496Y-83103796D01*
X9486227Y-83100196D01*
X9462429Y-83094235D01*
X9439329Y-83085970D01*
X9417151Y-83075480D01*
X9396107Y-83062867D01*
X9376402Y-83048253D01*
X9358223Y-83031777D01*
X9341747Y-83013598D01*
X9327133Y-82993893D01*
X9314520Y-82972849D01*
X9304030Y-82950671D01*
X9295765Y-82927571D01*
X9289804Y-82903773D01*
X9286204Y-82879504D01*
X9285000Y-82855000D01*
X9285000Y-81930000D01*
X9286204Y-81905496D01*
X9289804Y-81881227D01*
X9295765Y-81857429D01*
X9304030Y-81834329D01*
X9314520Y-81812151D01*
X9327133Y-81791107D01*
X9341747Y-81771402D01*
X9358223Y-81753223D01*
X9376402Y-81736747D01*
X9396107Y-81722133D01*
X9417151Y-81709520D01*
X9439329Y-81699030D01*
X9462429Y-81690765D01*
X9486227Y-81684804D01*
X9510496Y-81681204D01*
X9535000Y-81680000D01*
X10785000Y-81680000D01*
X10809504Y-81681204D01*
X10809504Y-81681204D01*
G37*
D11*
X10160000Y-82392500D03*
D10*
G36*
X28166504Y-87705204D02*
X28190773Y-87708804D01*
X28214571Y-87714765D01*
X28237671Y-87723030D01*
X28259849Y-87733520D01*
X28280893Y-87746133D01*
X28300598Y-87760747D01*
X28318777Y-87777223D01*
X28335253Y-87795402D01*
X28349867Y-87815107D01*
X28362480Y-87836151D01*
X28372970Y-87858329D01*
X28381235Y-87881429D01*
X28387196Y-87905227D01*
X28390796Y-87929496D01*
X28392000Y-87954000D01*
X28392000Y-89204000D01*
X28390796Y-89228504D01*
X28387196Y-89252773D01*
X28381235Y-89276571D01*
X28372970Y-89299671D01*
X28362480Y-89321849D01*
X28349867Y-89342893D01*
X28335253Y-89362598D01*
X28318777Y-89380777D01*
X28300598Y-89397253D01*
X28280893Y-89411867D01*
X28259849Y-89424480D01*
X28237671Y-89434970D01*
X28214571Y-89443235D01*
X28190773Y-89449196D01*
X28166504Y-89452796D01*
X28142000Y-89454000D01*
X27217000Y-89454000D01*
X27192496Y-89452796D01*
X27168227Y-89449196D01*
X27144429Y-89443235D01*
X27121329Y-89434970D01*
X27099151Y-89424480D01*
X27078107Y-89411867D01*
X27058402Y-89397253D01*
X27040223Y-89380777D01*
X27023747Y-89362598D01*
X27009133Y-89342893D01*
X26996520Y-89321849D01*
X26986030Y-89299671D01*
X26977765Y-89276571D01*
X26971804Y-89252773D01*
X26968204Y-89228504D01*
X26967000Y-89204000D01*
X26967000Y-87954000D01*
X26968204Y-87929496D01*
X26971804Y-87905227D01*
X26977765Y-87881429D01*
X26986030Y-87858329D01*
X26996520Y-87836151D01*
X27009133Y-87815107D01*
X27023747Y-87795402D01*
X27040223Y-87777223D01*
X27058402Y-87760747D01*
X27078107Y-87746133D01*
X27099151Y-87733520D01*
X27121329Y-87723030D01*
X27144429Y-87714765D01*
X27168227Y-87708804D01*
X27192496Y-87705204D01*
X27217000Y-87704000D01*
X28142000Y-87704000D01*
X28166504Y-87705204D01*
X28166504Y-87705204D01*
G37*
D11*
X27679500Y-88579000D03*
D10*
G36*
X31141504Y-87705204D02*
X31165773Y-87708804D01*
X31189571Y-87714765D01*
X31212671Y-87723030D01*
X31234849Y-87733520D01*
X31255893Y-87746133D01*
X31275598Y-87760747D01*
X31293777Y-87777223D01*
X31310253Y-87795402D01*
X31324867Y-87815107D01*
X31337480Y-87836151D01*
X31347970Y-87858329D01*
X31356235Y-87881429D01*
X31362196Y-87905227D01*
X31365796Y-87929496D01*
X31367000Y-87954000D01*
X31367000Y-89204000D01*
X31365796Y-89228504D01*
X31362196Y-89252773D01*
X31356235Y-89276571D01*
X31347970Y-89299671D01*
X31337480Y-89321849D01*
X31324867Y-89342893D01*
X31310253Y-89362598D01*
X31293777Y-89380777D01*
X31275598Y-89397253D01*
X31255893Y-89411867D01*
X31234849Y-89424480D01*
X31212671Y-89434970D01*
X31189571Y-89443235D01*
X31165773Y-89449196D01*
X31141504Y-89452796D01*
X31117000Y-89454000D01*
X30192000Y-89454000D01*
X30167496Y-89452796D01*
X30143227Y-89449196D01*
X30119429Y-89443235D01*
X30096329Y-89434970D01*
X30074151Y-89424480D01*
X30053107Y-89411867D01*
X30033402Y-89397253D01*
X30015223Y-89380777D01*
X29998747Y-89362598D01*
X29984133Y-89342893D01*
X29971520Y-89321849D01*
X29961030Y-89299671D01*
X29952765Y-89276571D01*
X29946804Y-89252773D01*
X29943204Y-89228504D01*
X29942000Y-89204000D01*
X29942000Y-87954000D01*
X29943204Y-87929496D01*
X29946804Y-87905227D01*
X29952765Y-87881429D01*
X29961030Y-87858329D01*
X29971520Y-87836151D01*
X29984133Y-87815107D01*
X29998747Y-87795402D01*
X30015223Y-87777223D01*
X30033402Y-87760747D01*
X30053107Y-87746133D01*
X30074151Y-87733520D01*
X30096329Y-87723030D01*
X30119429Y-87714765D01*
X30143227Y-87708804D01*
X30167496Y-87705204D01*
X30192000Y-87704000D01*
X31117000Y-87704000D01*
X31141504Y-87705204D01*
X31141504Y-87705204D01*
G37*
D11*
X30654500Y-88579000D03*
D10*
G36*
X70372504Y-66060204D02*
X70396773Y-66063804D01*
X70420571Y-66069765D01*
X70443671Y-66078030D01*
X70465849Y-66088520D01*
X70486893Y-66101133D01*
X70506598Y-66115747D01*
X70524777Y-66132223D01*
X70541253Y-66150402D01*
X70555867Y-66170107D01*
X70568480Y-66191151D01*
X70578970Y-66213329D01*
X70587235Y-66236429D01*
X70593196Y-66260227D01*
X70596796Y-66284496D01*
X70598000Y-66309000D01*
X70598000Y-67234000D01*
X70596796Y-67258504D01*
X70593196Y-67282773D01*
X70587235Y-67306571D01*
X70578970Y-67329671D01*
X70568480Y-67351849D01*
X70555867Y-67372893D01*
X70541253Y-67392598D01*
X70524777Y-67410777D01*
X70506598Y-67427253D01*
X70486893Y-67441867D01*
X70465849Y-67454480D01*
X70443671Y-67464970D01*
X70420571Y-67473235D01*
X70396773Y-67479196D01*
X70372504Y-67482796D01*
X70348000Y-67484000D01*
X69098000Y-67484000D01*
X69073496Y-67482796D01*
X69049227Y-67479196D01*
X69025429Y-67473235D01*
X69002329Y-67464970D01*
X68980151Y-67454480D01*
X68959107Y-67441867D01*
X68939402Y-67427253D01*
X68921223Y-67410777D01*
X68904747Y-67392598D01*
X68890133Y-67372893D01*
X68877520Y-67351849D01*
X68867030Y-67329671D01*
X68858765Y-67306571D01*
X68852804Y-67282773D01*
X68849204Y-67258504D01*
X68848000Y-67234000D01*
X68848000Y-66309000D01*
X68849204Y-66284496D01*
X68852804Y-66260227D01*
X68858765Y-66236429D01*
X68867030Y-66213329D01*
X68877520Y-66191151D01*
X68890133Y-66170107D01*
X68904747Y-66150402D01*
X68921223Y-66132223D01*
X68939402Y-66115747D01*
X68959107Y-66101133D01*
X68980151Y-66088520D01*
X69002329Y-66078030D01*
X69025429Y-66069765D01*
X69049227Y-66063804D01*
X69073496Y-66060204D01*
X69098000Y-66059000D01*
X70348000Y-66059000D01*
X70372504Y-66060204D01*
X70372504Y-66060204D01*
G37*
D11*
X69723000Y-66771500D03*
D10*
G36*
X70372504Y-69035204D02*
X70396773Y-69038804D01*
X70420571Y-69044765D01*
X70443671Y-69053030D01*
X70465849Y-69063520D01*
X70486893Y-69076133D01*
X70506598Y-69090747D01*
X70524777Y-69107223D01*
X70541253Y-69125402D01*
X70555867Y-69145107D01*
X70568480Y-69166151D01*
X70578970Y-69188329D01*
X70587235Y-69211429D01*
X70593196Y-69235227D01*
X70596796Y-69259496D01*
X70598000Y-69284000D01*
X70598000Y-70209000D01*
X70596796Y-70233504D01*
X70593196Y-70257773D01*
X70587235Y-70281571D01*
X70578970Y-70304671D01*
X70568480Y-70326849D01*
X70555867Y-70347893D01*
X70541253Y-70367598D01*
X70524777Y-70385777D01*
X70506598Y-70402253D01*
X70486893Y-70416867D01*
X70465849Y-70429480D01*
X70443671Y-70439970D01*
X70420571Y-70448235D01*
X70396773Y-70454196D01*
X70372504Y-70457796D01*
X70348000Y-70459000D01*
X69098000Y-70459000D01*
X69073496Y-70457796D01*
X69049227Y-70454196D01*
X69025429Y-70448235D01*
X69002329Y-70439970D01*
X68980151Y-70429480D01*
X68959107Y-70416867D01*
X68939402Y-70402253D01*
X68921223Y-70385777D01*
X68904747Y-70367598D01*
X68890133Y-70347893D01*
X68877520Y-70326849D01*
X68867030Y-70304671D01*
X68858765Y-70281571D01*
X68852804Y-70257773D01*
X68849204Y-70233504D01*
X68848000Y-70209000D01*
X68848000Y-69284000D01*
X68849204Y-69259496D01*
X68852804Y-69235227D01*
X68858765Y-69211429D01*
X68867030Y-69188329D01*
X68877520Y-69166151D01*
X68890133Y-69145107D01*
X68904747Y-69125402D01*
X68921223Y-69107223D01*
X68939402Y-69090747D01*
X68959107Y-69076133D01*
X68980151Y-69063520D01*
X69002329Y-69053030D01*
X69025429Y-69044765D01*
X69049227Y-69038804D01*
X69073496Y-69035204D01*
X69098000Y-69034000D01*
X70348000Y-69034000D01*
X70372504Y-69035204D01*
X70372504Y-69035204D01*
G37*
D11*
X69723000Y-69746500D03*
D10*
G36*
X62244504Y-80211204D02*
X62268773Y-80214804D01*
X62292571Y-80220765D01*
X62315671Y-80229030D01*
X62337849Y-80239520D01*
X62358893Y-80252133D01*
X62378598Y-80266747D01*
X62396777Y-80283223D01*
X62413253Y-80301402D01*
X62427867Y-80321107D01*
X62440480Y-80342151D01*
X62450970Y-80364329D01*
X62459235Y-80387429D01*
X62465196Y-80411227D01*
X62468796Y-80435496D01*
X62470000Y-80460000D01*
X62470000Y-81385000D01*
X62468796Y-81409504D01*
X62465196Y-81433773D01*
X62459235Y-81457571D01*
X62450970Y-81480671D01*
X62440480Y-81502849D01*
X62427867Y-81523893D01*
X62413253Y-81543598D01*
X62396777Y-81561777D01*
X62378598Y-81578253D01*
X62358893Y-81592867D01*
X62337849Y-81605480D01*
X62315671Y-81615970D01*
X62292571Y-81624235D01*
X62268773Y-81630196D01*
X62244504Y-81633796D01*
X62220000Y-81635000D01*
X60970000Y-81635000D01*
X60945496Y-81633796D01*
X60921227Y-81630196D01*
X60897429Y-81624235D01*
X60874329Y-81615970D01*
X60852151Y-81605480D01*
X60831107Y-81592867D01*
X60811402Y-81578253D01*
X60793223Y-81561777D01*
X60776747Y-81543598D01*
X60762133Y-81523893D01*
X60749520Y-81502849D01*
X60739030Y-81480671D01*
X60730765Y-81457571D01*
X60724804Y-81433773D01*
X60721204Y-81409504D01*
X60720000Y-81385000D01*
X60720000Y-80460000D01*
X60721204Y-80435496D01*
X60724804Y-80411227D01*
X60730765Y-80387429D01*
X60739030Y-80364329D01*
X60749520Y-80342151D01*
X60762133Y-80321107D01*
X60776747Y-80301402D01*
X60793223Y-80283223D01*
X60811402Y-80266747D01*
X60831107Y-80252133D01*
X60852151Y-80239520D01*
X60874329Y-80229030D01*
X60897429Y-80220765D01*
X60921227Y-80214804D01*
X60945496Y-80211204D01*
X60970000Y-80210000D01*
X62220000Y-80210000D01*
X62244504Y-80211204D01*
X62244504Y-80211204D01*
G37*
D11*
X61595000Y-80922500D03*
D10*
G36*
X62244504Y-77236204D02*
X62268773Y-77239804D01*
X62292571Y-77245765D01*
X62315671Y-77254030D01*
X62337849Y-77264520D01*
X62358893Y-77277133D01*
X62378598Y-77291747D01*
X62396777Y-77308223D01*
X62413253Y-77326402D01*
X62427867Y-77346107D01*
X62440480Y-77367151D01*
X62450970Y-77389329D01*
X62459235Y-77412429D01*
X62465196Y-77436227D01*
X62468796Y-77460496D01*
X62470000Y-77485000D01*
X62470000Y-78410000D01*
X62468796Y-78434504D01*
X62465196Y-78458773D01*
X62459235Y-78482571D01*
X62450970Y-78505671D01*
X62440480Y-78527849D01*
X62427867Y-78548893D01*
X62413253Y-78568598D01*
X62396777Y-78586777D01*
X62378598Y-78603253D01*
X62358893Y-78617867D01*
X62337849Y-78630480D01*
X62315671Y-78640970D01*
X62292571Y-78649235D01*
X62268773Y-78655196D01*
X62244504Y-78658796D01*
X62220000Y-78660000D01*
X60970000Y-78660000D01*
X60945496Y-78658796D01*
X60921227Y-78655196D01*
X60897429Y-78649235D01*
X60874329Y-78640970D01*
X60852151Y-78630480D01*
X60831107Y-78617867D01*
X60811402Y-78603253D01*
X60793223Y-78586777D01*
X60776747Y-78568598D01*
X60762133Y-78548893D01*
X60749520Y-78527849D01*
X60739030Y-78505671D01*
X60730765Y-78482571D01*
X60724804Y-78458773D01*
X60721204Y-78434504D01*
X60720000Y-78410000D01*
X60720000Y-77485000D01*
X60721204Y-77460496D01*
X60724804Y-77436227D01*
X60730765Y-77412429D01*
X60739030Y-77389329D01*
X60749520Y-77367151D01*
X60762133Y-77346107D01*
X60776747Y-77326402D01*
X60793223Y-77308223D01*
X60811402Y-77291747D01*
X60831107Y-77277133D01*
X60852151Y-77264520D01*
X60874329Y-77254030D01*
X60897429Y-77245765D01*
X60921227Y-77239804D01*
X60945496Y-77236204D01*
X60970000Y-77235000D01*
X62220000Y-77235000D01*
X62244504Y-77236204D01*
X62244504Y-77236204D01*
G37*
D11*
X61595000Y-77947500D03*
D10*
G36*
X72869504Y-79068204D02*
X72893773Y-79071804D01*
X72917571Y-79077765D01*
X72940671Y-79086030D01*
X72962849Y-79096520D01*
X72983893Y-79109133D01*
X73003598Y-79123747D01*
X73021777Y-79140223D01*
X73038253Y-79158402D01*
X73052867Y-79178107D01*
X73065480Y-79199151D01*
X73075970Y-79221329D01*
X73084235Y-79244429D01*
X73090196Y-79268227D01*
X73093796Y-79292496D01*
X73095000Y-79317000D01*
X73095000Y-80242000D01*
X73093796Y-80266504D01*
X73090196Y-80290773D01*
X73084235Y-80314571D01*
X73075970Y-80337671D01*
X73065480Y-80359849D01*
X73052867Y-80380893D01*
X73038253Y-80400598D01*
X73021777Y-80418777D01*
X73003598Y-80435253D01*
X72983893Y-80449867D01*
X72962849Y-80462480D01*
X72940671Y-80472970D01*
X72917571Y-80481235D01*
X72893773Y-80487196D01*
X72869504Y-80490796D01*
X72845000Y-80492000D01*
X71595000Y-80492000D01*
X71570496Y-80490796D01*
X71546227Y-80487196D01*
X71522429Y-80481235D01*
X71499329Y-80472970D01*
X71477151Y-80462480D01*
X71456107Y-80449867D01*
X71436402Y-80435253D01*
X71418223Y-80418777D01*
X71401747Y-80400598D01*
X71387133Y-80380893D01*
X71374520Y-80359849D01*
X71364030Y-80337671D01*
X71355765Y-80314571D01*
X71349804Y-80290773D01*
X71346204Y-80266504D01*
X71345000Y-80242000D01*
X71345000Y-79317000D01*
X71346204Y-79292496D01*
X71349804Y-79268227D01*
X71355765Y-79244429D01*
X71364030Y-79221329D01*
X71374520Y-79199151D01*
X71387133Y-79178107D01*
X71401747Y-79158402D01*
X71418223Y-79140223D01*
X71436402Y-79123747D01*
X71456107Y-79109133D01*
X71477151Y-79096520D01*
X71499329Y-79086030D01*
X71522429Y-79077765D01*
X71546227Y-79071804D01*
X71570496Y-79068204D01*
X71595000Y-79067000D01*
X72845000Y-79067000D01*
X72869504Y-79068204D01*
X72869504Y-79068204D01*
G37*
D11*
X72220000Y-79779500D03*
D10*
G36*
X72869504Y-76093204D02*
X72893773Y-76096804D01*
X72917571Y-76102765D01*
X72940671Y-76111030D01*
X72962849Y-76121520D01*
X72983893Y-76134133D01*
X73003598Y-76148747D01*
X73021777Y-76165223D01*
X73038253Y-76183402D01*
X73052867Y-76203107D01*
X73065480Y-76224151D01*
X73075970Y-76246329D01*
X73084235Y-76269429D01*
X73090196Y-76293227D01*
X73093796Y-76317496D01*
X73095000Y-76342000D01*
X73095000Y-77267000D01*
X73093796Y-77291504D01*
X73090196Y-77315773D01*
X73084235Y-77339571D01*
X73075970Y-77362671D01*
X73065480Y-77384849D01*
X73052867Y-77405893D01*
X73038253Y-77425598D01*
X73021777Y-77443777D01*
X73003598Y-77460253D01*
X72983893Y-77474867D01*
X72962849Y-77487480D01*
X72940671Y-77497970D01*
X72917571Y-77506235D01*
X72893773Y-77512196D01*
X72869504Y-77515796D01*
X72845000Y-77517000D01*
X71595000Y-77517000D01*
X71570496Y-77515796D01*
X71546227Y-77512196D01*
X71522429Y-77506235D01*
X71499329Y-77497970D01*
X71477151Y-77487480D01*
X71456107Y-77474867D01*
X71436402Y-77460253D01*
X71418223Y-77443777D01*
X71401747Y-77425598D01*
X71387133Y-77405893D01*
X71374520Y-77384849D01*
X71364030Y-77362671D01*
X71355765Y-77339571D01*
X71349804Y-77315773D01*
X71346204Y-77291504D01*
X71345000Y-77267000D01*
X71345000Y-76342000D01*
X71346204Y-76317496D01*
X71349804Y-76293227D01*
X71355765Y-76269429D01*
X71364030Y-76246329D01*
X71374520Y-76224151D01*
X71387133Y-76203107D01*
X71401747Y-76183402D01*
X71418223Y-76165223D01*
X71436402Y-76148747D01*
X71456107Y-76134133D01*
X71477151Y-76121520D01*
X71499329Y-76111030D01*
X71522429Y-76102765D01*
X71546227Y-76096804D01*
X71570496Y-76093204D01*
X71595000Y-76092000D01*
X72845000Y-76092000D01*
X72869504Y-76093204D01*
X72869504Y-76093204D01*
G37*
D11*
X72220000Y-76804500D03*
D10*
G36*
X67535504Y-79068204D02*
X67559773Y-79071804D01*
X67583571Y-79077765D01*
X67606671Y-79086030D01*
X67628849Y-79096520D01*
X67649893Y-79109133D01*
X67669598Y-79123747D01*
X67687777Y-79140223D01*
X67704253Y-79158402D01*
X67718867Y-79178107D01*
X67731480Y-79199151D01*
X67741970Y-79221329D01*
X67750235Y-79244429D01*
X67756196Y-79268227D01*
X67759796Y-79292496D01*
X67761000Y-79317000D01*
X67761000Y-80242000D01*
X67759796Y-80266504D01*
X67756196Y-80290773D01*
X67750235Y-80314571D01*
X67741970Y-80337671D01*
X67731480Y-80359849D01*
X67718867Y-80380893D01*
X67704253Y-80400598D01*
X67687777Y-80418777D01*
X67669598Y-80435253D01*
X67649893Y-80449867D01*
X67628849Y-80462480D01*
X67606671Y-80472970D01*
X67583571Y-80481235D01*
X67559773Y-80487196D01*
X67535504Y-80490796D01*
X67511000Y-80492000D01*
X66261000Y-80492000D01*
X66236496Y-80490796D01*
X66212227Y-80487196D01*
X66188429Y-80481235D01*
X66165329Y-80472970D01*
X66143151Y-80462480D01*
X66122107Y-80449867D01*
X66102402Y-80435253D01*
X66084223Y-80418777D01*
X66067747Y-80400598D01*
X66053133Y-80380893D01*
X66040520Y-80359849D01*
X66030030Y-80337671D01*
X66021765Y-80314571D01*
X66015804Y-80290773D01*
X66012204Y-80266504D01*
X66011000Y-80242000D01*
X66011000Y-79317000D01*
X66012204Y-79292496D01*
X66015804Y-79268227D01*
X66021765Y-79244429D01*
X66030030Y-79221329D01*
X66040520Y-79199151D01*
X66053133Y-79178107D01*
X66067747Y-79158402D01*
X66084223Y-79140223D01*
X66102402Y-79123747D01*
X66122107Y-79109133D01*
X66143151Y-79096520D01*
X66165329Y-79086030D01*
X66188429Y-79077765D01*
X66212227Y-79071804D01*
X66236496Y-79068204D01*
X66261000Y-79067000D01*
X67511000Y-79067000D01*
X67535504Y-79068204D01*
X67535504Y-79068204D01*
G37*
D11*
X66886000Y-79779500D03*
D10*
G36*
X67535504Y-76093204D02*
X67559773Y-76096804D01*
X67583571Y-76102765D01*
X67606671Y-76111030D01*
X67628849Y-76121520D01*
X67649893Y-76134133D01*
X67669598Y-76148747D01*
X67687777Y-76165223D01*
X67704253Y-76183402D01*
X67718867Y-76203107D01*
X67731480Y-76224151D01*
X67741970Y-76246329D01*
X67750235Y-76269429D01*
X67756196Y-76293227D01*
X67759796Y-76317496D01*
X67761000Y-76342000D01*
X67761000Y-77267000D01*
X67759796Y-77291504D01*
X67756196Y-77315773D01*
X67750235Y-77339571D01*
X67741970Y-77362671D01*
X67731480Y-77384849D01*
X67718867Y-77405893D01*
X67704253Y-77425598D01*
X67687777Y-77443777D01*
X67669598Y-77460253D01*
X67649893Y-77474867D01*
X67628849Y-77487480D01*
X67606671Y-77497970D01*
X67583571Y-77506235D01*
X67559773Y-77512196D01*
X67535504Y-77515796D01*
X67511000Y-77517000D01*
X66261000Y-77517000D01*
X66236496Y-77515796D01*
X66212227Y-77512196D01*
X66188429Y-77506235D01*
X66165329Y-77497970D01*
X66143151Y-77487480D01*
X66122107Y-77474867D01*
X66102402Y-77460253D01*
X66084223Y-77443777D01*
X66067747Y-77425598D01*
X66053133Y-77405893D01*
X66040520Y-77384849D01*
X66030030Y-77362671D01*
X66021765Y-77339571D01*
X66015804Y-77315773D01*
X66012204Y-77291504D01*
X66011000Y-77267000D01*
X66011000Y-76342000D01*
X66012204Y-76317496D01*
X66015804Y-76293227D01*
X66021765Y-76269429D01*
X66030030Y-76246329D01*
X66040520Y-76224151D01*
X66053133Y-76203107D01*
X66067747Y-76183402D01*
X66084223Y-76165223D01*
X66102402Y-76148747D01*
X66122107Y-76134133D01*
X66143151Y-76121520D01*
X66165329Y-76111030D01*
X66188429Y-76102765D01*
X66212227Y-76096804D01*
X66236496Y-76093204D01*
X66261000Y-76092000D01*
X67511000Y-76092000D01*
X67535504Y-76093204D01*
X67535504Y-76093204D01*
G37*
D11*
X66886000Y-76804500D03*
M02*
