%TF.GenerationSoftware,KiCad,Pcbnew,5.0.2-bee76a0~70~ubuntu18.04.1*%
%TF.CreationDate,2019-03-20T00:35:03+07:00*%
%TF.ProjectId,Display,44697370-6c61-4792-9e6b-696361645f70,rev?*%
%TF.SameCoordinates,PX1036640PY112a880*%
%TF.FileFunction,Copper,L1,Top*%
%TF.FilePolarity,Positive*%
%FSLAX46Y46*%
G04 Gerber Fmt 4.6, Leading zero omitted, Abs format (unit mm)*
G04 Created by KiCad (PCBNEW 5.0.2-bee76a0~70~ubuntu18.04.1) date Wed 20 Mar 2019 12:35:03 AM +07*
%MOMM*%
%LPD*%
G01*
G04 APERTURE LIST*
%ADD10R,1.700000X1.700000*%
%ADD11O,1.700000X1.700000*%
%ADD12C,1.700000*%
%ADD13O,2.500000X3.000000*%
%ADD14C,0.100000*%
%ADD15C,1.425000*%
%ADD16C,0.800000*%
%ADD17C,0.508000*%
%ADD18C,0.254000*%
G04 APERTURE END LIST*
D10*
X24087000Y-49717000D03*
D11*
X24087000Y-47177000D03*
X24087000Y-44637000D03*
X24087000Y-42097000D03*
X24087000Y-39557000D03*
X24087000Y-37017000D03*
X24087000Y-34477000D03*
X24087000Y-31937000D03*
X24087000Y-29397000D03*
X24087000Y-26857000D03*
X24087000Y-24317000D03*
X24087000Y-21777000D03*
X49487000Y-42097000D03*
X49487000Y-31937000D03*
X49487000Y-44637000D03*
X49487000Y-37017000D03*
X49487000Y-34477000D03*
X49487000Y-29397000D03*
X49487000Y-39557000D03*
X49487000Y-26857000D03*
X49487000Y-21777000D03*
D10*
X49487000Y-49717000D03*
D11*
X49487000Y-47177000D03*
X49487000Y-24317000D03*
D12*
X46947000Y-21777000D03*
X44407000Y-21777000D03*
X41867000Y-21777000D03*
X47287295Y-40827000D03*
X47287295Y-38287000D03*
D10*
X39835000Y-14157000D03*
D11*
X42375000Y-14157000D03*
X44915000Y-14157000D03*
X47455000Y-14157000D03*
X49995000Y-14157000D03*
X52535000Y-14157000D03*
X55075000Y-14157000D03*
X57615000Y-14157000D03*
D13*
X40931000Y-94251000D03*
X45931000Y-94251000D03*
X40931000Y-106751000D03*
X45931000Y-106751000D03*
X29167000Y-106667000D03*
X24167000Y-106667000D03*
X29167000Y-94167000D03*
X24167000Y-94167000D03*
X10000000Y-94167000D03*
X15000000Y-94167000D03*
X10000000Y-106667000D03*
X15000000Y-106667000D03*
X63203000Y-52500000D03*
X58203000Y-52500000D03*
X63203000Y-40000000D03*
X58203000Y-40000000D03*
X35343000Y-40000000D03*
X40343000Y-40000000D03*
X35343000Y-52500000D03*
X40343000Y-52500000D03*
X62314000Y-106794000D03*
X57314000Y-106794000D03*
X62314000Y-94294000D03*
X57314000Y-94294000D03*
D11*
X86270000Y-77059000D03*
X86270000Y-79599000D03*
X86270000Y-82139000D03*
X86270000Y-84679000D03*
X86270000Y-87219000D03*
X86270000Y-89759000D03*
X86270000Y-92299000D03*
X86270000Y-94839000D03*
X86270000Y-97379000D03*
X86270000Y-99919000D03*
X86270000Y-102459000D03*
D10*
X86270000Y-104999000D03*
D14*
G36*
X50941504Y-80211204D02*
X50965773Y-80214804D01*
X50989571Y-80220765D01*
X51012671Y-80229030D01*
X51034849Y-80239520D01*
X51055893Y-80252133D01*
X51075598Y-80266747D01*
X51093777Y-80283223D01*
X51110253Y-80301402D01*
X51124867Y-80321107D01*
X51137480Y-80342151D01*
X51147970Y-80364329D01*
X51156235Y-80387429D01*
X51162196Y-80411227D01*
X51165796Y-80435496D01*
X51167000Y-80460000D01*
X51167000Y-81385000D01*
X51165796Y-81409504D01*
X51162196Y-81433773D01*
X51156235Y-81457571D01*
X51147970Y-81480671D01*
X51137480Y-81502849D01*
X51124867Y-81523893D01*
X51110253Y-81543598D01*
X51093777Y-81561777D01*
X51075598Y-81578253D01*
X51055893Y-81592867D01*
X51034849Y-81605480D01*
X51012671Y-81615970D01*
X50989571Y-81624235D01*
X50965773Y-81630196D01*
X50941504Y-81633796D01*
X50917000Y-81635000D01*
X49667000Y-81635000D01*
X49642496Y-81633796D01*
X49618227Y-81630196D01*
X49594429Y-81624235D01*
X49571329Y-81615970D01*
X49549151Y-81605480D01*
X49528107Y-81592867D01*
X49508402Y-81578253D01*
X49490223Y-81561777D01*
X49473747Y-81543598D01*
X49459133Y-81523893D01*
X49446520Y-81502849D01*
X49436030Y-81480671D01*
X49427765Y-81457571D01*
X49421804Y-81433773D01*
X49418204Y-81409504D01*
X49417000Y-81385000D01*
X49417000Y-80460000D01*
X49418204Y-80435496D01*
X49421804Y-80411227D01*
X49427765Y-80387429D01*
X49436030Y-80364329D01*
X49446520Y-80342151D01*
X49459133Y-80321107D01*
X49473747Y-80301402D01*
X49490223Y-80283223D01*
X49508402Y-80266747D01*
X49528107Y-80252133D01*
X49549151Y-80239520D01*
X49571329Y-80229030D01*
X49594429Y-80220765D01*
X49618227Y-80214804D01*
X49642496Y-80211204D01*
X49667000Y-80210000D01*
X50917000Y-80210000D01*
X50941504Y-80211204D01*
X50941504Y-80211204D01*
G37*
D15*
X50292000Y-80922500D03*
D14*
G36*
X50941504Y-77236204D02*
X50965773Y-77239804D01*
X50989571Y-77245765D01*
X51012671Y-77254030D01*
X51034849Y-77264520D01*
X51055893Y-77277133D01*
X51075598Y-77291747D01*
X51093777Y-77308223D01*
X51110253Y-77326402D01*
X51124867Y-77346107D01*
X51137480Y-77367151D01*
X51147970Y-77389329D01*
X51156235Y-77412429D01*
X51162196Y-77436227D01*
X51165796Y-77460496D01*
X51167000Y-77485000D01*
X51167000Y-78410000D01*
X51165796Y-78434504D01*
X51162196Y-78458773D01*
X51156235Y-78482571D01*
X51147970Y-78505671D01*
X51137480Y-78527849D01*
X51124867Y-78548893D01*
X51110253Y-78568598D01*
X51093777Y-78586777D01*
X51075598Y-78603253D01*
X51055893Y-78617867D01*
X51034849Y-78630480D01*
X51012671Y-78640970D01*
X50989571Y-78649235D01*
X50965773Y-78655196D01*
X50941504Y-78658796D01*
X50917000Y-78660000D01*
X49667000Y-78660000D01*
X49642496Y-78658796D01*
X49618227Y-78655196D01*
X49594429Y-78649235D01*
X49571329Y-78640970D01*
X49549151Y-78630480D01*
X49528107Y-78617867D01*
X49508402Y-78603253D01*
X49490223Y-78586777D01*
X49473747Y-78568598D01*
X49459133Y-78548893D01*
X49446520Y-78527849D01*
X49436030Y-78505671D01*
X49427765Y-78482571D01*
X49421804Y-78458773D01*
X49418204Y-78434504D01*
X49417000Y-78410000D01*
X49417000Y-77485000D01*
X49418204Y-77460496D01*
X49421804Y-77436227D01*
X49427765Y-77412429D01*
X49436030Y-77389329D01*
X49446520Y-77367151D01*
X49459133Y-77346107D01*
X49473747Y-77326402D01*
X49490223Y-77308223D01*
X49508402Y-77291747D01*
X49528107Y-77277133D01*
X49549151Y-77264520D01*
X49571329Y-77254030D01*
X49594429Y-77245765D01*
X49618227Y-77239804D01*
X49642496Y-77236204D01*
X49667000Y-77235000D01*
X50917000Y-77235000D01*
X50941504Y-77236204D01*
X50941504Y-77236204D01*
G37*
D15*
X50292000Y-77947500D03*
D14*
G36*
X58688504Y-80211204D02*
X58712773Y-80214804D01*
X58736571Y-80220765D01*
X58759671Y-80229030D01*
X58781849Y-80239520D01*
X58802893Y-80252133D01*
X58822598Y-80266747D01*
X58840777Y-80283223D01*
X58857253Y-80301402D01*
X58871867Y-80321107D01*
X58884480Y-80342151D01*
X58894970Y-80364329D01*
X58903235Y-80387429D01*
X58909196Y-80411227D01*
X58912796Y-80435496D01*
X58914000Y-80460000D01*
X58914000Y-81385000D01*
X58912796Y-81409504D01*
X58909196Y-81433773D01*
X58903235Y-81457571D01*
X58894970Y-81480671D01*
X58884480Y-81502849D01*
X58871867Y-81523893D01*
X58857253Y-81543598D01*
X58840777Y-81561777D01*
X58822598Y-81578253D01*
X58802893Y-81592867D01*
X58781849Y-81605480D01*
X58759671Y-81615970D01*
X58736571Y-81624235D01*
X58712773Y-81630196D01*
X58688504Y-81633796D01*
X58664000Y-81635000D01*
X57414000Y-81635000D01*
X57389496Y-81633796D01*
X57365227Y-81630196D01*
X57341429Y-81624235D01*
X57318329Y-81615970D01*
X57296151Y-81605480D01*
X57275107Y-81592867D01*
X57255402Y-81578253D01*
X57237223Y-81561777D01*
X57220747Y-81543598D01*
X57206133Y-81523893D01*
X57193520Y-81502849D01*
X57183030Y-81480671D01*
X57174765Y-81457571D01*
X57168804Y-81433773D01*
X57165204Y-81409504D01*
X57164000Y-81385000D01*
X57164000Y-80460000D01*
X57165204Y-80435496D01*
X57168804Y-80411227D01*
X57174765Y-80387429D01*
X57183030Y-80364329D01*
X57193520Y-80342151D01*
X57206133Y-80321107D01*
X57220747Y-80301402D01*
X57237223Y-80283223D01*
X57255402Y-80266747D01*
X57275107Y-80252133D01*
X57296151Y-80239520D01*
X57318329Y-80229030D01*
X57341429Y-80220765D01*
X57365227Y-80214804D01*
X57389496Y-80211204D01*
X57414000Y-80210000D01*
X58664000Y-80210000D01*
X58688504Y-80211204D01*
X58688504Y-80211204D01*
G37*
D15*
X58039000Y-80922500D03*
D14*
G36*
X58688504Y-77236204D02*
X58712773Y-77239804D01*
X58736571Y-77245765D01*
X58759671Y-77254030D01*
X58781849Y-77264520D01*
X58802893Y-77277133D01*
X58822598Y-77291747D01*
X58840777Y-77308223D01*
X58857253Y-77326402D01*
X58871867Y-77346107D01*
X58884480Y-77367151D01*
X58894970Y-77389329D01*
X58903235Y-77412429D01*
X58909196Y-77436227D01*
X58912796Y-77460496D01*
X58914000Y-77485000D01*
X58914000Y-78410000D01*
X58912796Y-78434504D01*
X58909196Y-78458773D01*
X58903235Y-78482571D01*
X58894970Y-78505671D01*
X58884480Y-78527849D01*
X58871867Y-78548893D01*
X58857253Y-78568598D01*
X58840777Y-78586777D01*
X58822598Y-78603253D01*
X58802893Y-78617867D01*
X58781849Y-78630480D01*
X58759671Y-78640970D01*
X58736571Y-78649235D01*
X58712773Y-78655196D01*
X58688504Y-78658796D01*
X58664000Y-78660000D01*
X57414000Y-78660000D01*
X57389496Y-78658796D01*
X57365227Y-78655196D01*
X57341429Y-78649235D01*
X57318329Y-78640970D01*
X57296151Y-78630480D01*
X57275107Y-78617867D01*
X57255402Y-78603253D01*
X57237223Y-78586777D01*
X57220747Y-78568598D01*
X57206133Y-78548893D01*
X57193520Y-78527849D01*
X57183030Y-78505671D01*
X57174765Y-78482571D01*
X57168804Y-78458773D01*
X57165204Y-78434504D01*
X57164000Y-78410000D01*
X57164000Y-77485000D01*
X57165204Y-77460496D01*
X57168804Y-77436227D01*
X57174765Y-77412429D01*
X57183030Y-77389329D01*
X57193520Y-77367151D01*
X57206133Y-77346107D01*
X57220747Y-77326402D01*
X57237223Y-77308223D01*
X57255402Y-77291747D01*
X57275107Y-77277133D01*
X57296151Y-77264520D01*
X57318329Y-77254030D01*
X57341429Y-77245765D01*
X57365227Y-77239804D01*
X57389496Y-77236204D01*
X57414000Y-77235000D01*
X58664000Y-77235000D01*
X58688504Y-77236204D01*
X58688504Y-77236204D01*
G37*
D15*
X58039000Y-77947500D03*
D14*
G36*
X47004504Y-70124204D02*
X47028773Y-70127804D01*
X47052571Y-70133765D01*
X47075671Y-70142030D01*
X47097849Y-70152520D01*
X47118893Y-70165133D01*
X47138598Y-70179747D01*
X47156777Y-70196223D01*
X47173253Y-70214402D01*
X47187867Y-70234107D01*
X47200480Y-70255151D01*
X47210970Y-70277329D01*
X47219235Y-70300429D01*
X47225196Y-70324227D01*
X47228796Y-70348496D01*
X47230000Y-70373000D01*
X47230000Y-71298000D01*
X47228796Y-71322504D01*
X47225196Y-71346773D01*
X47219235Y-71370571D01*
X47210970Y-71393671D01*
X47200480Y-71415849D01*
X47187867Y-71436893D01*
X47173253Y-71456598D01*
X47156777Y-71474777D01*
X47138598Y-71491253D01*
X47118893Y-71505867D01*
X47097849Y-71518480D01*
X47075671Y-71528970D01*
X47052571Y-71537235D01*
X47028773Y-71543196D01*
X47004504Y-71546796D01*
X46980000Y-71548000D01*
X45730000Y-71548000D01*
X45705496Y-71546796D01*
X45681227Y-71543196D01*
X45657429Y-71537235D01*
X45634329Y-71528970D01*
X45612151Y-71518480D01*
X45591107Y-71505867D01*
X45571402Y-71491253D01*
X45553223Y-71474777D01*
X45536747Y-71456598D01*
X45522133Y-71436893D01*
X45509520Y-71415849D01*
X45499030Y-71393671D01*
X45490765Y-71370571D01*
X45484804Y-71346773D01*
X45481204Y-71322504D01*
X45480000Y-71298000D01*
X45480000Y-70373000D01*
X45481204Y-70348496D01*
X45484804Y-70324227D01*
X45490765Y-70300429D01*
X45499030Y-70277329D01*
X45509520Y-70255151D01*
X45522133Y-70234107D01*
X45536747Y-70214402D01*
X45553223Y-70196223D01*
X45571402Y-70179747D01*
X45591107Y-70165133D01*
X45612151Y-70152520D01*
X45634329Y-70142030D01*
X45657429Y-70133765D01*
X45681227Y-70127804D01*
X45705496Y-70124204D01*
X45730000Y-70123000D01*
X46980000Y-70123000D01*
X47004504Y-70124204D01*
X47004504Y-70124204D01*
G37*
D15*
X46355000Y-70835500D03*
D14*
G36*
X47004504Y-73099204D02*
X47028773Y-73102804D01*
X47052571Y-73108765D01*
X47075671Y-73117030D01*
X47097849Y-73127520D01*
X47118893Y-73140133D01*
X47138598Y-73154747D01*
X47156777Y-73171223D01*
X47173253Y-73189402D01*
X47187867Y-73209107D01*
X47200480Y-73230151D01*
X47210970Y-73252329D01*
X47219235Y-73275429D01*
X47225196Y-73299227D01*
X47228796Y-73323496D01*
X47230000Y-73348000D01*
X47230000Y-74273000D01*
X47228796Y-74297504D01*
X47225196Y-74321773D01*
X47219235Y-74345571D01*
X47210970Y-74368671D01*
X47200480Y-74390849D01*
X47187867Y-74411893D01*
X47173253Y-74431598D01*
X47156777Y-74449777D01*
X47138598Y-74466253D01*
X47118893Y-74480867D01*
X47097849Y-74493480D01*
X47075671Y-74503970D01*
X47052571Y-74512235D01*
X47028773Y-74518196D01*
X47004504Y-74521796D01*
X46980000Y-74523000D01*
X45730000Y-74523000D01*
X45705496Y-74521796D01*
X45681227Y-74518196D01*
X45657429Y-74512235D01*
X45634329Y-74503970D01*
X45612151Y-74493480D01*
X45591107Y-74480867D01*
X45571402Y-74466253D01*
X45553223Y-74449777D01*
X45536747Y-74431598D01*
X45522133Y-74411893D01*
X45509520Y-74390849D01*
X45499030Y-74368671D01*
X45490765Y-74345571D01*
X45484804Y-74321773D01*
X45481204Y-74297504D01*
X45480000Y-74273000D01*
X45480000Y-73348000D01*
X45481204Y-73323496D01*
X45484804Y-73299227D01*
X45490765Y-73275429D01*
X45499030Y-73252329D01*
X45509520Y-73230151D01*
X45522133Y-73209107D01*
X45536747Y-73189402D01*
X45553223Y-73171223D01*
X45571402Y-73154747D01*
X45591107Y-73140133D01*
X45612151Y-73127520D01*
X45634329Y-73117030D01*
X45657429Y-73108765D01*
X45681227Y-73102804D01*
X45705496Y-73099204D01*
X45730000Y-73098000D01*
X46980000Y-73098000D01*
X47004504Y-73099204D01*
X47004504Y-73099204D01*
G37*
D15*
X46355000Y-73810500D03*
D14*
G36*
X54116504Y-77236204D02*
X54140773Y-77239804D01*
X54164571Y-77245765D01*
X54187671Y-77254030D01*
X54209849Y-77264520D01*
X54230893Y-77277133D01*
X54250598Y-77291747D01*
X54268777Y-77308223D01*
X54285253Y-77326402D01*
X54299867Y-77346107D01*
X54312480Y-77367151D01*
X54322970Y-77389329D01*
X54331235Y-77412429D01*
X54337196Y-77436227D01*
X54340796Y-77460496D01*
X54342000Y-77485000D01*
X54342000Y-78410000D01*
X54340796Y-78434504D01*
X54337196Y-78458773D01*
X54331235Y-78482571D01*
X54322970Y-78505671D01*
X54312480Y-78527849D01*
X54299867Y-78548893D01*
X54285253Y-78568598D01*
X54268777Y-78586777D01*
X54250598Y-78603253D01*
X54230893Y-78617867D01*
X54209849Y-78630480D01*
X54187671Y-78640970D01*
X54164571Y-78649235D01*
X54140773Y-78655196D01*
X54116504Y-78658796D01*
X54092000Y-78660000D01*
X52842000Y-78660000D01*
X52817496Y-78658796D01*
X52793227Y-78655196D01*
X52769429Y-78649235D01*
X52746329Y-78640970D01*
X52724151Y-78630480D01*
X52703107Y-78617867D01*
X52683402Y-78603253D01*
X52665223Y-78586777D01*
X52648747Y-78568598D01*
X52634133Y-78548893D01*
X52621520Y-78527849D01*
X52611030Y-78505671D01*
X52602765Y-78482571D01*
X52596804Y-78458773D01*
X52593204Y-78434504D01*
X52592000Y-78410000D01*
X52592000Y-77485000D01*
X52593204Y-77460496D01*
X52596804Y-77436227D01*
X52602765Y-77412429D01*
X52611030Y-77389329D01*
X52621520Y-77367151D01*
X52634133Y-77346107D01*
X52648747Y-77326402D01*
X52665223Y-77308223D01*
X52683402Y-77291747D01*
X52703107Y-77277133D01*
X52724151Y-77264520D01*
X52746329Y-77254030D01*
X52769429Y-77245765D01*
X52793227Y-77239804D01*
X52817496Y-77236204D01*
X52842000Y-77235000D01*
X54092000Y-77235000D01*
X54116504Y-77236204D01*
X54116504Y-77236204D01*
G37*
D15*
X53467000Y-77947500D03*
D14*
G36*
X54116504Y-80211204D02*
X54140773Y-80214804D01*
X54164571Y-80220765D01*
X54187671Y-80229030D01*
X54209849Y-80239520D01*
X54230893Y-80252133D01*
X54250598Y-80266747D01*
X54268777Y-80283223D01*
X54285253Y-80301402D01*
X54299867Y-80321107D01*
X54312480Y-80342151D01*
X54322970Y-80364329D01*
X54331235Y-80387429D01*
X54337196Y-80411227D01*
X54340796Y-80435496D01*
X54342000Y-80460000D01*
X54342000Y-81385000D01*
X54340796Y-81409504D01*
X54337196Y-81433773D01*
X54331235Y-81457571D01*
X54322970Y-81480671D01*
X54312480Y-81502849D01*
X54299867Y-81523893D01*
X54285253Y-81543598D01*
X54268777Y-81561777D01*
X54250598Y-81578253D01*
X54230893Y-81592867D01*
X54209849Y-81605480D01*
X54187671Y-81615970D01*
X54164571Y-81624235D01*
X54140773Y-81630196D01*
X54116504Y-81633796D01*
X54092000Y-81635000D01*
X52842000Y-81635000D01*
X52817496Y-81633796D01*
X52793227Y-81630196D01*
X52769429Y-81624235D01*
X52746329Y-81615970D01*
X52724151Y-81605480D01*
X52703107Y-81592867D01*
X52683402Y-81578253D01*
X52665223Y-81561777D01*
X52648747Y-81543598D01*
X52634133Y-81523893D01*
X52621520Y-81502849D01*
X52611030Y-81480671D01*
X52602765Y-81457571D01*
X52596804Y-81433773D01*
X52593204Y-81409504D01*
X52592000Y-81385000D01*
X52592000Y-80460000D01*
X52593204Y-80435496D01*
X52596804Y-80411227D01*
X52602765Y-80387429D01*
X52611030Y-80364329D01*
X52621520Y-80342151D01*
X52634133Y-80321107D01*
X52648747Y-80301402D01*
X52665223Y-80283223D01*
X52683402Y-80266747D01*
X52703107Y-80252133D01*
X52724151Y-80239520D01*
X52746329Y-80229030D01*
X52769429Y-80220765D01*
X52793227Y-80214804D01*
X52817496Y-80211204D01*
X52842000Y-80210000D01*
X54092000Y-80210000D01*
X54116504Y-80211204D01*
X54116504Y-80211204D01*
G37*
D15*
X53467000Y-80922500D03*
D14*
G36*
X16735504Y-84656204D02*
X16759773Y-84659804D01*
X16783571Y-84665765D01*
X16806671Y-84674030D01*
X16828849Y-84684520D01*
X16849893Y-84697133D01*
X16869598Y-84711747D01*
X16887777Y-84728223D01*
X16904253Y-84746402D01*
X16918867Y-84766107D01*
X16931480Y-84787151D01*
X16941970Y-84809329D01*
X16950235Y-84832429D01*
X16956196Y-84856227D01*
X16959796Y-84880496D01*
X16961000Y-84905000D01*
X16961000Y-85830000D01*
X16959796Y-85854504D01*
X16956196Y-85878773D01*
X16950235Y-85902571D01*
X16941970Y-85925671D01*
X16931480Y-85947849D01*
X16918867Y-85968893D01*
X16904253Y-85988598D01*
X16887777Y-86006777D01*
X16869598Y-86023253D01*
X16849893Y-86037867D01*
X16828849Y-86050480D01*
X16806671Y-86060970D01*
X16783571Y-86069235D01*
X16759773Y-86075196D01*
X16735504Y-86078796D01*
X16711000Y-86080000D01*
X15461000Y-86080000D01*
X15436496Y-86078796D01*
X15412227Y-86075196D01*
X15388429Y-86069235D01*
X15365329Y-86060970D01*
X15343151Y-86050480D01*
X15322107Y-86037867D01*
X15302402Y-86023253D01*
X15284223Y-86006777D01*
X15267747Y-85988598D01*
X15253133Y-85968893D01*
X15240520Y-85947849D01*
X15230030Y-85925671D01*
X15221765Y-85902571D01*
X15215804Y-85878773D01*
X15212204Y-85854504D01*
X15211000Y-85830000D01*
X15211000Y-84905000D01*
X15212204Y-84880496D01*
X15215804Y-84856227D01*
X15221765Y-84832429D01*
X15230030Y-84809329D01*
X15240520Y-84787151D01*
X15253133Y-84766107D01*
X15267747Y-84746402D01*
X15284223Y-84728223D01*
X15302402Y-84711747D01*
X15322107Y-84697133D01*
X15343151Y-84684520D01*
X15365329Y-84674030D01*
X15388429Y-84665765D01*
X15412227Y-84659804D01*
X15436496Y-84656204D01*
X15461000Y-84655000D01*
X16711000Y-84655000D01*
X16735504Y-84656204D01*
X16735504Y-84656204D01*
G37*
D15*
X16086000Y-85367500D03*
D14*
G36*
X16735504Y-81681204D02*
X16759773Y-81684804D01*
X16783571Y-81690765D01*
X16806671Y-81699030D01*
X16828849Y-81709520D01*
X16849893Y-81722133D01*
X16869598Y-81736747D01*
X16887777Y-81753223D01*
X16904253Y-81771402D01*
X16918867Y-81791107D01*
X16931480Y-81812151D01*
X16941970Y-81834329D01*
X16950235Y-81857429D01*
X16956196Y-81881227D01*
X16959796Y-81905496D01*
X16961000Y-81930000D01*
X16961000Y-82855000D01*
X16959796Y-82879504D01*
X16956196Y-82903773D01*
X16950235Y-82927571D01*
X16941970Y-82950671D01*
X16931480Y-82972849D01*
X16918867Y-82993893D01*
X16904253Y-83013598D01*
X16887777Y-83031777D01*
X16869598Y-83048253D01*
X16849893Y-83062867D01*
X16828849Y-83075480D01*
X16806671Y-83085970D01*
X16783571Y-83094235D01*
X16759773Y-83100196D01*
X16735504Y-83103796D01*
X16711000Y-83105000D01*
X15461000Y-83105000D01*
X15436496Y-83103796D01*
X15412227Y-83100196D01*
X15388429Y-83094235D01*
X15365329Y-83085970D01*
X15343151Y-83075480D01*
X15322107Y-83062867D01*
X15302402Y-83048253D01*
X15284223Y-83031777D01*
X15267747Y-83013598D01*
X15253133Y-82993893D01*
X15240520Y-82972849D01*
X15230030Y-82950671D01*
X15221765Y-82927571D01*
X15215804Y-82903773D01*
X15212204Y-82879504D01*
X15211000Y-82855000D01*
X15211000Y-81930000D01*
X15212204Y-81905496D01*
X15215804Y-81881227D01*
X15221765Y-81857429D01*
X15230030Y-81834329D01*
X15240520Y-81812151D01*
X15253133Y-81791107D01*
X15267747Y-81771402D01*
X15284223Y-81753223D01*
X15302402Y-81736747D01*
X15322107Y-81722133D01*
X15343151Y-81709520D01*
X15365329Y-81699030D01*
X15388429Y-81690765D01*
X15412227Y-81684804D01*
X15436496Y-81681204D01*
X15461000Y-81680000D01*
X16711000Y-81680000D01*
X16735504Y-81681204D01*
X16735504Y-81681204D01*
G37*
D15*
X16086000Y-82392500D03*
D14*
G36*
X31256504Y-82624204D02*
X31280773Y-82627804D01*
X31304571Y-82633765D01*
X31327671Y-82642030D01*
X31349849Y-82652520D01*
X31370893Y-82665133D01*
X31390598Y-82679747D01*
X31408777Y-82696223D01*
X31425253Y-82714402D01*
X31439867Y-82734107D01*
X31452480Y-82755151D01*
X31462970Y-82777329D01*
X31471235Y-82800429D01*
X31477196Y-82824227D01*
X31480796Y-82848496D01*
X31482000Y-82873000D01*
X31482000Y-83798000D01*
X31480796Y-83822504D01*
X31477196Y-83846773D01*
X31471235Y-83870571D01*
X31462970Y-83893671D01*
X31452480Y-83915849D01*
X31439867Y-83936893D01*
X31425253Y-83956598D01*
X31408777Y-83974777D01*
X31390598Y-83991253D01*
X31370893Y-84005867D01*
X31349849Y-84018480D01*
X31327671Y-84028970D01*
X31304571Y-84037235D01*
X31280773Y-84043196D01*
X31256504Y-84046796D01*
X31232000Y-84048000D01*
X29982000Y-84048000D01*
X29957496Y-84046796D01*
X29933227Y-84043196D01*
X29909429Y-84037235D01*
X29886329Y-84028970D01*
X29864151Y-84018480D01*
X29843107Y-84005867D01*
X29823402Y-83991253D01*
X29805223Y-83974777D01*
X29788747Y-83956598D01*
X29774133Y-83936893D01*
X29761520Y-83915849D01*
X29751030Y-83893671D01*
X29742765Y-83870571D01*
X29736804Y-83846773D01*
X29733204Y-83822504D01*
X29732000Y-83798000D01*
X29732000Y-82873000D01*
X29733204Y-82848496D01*
X29736804Y-82824227D01*
X29742765Y-82800429D01*
X29751030Y-82777329D01*
X29761520Y-82755151D01*
X29774133Y-82734107D01*
X29788747Y-82714402D01*
X29805223Y-82696223D01*
X29823402Y-82679747D01*
X29843107Y-82665133D01*
X29864151Y-82652520D01*
X29886329Y-82642030D01*
X29909429Y-82633765D01*
X29933227Y-82627804D01*
X29957496Y-82624204D01*
X29982000Y-82623000D01*
X31232000Y-82623000D01*
X31256504Y-82624204D01*
X31256504Y-82624204D01*
G37*
D15*
X30607000Y-83335500D03*
D14*
G36*
X31256504Y-79649204D02*
X31280773Y-79652804D01*
X31304571Y-79658765D01*
X31327671Y-79667030D01*
X31349849Y-79677520D01*
X31370893Y-79690133D01*
X31390598Y-79704747D01*
X31408777Y-79721223D01*
X31425253Y-79739402D01*
X31439867Y-79759107D01*
X31452480Y-79780151D01*
X31462970Y-79802329D01*
X31471235Y-79825429D01*
X31477196Y-79849227D01*
X31480796Y-79873496D01*
X31482000Y-79898000D01*
X31482000Y-80823000D01*
X31480796Y-80847504D01*
X31477196Y-80871773D01*
X31471235Y-80895571D01*
X31462970Y-80918671D01*
X31452480Y-80940849D01*
X31439867Y-80961893D01*
X31425253Y-80981598D01*
X31408777Y-80999777D01*
X31390598Y-81016253D01*
X31370893Y-81030867D01*
X31349849Y-81043480D01*
X31327671Y-81053970D01*
X31304571Y-81062235D01*
X31280773Y-81068196D01*
X31256504Y-81071796D01*
X31232000Y-81073000D01*
X29982000Y-81073000D01*
X29957496Y-81071796D01*
X29933227Y-81068196D01*
X29909429Y-81062235D01*
X29886329Y-81053970D01*
X29864151Y-81043480D01*
X29843107Y-81030867D01*
X29823402Y-81016253D01*
X29805223Y-80999777D01*
X29788747Y-80981598D01*
X29774133Y-80961893D01*
X29761520Y-80940849D01*
X29751030Y-80918671D01*
X29742765Y-80895571D01*
X29736804Y-80871773D01*
X29733204Y-80847504D01*
X29732000Y-80823000D01*
X29732000Y-79898000D01*
X29733204Y-79873496D01*
X29736804Y-79849227D01*
X29742765Y-79825429D01*
X29751030Y-79802329D01*
X29761520Y-79780151D01*
X29774133Y-79759107D01*
X29788747Y-79739402D01*
X29805223Y-79721223D01*
X29823402Y-79704747D01*
X29843107Y-79690133D01*
X29864151Y-79677520D01*
X29886329Y-79667030D01*
X29909429Y-79658765D01*
X29933227Y-79652804D01*
X29957496Y-79649204D01*
X29982000Y-79648000D01*
X31232000Y-79648000D01*
X31256504Y-79649204D01*
X31256504Y-79649204D01*
G37*
D15*
X30607000Y-80360500D03*
D14*
G36*
X28462504Y-82587704D02*
X28486773Y-82591304D01*
X28510571Y-82597265D01*
X28533671Y-82605530D01*
X28555849Y-82616020D01*
X28576893Y-82628633D01*
X28596598Y-82643247D01*
X28614777Y-82659723D01*
X28631253Y-82677902D01*
X28645867Y-82697607D01*
X28658480Y-82718651D01*
X28668970Y-82740829D01*
X28677235Y-82763929D01*
X28683196Y-82787727D01*
X28686796Y-82811996D01*
X28688000Y-82836500D01*
X28688000Y-83761500D01*
X28686796Y-83786004D01*
X28683196Y-83810273D01*
X28677235Y-83834071D01*
X28668970Y-83857171D01*
X28658480Y-83879349D01*
X28645867Y-83900393D01*
X28631253Y-83920098D01*
X28614777Y-83938277D01*
X28596598Y-83954753D01*
X28576893Y-83969367D01*
X28555849Y-83981980D01*
X28533671Y-83992470D01*
X28510571Y-84000735D01*
X28486773Y-84006696D01*
X28462504Y-84010296D01*
X28438000Y-84011500D01*
X27188000Y-84011500D01*
X27163496Y-84010296D01*
X27139227Y-84006696D01*
X27115429Y-84000735D01*
X27092329Y-83992470D01*
X27070151Y-83981980D01*
X27049107Y-83969367D01*
X27029402Y-83954753D01*
X27011223Y-83938277D01*
X26994747Y-83920098D01*
X26980133Y-83900393D01*
X26967520Y-83879349D01*
X26957030Y-83857171D01*
X26948765Y-83834071D01*
X26942804Y-83810273D01*
X26939204Y-83786004D01*
X26938000Y-83761500D01*
X26938000Y-82836500D01*
X26939204Y-82811996D01*
X26942804Y-82787727D01*
X26948765Y-82763929D01*
X26957030Y-82740829D01*
X26967520Y-82718651D01*
X26980133Y-82697607D01*
X26994747Y-82677902D01*
X27011223Y-82659723D01*
X27029402Y-82643247D01*
X27049107Y-82628633D01*
X27070151Y-82616020D01*
X27092329Y-82605530D01*
X27115429Y-82597265D01*
X27139227Y-82591304D01*
X27163496Y-82587704D01*
X27188000Y-82586500D01*
X28438000Y-82586500D01*
X28462504Y-82587704D01*
X28462504Y-82587704D01*
G37*
D15*
X27813000Y-83299000D03*
D14*
G36*
X28462504Y-79612704D02*
X28486773Y-79616304D01*
X28510571Y-79622265D01*
X28533671Y-79630530D01*
X28555849Y-79641020D01*
X28576893Y-79653633D01*
X28596598Y-79668247D01*
X28614777Y-79684723D01*
X28631253Y-79702902D01*
X28645867Y-79722607D01*
X28658480Y-79743651D01*
X28668970Y-79765829D01*
X28677235Y-79788929D01*
X28683196Y-79812727D01*
X28686796Y-79836996D01*
X28688000Y-79861500D01*
X28688000Y-80786500D01*
X28686796Y-80811004D01*
X28683196Y-80835273D01*
X28677235Y-80859071D01*
X28668970Y-80882171D01*
X28658480Y-80904349D01*
X28645867Y-80925393D01*
X28631253Y-80945098D01*
X28614777Y-80963277D01*
X28596598Y-80979753D01*
X28576893Y-80994367D01*
X28555849Y-81006980D01*
X28533671Y-81017470D01*
X28510571Y-81025735D01*
X28486773Y-81031696D01*
X28462504Y-81035296D01*
X28438000Y-81036500D01*
X27188000Y-81036500D01*
X27163496Y-81035296D01*
X27139227Y-81031696D01*
X27115429Y-81025735D01*
X27092329Y-81017470D01*
X27070151Y-81006980D01*
X27049107Y-80994367D01*
X27029402Y-80979753D01*
X27011223Y-80963277D01*
X26994747Y-80945098D01*
X26980133Y-80925393D01*
X26967520Y-80904349D01*
X26957030Y-80882171D01*
X26948765Y-80859071D01*
X26942804Y-80835273D01*
X26939204Y-80811004D01*
X26938000Y-80786500D01*
X26938000Y-79861500D01*
X26939204Y-79836996D01*
X26942804Y-79812727D01*
X26948765Y-79788929D01*
X26957030Y-79765829D01*
X26967520Y-79743651D01*
X26980133Y-79722607D01*
X26994747Y-79702902D01*
X27011223Y-79684723D01*
X27029402Y-79668247D01*
X27049107Y-79653633D01*
X27070151Y-79641020D01*
X27092329Y-79630530D01*
X27115429Y-79622265D01*
X27139227Y-79616304D01*
X27163496Y-79612704D01*
X27188000Y-79611500D01*
X28438000Y-79611500D01*
X28462504Y-79612704D01*
X28462504Y-79612704D01*
G37*
D15*
X27813000Y-80324000D03*
D14*
G36*
X13941504Y-77671204D02*
X13965773Y-77674804D01*
X13989571Y-77680765D01*
X14012671Y-77689030D01*
X14034849Y-77699520D01*
X14055893Y-77712133D01*
X14075598Y-77726747D01*
X14093777Y-77743223D01*
X14110253Y-77761402D01*
X14124867Y-77781107D01*
X14137480Y-77802151D01*
X14147970Y-77824329D01*
X14156235Y-77847429D01*
X14162196Y-77871227D01*
X14165796Y-77895496D01*
X14167000Y-77920000D01*
X14167000Y-78845000D01*
X14165796Y-78869504D01*
X14162196Y-78893773D01*
X14156235Y-78917571D01*
X14147970Y-78940671D01*
X14137480Y-78962849D01*
X14124867Y-78983893D01*
X14110253Y-79003598D01*
X14093777Y-79021777D01*
X14075598Y-79038253D01*
X14055893Y-79052867D01*
X14034849Y-79065480D01*
X14012671Y-79075970D01*
X13989571Y-79084235D01*
X13965773Y-79090196D01*
X13941504Y-79093796D01*
X13917000Y-79095000D01*
X12667000Y-79095000D01*
X12642496Y-79093796D01*
X12618227Y-79090196D01*
X12594429Y-79084235D01*
X12571329Y-79075970D01*
X12549151Y-79065480D01*
X12528107Y-79052867D01*
X12508402Y-79038253D01*
X12490223Y-79021777D01*
X12473747Y-79003598D01*
X12459133Y-78983893D01*
X12446520Y-78962849D01*
X12436030Y-78940671D01*
X12427765Y-78917571D01*
X12421804Y-78893773D01*
X12418204Y-78869504D01*
X12417000Y-78845000D01*
X12417000Y-77920000D01*
X12418204Y-77895496D01*
X12421804Y-77871227D01*
X12427765Y-77847429D01*
X12436030Y-77824329D01*
X12446520Y-77802151D01*
X12459133Y-77781107D01*
X12473747Y-77761402D01*
X12490223Y-77743223D01*
X12508402Y-77726747D01*
X12528107Y-77712133D01*
X12549151Y-77699520D01*
X12571329Y-77689030D01*
X12594429Y-77680765D01*
X12618227Y-77674804D01*
X12642496Y-77671204D01*
X12667000Y-77670000D01*
X13917000Y-77670000D01*
X13941504Y-77671204D01*
X13941504Y-77671204D01*
G37*
D15*
X13292000Y-78382500D03*
D14*
G36*
X13941504Y-74696204D02*
X13965773Y-74699804D01*
X13989571Y-74705765D01*
X14012671Y-74714030D01*
X14034849Y-74724520D01*
X14055893Y-74737133D01*
X14075598Y-74751747D01*
X14093777Y-74768223D01*
X14110253Y-74786402D01*
X14124867Y-74806107D01*
X14137480Y-74827151D01*
X14147970Y-74849329D01*
X14156235Y-74872429D01*
X14162196Y-74896227D01*
X14165796Y-74920496D01*
X14167000Y-74945000D01*
X14167000Y-75870000D01*
X14165796Y-75894504D01*
X14162196Y-75918773D01*
X14156235Y-75942571D01*
X14147970Y-75965671D01*
X14137480Y-75987849D01*
X14124867Y-76008893D01*
X14110253Y-76028598D01*
X14093777Y-76046777D01*
X14075598Y-76063253D01*
X14055893Y-76077867D01*
X14034849Y-76090480D01*
X14012671Y-76100970D01*
X13989571Y-76109235D01*
X13965773Y-76115196D01*
X13941504Y-76118796D01*
X13917000Y-76120000D01*
X12667000Y-76120000D01*
X12642496Y-76118796D01*
X12618227Y-76115196D01*
X12594429Y-76109235D01*
X12571329Y-76100970D01*
X12549151Y-76090480D01*
X12528107Y-76077867D01*
X12508402Y-76063253D01*
X12490223Y-76046777D01*
X12473747Y-76028598D01*
X12459133Y-76008893D01*
X12446520Y-75987849D01*
X12436030Y-75965671D01*
X12427765Y-75942571D01*
X12421804Y-75918773D01*
X12418204Y-75894504D01*
X12417000Y-75870000D01*
X12417000Y-74945000D01*
X12418204Y-74920496D01*
X12421804Y-74896227D01*
X12427765Y-74872429D01*
X12436030Y-74849329D01*
X12446520Y-74827151D01*
X12459133Y-74806107D01*
X12473747Y-74786402D01*
X12490223Y-74768223D01*
X12508402Y-74751747D01*
X12528107Y-74737133D01*
X12549151Y-74724520D01*
X12571329Y-74714030D01*
X12594429Y-74705765D01*
X12618227Y-74699804D01*
X12642496Y-74696204D01*
X12667000Y-74695000D01*
X13917000Y-74695000D01*
X13941504Y-74696204D01*
X13941504Y-74696204D01*
G37*
D15*
X13292000Y-75407500D03*
D14*
G36*
X16735504Y-89863204D02*
X16759773Y-89866804D01*
X16783571Y-89872765D01*
X16806671Y-89881030D01*
X16828849Y-89891520D01*
X16849893Y-89904133D01*
X16869598Y-89918747D01*
X16887777Y-89935223D01*
X16904253Y-89953402D01*
X16918867Y-89973107D01*
X16931480Y-89994151D01*
X16941970Y-90016329D01*
X16950235Y-90039429D01*
X16956196Y-90063227D01*
X16959796Y-90087496D01*
X16961000Y-90112000D01*
X16961000Y-91037000D01*
X16959796Y-91061504D01*
X16956196Y-91085773D01*
X16950235Y-91109571D01*
X16941970Y-91132671D01*
X16931480Y-91154849D01*
X16918867Y-91175893D01*
X16904253Y-91195598D01*
X16887777Y-91213777D01*
X16869598Y-91230253D01*
X16849893Y-91244867D01*
X16828849Y-91257480D01*
X16806671Y-91267970D01*
X16783571Y-91276235D01*
X16759773Y-91282196D01*
X16735504Y-91285796D01*
X16711000Y-91287000D01*
X15461000Y-91287000D01*
X15436496Y-91285796D01*
X15412227Y-91282196D01*
X15388429Y-91276235D01*
X15365329Y-91267970D01*
X15343151Y-91257480D01*
X15322107Y-91244867D01*
X15302402Y-91230253D01*
X15284223Y-91213777D01*
X15267747Y-91195598D01*
X15253133Y-91175893D01*
X15240520Y-91154849D01*
X15230030Y-91132671D01*
X15221765Y-91109571D01*
X15215804Y-91085773D01*
X15212204Y-91061504D01*
X15211000Y-91037000D01*
X15211000Y-90112000D01*
X15212204Y-90087496D01*
X15215804Y-90063227D01*
X15221765Y-90039429D01*
X15230030Y-90016329D01*
X15240520Y-89994151D01*
X15253133Y-89973107D01*
X15267747Y-89953402D01*
X15284223Y-89935223D01*
X15302402Y-89918747D01*
X15322107Y-89904133D01*
X15343151Y-89891520D01*
X15365329Y-89881030D01*
X15388429Y-89872765D01*
X15412227Y-89866804D01*
X15436496Y-89863204D01*
X15461000Y-89862000D01*
X16711000Y-89862000D01*
X16735504Y-89863204D01*
X16735504Y-89863204D01*
G37*
D15*
X16086000Y-90574500D03*
D14*
G36*
X16735504Y-86888204D02*
X16759773Y-86891804D01*
X16783571Y-86897765D01*
X16806671Y-86906030D01*
X16828849Y-86916520D01*
X16849893Y-86929133D01*
X16869598Y-86943747D01*
X16887777Y-86960223D01*
X16904253Y-86978402D01*
X16918867Y-86998107D01*
X16931480Y-87019151D01*
X16941970Y-87041329D01*
X16950235Y-87064429D01*
X16956196Y-87088227D01*
X16959796Y-87112496D01*
X16961000Y-87137000D01*
X16961000Y-88062000D01*
X16959796Y-88086504D01*
X16956196Y-88110773D01*
X16950235Y-88134571D01*
X16941970Y-88157671D01*
X16931480Y-88179849D01*
X16918867Y-88200893D01*
X16904253Y-88220598D01*
X16887777Y-88238777D01*
X16869598Y-88255253D01*
X16849893Y-88269867D01*
X16828849Y-88282480D01*
X16806671Y-88292970D01*
X16783571Y-88301235D01*
X16759773Y-88307196D01*
X16735504Y-88310796D01*
X16711000Y-88312000D01*
X15461000Y-88312000D01*
X15436496Y-88310796D01*
X15412227Y-88307196D01*
X15388429Y-88301235D01*
X15365329Y-88292970D01*
X15343151Y-88282480D01*
X15322107Y-88269867D01*
X15302402Y-88255253D01*
X15284223Y-88238777D01*
X15267747Y-88220598D01*
X15253133Y-88200893D01*
X15240520Y-88179849D01*
X15230030Y-88157671D01*
X15221765Y-88134571D01*
X15215804Y-88110773D01*
X15212204Y-88086504D01*
X15211000Y-88062000D01*
X15211000Y-87137000D01*
X15212204Y-87112496D01*
X15215804Y-87088227D01*
X15221765Y-87064429D01*
X15230030Y-87041329D01*
X15240520Y-87019151D01*
X15253133Y-86998107D01*
X15267747Y-86978402D01*
X15284223Y-86960223D01*
X15302402Y-86943747D01*
X15322107Y-86929133D01*
X15343151Y-86916520D01*
X15365329Y-86906030D01*
X15388429Y-86897765D01*
X15412227Y-86891804D01*
X15436496Y-86888204D01*
X15461000Y-86887000D01*
X16711000Y-86887000D01*
X16735504Y-86888204D01*
X16735504Y-86888204D01*
G37*
D15*
X16086000Y-87599500D03*
D14*
G36*
X51195504Y-70124204D02*
X51219773Y-70127804D01*
X51243571Y-70133765D01*
X51266671Y-70142030D01*
X51288849Y-70152520D01*
X51309893Y-70165133D01*
X51329598Y-70179747D01*
X51347777Y-70196223D01*
X51364253Y-70214402D01*
X51378867Y-70234107D01*
X51391480Y-70255151D01*
X51401970Y-70277329D01*
X51410235Y-70300429D01*
X51416196Y-70324227D01*
X51419796Y-70348496D01*
X51421000Y-70373000D01*
X51421000Y-71298000D01*
X51419796Y-71322504D01*
X51416196Y-71346773D01*
X51410235Y-71370571D01*
X51401970Y-71393671D01*
X51391480Y-71415849D01*
X51378867Y-71436893D01*
X51364253Y-71456598D01*
X51347777Y-71474777D01*
X51329598Y-71491253D01*
X51309893Y-71505867D01*
X51288849Y-71518480D01*
X51266671Y-71528970D01*
X51243571Y-71537235D01*
X51219773Y-71543196D01*
X51195504Y-71546796D01*
X51171000Y-71548000D01*
X49921000Y-71548000D01*
X49896496Y-71546796D01*
X49872227Y-71543196D01*
X49848429Y-71537235D01*
X49825329Y-71528970D01*
X49803151Y-71518480D01*
X49782107Y-71505867D01*
X49762402Y-71491253D01*
X49744223Y-71474777D01*
X49727747Y-71456598D01*
X49713133Y-71436893D01*
X49700520Y-71415849D01*
X49690030Y-71393671D01*
X49681765Y-71370571D01*
X49675804Y-71346773D01*
X49672204Y-71322504D01*
X49671000Y-71298000D01*
X49671000Y-70373000D01*
X49672204Y-70348496D01*
X49675804Y-70324227D01*
X49681765Y-70300429D01*
X49690030Y-70277329D01*
X49700520Y-70255151D01*
X49713133Y-70234107D01*
X49727747Y-70214402D01*
X49744223Y-70196223D01*
X49762402Y-70179747D01*
X49782107Y-70165133D01*
X49803151Y-70152520D01*
X49825329Y-70142030D01*
X49848429Y-70133765D01*
X49872227Y-70127804D01*
X49896496Y-70124204D01*
X49921000Y-70123000D01*
X51171000Y-70123000D01*
X51195504Y-70124204D01*
X51195504Y-70124204D01*
G37*
D15*
X50546000Y-70835500D03*
D14*
G36*
X51195504Y-73099204D02*
X51219773Y-73102804D01*
X51243571Y-73108765D01*
X51266671Y-73117030D01*
X51288849Y-73127520D01*
X51309893Y-73140133D01*
X51329598Y-73154747D01*
X51347777Y-73171223D01*
X51364253Y-73189402D01*
X51378867Y-73209107D01*
X51391480Y-73230151D01*
X51401970Y-73252329D01*
X51410235Y-73275429D01*
X51416196Y-73299227D01*
X51419796Y-73323496D01*
X51421000Y-73348000D01*
X51421000Y-74273000D01*
X51419796Y-74297504D01*
X51416196Y-74321773D01*
X51410235Y-74345571D01*
X51401970Y-74368671D01*
X51391480Y-74390849D01*
X51378867Y-74411893D01*
X51364253Y-74431598D01*
X51347777Y-74449777D01*
X51329598Y-74466253D01*
X51309893Y-74480867D01*
X51288849Y-74493480D01*
X51266671Y-74503970D01*
X51243571Y-74512235D01*
X51219773Y-74518196D01*
X51195504Y-74521796D01*
X51171000Y-74523000D01*
X49921000Y-74523000D01*
X49896496Y-74521796D01*
X49872227Y-74518196D01*
X49848429Y-74512235D01*
X49825329Y-74503970D01*
X49803151Y-74493480D01*
X49782107Y-74480867D01*
X49762402Y-74466253D01*
X49744223Y-74449777D01*
X49727747Y-74431598D01*
X49713133Y-74411893D01*
X49700520Y-74390849D01*
X49690030Y-74368671D01*
X49681765Y-74345571D01*
X49675804Y-74321773D01*
X49672204Y-74297504D01*
X49671000Y-74273000D01*
X49671000Y-73348000D01*
X49672204Y-73323496D01*
X49675804Y-73299227D01*
X49681765Y-73275429D01*
X49690030Y-73252329D01*
X49700520Y-73230151D01*
X49713133Y-73209107D01*
X49727747Y-73189402D01*
X49744223Y-73171223D01*
X49762402Y-73154747D01*
X49782107Y-73140133D01*
X49803151Y-73127520D01*
X49825329Y-73117030D01*
X49848429Y-73108765D01*
X49872227Y-73102804D01*
X49896496Y-73099204D01*
X49921000Y-73098000D01*
X51171000Y-73098000D01*
X51195504Y-73099204D01*
X51195504Y-73099204D01*
G37*
D15*
X50546000Y-73810500D03*
D14*
G36*
X46199504Y-77236204D02*
X46223773Y-77239804D01*
X46247571Y-77245765D01*
X46270671Y-77254030D01*
X46292849Y-77264520D01*
X46313893Y-77277133D01*
X46333598Y-77291747D01*
X46351777Y-77308223D01*
X46368253Y-77326402D01*
X46382867Y-77346107D01*
X46395480Y-77367151D01*
X46405970Y-77389329D01*
X46414235Y-77412429D01*
X46420196Y-77436227D01*
X46423796Y-77460496D01*
X46425000Y-77485000D01*
X46425000Y-78410000D01*
X46423796Y-78434504D01*
X46420196Y-78458773D01*
X46414235Y-78482571D01*
X46405970Y-78505671D01*
X46395480Y-78527849D01*
X46382867Y-78548893D01*
X46368253Y-78568598D01*
X46351777Y-78586777D01*
X46333598Y-78603253D01*
X46313893Y-78617867D01*
X46292849Y-78630480D01*
X46270671Y-78640970D01*
X46247571Y-78649235D01*
X46223773Y-78655196D01*
X46199504Y-78658796D01*
X46175000Y-78660000D01*
X44925000Y-78660000D01*
X44900496Y-78658796D01*
X44876227Y-78655196D01*
X44852429Y-78649235D01*
X44829329Y-78640970D01*
X44807151Y-78630480D01*
X44786107Y-78617867D01*
X44766402Y-78603253D01*
X44748223Y-78586777D01*
X44731747Y-78568598D01*
X44717133Y-78548893D01*
X44704520Y-78527849D01*
X44694030Y-78505671D01*
X44685765Y-78482571D01*
X44679804Y-78458773D01*
X44676204Y-78434504D01*
X44675000Y-78410000D01*
X44675000Y-77485000D01*
X44676204Y-77460496D01*
X44679804Y-77436227D01*
X44685765Y-77412429D01*
X44694030Y-77389329D01*
X44704520Y-77367151D01*
X44717133Y-77346107D01*
X44731747Y-77326402D01*
X44748223Y-77308223D01*
X44766402Y-77291747D01*
X44786107Y-77277133D01*
X44807151Y-77264520D01*
X44829329Y-77254030D01*
X44852429Y-77245765D01*
X44876227Y-77239804D01*
X44900496Y-77236204D01*
X44925000Y-77235000D01*
X46175000Y-77235000D01*
X46199504Y-77236204D01*
X46199504Y-77236204D01*
G37*
D15*
X45550000Y-77947500D03*
D14*
G36*
X46199504Y-80211204D02*
X46223773Y-80214804D01*
X46247571Y-80220765D01*
X46270671Y-80229030D01*
X46292849Y-80239520D01*
X46313893Y-80252133D01*
X46333598Y-80266747D01*
X46351777Y-80283223D01*
X46368253Y-80301402D01*
X46382867Y-80321107D01*
X46395480Y-80342151D01*
X46405970Y-80364329D01*
X46414235Y-80387429D01*
X46420196Y-80411227D01*
X46423796Y-80435496D01*
X46425000Y-80460000D01*
X46425000Y-81385000D01*
X46423796Y-81409504D01*
X46420196Y-81433773D01*
X46414235Y-81457571D01*
X46405970Y-81480671D01*
X46395480Y-81502849D01*
X46382867Y-81523893D01*
X46368253Y-81543598D01*
X46351777Y-81561777D01*
X46333598Y-81578253D01*
X46313893Y-81592867D01*
X46292849Y-81605480D01*
X46270671Y-81615970D01*
X46247571Y-81624235D01*
X46223773Y-81630196D01*
X46199504Y-81633796D01*
X46175000Y-81635000D01*
X44925000Y-81635000D01*
X44900496Y-81633796D01*
X44876227Y-81630196D01*
X44852429Y-81624235D01*
X44829329Y-81615970D01*
X44807151Y-81605480D01*
X44786107Y-81592867D01*
X44766402Y-81578253D01*
X44748223Y-81561777D01*
X44731747Y-81543598D01*
X44717133Y-81523893D01*
X44704520Y-81502849D01*
X44694030Y-81480671D01*
X44685765Y-81457571D01*
X44679804Y-81433773D01*
X44676204Y-81409504D01*
X44675000Y-81385000D01*
X44675000Y-80460000D01*
X44676204Y-80435496D01*
X44679804Y-80411227D01*
X44685765Y-80387429D01*
X44694030Y-80364329D01*
X44704520Y-80342151D01*
X44717133Y-80321107D01*
X44731747Y-80301402D01*
X44748223Y-80283223D01*
X44766402Y-80266747D01*
X44786107Y-80252133D01*
X44807151Y-80239520D01*
X44829329Y-80229030D01*
X44852429Y-80220765D01*
X44876227Y-80214804D01*
X44900496Y-80211204D01*
X44925000Y-80210000D01*
X46175000Y-80210000D01*
X46199504Y-80211204D01*
X46199504Y-80211204D01*
G37*
D15*
X45550000Y-80922500D03*
D14*
G36*
X42940504Y-70124204D02*
X42964773Y-70127804D01*
X42988571Y-70133765D01*
X43011671Y-70142030D01*
X43033849Y-70152520D01*
X43054893Y-70165133D01*
X43074598Y-70179747D01*
X43092777Y-70196223D01*
X43109253Y-70214402D01*
X43123867Y-70234107D01*
X43136480Y-70255151D01*
X43146970Y-70277329D01*
X43155235Y-70300429D01*
X43161196Y-70324227D01*
X43164796Y-70348496D01*
X43166000Y-70373000D01*
X43166000Y-71298000D01*
X43164796Y-71322504D01*
X43161196Y-71346773D01*
X43155235Y-71370571D01*
X43146970Y-71393671D01*
X43136480Y-71415849D01*
X43123867Y-71436893D01*
X43109253Y-71456598D01*
X43092777Y-71474777D01*
X43074598Y-71491253D01*
X43054893Y-71505867D01*
X43033849Y-71518480D01*
X43011671Y-71528970D01*
X42988571Y-71537235D01*
X42964773Y-71543196D01*
X42940504Y-71546796D01*
X42916000Y-71548000D01*
X41666000Y-71548000D01*
X41641496Y-71546796D01*
X41617227Y-71543196D01*
X41593429Y-71537235D01*
X41570329Y-71528970D01*
X41548151Y-71518480D01*
X41527107Y-71505867D01*
X41507402Y-71491253D01*
X41489223Y-71474777D01*
X41472747Y-71456598D01*
X41458133Y-71436893D01*
X41445520Y-71415849D01*
X41435030Y-71393671D01*
X41426765Y-71370571D01*
X41420804Y-71346773D01*
X41417204Y-71322504D01*
X41416000Y-71298000D01*
X41416000Y-70373000D01*
X41417204Y-70348496D01*
X41420804Y-70324227D01*
X41426765Y-70300429D01*
X41435030Y-70277329D01*
X41445520Y-70255151D01*
X41458133Y-70234107D01*
X41472747Y-70214402D01*
X41489223Y-70196223D01*
X41507402Y-70179747D01*
X41527107Y-70165133D01*
X41548151Y-70152520D01*
X41570329Y-70142030D01*
X41593429Y-70133765D01*
X41617227Y-70127804D01*
X41641496Y-70124204D01*
X41666000Y-70123000D01*
X42916000Y-70123000D01*
X42940504Y-70124204D01*
X42940504Y-70124204D01*
G37*
D15*
X42291000Y-70835500D03*
D14*
G36*
X42940504Y-73099204D02*
X42964773Y-73102804D01*
X42988571Y-73108765D01*
X43011671Y-73117030D01*
X43033849Y-73127520D01*
X43054893Y-73140133D01*
X43074598Y-73154747D01*
X43092777Y-73171223D01*
X43109253Y-73189402D01*
X43123867Y-73209107D01*
X43136480Y-73230151D01*
X43146970Y-73252329D01*
X43155235Y-73275429D01*
X43161196Y-73299227D01*
X43164796Y-73323496D01*
X43166000Y-73348000D01*
X43166000Y-74273000D01*
X43164796Y-74297504D01*
X43161196Y-74321773D01*
X43155235Y-74345571D01*
X43146970Y-74368671D01*
X43136480Y-74390849D01*
X43123867Y-74411893D01*
X43109253Y-74431598D01*
X43092777Y-74449777D01*
X43074598Y-74466253D01*
X43054893Y-74480867D01*
X43033849Y-74493480D01*
X43011671Y-74503970D01*
X42988571Y-74512235D01*
X42964773Y-74518196D01*
X42940504Y-74521796D01*
X42916000Y-74523000D01*
X41666000Y-74523000D01*
X41641496Y-74521796D01*
X41617227Y-74518196D01*
X41593429Y-74512235D01*
X41570329Y-74503970D01*
X41548151Y-74493480D01*
X41527107Y-74480867D01*
X41507402Y-74466253D01*
X41489223Y-74449777D01*
X41472747Y-74431598D01*
X41458133Y-74411893D01*
X41445520Y-74390849D01*
X41435030Y-74368671D01*
X41426765Y-74345571D01*
X41420804Y-74321773D01*
X41417204Y-74297504D01*
X41416000Y-74273000D01*
X41416000Y-73348000D01*
X41417204Y-73323496D01*
X41420804Y-73299227D01*
X41426765Y-73275429D01*
X41435030Y-73252329D01*
X41445520Y-73230151D01*
X41458133Y-73209107D01*
X41472747Y-73189402D01*
X41489223Y-73171223D01*
X41507402Y-73154747D01*
X41527107Y-73140133D01*
X41548151Y-73127520D01*
X41570329Y-73117030D01*
X41593429Y-73108765D01*
X41617227Y-73102804D01*
X41641496Y-73099204D01*
X41666000Y-73098000D01*
X42916000Y-73098000D01*
X42940504Y-73099204D01*
X42940504Y-73099204D01*
G37*
D15*
X42291000Y-73810500D03*
D14*
G36*
X10809504Y-84656204D02*
X10833773Y-84659804D01*
X10857571Y-84665765D01*
X10880671Y-84674030D01*
X10902849Y-84684520D01*
X10923893Y-84697133D01*
X10943598Y-84711747D01*
X10961777Y-84728223D01*
X10978253Y-84746402D01*
X10992867Y-84766107D01*
X11005480Y-84787151D01*
X11015970Y-84809329D01*
X11024235Y-84832429D01*
X11030196Y-84856227D01*
X11033796Y-84880496D01*
X11035000Y-84905000D01*
X11035000Y-85830000D01*
X11033796Y-85854504D01*
X11030196Y-85878773D01*
X11024235Y-85902571D01*
X11015970Y-85925671D01*
X11005480Y-85947849D01*
X10992867Y-85968893D01*
X10978253Y-85988598D01*
X10961777Y-86006777D01*
X10943598Y-86023253D01*
X10923893Y-86037867D01*
X10902849Y-86050480D01*
X10880671Y-86060970D01*
X10857571Y-86069235D01*
X10833773Y-86075196D01*
X10809504Y-86078796D01*
X10785000Y-86080000D01*
X9535000Y-86080000D01*
X9510496Y-86078796D01*
X9486227Y-86075196D01*
X9462429Y-86069235D01*
X9439329Y-86060970D01*
X9417151Y-86050480D01*
X9396107Y-86037867D01*
X9376402Y-86023253D01*
X9358223Y-86006777D01*
X9341747Y-85988598D01*
X9327133Y-85968893D01*
X9314520Y-85947849D01*
X9304030Y-85925671D01*
X9295765Y-85902571D01*
X9289804Y-85878773D01*
X9286204Y-85854504D01*
X9285000Y-85830000D01*
X9285000Y-84905000D01*
X9286204Y-84880496D01*
X9289804Y-84856227D01*
X9295765Y-84832429D01*
X9304030Y-84809329D01*
X9314520Y-84787151D01*
X9327133Y-84766107D01*
X9341747Y-84746402D01*
X9358223Y-84728223D01*
X9376402Y-84711747D01*
X9396107Y-84697133D01*
X9417151Y-84684520D01*
X9439329Y-84674030D01*
X9462429Y-84665765D01*
X9486227Y-84659804D01*
X9510496Y-84656204D01*
X9535000Y-84655000D01*
X10785000Y-84655000D01*
X10809504Y-84656204D01*
X10809504Y-84656204D01*
G37*
D15*
X10160000Y-85367500D03*
D14*
G36*
X10809504Y-81681204D02*
X10833773Y-81684804D01*
X10857571Y-81690765D01*
X10880671Y-81699030D01*
X10902849Y-81709520D01*
X10923893Y-81722133D01*
X10943598Y-81736747D01*
X10961777Y-81753223D01*
X10978253Y-81771402D01*
X10992867Y-81791107D01*
X11005480Y-81812151D01*
X11015970Y-81834329D01*
X11024235Y-81857429D01*
X11030196Y-81881227D01*
X11033796Y-81905496D01*
X11035000Y-81930000D01*
X11035000Y-82855000D01*
X11033796Y-82879504D01*
X11030196Y-82903773D01*
X11024235Y-82927571D01*
X11015970Y-82950671D01*
X11005480Y-82972849D01*
X10992867Y-82993893D01*
X10978253Y-83013598D01*
X10961777Y-83031777D01*
X10943598Y-83048253D01*
X10923893Y-83062867D01*
X10902849Y-83075480D01*
X10880671Y-83085970D01*
X10857571Y-83094235D01*
X10833773Y-83100196D01*
X10809504Y-83103796D01*
X10785000Y-83105000D01*
X9535000Y-83105000D01*
X9510496Y-83103796D01*
X9486227Y-83100196D01*
X9462429Y-83094235D01*
X9439329Y-83085970D01*
X9417151Y-83075480D01*
X9396107Y-83062867D01*
X9376402Y-83048253D01*
X9358223Y-83031777D01*
X9341747Y-83013598D01*
X9327133Y-82993893D01*
X9314520Y-82972849D01*
X9304030Y-82950671D01*
X9295765Y-82927571D01*
X9289804Y-82903773D01*
X9286204Y-82879504D01*
X9285000Y-82855000D01*
X9285000Y-81930000D01*
X9286204Y-81905496D01*
X9289804Y-81881227D01*
X9295765Y-81857429D01*
X9304030Y-81834329D01*
X9314520Y-81812151D01*
X9327133Y-81791107D01*
X9341747Y-81771402D01*
X9358223Y-81753223D01*
X9376402Y-81736747D01*
X9396107Y-81722133D01*
X9417151Y-81709520D01*
X9439329Y-81699030D01*
X9462429Y-81690765D01*
X9486227Y-81684804D01*
X9510496Y-81681204D01*
X9535000Y-81680000D01*
X10785000Y-81680000D01*
X10809504Y-81681204D01*
X10809504Y-81681204D01*
G37*
D15*
X10160000Y-82392500D03*
D14*
G36*
X28166504Y-87705204D02*
X28190773Y-87708804D01*
X28214571Y-87714765D01*
X28237671Y-87723030D01*
X28259849Y-87733520D01*
X28280893Y-87746133D01*
X28300598Y-87760747D01*
X28318777Y-87777223D01*
X28335253Y-87795402D01*
X28349867Y-87815107D01*
X28362480Y-87836151D01*
X28372970Y-87858329D01*
X28381235Y-87881429D01*
X28387196Y-87905227D01*
X28390796Y-87929496D01*
X28392000Y-87954000D01*
X28392000Y-89204000D01*
X28390796Y-89228504D01*
X28387196Y-89252773D01*
X28381235Y-89276571D01*
X28372970Y-89299671D01*
X28362480Y-89321849D01*
X28349867Y-89342893D01*
X28335253Y-89362598D01*
X28318777Y-89380777D01*
X28300598Y-89397253D01*
X28280893Y-89411867D01*
X28259849Y-89424480D01*
X28237671Y-89434970D01*
X28214571Y-89443235D01*
X28190773Y-89449196D01*
X28166504Y-89452796D01*
X28142000Y-89454000D01*
X27217000Y-89454000D01*
X27192496Y-89452796D01*
X27168227Y-89449196D01*
X27144429Y-89443235D01*
X27121329Y-89434970D01*
X27099151Y-89424480D01*
X27078107Y-89411867D01*
X27058402Y-89397253D01*
X27040223Y-89380777D01*
X27023747Y-89362598D01*
X27009133Y-89342893D01*
X26996520Y-89321849D01*
X26986030Y-89299671D01*
X26977765Y-89276571D01*
X26971804Y-89252773D01*
X26968204Y-89228504D01*
X26967000Y-89204000D01*
X26967000Y-87954000D01*
X26968204Y-87929496D01*
X26971804Y-87905227D01*
X26977765Y-87881429D01*
X26986030Y-87858329D01*
X26996520Y-87836151D01*
X27009133Y-87815107D01*
X27023747Y-87795402D01*
X27040223Y-87777223D01*
X27058402Y-87760747D01*
X27078107Y-87746133D01*
X27099151Y-87733520D01*
X27121329Y-87723030D01*
X27144429Y-87714765D01*
X27168227Y-87708804D01*
X27192496Y-87705204D01*
X27217000Y-87704000D01*
X28142000Y-87704000D01*
X28166504Y-87705204D01*
X28166504Y-87705204D01*
G37*
D15*
X27679500Y-88579000D03*
D14*
G36*
X31141504Y-87705204D02*
X31165773Y-87708804D01*
X31189571Y-87714765D01*
X31212671Y-87723030D01*
X31234849Y-87733520D01*
X31255893Y-87746133D01*
X31275598Y-87760747D01*
X31293777Y-87777223D01*
X31310253Y-87795402D01*
X31324867Y-87815107D01*
X31337480Y-87836151D01*
X31347970Y-87858329D01*
X31356235Y-87881429D01*
X31362196Y-87905227D01*
X31365796Y-87929496D01*
X31367000Y-87954000D01*
X31367000Y-89204000D01*
X31365796Y-89228504D01*
X31362196Y-89252773D01*
X31356235Y-89276571D01*
X31347970Y-89299671D01*
X31337480Y-89321849D01*
X31324867Y-89342893D01*
X31310253Y-89362598D01*
X31293777Y-89380777D01*
X31275598Y-89397253D01*
X31255893Y-89411867D01*
X31234849Y-89424480D01*
X31212671Y-89434970D01*
X31189571Y-89443235D01*
X31165773Y-89449196D01*
X31141504Y-89452796D01*
X31117000Y-89454000D01*
X30192000Y-89454000D01*
X30167496Y-89452796D01*
X30143227Y-89449196D01*
X30119429Y-89443235D01*
X30096329Y-89434970D01*
X30074151Y-89424480D01*
X30053107Y-89411867D01*
X30033402Y-89397253D01*
X30015223Y-89380777D01*
X29998747Y-89362598D01*
X29984133Y-89342893D01*
X29971520Y-89321849D01*
X29961030Y-89299671D01*
X29952765Y-89276571D01*
X29946804Y-89252773D01*
X29943204Y-89228504D01*
X29942000Y-89204000D01*
X29942000Y-87954000D01*
X29943204Y-87929496D01*
X29946804Y-87905227D01*
X29952765Y-87881429D01*
X29961030Y-87858329D01*
X29971520Y-87836151D01*
X29984133Y-87815107D01*
X29998747Y-87795402D01*
X30015223Y-87777223D01*
X30033402Y-87760747D01*
X30053107Y-87746133D01*
X30074151Y-87733520D01*
X30096329Y-87723030D01*
X30119429Y-87714765D01*
X30143227Y-87708804D01*
X30167496Y-87705204D01*
X30192000Y-87704000D01*
X31117000Y-87704000D01*
X31141504Y-87705204D01*
X31141504Y-87705204D01*
G37*
D15*
X30654500Y-88579000D03*
D14*
G36*
X70372504Y-66060204D02*
X70396773Y-66063804D01*
X70420571Y-66069765D01*
X70443671Y-66078030D01*
X70465849Y-66088520D01*
X70486893Y-66101133D01*
X70506598Y-66115747D01*
X70524777Y-66132223D01*
X70541253Y-66150402D01*
X70555867Y-66170107D01*
X70568480Y-66191151D01*
X70578970Y-66213329D01*
X70587235Y-66236429D01*
X70593196Y-66260227D01*
X70596796Y-66284496D01*
X70598000Y-66309000D01*
X70598000Y-67234000D01*
X70596796Y-67258504D01*
X70593196Y-67282773D01*
X70587235Y-67306571D01*
X70578970Y-67329671D01*
X70568480Y-67351849D01*
X70555867Y-67372893D01*
X70541253Y-67392598D01*
X70524777Y-67410777D01*
X70506598Y-67427253D01*
X70486893Y-67441867D01*
X70465849Y-67454480D01*
X70443671Y-67464970D01*
X70420571Y-67473235D01*
X70396773Y-67479196D01*
X70372504Y-67482796D01*
X70348000Y-67484000D01*
X69098000Y-67484000D01*
X69073496Y-67482796D01*
X69049227Y-67479196D01*
X69025429Y-67473235D01*
X69002329Y-67464970D01*
X68980151Y-67454480D01*
X68959107Y-67441867D01*
X68939402Y-67427253D01*
X68921223Y-67410777D01*
X68904747Y-67392598D01*
X68890133Y-67372893D01*
X68877520Y-67351849D01*
X68867030Y-67329671D01*
X68858765Y-67306571D01*
X68852804Y-67282773D01*
X68849204Y-67258504D01*
X68848000Y-67234000D01*
X68848000Y-66309000D01*
X68849204Y-66284496D01*
X68852804Y-66260227D01*
X68858765Y-66236429D01*
X68867030Y-66213329D01*
X68877520Y-66191151D01*
X68890133Y-66170107D01*
X68904747Y-66150402D01*
X68921223Y-66132223D01*
X68939402Y-66115747D01*
X68959107Y-66101133D01*
X68980151Y-66088520D01*
X69002329Y-66078030D01*
X69025429Y-66069765D01*
X69049227Y-66063804D01*
X69073496Y-66060204D01*
X69098000Y-66059000D01*
X70348000Y-66059000D01*
X70372504Y-66060204D01*
X70372504Y-66060204D01*
G37*
D15*
X69723000Y-66771500D03*
D14*
G36*
X70372504Y-69035204D02*
X70396773Y-69038804D01*
X70420571Y-69044765D01*
X70443671Y-69053030D01*
X70465849Y-69063520D01*
X70486893Y-69076133D01*
X70506598Y-69090747D01*
X70524777Y-69107223D01*
X70541253Y-69125402D01*
X70555867Y-69145107D01*
X70568480Y-69166151D01*
X70578970Y-69188329D01*
X70587235Y-69211429D01*
X70593196Y-69235227D01*
X70596796Y-69259496D01*
X70598000Y-69284000D01*
X70598000Y-70209000D01*
X70596796Y-70233504D01*
X70593196Y-70257773D01*
X70587235Y-70281571D01*
X70578970Y-70304671D01*
X70568480Y-70326849D01*
X70555867Y-70347893D01*
X70541253Y-70367598D01*
X70524777Y-70385777D01*
X70506598Y-70402253D01*
X70486893Y-70416867D01*
X70465849Y-70429480D01*
X70443671Y-70439970D01*
X70420571Y-70448235D01*
X70396773Y-70454196D01*
X70372504Y-70457796D01*
X70348000Y-70459000D01*
X69098000Y-70459000D01*
X69073496Y-70457796D01*
X69049227Y-70454196D01*
X69025429Y-70448235D01*
X69002329Y-70439970D01*
X68980151Y-70429480D01*
X68959107Y-70416867D01*
X68939402Y-70402253D01*
X68921223Y-70385777D01*
X68904747Y-70367598D01*
X68890133Y-70347893D01*
X68877520Y-70326849D01*
X68867030Y-70304671D01*
X68858765Y-70281571D01*
X68852804Y-70257773D01*
X68849204Y-70233504D01*
X68848000Y-70209000D01*
X68848000Y-69284000D01*
X68849204Y-69259496D01*
X68852804Y-69235227D01*
X68858765Y-69211429D01*
X68867030Y-69188329D01*
X68877520Y-69166151D01*
X68890133Y-69145107D01*
X68904747Y-69125402D01*
X68921223Y-69107223D01*
X68939402Y-69090747D01*
X68959107Y-69076133D01*
X68980151Y-69063520D01*
X69002329Y-69053030D01*
X69025429Y-69044765D01*
X69049227Y-69038804D01*
X69073496Y-69035204D01*
X69098000Y-69034000D01*
X70348000Y-69034000D01*
X70372504Y-69035204D01*
X70372504Y-69035204D01*
G37*
D15*
X69723000Y-69746500D03*
D14*
G36*
X62244504Y-80211204D02*
X62268773Y-80214804D01*
X62292571Y-80220765D01*
X62315671Y-80229030D01*
X62337849Y-80239520D01*
X62358893Y-80252133D01*
X62378598Y-80266747D01*
X62396777Y-80283223D01*
X62413253Y-80301402D01*
X62427867Y-80321107D01*
X62440480Y-80342151D01*
X62450970Y-80364329D01*
X62459235Y-80387429D01*
X62465196Y-80411227D01*
X62468796Y-80435496D01*
X62470000Y-80460000D01*
X62470000Y-81385000D01*
X62468796Y-81409504D01*
X62465196Y-81433773D01*
X62459235Y-81457571D01*
X62450970Y-81480671D01*
X62440480Y-81502849D01*
X62427867Y-81523893D01*
X62413253Y-81543598D01*
X62396777Y-81561777D01*
X62378598Y-81578253D01*
X62358893Y-81592867D01*
X62337849Y-81605480D01*
X62315671Y-81615970D01*
X62292571Y-81624235D01*
X62268773Y-81630196D01*
X62244504Y-81633796D01*
X62220000Y-81635000D01*
X60970000Y-81635000D01*
X60945496Y-81633796D01*
X60921227Y-81630196D01*
X60897429Y-81624235D01*
X60874329Y-81615970D01*
X60852151Y-81605480D01*
X60831107Y-81592867D01*
X60811402Y-81578253D01*
X60793223Y-81561777D01*
X60776747Y-81543598D01*
X60762133Y-81523893D01*
X60749520Y-81502849D01*
X60739030Y-81480671D01*
X60730765Y-81457571D01*
X60724804Y-81433773D01*
X60721204Y-81409504D01*
X60720000Y-81385000D01*
X60720000Y-80460000D01*
X60721204Y-80435496D01*
X60724804Y-80411227D01*
X60730765Y-80387429D01*
X60739030Y-80364329D01*
X60749520Y-80342151D01*
X60762133Y-80321107D01*
X60776747Y-80301402D01*
X60793223Y-80283223D01*
X60811402Y-80266747D01*
X60831107Y-80252133D01*
X60852151Y-80239520D01*
X60874329Y-80229030D01*
X60897429Y-80220765D01*
X60921227Y-80214804D01*
X60945496Y-80211204D01*
X60970000Y-80210000D01*
X62220000Y-80210000D01*
X62244504Y-80211204D01*
X62244504Y-80211204D01*
G37*
D15*
X61595000Y-80922500D03*
D14*
G36*
X62244504Y-77236204D02*
X62268773Y-77239804D01*
X62292571Y-77245765D01*
X62315671Y-77254030D01*
X62337849Y-77264520D01*
X62358893Y-77277133D01*
X62378598Y-77291747D01*
X62396777Y-77308223D01*
X62413253Y-77326402D01*
X62427867Y-77346107D01*
X62440480Y-77367151D01*
X62450970Y-77389329D01*
X62459235Y-77412429D01*
X62465196Y-77436227D01*
X62468796Y-77460496D01*
X62470000Y-77485000D01*
X62470000Y-78410000D01*
X62468796Y-78434504D01*
X62465196Y-78458773D01*
X62459235Y-78482571D01*
X62450970Y-78505671D01*
X62440480Y-78527849D01*
X62427867Y-78548893D01*
X62413253Y-78568598D01*
X62396777Y-78586777D01*
X62378598Y-78603253D01*
X62358893Y-78617867D01*
X62337849Y-78630480D01*
X62315671Y-78640970D01*
X62292571Y-78649235D01*
X62268773Y-78655196D01*
X62244504Y-78658796D01*
X62220000Y-78660000D01*
X60970000Y-78660000D01*
X60945496Y-78658796D01*
X60921227Y-78655196D01*
X60897429Y-78649235D01*
X60874329Y-78640970D01*
X60852151Y-78630480D01*
X60831107Y-78617867D01*
X60811402Y-78603253D01*
X60793223Y-78586777D01*
X60776747Y-78568598D01*
X60762133Y-78548893D01*
X60749520Y-78527849D01*
X60739030Y-78505671D01*
X60730765Y-78482571D01*
X60724804Y-78458773D01*
X60721204Y-78434504D01*
X60720000Y-78410000D01*
X60720000Y-77485000D01*
X60721204Y-77460496D01*
X60724804Y-77436227D01*
X60730765Y-77412429D01*
X60739030Y-77389329D01*
X60749520Y-77367151D01*
X60762133Y-77346107D01*
X60776747Y-77326402D01*
X60793223Y-77308223D01*
X60811402Y-77291747D01*
X60831107Y-77277133D01*
X60852151Y-77264520D01*
X60874329Y-77254030D01*
X60897429Y-77245765D01*
X60921227Y-77239804D01*
X60945496Y-77236204D01*
X60970000Y-77235000D01*
X62220000Y-77235000D01*
X62244504Y-77236204D01*
X62244504Y-77236204D01*
G37*
D15*
X61595000Y-77947500D03*
D14*
G36*
X72869504Y-79068204D02*
X72893773Y-79071804D01*
X72917571Y-79077765D01*
X72940671Y-79086030D01*
X72962849Y-79096520D01*
X72983893Y-79109133D01*
X73003598Y-79123747D01*
X73021777Y-79140223D01*
X73038253Y-79158402D01*
X73052867Y-79178107D01*
X73065480Y-79199151D01*
X73075970Y-79221329D01*
X73084235Y-79244429D01*
X73090196Y-79268227D01*
X73093796Y-79292496D01*
X73095000Y-79317000D01*
X73095000Y-80242000D01*
X73093796Y-80266504D01*
X73090196Y-80290773D01*
X73084235Y-80314571D01*
X73075970Y-80337671D01*
X73065480Y-80359849D01*
X73052867Y-80380893D01*
X73038253Y-80400598D01*
X73021777Y-80418777D01*
X73003598Y-80435253D01*
X72983893Y-80449867D01*
X72962849Y-80462480D01*
X72940671Y-80472970D01*
X72917571Y-80481235D01*
X72893773Y-80487196D01*
X72869504Y-80490796D01*
X72845000Y-80492000D01*
X71595000Y-80492000D01*
X71570496Y-80490796D01*
X71546227Y-80487196D01*
X71522429Y-80481235D01*
X71499329Y-80472970D01*
X71477151Y-80462480D01*
X71456107Y-80449867D01*
X71436402Y-80435253D01*
X71418223Y-80418777D01*
X71401747Y-80400598D01*
X71387133Y-80380893D01*
X71374520Y-80359849D01*
X71364030Y-80337671D01*
X71355765Y-80314571D01*
X71349804Y-80290773D01*
X71346204Y-80266504D01*
X71345000Y-80242000D01*
X71345000Y-79317000D01*
X71346204Y-79292496D01*
X71349804Y-79268227D01*
X71355765Y-79244429D01*
X71364030Y-79221329D01*
X71374520Y-79199151D01*
X71387133Y-79178107D01*
X71401747Y-79158402D01*
X71418223Y-79140223D01*
X71436402Y-79123747D01*
X71456107Y-79109133D01*
X71477151Y-79096520D01*
X71499329Y-79086030D01*
X71522429Y-79077765D01*
X71546227Y-79071804D01*
X71570496Y-79068204D01*
X71595000Y-79067000D01*
X72845000Y-79067000D01*
X72869504Y-79068204D01*
X72869504Y-79068204D01*
G37*
D15*
X72220000Y-79779500D03*
D14*
G36*
X72869504Y-76093204D02*
X72893773Y-76096804D01*
X72917571Y-76102765D01*
X72940671Y-76111030D01*
X72962849Y-76121520D01*
X72983893Y-76134133D01*
X73003598Y-76148747D01*
X73021777Y-76165223D01*
X73038253Y-76183402D01*
X73052867Y-76203107D01*
X73065480Y-76224151D01*
X73075970Y-76246329D01*
X73084235Y-76269429D01*
X73090196Y-76293227D01*
X73093796Y-76317496D01*
X73095000Y-76342000D01*
X73095000Y-77267000D01*
X73093796Y-77291504D01*
X73090196Y-77315773D01*
X73084235Y-77339571D01*
X73075970Y-77362671D01*
X73065480Y-77384849D01*
X73052867Y-77405893D01*
X73038253Y-77425598D01*
X73021777Y-77443777D01*
X73003598Y-77460253D01*
X72983893Y-77474867D01*
X72962849Y-77487480D01*
X72940671Y-77497970D01*
X72917571Y-77506235D01*
X72893773Y-77512196D01*
X72869504Y-77515796D01*
X72845000Y-77517000D01*
X71595000Y-77517000D01*
X71570496Y-77515796D01*
X71546227Y-77512196D01*
X71522429Y-77506235D01*
X71499329Y-77497970D01*
X71477151Y-77487480D01*
X71456107Y-77474867D01*
X71436402Y-77460253D01*
X71418223Y-77443777D01*
X71401747Y-77425598D01*
X71387133Y-77405893D01*
X71374520Y-77384849D01*
X71364030Y-77362671D01*
X71355765Y-77339571D01*
X71349804Y-77315773D01*
X71346204Y-77291504D01*
X71345000Y-77267000D01*
X71345000Y-76342000D01*
X71346204Y-76317496D01*
X71349804Y-76293227D01*
X71355765Y-76269429D01*
X71364030Y-76246329D01*
X71374520Y-76224151D01*
X71387133Y-76203107D01*
X71401747Y-76183402D01*
X71418223Y-76165223D01*
X71436402Y-76148747D01*
X71456107Y-76134133D01*
X71477151Y-76121520D01*
X71499329Y-76111030D01*
X71522429Y-76102765D01*
X71546227Y-76096804D01*
X71570496Y-76093204D01*
X71595000Y-76092000D01*
X72845000Y-76092000D01*
X72869504Y-76093204D01*
X72869504Y-76093204D01*
G37*
D15*
X72220000Y-76804500D03*
D14*
G36*
X67535504Y-79068204D02*
X67559773Y-79071804D01*
X67583571Y-79077765D01*
X67606671Y-79086030D01*
X67628849Y-79096520D01*
X67649893Y-79109133D01*
X67669598Y-79123747D01*
X67687777Y-79140223D01*
X67704253Y-79158402D01*
X67718867Y-79178107D01*
X67731480Y-79199151D01*
X67741970Y-79221329D01*
X67750235Y-79244429D01*
X67756196Y-79268227D01*
X67759796Y-79292496D01*
X67761000Y-79317000D01*
X67761000Y-80242000D01*
X67759796Y-80266504D01*
X67756196Y-80290773D01*
X67750235Y-80314571D01*
X67741970Y-80337671D01*
X67731480Y-80359849D01*
X67718867Y-80380893D01*
X67704253Y-80400598D01*
X67687777Y-80418777D01*
X67669598Y-80435253D01*
X67649893Y-80449867D01*
X67628849Y-80462480D01*
X67606671Y-80472970D01*
X67583571Y-80481235D01*
X67559773Y-80487196D01*
X67535504Y-80490796D01*
X67511000Y-80492000D01*
X66261000Y-80492000D01*
X66236496Y-80490796D01*
X66212227Y-80487196D01*
X66188429Y-80481235D01*
X66165329Y-80472970D01*
X66143151Y-80462480D01*
X66122107Y-80449867D01*
X66102402Y-80435253D01*
X66084223Y-80418777D01*
X66067747Y-80400598D01*
X66053133Y-80380893D01*
X66040520Y-80359849D01*
X66030030Y-80337671D01*
X66021765Y-80314571D01*
X66015804Y-80290773D01*
X66012204Y-80266504D01*
X66011000Y-80242000D01*
X66011000Y-79317000D01*
X66012204Y-79292496D01*
X66015804Y-79268227D01*
X66021765Y-79244429D01*
X66030030Y-79221329D01*
X66040520Y-79199151D01*
X66053133Y-79178107D01*
X66067747Y-79158402D01*
X66084223Y-79140223D01*
X66102402Y-79123747D01*
X66122107Y-79109133D01*
X66143151Y-79096520D01*
X66165329Y-79086030D01*
X66188429Y-79077765D01*
X66212227Y-79071804D01*
X66236496Y-79068204D01*
X66261000Y-79067000D01*
X67511000Y-79067000D01*
X67535504Y-79068204D01*
X67535504Y-79068204D01*
G37*
D15*
X66886000Y-79779500D03*
D14*
G36*
X67535504Y-76093204D02*
X67559773Y-76096804D01*
X67583571Y-76102765D01*
X67606671Y-76111030D01*
X67628849Y-76121520D01*
X67649893Y-76134133D01*
X67669598Y-76148747D01*
X67687777Y-76165223D01*
X67704253Y-76183402D01*
X67718867Y-76203107D01*
X67731480Y-76224151D01*
X67741970Y-76246329D01*
X67750235Y-76269429D01*
X67756196Y-76293227D01*
X67759796Y-76317496D01*
X67761000Y-76342000D01*
X67761000Y-77267000D01*
X67759796Y-77291504D01*
X67756196Y-77315773D01*
X67750235Y-77339571D01*
X67741970Y-77362671D01*
X67731480Y-77384849D01*
X67718867Y-77405893D01*
X67704253Y-77425598D01*
X67687777Y-77443777D01*
X67669598Y-77460253D01*
X67649893Y-77474867D01*
X67628849Y-77487480D01*
X67606671Y-77497970D01*
X67583571Y-77506235D01*
X67559773Y-77512196D01*
X67535504Y-77515796D01*
X67511000Y-77517000D01*
X66261000Y-77517000D01*
X66236496Y-77515796D01*
X66212227Y-77512196D01*
X66188429Y-77506235D01*
X66165329Y-77497970D01*
X66143151Y-77487480D01*
X66122107Y-77474867D01*
X66102402Y-77460253D01*
X66084223Y-77443777D01*
X66067747Y-77425598D01*
X66053133Y-77405893D01*
X66040520Y-77384849D01*
X66030030Y-77362671D01*
X66021765Y-77339571D01*
X66015804Y-77315773D01*
X66012204Y-77291504D01*
X66011000Y-77267000D01*
X66011000Y-76342000D01*
X66012204Y-76317496D01*
X66015804Y-76293227D01*
X66021765Y-76269429D01*
X66030030Y-76246329D01*
X66040520Y-76224151D01*
X66053133Y-76203107D01*
X66067747Y-76183402D01*
X66084223Y-76165223D01*
X66102402Y-76148747D01*
X66122107Y-76134133D01*
X66143151Y-76121520D01*
X66165329Y-76111030D01*
X66188429Y-76102765D01*
X66212227Y-76096804D01*
X66236496Y-76093204D01*
X66261000Y-76092000D01*
X67511000Y-76092000D01*
X67535504Y-76093204D01*
X67535504Y-76093204D01*
G37*
D15*
X66886000Y-76804500D03*
D16*
X54821000Y-73720000D03*
X78570000Y-42605000D03*
X29838500Y-75407500D03*
X41994000Y-83118000D03*
X32342000Y-68132000D03*
X39835000Y-80832000D03*
X72220000Y-74101000D03*
X67013000Y-74101000D03*
X63119000Y-86185000D03*
X28024000Y-85785000D03*
X47963000Y-89849000D03*
X75649000Y-94929000D03*
X53467000Y-82629000D03*
X55626000Y-84788000D03*
X43070500Y-77947500D03*
X38608000Y-73810500D03*
X36025000Y-70672000D03*
D17*
X46355000Y-70835500D02*
X46355000Y-48531000D01*
X47709000Y-47177000D02*
X49487000Y-47177000D01*
X46355000Y-48531000D02*
X47709000Y-47177000D01*
X15111000Y-85367500D02*
X13292000Y-83548500D01*
X16086000Y-85367500D02*
X15111000Y-85367500D01*
X13292000Y-83548500D02*
X13292000Y-78382500D01*
X30570500Y-83299000D02*
X30607000Y-83335500D01*
X27813000Y-83299000D02*
X30570500Y-83299000D01*
X30607000Y-83335500D02*
X30607000Y-85488000D01*
X29167000Y-86928000D02*
X29167000Y-94167000D01*
X30607000Y-85488000D02*
X29167000Y-86928000D01*
X29167000Y-96175000D02*
X32239000Y-99247000D01*
X29167000Y-94167000D02*
X29167000Y-96175000D01*
X32239000Y-99247000D02*
X43772000Y-99247000D01*
X45931000Y-97088000D02*
X45931000Y-94251000D01*
X43772000Y-99247000D02*
X45931000Y-97088000D01*
X45931000Y-104743000D02*
X51554000Y-99120000D01*
X45931000Y-106751000D02*
X45931000Y-104743000D01*
X51554000Y-99120000D02*
X60536000Y-99120000D01*
X62314000Y-97342000D02*
X62314000Y-94294000D01*
X60536000Y-99120000D02*
X62314000Y-97342000D01*
X53467000Y-77947500D02*
X53467000Y-75074000D01*
X53467000Y-75074000D02*
X54821000Y-73720000D01*
X54821000Y-73720000D02*
X54821000Y-73720000D01*
X78570000Y-42605000D02*
X78570000Y-42605000D01*
X13292000Y-78382500D02*
X18843500Y-78382500D01*
X23760000Y-83299000D02*
X27813000Y-83299000D01*
X18843500Y-78382500D02*
X23760000Y-83299000D01*
X87714000Y-102459000D02*
X88476000Y-101697000D01*
X86270000Y-102459000D02*
X87714000Y-102459000D01*
X15000000Y-97000000D02*
X15000000Y-94167000D01*
X16866000Y-98866000D02*
X15000000Y-97000000D01*
X29167000Y-96175000D02*
X26476000Y-98866000D01*
X26476000Y-98866000D02*
X16866000Y-98866000D01*
X81965000Y-46000000D02*
X81965000Y-55489000D01*
X88476000Y-101697000D02*
X88476000Y-62000000D01*
X81965000Y-55489000D02*
X88476000Y-62000000D01*
X81965000Y-46000000D02*
X78570000Y-42605000D01*
X10160000Y-82392500D02*
X10160000Y-77233000D01*
X11985500Y-75407500D02*
X13292000Y-75407500D01*
X10160000Y-77233000D02*
X11985500Y-75407500D01*
X13292000Y-75407500D02*
X29838500Y-75407500D01*
X29838500Y-75407500D02*
X29838500Y-75407500D01*
X50292000Y-82440000D02*
X50292000Y-80922500D01*
X41994000Y-83118000D02*
X49614000Y-83118000D01*
X49614000Y-83118000D02*
X50292000Y-82440000D01*
X58817081Y-14157000D02*
X76919000Y-32258919D01*
X57615000Y-14157000D02*
X58817081Y-14157000D01*
X76919000Y-32258919D02*
X76919000Y-74609000D01*
X74723500Y-76804500D02*
X72220000Y-76804500D01*
X76919000Y-74609000D02*
X74723500Y-76804500D01*
X46525000Y-80922500D02*
X47963000Y-79484500D01*
X45550000Y-80922500D02*
X46525000Y-80922500D01*
X47963000Y-79484500D02*
X47963000Y-78673000D01*
X48688500Y-77947500D02*
X50292000Y-77947500D01*
X47963000Y-78673000D02*
X48688500Y-77947500D01*
X65198500Y-76804500D02*
X66886000Y-76804500D01*
X61595000Y-77947500D02*
X64055500Y-77947500D01*
X64055500Y-77947500D02*
X65198500Y-76804500D01*
X58039000Y-77947500D02*
X61595000Y-77947500D01*
X32342000Y-68132000D02*
X32342000Y-68132000D01*
X32342000Y-68132000D02*
X32342000Y-68132000D01*
X45459500Y-80832000D02*
X45550000Y-80922500D01*
X39835000Y-80832000D02*
X45459500Y-80832000D01*
X72220000Y-76804500D02*
X72220000Y-75992000D01*
X72220000Y-75992000D02*
X72220000Y-74101000D01*
X72220000Y-74101000D02*
X72220000Y-74101000D01*
X67013000Y-76677500D02*
X66886000Y-76804500D01*
X67013000Y-74101000D02*
X67013000Y-76677500D01*
X48598000Y-42097000D02*
X49487000Y-42097000D01*
X45000000Y-45695000D02*
X48598000Y-42097000D01*
X45000000Y-56039685D02*
X45000000Y-45695000D01*
X32342000Y-68132000D02*
X32907685Y-68132000D01*
X32907685Y-68132000D02*
X45000000Y-56039685D01*
X72220000Y-79779500D02*
X72220000Y-80592000D01*
X31467000Y-88579000D02*
X33358000Y-86688000D01*
X30654500Y-88579000D02*
X31467000Y-88579000D01*
X33358000Y-86688000D02*
X33358000Y-81721000D01*
X31997500Y-80360500D02*
X30607000Y-80360500D01*
X33358000Y-81721000D02*
X31997500Y-80360500D01*
X30654500Y-90931500D02*
X30654500Y-88579000D01*
X49403000Y-86185000D02*
X43434000Y-92154000D01*
X63119000Y-86185000D02*
X49403000Y-86185000D01*
X43434000Y-92154000D02*
X43434000Y-95837000D01*
X43434000Y-95837000D02*
X41656000Y-97615000D01*
X41656000Y-97615000D02*
X37338000Y-97615000D01*
X37338000Y-97615000D02*
X30654500Y-90931500D01*
X81387000Y-89759000D02*
X81190000Y-89562000D01*
X86270000Y-89759000D02*
X81387000Y-89759000D01*
X72220000Y-80592000D02*
X81190000Y-89562000D01*
X63801500Y-80922500D02*
X61595000Y-80922500D01*
X64600000Y-81721000D02*
X63801500Y-80922500D01*
X69807000Y-81721000D02*
X64600000Y-81721000D01*
X17061000Y-87599500D02*
X18626000Y-86034500D01*
X16086000Y-87599500D02*
X17061000Y-87599500D01*
X18626000Y-86034500D02*
X18626000Y-83753000D01*
X17265500Y-82392500D02*
X16086000Y-82392500D01*
X18626000Y-83753000D02*
X17265500Y-82392500D01*
X18626000Y-83753000D02*
X21674000Y-83753000D01*
X21674000Y-83753000D02*
X23706000Y-85785000D01*
X23706000Y-85785000D02*
X28024000Y-85785000D01*
X28024000Y-85785000D02*
X28024000Y-85785000D01*
X47963000Y-89849000D02*
X70569000Y-89849000D01*
X70569000Y-89849000D02*
X75649000Y-94929000D01*
X75649000Y-94929000D02*
X75649000Y-94929000D01*
X80385000Y-92299000D02*
X79623000Y-91537000D01*
X86270000Y-92299000D02*
X80385000Y-92299000D01*
X79623000Y-91537000D02*
X69807000Y-81721000D01*
X68791000Y-83245000D02*
X59012000Y-83245000D01*
X58039000Y-82272000D02*
X58039000Y-80922500D01*
X59012000Y-83245000D02*
X58039000Y-82272000D01*
X50546000Y-75033000D02*
X50546000Y-73810500D01*
X51900000Y-76387000D02*
X50546000Y-75033000D01*
X51900000Y-79308000D02*
X51900000Y-76387000D01*
X52695653Y-80103653D02*
X51900000Y-79308000D01*
X53467000Y-80922500D02*
X52695653Y-80151153D01*
X52695653Y-80151153D02*
X52695653Y-80103653D01*
X53467000Y-80922500D02*
X53467000Y-82629000D01*
X53467000Y-82629000D02*
X53467000Y-82629000D01*
X57469000Y-84788000D02*
X59012000Y-83245000D01*
X55626000Y-84788000D02*
X57469000Y-84788000D01*
X80385000Y-94839000D02*
X79666000Y-94120000D01*
X86270000Y-94839000D02*
X80385000Y-94839000D01*
X79666000Y-94120000D02*
X68791000Y-83245000D01*
X45550000Y-77947500D02*
X45550000Y-76260000D01*
X46355000Y-75455000D02*
X46355000Y-73810500D01*
X45550000Y-76260000D02*
X46355000Y-75455000D01*
X42291000Y-73810500D02*
X38608000Y-73810500D01*
X32813500Y-73810500D02*
X19134000Y-60131000D01*
X19134000Y-60131000D02*
X19134000Y-41970000D01*
X21547000Y-39557000D02*
X24087000Y-39557000D01*
X19134000Y-41970000D02*
X21547000Y-39557000D01*
X45550000Y-77947500D02*
X43070500Y-77947500D01*
X43070500Y-77947500D02*
X43070500Y-77947500D01*
X38608000Y-73810500D02*
X32813500Y-73810500D01*
X67861000Y-79779500D02*
X69348500Y-78292000D01*
X66886000Y-79779500D02*
X67861000Y-79779500D01*
X74252000Y-78292000D02*
X82888000Y-86928000D01*
X69348500Y-78292000D02*
X69680000Y-78292000D01*
X69680000Y-78292000D02*
X74252000Y-78292000D01*
X69723000Y-78249000D02*
X69680000Y-78292000D01*
X69723000Y-69746500D02*
X69723000Y-78249000D01*
X72855000Y-66614500D02*
X69723000Y-69746500D01*
X72855000Y-65719000D02*
X72855000Y-66614500D01*
X65489000Y-64195000D02*
X71331000Y-64195000D01*
X57361000Y-72323000D02*
X65489000Y-64195000D01*
X45042000Y-72323000D02*
X57361000Y-72323000D01*
X27813000Y-79511500D02*
X28632500Y-78692000D01*
X71331000Y-64195000D02*
X72855000Y-65719000D01*
X27813000Y-80324000D02*
X27813000Y-79511500D01*
X28632500Y-78692000D02*
X40197000Y-78692000D01*
X40197000Y-78692000D02*
X44407000Y-74482000D01*
X44407000Y-74482000D02*
X44407000Y-72958000D01*
X44407000Y-72958000D02*
X45042000Y-72323000D01*
X83179000Y-87219000D02*
X82888000Y-86928000D01*
X86270000Y-87219000D02*
X83179000Y-87219000D01*
X9185000Y-85367500D02*
X6815000Y-82997500D01*
X10160000Y-85367500D02*
X9185000Y-85367500D01*
X6815000Y-82997500D02*
X6815000Y-49971000D01*
X19769000Y-37017000D02*
X24087000Y-37017000D01*
X6815000Y-49971000D02*
X19769000Y-37017000D01*
X56445000Y-52500000D02*
X58203000Y-52500000D01*
X50546000Y-58399000D02*
X56445000Y-52500000D01*
X50546000Y-70835500D02*
X50546000Y-58399000D01*
X24167000Y-92091500D02*
X27679500Y-88579000D01*
X24167000Y-94167000D02*
X24167000Y-92091500D01*
X15111000Y-90574500D02*
X16086000Y-90574500D01*
X11584500Y-90574500D02*
X15111000Y-90574500D01*
X10000000Y-92159000D02*
X11584500Y-90574500D01*
X10000000Y-94167000D02*
X10000000Y-92159000D01*
X40931000Y-92243000D02*
X48151000Y-85023000D01*
X40931000Y-94251000D02*
X40931000Y-92243000D01*
X48151000Y-85023000D02*
X53678000Y-85023000D01*
X53678000Y-85023000D02*
X55329000Y-83372000D01*
X55329000Y-83372000D02*
X55329000Y-77149000D01*
X55329000Y-77149000D02*
X56853000Y-75625000D01*
X56853000Y-75625000D02*
X60536000Y-75625000D01*
X60536000Y-75625000D02*
X64981000Y-71180000D01*
X64981000Y-71180000D02*
X64981000Y-69275000D01*
X67484500Y-66771500D02*
X69723000Y-66771500D01*
X64981000Y-69275000D02*
X67484500Y-66771500D01*
X42127500Y-70672000D02*
X42291000Y-70835500D01*
X36025000Y-70672000D02*
X42127500Y-70672000D01*
X46085214Y-40827000D02*
X45042000Y-39783786D01*
X47287295Y-40827000D02*
X46085214Y-40827000D01*
X45042000Y-39783786D02*
X45042000Y-29524000D01*
X45042000Y-29524000D02*
X41359000Y-25841000D01*
X41359000Y-25841000D02*
X38946000Y-25841000D01*
X38946000Y-25841000D02*
X36406000Y-23301000D01*
X36406000Y-23301000D02*
X36406000Y-12379000D01*
X36406000Y-12379000D02*
X38311000Y-10474000D01*
X38311000Y-10474000D02*
X50884000Y-10474000D01*
X52535000Y-12125000D02*
X52535000Y-14157000D01*
X50884000Y-10474000D02*
X52535000Y-12125000D01*
X49995000Y-16062000D02*
X49995000Y-14157000D01*
X47836000Y-18221000D02*
X49995000Y-16062000D01*
X41359000Y-18221000D02*
X47836000Y-18221000D01*
X39200000Y-20380000D02*
X41359000Y-18221000D01*
X46437296Y-37437001D02*
X46437296Y-27363296D01*
X47287295Y-38287000D02*
X46437296Y-37437001D01*
X46437296Y-27363296D02*
X43264000Y-24190000D01*
X43264000Y-24190000D02*
X40089000Y-24190000D01*
X40089000Y-24190000D02*
X39200000Y-23301000D01*
X39200000Y-23301000D02*
X39200000Y-20380000D01*
D18*
G36*
X89290000Y-112290000D02*
X710000Y-112290000D01*
X710000Y-109605159D01*
X1015000Y-109605159D01*
X1015000Y-110394841D01*
X1317199Y-111124412D01*
X1875588Y-111682801D01*
X2605159Y-111985000D01*
X3394841Y-111985000D01*
X4124412Y-111682801D01*
X4682801Y-111124412D01*
X4985000Y-110394841D01*
X4985000Y-109605159D01*
X85015000Y-109605159D01*
X85015000Y-110394841D01*
X85317199Y-111124412D01*
X85875588Y-111682801D01*
X86605159Y-111985000D01*
X87394841Y-111985000D01*
X88124412Y-111682801D01*
X88682801Y-111124412D01*
X88985000Y-110394841D01*
X88985000Y-109605159D01*
X88682801Y-108875588D01*
X88124412Y-108317199D01*
X87394841Y-108015000D01*
X86605159Y-108015000D01*
X85875588Y-108317199D01*
X85317199Y-108875588D01*
X85015000Y-109605159D01*
X4985000Y-109605159D01*
X4682801Y-108875588D01*
X4124412Y-108317199D01*
X3394841Y-108015000D01*
X2605159Y-108015000D01*
X1875588Y-108317199D01*
X1317199Y-108875588D01*
X1015000Y-109605159D01*
X710000Y-109605159D01*
X710000Y-106231345D01*
X8115000Y-106231345D01*
X8115000Y-107102654D01*
X8224369Y-107652489D01*
X8640991Y-108276009D01*
X9264510Y-108692631D01*
X10000000Y-108838929D01*
X10735489Y-108692631D01*
X11359009Y-108276009D01*
X11775631Y-107652490D01*
X11885000Y-107102655D01*
X11885000Y-107091040D01*
X13114885Y-107091040D01*
X13324983Y-107799194D01*
X13790087Y-108373042D01*
X14439389Y-108725221D01*
X14580355Y-108754695D01*
X14873000Y-108638572D01*
X14873000Y-106794000D01*
X15127000Y-106794000D01*
X15127000Y-108638572D01*
X15419645Y-108754695D01*
X15560611Y-108725221D01*
X16209913Y-108373042D01*
X16675017Y-107799194D01*
X16885115Y-107091040D01*
X16730382Y-106794000D01*
X15127000Y-106794000D01*
X14873000Y-106794000D01*
X13269618Y-106794000D01*
X13114885Y-107091040D01*
X11885000Y-107091040D01*
X11885000Y-106242960D01*
X13114885Y-106242960D01*
X13269618Y-106540000D01*
X14873000Y-106540000D01*
X14873000Y-104695428D01*
X15127000Y-104695428D01*
X15127000Y-106540000D01*
X16730382Y-106540000D01*
X16885115Y-106242960D01*
X16881670Y-106231345D01*
X22282000Y-106231345D01*
X22282000Y-107102654D01*
X22391369Y-107652489D01*
X22807991Y-108276009D01*
X23431510Y-108692631D01*
X24167000Y-108838929D01*
X24902489Y-108692631D01*
X25526009Y-108276009D01*
X25942631Y-107652490D01*
X26052000Y-107102655D01*
X26052000Y-107091040D01*
X27281885Y-107091040D01*
X27491983Y-107799194D01*
X27957087Y-108373042D01*
X28606389Y-108725221D01*
X28747355Y-108754695D01*
X29040000Y-108638572D01*
X29040000Y-106794000D01*
X29294000Y-106794000D01*
X29294000Y-108638572D01*
X29586645Y-108754695D01*
X29727611Y-108725221D01*
X30376913Y-108373042D01*
X30842017Y-107799194D01*
X31052115Y-107091040D01*
X30897382Y-106794000D01*
X29294000Y-106794000D01*
X29040000Y-106794000D01*
X27436618Y-106794000D01*
X27281885Y-107091040D01*
X26052000Y-107091040D01*
X26052000Y-106242960D01*
X27281885Y-106242960D01*
X27436618Y-106540000D01*
X29040000Y-106540000D01*
X29040000Y-104695428D01*
X29294000Y-104695428D01*
X29294000Y-106540000D01*
X30897382Y-106540000D01*
X31014408Y-106315345D01*
X39046000Y-106315345D01*
X39046000Y-107186654D01*
X39155369Y-107736489D01*
X39571991Y-108360009D01*
X40195510Y-108776631D01*
X40931000Y-108922929D01*
X41666489Y-108776631D01*
X42290009Y-108360009D01*
X42706631Y-107736490D01*
X42816000Y-107186655D01*
X42816000Y-107175040D01*
X44045885Y-107175040D01*
X44255983Y-107883194D01*
X44721087Y-108457042D01*
X45370389Y-108809221D01*
X45511355Y-108838695D01*
X45804000Y-108722572D01*
X45804000Y-106878000D01*
X46058000Y-106878000D01*
X46058000Y-108722572D01*
X46350645Y-108838695D01*
X46491611Y-108809221D01*
X47140913Y-108457042D01*
X47606017Y-107883194D01*
X47816115Y-107175040D01*
X47661382Y-106878000D01*
X46058000Y-106878000D01*
X45804000Y-106878000D01*
X44200618Y-106878000D01*
X44045885Y-107175040D01*
X42816000Y-107175040D01*
X42816000Y-106326960D01*
X44045885Y-106326960D01*
X44200618Y-106624000D01*
X45804000Y-106624000D01*
X45804000Y-104779428D01*
X46058000Y-104779428D01*
X46058000Y-106624000D01*
X47661382Y-106624000D01*
X47799766Y-106358345D01*
X55429000Y-106358345D01*
X55429000Y-107229654D01*
X55538369Y-107779489D01*
X55954991Y-108403009D01*
X56578510Y-108819631D01*
X57314000Y-108965929D01*
X58049489Y-108819631D01*
X58673009Y-108403009D01*
X59089631Y-107779490D01*
X59199000Y-107229655D01*
X59199000Y-107218040D01*
X60428885Y-107218040D01*
X60638983Y-107926194D01*
X61104087Y-108500042D01*
X61753389Y-108852221D01*
X61894355Y-108881695D01*
X62187000Y-108765572D01*
X62187000Y-106921000D01*
X62441000Y-106921000D01*
X62441000Y-108765572D01*
X62733645Y-108881695D01*
X62874611Y-108852221D01*
X63523913Y-108500042D01*
X63989017Y-107926194D01*
X64199115Y-107218040D01*
X64044382Y-106921000D01*
X62441000Y-106921000D01*
X62187000Y-106921000D01*
X60583618Y-106921000D01*
X60428885Y-107218040D01*
X59199000Y-107218040D01*
X59199000Y-106369960D01*
X60428885Y-106369960D01*
X60583618Y-106667000D01*
X62187000Y-106667000D01*
X62187000Y-104822428D01*
X62441000Y-104822428D01*
X62441000Y-106667000D01*
X64044382Y-106667000D01*
X64199115Y-106369960D01*
X63989017Y-105661806D01*
X63523913Y-105087958D01*
X62874611Y-104735779D01*
X62733645Y-104706305D01*
X62441000Y-104822428D01*
X62187000Y-104822428D01*
X61894355Y-104706305D01*
X61753389Y-104735779D01*
X61104087Y-105087958D01*
X60638983Y-105661806D01*
X60428885Y-106369960D01*
X59199000Y-106369960D01*
X59199000Y-106358346D01*
X59089631Y-105808510D01*
X58673009Y-105184991D01*
X58049490Y-104768369D01*
X57314000Y-104622071D01*
X56578511Y-104768369D01*
X55954991Y-105184991D01*
X55538369Y-105808510D01*
X55429000Y-106358345D01*
X47799766Y-106358345D01*
X47816115Y-106326960D01*
X47606017Y-105618806D01*
X47140913Y-105044958D01*
X46491611Y-104692779D01*
X46350645Y-104663305D01*
X46058000Y-104779428D01*
X45804000Y-104779428D01*
X45511355Y-104663305D01*
X45370389Y-104692779D01*
X44721087Y-105044958D01*
X44255983Y-105618806D01*
X44045885Y-106326960D01*
X42816000Y-106326960D01*
X42816000Y-106315346D01*
X42706631Y-105765510D01*
X42290009Y-105141991D01*
X41666490Y-104725369D01*
X40931000Y-104579071D01*
X40195511Y-104725369D01*
X39571991Y-105141991D01*
X39155369Y-105765510D01*
X39046000Y-106315345D01*
X31014408Y-106315345D01*
X31052115Y-106242960D01*
X30842017Y-105534806D01*
X30376913Y-104960958D01*
X29727611Y-104608779D01*
X29586645Y-104579305D01*
X29294000Y-104695428D01*
X29040000Y-104695428D01*
X28747355Y-104579305D01*
X28606389Y-104608779D01*
X27957087Y-104960958D01*
X27491983Y-105534806D01*
X27281885Y-106242960D01*
X26052000Y-106242960D01*
X26052000Y-106231346D01*
X25942631Y-105681510D01*
X25526009Y-105057991D01*
X24902490Y-104641369D01*
X24167000Y-104495071D01*
X23431511Y-104641369D01*
X22807991Y-105057991D01*
X22391369Y-105681510D01*
X22282000Y-106231345D01*
X16881670Y-106231345D01*
X16675017Y-105534806D01*
X16209913Y-104960958D01*
X15560611Y-104608779D01*
X15419645Y-104579305D01*
X15127000Y-104695428D01*
X14873000Y-104695428D01*
X14580355Y-104579305D01*
X14439389Y-104608779D01*
X13790087Y-104960958D01*
X13324983Y-105534806D01*
X13114885Y-106242960D01*
X11885000Y-106242960D01*
X11885000Y-106231346D01*
X11775631Y-105681510D01*
X11359009Y-105057991D01*
X10735490Y-104641369D01*
X10000000Y-104495071D01*
X9264511Y-104641369D01*
X8640991Y-105057991D01*
X8224369Y-105681510D01*
X8115000Y-106231345D01*
X710000Y-106231345D01*
X710000Y-104149000D01*
X84772560Y-104149000D01*
X84772560Y-105849000D01*
X84821843Y-106096765D01*
X84962191Y-106306809D01*
X85172235Y-106447157D01*
X85420000Y-106496440D01*
X87120000Y-106496440D01*
X87367765Y-106447157D01*
X87577809Y-106306809D01*
X87718157Y-106096765D01*
X87767440Y-105849000D01*
X87767440Y-104149000D01*
X87718157Y-103901235D01*
X87577809Y-103691191D01*
X87367765Y-103550843D01*
X87264292Y-103530261D01*
X87541645Y-103225924D01*
X87711476Y-102815890D01*
X87590155Y-102586000D01*
X86397000Y-102586000D01*
X86397000Y-102606000D01*
X86143000Y-102606000D01*
X86143000Y-102586000D01*
X84949845Y-102586000D01*
X84828524Y-102815890D01*
X84998355Y-103225924D01*
X85275708Y-103530261D01*
X85172235Y-103550843D01*
X84962191Y-103691191D01*
X84821843Y-103901235D01*
X84772560Y-104149000D01*
X710000Y-104149000D01*
X710000Y-93731345D01*
X8115000Y-93731345D01*
X8115000Y-94602654D01*
X8224369Y-95152489D01*
X8640991Y-95776009D01*
X9264510Y-96192631D01*
X10000000Y-96338929D01*
X10735489Y-96192631D01*
X11359009Y-95776009D01*
X11775631Y-95152490D01*
X11885000Y-94602655D01*
X11885000Y-94591040D01*
X13114885Y-94591040D01*
X13324983Y-95299194D01*
X13790087Y-95873042D01*
X14439389Y-96225221D01*
X14580355Y-96254695D01*
X14873000Y-96138572D01*
X14873000Y-94294000D01*
X15127000Y-94294000D01*
X15127000Y-96138572D01*
X15419645Y-96254695D01*
X15560611Y-96225221D01*
X16209913Y-95873042D01*
X16675017Y-95299194D01*
X16885115Y-94591040D01*
X16730382Y-94294000D01*
X15127000Y-94294000D01*
X14873000Y-94294000D01*
X13269618Y-94294000D01*
X13114885Y-94591040D01*
X11885000Y-94591040D01*
X11885000Y-93742960D01*
X13114885Y-93742960D01*
X13269618Y-94040000D01*
X14873000Y-94040000D01*
X14873000Y-92195428D01*
X15127000Y-92195428D01*
X15127000Y-94040000D01*
X16730382Y-94040000D01*
X16885115Y-93742960D01*
X16881670Y-93731345D01*
X22282000Y-93731345D01*
X22282000Y-94602654D01*
X22391369Y-95152489D01*
X22807991Y-95776009D01*
X23431510Y-96192631D01*
X24167000Y-96338929D01*
X24902489Y-96192631D01*
X25526009Y-95776009D01*
X25942631Y-95152490D01*
X26052000Y-94602655D01*
X26052000Y-94591040D01*
X27281885Y-94591040D01*
X27491983Y-95299194D01*
X27957087Y-95873042D01*
X28606389Y-96225221D01*
X28747355Y-96254695D01*
X29040000Y-96138572D01*
X29040000Y-94294000D01*
X29294000Y-94294000D01*
X29294000Y-96138572D01*
X29586645Y-96254695D01*
X29727611Y-96225221D01*
X30376913Y-95873042D01*
X30842017Y-95299194D01*
X31052115Y-94591040D01*
X30897382Y-94294000D01*
X29294000Y-94294000D01*
X29040000Y-94294000D01*
X27436618Y-94294000D01*
X27281885Y-94591040D01*
X26052000Y-94591040D01*
X26052000Y-93742960D01*
X27281885Y-93742960D01*
X27436618Y-94040000D01*
X29040000Y-94040000D01*
X29040000Y-92195428D01*
X29294000Y-92195428D01*
X29294000Y-94040000D01*
X30897382Y-94040000D01*
X31052115Y-93742960D01*
X30842017Y-93034806D01*
X30376913Y-92460958D01*
X29727611Y-92108779D01*
X29586645Y-92079305D01*
X29294000Y-92195428D01*
X29040000Y-92195428D01*
X28747355Y-92079305D01*
X28606389Y-92108779D01*
X27957087Y-92460958D01*
X27491983Y-93034806D01*
X27281885Y-93742960D01*
X26052000Y-93742960D01*
X26052000Y-93731346D01*
X25942631Y-93181510D01*
X25526009Y-92557991D01*
X25185359Y-92330376D01*
X27414296Y-90101440D01*
X28142000Y-90101440D01*
X28485435Y-90033126D01*
X28776586Y-89838586D01*
X28971126Y-89547435D01*
X29039440Y-89204000D01*
X29039440Y-87954000D01*
X28971126Y-87610565D01*
X28776586Y-87319414D01*
X28485435Y-87124874D01*
X28142000Y-87056560D01*
X27217000Y-87056560D01*
X26873565Y-87124874D01*
X26582414Y-87319414D01*
X26387874Y-87610565D01*
X26319560Y-87954000D01*
X26319560Y-88681704D01*
X23600294Y-91400971D01*
X23526068Y-91450567D01*
X23476472Y-91524793D01*
X23476471Y-91524794D01*
X23329582Y-91744630D01*
X23260584Y-92091500D01*
X23278001Y-92179059D01*
X23278001Y-92243941D01*
X22807991Y-92557991D01*
X22391369Y-93181510D01*
X22282000Y-93731345D01*
X16881670Y-93731345D01*
X16675017Y-93034806D01*
X16209913Y-92460958D01*
X15560611Y-92108779D01*
X15419645Y-92079305D01*
X15127000Y-92195428D01*
X14873000Y-92195428D01*
X14580355Y-92079305D01*
X14439389Y-92108779D01*
X13790087Y-92460958D01*
X13324983Y-93034806D01*
X13114885Y-93742960D01*
X11885000Y-93742960D01*
X11885000Y-93731346D01*
X11775631Y-93181510D01*
X11359009Y-92557991D01*
X11058822Y-92357413D01*
X11952736Y-91463500D01*
X14687376Y-91463500D01*
X14826414Y-91671586D01*
X15117565Y-91866126D01*
X15461000Y-91934440D01*
X16711000Y-91934440D01*
X17054435Y-91866126D01*
X17345586Y-91671586D01*
X17540126Y-91380435D01*
X17608440Y-91037000D01*
X17608440Y-90112000D01*
X17540126Y-89768565D01*
X17345586Y-89477414D01*
X17054435Y-89282874D01*
X16711000Y-89214560D01*
X15461000Y-89214560D01*
X15117565Y-89282874D01*
X14826414Y-89477414D01*
X14687376Y-89685500D01*
X11672050Y-89685500D01*
X11584499Y-89668085D01*
X11496948Y-89685500D01*
X11496944Y-89685500D01*
X11237630Y-89737081D01*
X10943567Y-89933567D01*
X10893971Y-90007793D01*
X9433294Y-91468471D01*
X9359068Y-91518067D01*
X9309472Y-91592293D01*
X9309471Y-91592294D01*
X9162582Y-91812130D01*
X9093584Y-92159000D01*
X9110541Y-92244248D01*
X8640991Y-92557991D01*
X8224369Y-93181510D01*
X8115000Y-93731345D01*
X710000Y-93731345D01*
X710000Y-51605159D01*
X1015000Y-51605159D01*
X1015000Y-52394841D01*
X1317199Y-53124412D01*
X1875588Y-53682801D01*
X2605159Y-53985000D01*
X3394841Y-53985000D01*
X4124412Y-53682801D01*
X4682801Y-53124412D01*
X4985000Y-52394841D01*
X4985000Y-51605159D01*
X4682801Y-50875588D01*
X4124412Y-50317199D01*
X3394841Y-50015000D01*
X2605159Y-50015000D01*
X1875588Y-50317199D01*
X1317199Y-50875588D01*
X1015000Y-51605159D01*
X710000Y-51605159D01*
X710000Y-49971000D01*
X5908584Y-49971000D01*
X5926001Y-50058560D01*
X5926000Y-82909945D01*
X5908584Y-82997500D01*
X5926000Y-83085055D01*
X5977581Y-83344369D01*
X6174067Y-83638433D01*
X6248296Y-83688031D01*
X8494471Y-85934207D01*
X8544067Y-86008433D01*
X8692824Y-86107829D01*
X8705874Y-86173435D01*
X8900414Y-86464586D01*
X9191565Y-86659126D01*
X9535000Y-86727440D01*
X10785000Y-86727440D01*
X11128435Y-86659126D01*
X11419586Y-86464586D01*
X11614126Y-86173435D01*
X11682440Y-85830000D01*
X11682440Y-84905000D01*
X11614126Y-84561565D01*
X11592161Y-84528691D01*
X14576000Y-84528691D01*
X14576000Y-85081750D01*
X14734750Y-85240500D01*
X15959000Y-85240500D01*
X15959000Y-84178750D01*
X16213000Y-84178750D01*
X16213000Y-85240500D01*
X17437250Y-85240500D01*
X17596000Y-85081750D01*
X17596000Y-84528691D01*
X17499327Y-84295302D01*
X17320699Y-84116673D01*
X17087310Y-84020000D01*
X16371750Y-84020000D01*
X16213000Y-84178750D01*
X15959000Y-84178750D01*
X15800250Y-84020000D01*
X15084690Y-84020000D01*
X14851301Y-84116673D01*
X14672673Y-84295302D01*
X14576000Y-84528691D01*
X11592161Y-84528691D01*
X11419586Y-84270414D01*
X11128435Y-84075874D01*
X10785000Y-84007560D01*
X9535000Y-84007560D01*
X9191565Y-84075874D01*
X9167014Y-84092278D01*
X7704000Y-82629265D01*
X7704000Y-81930000D01*
X8637560Y-81930000D01*
X8637560Y-82855000D01*
X8705874Y-83198435D01*
X8900414Y-83489586D01*
X9191565Y-83684126D01*
X9535000Y-83752440D01*
X10785000Y-83752440D01*
X11128435Y-83684126D01*
X11419586Y-83489586D01*
X11614126Y-83198435D01*
X11682440Y-82855000D01*
X11682440Y-81930000D01*
X14563560Y-81930000D01*
X14563560Y-82855000D01*
X14631874Y-83198435D01*
X14826414Y-83489586D01*
X15117565Y-83684126D01*
X15461000Y-83752440D01*
X16711000Y-83752440D01*
X17054435Y-83684126D01*
X17201575Y-83585811D01*
X17737001Y-84121237D01*
X17737000Y-85666264D01*
X17596000Y-85807264D01*
X17596000Y-85653250D01*
X17437250Y-85494500D01*
X16213000Y-85494500D01*
X16213000Y-85514500D01*
X15959000Y-85514500D01*
X15959000Y-85494500D01*
X14734750Y-85494500D01*
X14576000Y-85653250D01*
X14576000Y-86206309D01*
X14672673Y-86439698D01*
X14789954Y-86556980D01*
X14631874Y-86793565D01*
X14563560Y-87137000D01*
X14563560Y-88062000D01*
X14631874Y-88405435D01*
X14826414Y-88696586D01*
X15117565Y-88891126D01*
X15461000Y-88959440D01*
X16711000Y-88959440D01*
X17054435Y-88891126D01*
X17345586Y-88696586D01*
X17540126Y-88405435D01*
X17553176Y-88339829D01*
X17701933Y-88240433D01*
X17751531Y-88166204D01*
X19192707Y-86725029D01*
X19266933Y-86675433D01*
X19463419Y-86381370D01*
X19515000Y-86122056D01*
X19515000Y-86122052D01*
X19532415Y-86034501D01*
X19515000Y-85946950D01*
X19515000Y-84642000D01*
X21305765Y-84642000D01*
X23015471Y-86351707D01*
X23065067Y-86425933D01*
X23359130Y-86622419D01*
X23618444Y-86674000D01*
X23618445Y-86674000D01*
X23706000Y-86691416D01*
X23793555Y-86674000D01*
X27465650Y-86674000D01*
X27818126Y-86820000D01*
X28229874Y-86820000D01*
X28610280Y-86662431D01*
X28901431Y-86371280D01*
X29059000Y-85990874D01*
X29059000Y-85579126D01*
X28901431Y-85198720D01*
X28610280Y-84907569D01*
X28229874Y-84750000D01*
X27818126Y-84750000D01*
X27465650Y-84896000D01*
X24074236Y-84896000D01*
X22762986Y-83584750D01*
X26303000Y-83584750D01*
X26303000Y-84137809D01*
X26399673Y-84371198D01*
X26578301Y-84549827D01*
X26811690Y-84646500D01*
X27527250Y-84646500D01*
X27686000Y-84487750D01*
X27686000Y-83426000D01*
X27940000Y-83426000D01*
X27940000Y-84487750D01*
X28098750Y-84646500D01*
X28814310Y-84646500D01*
X29047699Y-84549827D01*
X29192547Y-84404979D01*
X29193673Y-84407698D01*
X29372301Y-84586327D01*
X29605690Y-84683000D01*
X30321250Y-84683000D01*
X30480000Y-84524250D01*
X30480000Y-83462500D01*
X30734000Y-83462500D01*
X30734000Y-84524250D01*
X30892750Y-84683000D01*
X31608310Y-84683000D01*
X31841699Y-84586327D01*
X32020327Y-84407698D01*
X32117000Y-84174309D01*
X32117000Y-83621250D01*
X31958250Y-83462500D01*
X30734000Y-83462500D01*
X30480000Y-83462500D01*
X29255750Y-83462500D01*
X29228250Y-83490000D01*
X29164250Y-83426000D01*
X27940000Y-83426000D01*
X27686000Y-83426000D01*
X26461750Y-83426000D01*
X26303000Y-83584750D01*
X22762986Y-83584750D01*
X22364531Y-83186296D01*
X22314933Y-83112067D01*
X22020870Y-82915581D01*
X21761556Y-82864000D01*
X21761555Y-82864000D01*
X21674000Y-82846584D01*
X21586445Y-82864000D01*
X18994236Y-82864000D01*
X18590427Y-82460191D01*
X26303000Y-82460191D01*
X26303000Y-83013250D01*
X26461750Y-83172000D01*
X27686000Y-83172000D01*
X27686000Y-82110250D01*
X27940000Y-82110250D01*
X27940000Y-83172000D01*
X29164250Y-83172000D01*
X29191750Y-83144500D01*
X29255750Y-83208500D01*
X30480000Y-83208500D01*
X30480000Y-82146750D01*
X30734000Y-82146750D01*
X30734000Y-83208500D01*
X31958250Y-83208500D01*
X32117000Y-83049750D01*
X32117000Y-82496691D01*
X32020327Y-82263302D01*
X31841699Y-82084673D01*
X31608310Y-81988000D01*
X30892750Y-81988000D01*
X30734000Y-82146750D01*
X30480000Y-82146750D01*
X30321250Y-81988000D01*
X29605690Y-81988000D01*
X29372301Y-82084673D01*
X29227453Y-82229521D01*
X29226327Y-82226802D01*
X29047699Y-82048173D01*
X28814310Y-81951500D01*
X28098750Y-81951500D01*
X27940000Y-82110250D01*
X27686000Y-82110250D01*
X27527250Y-81951500D01*
X26811690Y-81951500D01*
X26578301Y-82048173D01*
X26399673Y-82226802D01*
X26303000Y-82460191D01*
X18590427Y-82460191D01*
X17956031Y-81825796D01*
X17906433Y-81751567D01*
X17612370Y-81555081D01*
X17504791Y-81533682D01*
X17345586Y-81295414D01*
X17054435Y-81100874D01*
X16711000Y-81032560D01*
X15461000Y-81032560D01*
X15117565Y-81100874D01*
X14826414Y-81295414D01*
X14631874Y-81586565D01*
X14563560Y-81930000D01*
X11682440Y-81930000D01*
X11614126Y-81586565D01*
X11419586Y-81295414D01*
X11128435Y-81100874D01*
X11049000Y-81085073D01*
X11049000Y-78668250D01*
X11782000Y-78668250D01*
X11782000Y-79221309D01*
X11878673Y-79454698D01*
X12057301Y-79633327D01*
X12290690Y-79730000D01*
X13006250Y-79730000D01*
X13165000Y-79571250D01*
X13165000Y-78509500D01*
X13419000Y-78509500D01*
X13419000Y-79571250D01*
X13577750Y-79730000D01*
X14293310Y-79730000D01*
X14526699Y-79633327D01*
X14705327Y-79454698D01*
X14802000Y-79221309D01*
X14802000Y-78668250D01*
X14643250Y-78509500D01*
X13419000Y-78509500D01*
X13165000Y-78509500D01*
X11940750Y-78509500D01*
X11782000Y-78668250D01*
X11049000Y-78668250D01*
X11049000Y-77601235D01*
X11106544Y-77543691D01*
X11782000Y-77543691D01*
X11782000Y-78096750D01*
X11940750Y-78255500D01*
X13165000Y-78255500D01*
X13165000Y-77193750D01*
X13419000Y-77193750D01*
X13419000Y-78255500D01*
X14643250Y-78255500D01*
X14802000Y-78096750D01*
X14802000Y-77543691D01*
X14705327Y-77310302D01*
X14526699Y-77131673D01*
X14293310Y-77035000D01*
X13577750Y-77035000D01*
X13419000Y-77193750D01*
X13165000Y-77193750D01*
X13006250Y-77035000D01*
X12290690Y-77035000D01*
X12057301Y-77131673D01*
X11878673Y-77310302D01*
X11782000Y-77543691D01*
X11106544Y-77543691D01*
X12100294Y-76549942D01*
X12323565Y-76699126D01*
X12667000Y-76767440D01*
X13917000Y-76767440D01*
X14260435Y-76699126D01*
X14551586Y-76504586D01*
X14690624Y-76296500D01*
X29280150Y-76296500D01*
X29632626Y-76442500D01*
X30044374Y-76442500D01*
X30424780Y-76284931D01*
X30715931Y-75993780D01*
X30873500Y-75613374D01*
X30873500Y-75201626D01*
X30715931Y-74821220D01*
X30424780Y-74530069D01*
X30044374Y-74372500D01*
X29632626Y-74372500D01*
X29280150Y-74518500D01*
X14690624Y-74518500D01*
X14551586Y-74310414D01*
X14260435Y-74115874D01*
X13917000Y-74047560D01*
X12667000Y-74047560D01*
X12323565Y-74115874D01*
X12032414Y-74310414D01*
X11892676Y-74519548D01*
X11638630Y-74570081D01*
X11344567Y-74766567D01*
X11294971Y-74840793D01*
X9593294Y-76542471D01*
X9519068Y-76592067D01*
X9469472Y-76666293D01*
X9469471Y-76666294D01*
X9322582Y-76886130D01*
X9253584Y-77233000D01*
X9271001Y-77320559D01*
X9271000Y-81085073D01*
X9191565Y-81100874D01*
X8900414Y-81295414D01*
X8705874Y-81586565D01*
X8637560Y-81930000D01*
X7704000Y-81930000D01*
X7704000Y-50339235D01*
X20137236Y-37906000D01*
X22895017Y-37906000D01*
X23016375Y-38087625D01*
X23314761Y-38287000D01*
X23016375Y-38486375D01*
X22895017Y-38668000D01*
X21634550Y-38668000D01*
X21546999Y-38650585D01*
X21459448Y-38668000D01*
X21459444Y-38668000D01*
X21200130Y-38719581D01*
X20906067Y-38916067D01*
X20856471Y-38990293D01*
X18567294Y-41279471D01*
X18493068Y-41329067D01*
X18443472Y-41403293D01*
X18443471Y-41403294D01*
X18296582Y-41623130D01*
X18227584Y-41970000D01*
X18245001Y-42057560D01*
X18245000Y-60043445D01*
X18227584Y-60131000D01*
X18245000Y-60218555D01*
X18296581Y-60477869D01*
X18493067Y-60771933D01*
X18567296Y-60821531D01*
X32122971Y-74377207D01*
X32172567Y-74451433D01*
X32466630Y-74647919D01*
X32725944Y-74699500D01*
X32725948Y-74699500D01*
X32813499Y-74716915D01*
X32901050Y-74699500D01*
X38049650Y-74699500D01*
X38402126Y-74845500D01*
X38813874Y-74845500D01*
X39166350Y-74699500D01*
X40892376Y-74699500D01*
X41031414Y-74907586D01*
X41322565Y-75102126D01*
X41666000Y-75170440D01*
X42461324Y-75170440D01*
X39828765Y-77803000D01*
X28720054Y-77803000D01*
X28632499Y-77785584D01*
X28544944Y-77803000D01*
X28285630Y-77854581D01*
X27991567Y-78051067D01*
X27941971Y-78125294D01*
X27246294Y-78820971D01*
X27172068Y-78870567D01*
X27122472Y-78944793D01*
X27122471Y-78944794D01*
X27097580Y-78982046D01*
X26844565Y-79032374D01*
X26553414Y-79226914D01*
X26358874Y-79518065D01*
X26290560Y-79861500D01*
X26290560Y-80786500D01*
X26358874Y-81129935D01*
X26553414Y-81421086D01*
X26844565Y-81615626D01*
X27188000Y-81683940D01*
X28438000Y-81683940D01*
X28781435Y-81615626D01*
X29072586Y-81421086D01*
X29197806Y-81233680D01*
X29347414Y-81457586D01*
X29638565Y-81652126D01*
X29982000Y-81720440D01*
X31232000Y-81720440D01*
X31575435Y-81652126D01*
X31849061Y-81469296D01*
X32469001Y-82089237D01*
X32469000Y-86319764D01*
X31582398Y-87206367D01*
X31460435Y-87124874D01*
X31117000Y-87056560D01*
X30192000Y-87056560D01*
X29848565Y-87124874D01*
X29557414Y-87319414D01*
X29362874Y-87610565D01*
X29294560Y-87954000D01*
X29294560Y-89204000D01*
X29362874Y-89547435D01*
X29557414Y-89838586D01*
X29765500Y-89977624D01*
X29765500Y-90843945D01*
X29748084Y-90931500D01*
X29765500Y-91019055D01*
X29817081Y-91278369D01*
X30013567Y-91572433D01*
X30087796Y-91622031D01*
X36647471Y-98181707D01*
X36697067Y-98255933D01*
X36991130Y-98452419D01*
X37250444Y-98504000D01*
X37250448Y-98504000D01*
X37337999Y-98521415D01*
X37425550Y-98504000D01*
X41568445Y-98504000D01*
X41656000Y-98521416D01*
X41743555Y-98504000D01*
X41743556Y-98504000D01*
X42002870Y-98452419D01*
X42296933Y-98255933D01*
X42346531Y-98181704D01*
X44000707Y-96527529D01*
X44074933Y-96477933D01*
X44271419Y-96183870D01*
X44323000Y-95924556D01*
X44323000Y-95924555D01*
X44340416Y-95837000D01*
X44323000Y-95749445D01*
X44323000Y-95465880D01*
X44721087Y-95957042D01*
X45370389Y-96309221D01*
X45511355Y-96338695D01*
X45804000Y-96222572D01*
X45804000Y-94378000D01*
X46058000Y-94378000D01*
X46058000Y-96222572D01*
X46350645Y-96338695D01*
X46491611Y-96309221D01*
X47140913Y-95957042D01*
X47606017Y-95383194D01*
X47816115Y-94675040D01*
X47661382Y-94378000D01*
X46058000Y-94378000D01*
X45804000Y-94378000D01*
X45784000Y-94378000D01*
X45784000Y-94124000D01*
X45804000Y-94124000D01*
X45804000Y-92279428D01*
X46058000Y-92279428D01*
X46058000Y-94124000D01*
X47661382Y-94124000D01*
X47799766Y-93858345D01*
X55429000Y-93858345D01*
X55429000Y-94729654D01*
X55538369Y-95279489D01*
X55954991Y-95903009D01*
X56578510Y-96319631D01*
X57314000Y-96465929D01*
X58049489Y-96319631D01*
X58673009Y-95903009D01*
X59089631Y-95279490D01*
X59199000Y-94729655D01*
X59199000Y-94718040D01*
X60428885Y-94718040D01*
X60638983Y-95426194D01*
X61104087Y-96000042D01*
X61753389Y-96352221D01*
X61894355Y-96381695D01*
X62187000Y-96265572D01*
X62187000Y-94421000D01*
X62441000Y-94421000D01*
X62441000Y-96265572D01*
X62733645Y-96381695D01*
X62874611Y-96352221D01*
X63523913Y-96000042D01*
X63989017Y-95426194D01*
X64199115Y-94718040D01*
X64044382Y-94421000D01*
X62441000Y-94421000D01*
X62187000Y-94421000D01*
X60583618Y-94421000D01*
X60428885Y-94718040D01*
X59199000Y-94718040D01*
X59199000Y-93869960D01*
X60428885Y-93869960D01*
X60583618Y-94167000D01*
X62187000Y-94167000D01*
X62187000Y-92322428D01*
X62441000Y-92322428D01*
X62441000Y-94167000D01*
X64044382Y-94167000D01*
X64199115Y-93869960D01*
X63989017Y-93161806D01*
X63523913Y-92587958D01*
X62874611Y-92235779D01*
X62733645Y-92206305D01*
X62441000Y-92322428D01*
X62187000Y-92322428D01*
X61894355Y-92206305D01*
X61753389Y-92235779D01*
X61104087Y-92587958D01*
X60638983Y-93161806D01*
X60428885Y-93869960D01*
X59199000Y-93869960D01*
X59199000Y-93858346D01*
X59089631Y-93308510D01*
X58673009Y-92684991D01*
X58049490Y-92268369D01*
X57314000Y-92122071D01*
X56578511Y-92268369D01*
X55954991Y-92684991D01*
X55538369Y-93308510D01*
X55429000Y-93858345D01*
X47799766Y-93858345D01*
X47816115Y-93826960D01*
X47606017Y-93118806D01*
X47140913Y-92544958D01*
X46491611Y-92192779D01*
X46350645Y-92163305D01*
X46058000Y-92279428D01*
X45804000Y-92279428D01*
X45511355Y-92163305D01*
X45370389Y-92192779D01*
X44721087Y-92544958D01*
X44323000Y-93036120D01*
X44323000Y-92522235D01*
X46928000Y-89917235D01*
X46928000Y-90054874D01*
X47085569Y-90435280D01*
X47376720Y-90726431D01*
X47757126Y-90884000D01*
X48168874Y-90884000D01*
X48521350Y-90738000D01*
X70200765Y-90738000D01*
X74625570Y-95162805D01*
X74771569Y-95515280D01*
X75062720Y-95806431D01*
X75443126Y-95964000D01*
X75854874Y-95964000D01*
X76235280Y-95806431D01*
X76526431Y-95515280D01*
X76684000Y-95134874D01*
X76684000Y-94723126D01*
X76526431Y-94342720D01*
X76235280Y-94051569D01*
X75882805Y-93905570D01*
X71259531Y-89282296D01*
X71209933Y-89208067D01*
X70915870Y-89011581D01*
X70656556Y-88960000D01*
X70656555Y-88960000D01*
X70569000Y-88942584D01*
X70481445Y-88960000D01*
X48521350Y-88960000D01*
X48168874Y-88814000D01*
X48031236Y-88814000D01*
X49771236Y-87074000D01*
X62560650Y-87074000D01*
X62913126Y-87220000D01*
X63324874Y-87220000D01*
X63705280Y-87062431D01*
X63996431Y-86771280D01*
X64154000Y-86390874D01*
X64154000Y-85979126D01*
X63996431Y-85598720D01*
X63705280Y-85307569D01*
X63324874Y-85150000D01*
X62913126Y-85150000D01*
X62560650Y-85296000D01*
X58218235Y-85296000D01*
X59380236Y-84134000D01*
X68422765Y-84134000D01*
X79099293Y-94810529D01*
X79099296Y-94810531D01*
X79694470Y-95405706D01*
X79744067Y-95479933D01*
X79818293Y-95529529D01*
X80038129Y-95676419D01*
X80385000Y-95745416D01*
X80472556Y-95728000D01*
X85078017Y-95728000D01*
X85199375Y-95909625D01*
X85497761Y-96109000D01*
X85199375Y-96308375D01*
X84871161Y-96799582D01*
X84755908Y-97379000D01*
X84871161Y-97958418D01*
X85199375Y-98449625D01*
X85497761Y-98649000D01*
X85199375Y-98848375D01*
X84871161Y-99339582D01*
X84755908Y-99919000D01*
X84871161Y-100498418D01*
X85199375Y-100989625D01*
X85518478Y-101202843D01*
X85388642Y-101263817D01*
X84998355Y-101692076D01*
X84828524Y-102102110D01*
X84949845Y-102332000D01*
X86143000Y-102332000D01*
X86143000Y-102312000D01*
X86397000Y-102312000D01*
X86397000Y-102332000D01*
X87590155Y-102332000D01*
X87711476Y-102102110D01*
X87541645Y-101692076D01*
X87151358Y-101263817D01*
X87021522Y-101202843D01*
X87340625Y-100989625D01*
X87668839Y-100498418D01*
X87784092Y-99919000D01*
X87668839Y-99339582D01*
X87340625Y-98848375D01*
X87042239Y-98649000D01*
X87340625Y-98449625D01*
X87668839Y-97958418D01*
X87784092Y-97379000D01*
X87668839Y-96799582D01*
X87340625Y-96308375D01*
X87042239Y-96109000D01*
X87340625Y-95909625D01*
X87668839Y-95418418D01*
X87784092Y-94839000D01*
X87668839Y-94259582D01*
X87340625Y-93768375D01*
X87042239Y-93569000D01*
X87340625Y-93369625D01*
X87668839Y-92878418D01*
X87784092Y-92299000D01*
X87668839Y-91719582D01*
X87340625Y-91228375D01*
X87042239Y-91029000D01*
X87340625Y-90829625D01*
X87668839Y-90338418D01*
X87784092Y-89759000D01*
X87668839Y-89179582D01*
X87340625Y-88688375D01*
X87042239Y-88489000D01*
X87340625Y-88289625D01*
X87668839Y-87798418D01*
X87784092Y-87219000D01*
X87668839Y-86639582D01*
X87340625Y-86148375D01*
X87042239Y-85949000D01*
X87340625Y-85749625D01*
X87668839Y-85258418D01*
X87784092Y-84679000D01*
X87668839Y-84099582D01*
X87340625Y-83608375D01*
X87042239Y-83409000D01*
X87340625Y-83209625D01*
X87668839Y-82718418D01*
X87784092Y-82139000D01*
X87668839Y-81559582D01*
X87340625Y-81068375D01*
X87042239Y-80869000D01*
X87340625Y-80669625D01*
X87668839Y-80178418D01*
X87784092Y-79599000D01*
X87668839Y-79019582D01*
X87340625Y-78528375D01*
X87042239Y-78329000D01*
X87340625Y-78129625D01*
X87668839Y-77638418D01*
X87784092Y-77059000D01*
X87668839Y-76479582D01*
X87340625Y-75988375D01*
X86849418Y-75660161D01*
X86416256Y-75574000D01*
X86123744Y-75574000D01*
X85690582Y-75660161D01*
X85199375Y-75988375D01*
X84871161Y-76479582D01*
X84755908Y-77059000D01*
X84871161Y-77638418D01*
X85199375Y-78129625D01*
X85497761Y-78329000D01*
X85199375Y-78528375D01*
X84871161Y-79019582D01*
X84755908Y-79599000D01*
X84871161Y-80178418D01*
X85199375Y-80669625D01*
X85497761Y-80869000D01*
X85199375Y-81068375D01*
X84871161Y-81559582D01*
X84755908Y-82139000D01*
X84871161Y-82718418D01*
X85199375Y-83209625D01*
X85497761Y-83409000D01*
X85199375Y-83608375D01*
X84871161Y-84099582D01*
X84755908Y-84679000D01*
X84871161Y-85258418D01*
X85199375Y-85749625D01*
X85497761Y-85949000D01*
X85199375Y-86148375D01*
X85078017Y-86330000D01*
X83547236Y-86330000D01*
X74942531Y-77725296D01*
X74908354Y-77674146D01*
X75070370Y-77641919D01*
X75364433Y-77445433D01*
X75414031Y-77371204D01*
X77485707Y-75299529D01*
X77559933Y-75249933D01*
X77756419Y-74955870D01*
X77808000Y-74696556D01*
X77808000Y-74696555D01*
X77825416Y-74609000D01*
X77808000Y-74521445D01*
X77808000Y-52605159D01*
X85015000Y-52605159D01*
X85015000Y-53394841D01*
X85317199Y-54124412D01*
X85875588Y-54682801D01*
X86605159Y-54985000D01*
X87394841Y-54985000D01*
X88124412Y-54682801D01*
X88682801Y-54124412D01*
X88985000Y-53394841D01*
X88985000Y-52605159D01*
X88682801Y-51875588D01*
X88124412Y-51317199D01*
X87394841Y-51015000D01*
X86605159Y-51015000D01*
X85875588Y-51317199D01*
X85317199Y-51875588D01*
X85015000Y-52605159D01*
X77808000Y-52605159D01*
X77808000Y-32346469D01*
X77825415Y-32258918D01*
X77808000Y-32171367D01*
X77808000Y-32171363D01*
X77756419Y-31912049D01*
X77559933Y-31617986D01*
X77485707Y-31568390D01*
X59507612Y-13590296D01*
X59458014Y-13516067D01*
X59163951Y-13319581D01*
X58904637Y-13268000D01*
X58904636Y-13268000D01*
X58817081Y-13250584D01*
X58797896Y-13254400D01*
X58685625Y-13086375D01*
X58194418Y-12758161D01*
X57761256Y-12672000D01*
X57468744Y-12672000D01*
X57035582Y-12758161D01*
X56544375Y-13086375D01*
X56331157Y-13405478D01*
X56270183Y-13275642D01*
X55841924Y-12885355D01*
X55431890Y-12715524D01*
X55202000Y-12836845D01*
X55202000Y-14030000D01*
X55222000Y-14030000D01*
X55222000Y-14284000D01*
X55202000Y-14284000D01*
X55202000Y-15477155D01*
X55431890Y-15598476D01*
X55841924Y-15428645D01*
X56270183Y-15038358D01*
X56331157Y-14908522D01*
X56544375Y-15227625D01*
X57035582Y-15555839D01*
X57468744Y-15642000D01*
X57761256Y-15642000D01*
X58194418Y-15555839D01*
X58652563Y-15249717D01*
X76030000Y-32627155D01*
X76030001Y-74240763D01*
X74355265Y-75915500D01*
X73618624Y-75915500D01*
X73479586Y-75707414D01*
X73188435Y-75512874D01*
X73109000Y-75497073D01*
X73109000Y-74659350D01*
X73255000Y-74306874D01*
X73255000Y-73895126D01*
X73097431Y-73514720D01*
X72806280Y-73223569D01*
X72425874Y-73066000D01*
X72014126Y-73066000D01*
X71633720Y-73223569D01*
X71342569Y-73514720D01*
X71185000Y-73895126D01*
X71185000Y-74306874D01*
X71331001Y-74659352D01*
X71331000Y-75497073D01*
X71251565Y-75512874D01*
X70960414Y-75707414D01*
X70765874Y-75998565D01*
X70697560Y-76342000D01*
X70697560Y-77267000D01*
X70724612Y-77403000D01*
X70612000Y-77403000D01*
X70612000Y-71053927D01*
X70691435Y-71038126D01*
X70982586Y-70843586D01*
X71177126Y-70552435D01*
X71245440Y-70209000D01*
X71245440Y-69481295D01*
X73421707Y-67305029D01*
X73495933Y-67255433D01*
X73692419Y-66961370D01*
X73744000Y-66702056D01*
X73744000Y-66702055D01*
X73761416Y-66614500D01*
X73744000Y-66526945D01*
X73744000Y-65806550D01*
X73761415Y-65718999D01*
X73744000Y-65631448D01*
X73744000Y-65631444D01*
X73692419Y-65372130D01*
X73495933Y-65078067D01*
X73421707Y-65028471D01*
X72021531Y-63628296D01*
X71971933Y-63554067D01*
X71677870Y-63357581D01*
X71418556Y-63306000D01*
X71418555Y-63306000D01*
X71331000Y-63288584D01*
X71243445Y-63306000D01*
X65576555Y-63306000D01*
X65489000Y-63288584D01*
X65401445Y-63306000D01*
X65401444Y-63306000D01*
X65142130Y-63357581D01*
X64848067Y-63554067D01*
X64798471Y-63628293D01*
X56992765Y-71434000D01*
X52041388Y-71434000D01*
X52068440Y-71298000D01*
X52068440Y-70373000D01*
X52000126Y-70029565D01*
X51805586Y-69738414D01*
X51514435Y-69543874D01*
X51435000Y-69528073D01*
X51435000Y-58767235D01*
X56543277Y-53658958D01*
X56843991Y-54109009D01*
X57467510Y-54525631D01*
X58203000Y-54671929D01*
X58938489Y-54525631D01*
X59562009Y-54109009D01*
X59978631Y-53485490D01*
X60088000Y-52935655D01*
X60088000Y-52924040D01*
X61317885Y-52924040D01*
X61527983Y-53632194D01*
X61993087Y-54206042D01*
X62642389Y-54558221D01*
X62783355Y-54587695D01*
X63076000Y-54471572D01*
X63076000Y-52627000D01*
X63330000Y-52627000D01*
X63330000Y-54471572D01*
X63622645Y-54587695D01*
X63763611Y-54558221D01*
X64412913Y-54206042D01*
X64878017Y-53632194D01*
X65088115Y-52924040D01*
X64933382Y-52627000D01*
X63330000Y-52627000D01*
X63076000Y-52627000D01*
X61472618Y-52627000D01*
X61317885Y-52924040D01*
X60088000Y-52924040D01*
X60088000Y-52075960D01*
X61317885Y-52075960D01*
X61472618Y-52373000D01*
X63076000Y-52373000D01*
X63076000Y-50528428D01*
X63330000Y-50528428D01*
X63330000Y-52373000D01*
X64933382Y-52373000D01*
X65088115Y-52075960D01*
X64878017Y-51367806D01*
X64412913Y-50793958D01*
X63763611Y-50441779D01*
X63622645Y-50412305D01*
X63330000Y-50528428D01*
X63076000Y-50528428D01*
X62783355Y-50412305D01*
X62642389Y-50441779D01*
X61993087Y-50793958D01*
X61527983Y-51367806D01*
X61317885Y-52075960D01*
X60088000Y-52075960D01*
X60088000Y-52064346D01*
X59978631Y-51514510D01*
X59562009Y-50890991D01*
X58938490Y-50474369D01*
X58203000Y-50328071D01*
X57467511Y-50474369D01*
X56843991Y-50890991D01*
X56427369Y-51514510D01*
X56410266Y-51600493D01*
X56357445Y-51611000D01*
X56357444Y-51611000D01*
X56098130Y-51662581D01*
X55804067Y-51859067D01*
X55754471Y-51933293D01*
X49979294Y-57708471D01*
X49905068Y-57758067D01*
X49855472Y-57832293D01*
X49855471Y-57832294D01*
X49708582Y-58052130D01*
X49639584Y-58399000D01*
X49657001Y-58486559D01*
X49657000Y-69528073D01*
X49577565Y-69543874D01*
X49286414Y-69738414D01*
X49091874Y-70029565D01*
X49023560Y-70373000D01*
X49023560Y-71298000D01*
X49050612Y-71434000D01*
X47865000Y-71434000D01*
X47865000Y-71121250D01*
X47706250Y-70962500D01*
X46482000Y-70962500D01*
X46482000Y-70982500D01*
X46228000Y-70982500D01*
X46228000Y-70962500D01*
X45003750Y-70962500D01*
X44845000Y-71121250D01*
X44845000Y-71455770D01*
X44695129Y-71485581D01*
X44599571Y-71549431D01*
X44401067Y-71682067D01*
X44351470Y-71756294D01*
X43840294Y-72267471D01*
X43766068Y-72317067D01*
X43716472Y-72391293D01*
X43716471Y-72391294D01*
X43569582Y-72611130D01*
X43549394Y-72712618D01*
X43259435Y-72518874D01*
X42916000Y-72450560D01*
X41666000Y-72450560D01*
X41322565Y-72518874D01*
X41031414Y-72713414D01*
X40892376Y-72921500D01*
X39166350Y-72921500D01*
X38813874Y-72775500D01*
X38402126Y-72775500D01*
X38049650Y-72921500D01*
X33181736Y-72921500D01*
X30726362Y-70466126D01*
X34990000Y-70466126D01*
X34990000Y-70877874D01*
X35147569Y-71258280D01*
X35438720Y-71549431D01*
X35819126Y-71707000D01*
X36230874Y-71707000D01*
X36583350Y-71561000D01*
X40820874Y-71561000D01*
X40836874Y-71641435D01*
X41031414Y-71932586D01*
X41322565Y-72127126D01*
X41666000Y-72195440D01*
X42916000Y-72195440D01*
X43259435Y-72127126D01*
X43550586Y-71932586D01*
X43745126Y-71641435D01*
X43813440Y-71298000D01*
X43813440Y-70373000D01*
X43745126Y-70029565D01*
X43723161Y-69996691D01*
X44845000Y-69996691D01*
X44845000Y-70549750D01*
X45003750Y-70708500D01*
X46228000Y-70708500D01*
X46228000Y-69646750D01*
X46482000Y-69646750D01*
X46482000Y-70708500D01*
X47706250Y-70708500D01*
X47865000Y-70549750D01*
X47865000Y-69996691D01*
X47768327Y-69763302D01*
X47589699Y-69584673D01*
X47356310Y-69488000D01*
X46640750Y-69488000D01*
X46482000Y-69646750D01*
X46228000Y-69646750D01*
X46069250Y-69488000D01*
X45353690Y-69488000D01*
X45120301Y-69584673D01*
X44941673Y-69763302D01*
X44845000Y-69996691D01*
X43723161Y-69996691D01*
X43550586Y-69738414D01*
X43259435Y-69543874D01*
X42916000Y-69475560D01*
X41666000Y-69475560D01*
X41322565Y-69543874D01*
X41031414Y-69738414D01*
X41001623Y-69783000D01*
X36583350Y-69783000D01*
X36230874Y-69637000D01*
X35819126Y-69637000D01*
X35438720Y-69794569D01*
X35147569Y-70085720D01*
X34990000Y-70466126D01*
X30726362Y-70466126D01*
X28186362Y-67926126D01*
X31307000Y-67926126D01*
X31307000Y-68337874D01*
X31464569Y-68718280D01*
X31755720Y-69009431D01*
X32136126Y-69167000D01*
X32547874Y-69167000D01*
X32874324Y-69031780D01*
X32907685Y-69038416D01*
X32995240Y-69021000D01*
X32995241Y-69021000D01*
X33254555Y-68969419D01*
X33548618Y-68772933D01*
X33598216Y-68698704D01*
X45566707Y-56730214D01*
X45640933Y-56680618D01*
X45837419Y-56386555D01*
X45889000Y-56127241D01*
X45889000Y-56127240D01*
X45906416Y-56039685D01*
X45889000Y-55952130D01*
X45889000Y-48867000D01*
X47989560Y-48867000D01*
X47989560Y-50567000D01*
X48038843Y-50814765D01*
X48179191Y-51024809D01*
X48389235Y-51165157D01*
X48637000Y-51214440D01*
X50337000Y-51214440D01*
X50584765Y-51165157D01*
X50794809Y-51024809D01*
X50935157Y-50814765D01*
X50984440Y-50567000D01*
X50984440Y-48867000D01*
X50935157Y-48619235D01*
X50794809Y-48409191D01*
X50584765Y-48268843D01*
X50481292Y-48248261D01*
X50758645Y-47943924D01*
X50928476Y-47533890D01*
X50807155Y-47304000D01*
X49614000Y-47304000D01*
X49614000Y-47324000D01*
X49360000Y-47324000D01*
X49360000Y-47304000D01*
X48166845Y-47304000D01*
X48045524Y-47533890D01*
X48215355Y-47943924D01*
X48492708Y-48248261D01*
X48389235Y-48268843D01*
X48179191Y-48409191D01*
X48038843Y-48619235D01*
X47989560Y-48867000D01*
X45889000Y-48867000D01*
X45889000Y-46063235D01*
X48637116Y-43315120D01*
X48714761Y-43367000D01*
X48416375Y-43566375D01*
X48088161Y-44057582D01*
X47972908Y-44637000D01*
X48088161Y-45216418D01*
X48416375Y-45707625D01*
X48735478Y-45920843D01*
X48605642Y-45981817D01*
X48215355Y-46410076D01*
X48045524Y-46820110D01*
X48166845Y-47050000D01*
X49360000Y-47050000D01*
X49360000Y-47030000D01*
X49614000Y-47030000D01*
X49614000Y-47050000D01*
X50807155Y-47050000D01*
X50928476Y-46820110D01*
X50758645Y-46410076D01*
X50368358Y-45981817D01*
X50238522Y-45920843D01*
X50557625Y-45707625D01*
X50885839Y-45216418D01*
X51001092Y-44637000D01*
X50885839Y-44057582D01*
X50557625Y-43566375D01*
X50259239Y-43367000D01*
X50557625Y-43167625D01*
X50885839Y-42676418D01*
X51001092Y-42097000D01*
X50885839Y-41517582D01*
X50557625Y-41026375D01*
X50259239Y-40827000D01*
X50557625Y-40627625D01*
X50885839Y-40136418D01*
X50999630Y-39564345D01*
X56318000Y-39564345D01*
X56318000Y-40435654D01*
X56427369Y-40985489D01*
X56843991Y-41609009D01*
X57467510Y-42025631D01*
X58203000Y-42171929D01*
X58938489Y-42025631D01*
X59562009Y-41609009D01*
X59978631Y-40985490D01*
X60088000Y-40435655D01*
X60088000Y-40424040D01*
X61317885Y-40424040D01*
X61527983Y-41132194D01*
X61993087Y-41706042D01*
X62642389Y-42058221D01*
X62783355Y-42087695D01*
X63076000Y-41971572D01*
X63076000Y-40127000D01*
X63330000Y-40127000D01*
X63330000Y-41971572D01*
X63622645Y-42087695D01*
X63763611Y-42058221D01*
X64412913Y-41706042D01*
X64878017Y-41132194D01*
X65088115Y-40424040D01*
X64933382Y-40127000D01*
X63330000Y-40127000D01*
X63076000Y-40127000D01*
X61472618Y-40127000D01*
X61317885Y-40424040D01*
X60088000Y-40424040D01*
X60088000Y-39575960D01*
X61317885Y-39575960D01*
X61472618Y-39873000D01*
X63076000Y-39873000D01*
X63076000Y-38028428D01*
X63330000Y-38028428D01*
X63330000Y-39873000D01*
X64933382Y-39873000D01*
X65088115Y-39575960D01*
X64878017Y-38867806D01*
X64412913Y-38293958D01*
X63763611Y-37941779D01*
X63622645Y-37912305D01*
X63330000Y-38028428D01*
X63076000Y-38028428D01*
X62783355Y-37912305D01*
X62642389Y-37941779D01*
X61993087Y-38293958D01*
X61527983Y-38867806D01*
X61317885Y-39575960D01*
X60088000Y-39575960D01*
X60088000Y-39564346D01*
X59978631Y-39014510D01*
X59562009Y-38390991D01*
X58938490Y-37974369D01*
X58203000Y-37828071D01*
X57467511Y-37974369D01*
X56843991Y-38390991D01*
X56427369Y-39014510D01*
X56318000Y-39564345D01*
X50999630Y-39564345D01*
X51001092Y-39557000D01*
X50885839Y-38977582D01*
X50557625Y-38486375D01*
X50259239Y-38287000D01*
X50557625Y-38087625D01*
X50885839Y-37596418D01*
X51001092Y-37017000D01*
X50885839Y-36437582D01*
X50557625Y-35946375D01*
X50259239Y-35747000D01*
X50557625Y-35547625D01*
X50885839Y-35056418D01*
X51001092Y-34477000D01*
X50885839Y-33897582D01*
X50557625Y-33406375D01*
X50259239Y-33207000D01*
X50557625Y-33007625D01*
X50885839Y-32516418D01*
X51001092Y-31937000D01*
X50885839Y-31357582D01*
X50557625Y-30866375D01*
X50259239Y-30667000D01*
X50557625Y-30467625D01*
X50885839Y-29976418D01*
X51001092Y-29397000D01*
X50885839Y-28817582D01*
X50557625Y-28326375D01*
X50259239Y-28127000D01*
X50557625Y-27927625D01*
X50885839Y-27436418D01*
X51001092Y-26857000D01*
X50885839Y-26277582D01*
X50557625Y-25786375D01*
X50259239Y-25587000D01*
X50557625Y-25387625D01*
X50885839Y-24896418D01*
X51001092Y-24317000D01*
X50885839Y-23737582D01*
X50557625Y-23246375D01*
X50259239Y-23047000D01*
X50557625Y-22847625D01*
X50885839Y-22356418D01*
X51001092Y-21777000D01*
X50885839Y-21197582D01*
X50557625Y-20706375D01*
X50066418Y-20378161D01*
X49633256Y-20292000D01*
X49340744Y-20292000D01*
X48907582Y-20378161D01*
X48416375Y-20706375D01*
X48227791Y-20988611D01*
X48205922Y-20935815D01*
X47788185Y-20518078D01*
X47242385Y-20292000D01*
X46651615Y-20292000D01*
X46105815Y-20518078D01*
X45688078Y-20935815D01*
X45677000Y-20962560D01*
X45665922Y-20935815D01*
X45248185Y-20518078D01*
X44702385Y-20292000D01*
X44111615Y-20292000D01*
X43565815Y-20518078D01*
X43148078Y-20935815D01*
X43137000Y-20962560D01*
X43125922Y-20935815D01*
X42708185Y-20518078D01*
X42162385Y-20292000D01*
X41571615Y-20292000D01*
X41025815Y-20518078D01*
X40608078Y-20935815D01*
X40382000Y-21481615D01*
X40382000Y-22072385D01*
X40608078Y-22618185D01*
X41025815Y-23035922D01*
X41571615Y-23262000D01*
X42162385Y-23262000D01*
X42708185Y-23035922D01*
X43125922Y-22618185D01*
X43137000Y-22591440D01*
X43148078Y-22618185D01*
X43565815Y-23035922D01*
X44111615Y-23262000D01*
X44702385Y-23262000D01*
X45248185Y-23035922D01*
X45665922Y-22618185D01*
X45677000Y-22591440D01*
X45688078Y-22618185D01*
X46105815Y-23035922D01*
X46651615Y-23262000D01*
X47242385Y-23262000D01*
X47788185Y-23035922D01*
X48205922Y-22618185D01*
X48227791Y-22565389D01*
X48416375Y-22847625D01*
X48714761Y-23047000D01*
X48416375Y-23246375D01*
X48088161Y-23737582D01*
X47972908Y-24317000D01*
X48088161Y-24896418D01*
X48416375Y-25387625D01*
X48714761Y-25587000D01*
X48416375Y-25786375D01*
X48088161Y-26277582D01*
X47972908Y-26857000D01*
X48088161Y-27436418D01*
X48416375Y-27927625D01*
X48714761Y-28127000D01*
X48416375Y-28326375D01*
X48088161Y-28817582D01*
X47972908Y-29397000D01*
X48088161Y-29976418D01*
X48416375Y-30467625D01*
X48714761Y-30667000D01*
X48416375Y-30866375D01*
X48088161Y-31357582D01*
X47972908Y-31937000D01*
X48088161Y-32516418D01*
X48416375Y-33007625D01*
X48714761Y-33207000D01*
X48416375Y-33406375D01*
X48088161Y-33897582D01*
X47972908Y-34477000D01*
X48088161Y-35056418D01*
X48416375Y-35547625D01*
X48714761Y-35747000D01*
X48416375Y-35946375D01*
X48088161Y-36437582D01*
X47982714Y-36967700D01*
X47582680Y-36802000D01*
X47326296Y-36802000D01*
X47326296Y-27450846D01*
X47343711Y-27363295D01*
X47326296Y-27275744D01*
X47326296Y-27275740D01*
X47274715Y-27016426D01*
X47078229Y-26722363D01*
X47004003Y-26672767D01*
X43954531Y-23623296D01*
X43904933Y-23549067D01*
X43610870Y-23352581D01*
X43351556Y-23301000D01*
X43351555Y-23301000D01*
X43264000Y-23283584D01*
X43176445Y-23301000D01*
X40457236Y-23301000D01*
X40089000Y-22932765D01*
X40089000Y-20748235D01*
X41727236Y-19110000D01*
X47748445Y-19110000D01*
X47836000Y-19127416D01*
X47923555Y-19110000D01*
X47923556Y-19110000D01*
X48182870Y-19058419D01*
X48476933Y-18861933D01*
X48526531Y-18787704D01*
X50561707Y-16752529D01*
X50635933Y-16702933D01*
X50832419Y-16408870D01*
X50884000Y-16149556D01*
X50884000Y-16149555D01*
X50901416Y-16062001D01*
X50884000Y-15974446D01*
X50884000Y-15348983D01*
X51065625Y-15227625D01*
X51265000Y-14929239D01*
X51464375Y-15227625D01*
X51955582Y-15555839D01*
X52388744Y-15642000D01*
X52681256Y-15642000D01*
X53114418Y-15555839D01*
X53605625Y-15227625D01*
X53818843Y-14908522D01*
X53879817Y-15038358D01*
X54308076Y-15428645D01*
X54718110Y-15598476D01*
X54948000Y-15477155D01*
X54948000Y-14284000D01*
X54928000Y-14284000D01*
X54928000Y-14030000D01*
X54948000Y-14030000D01*
X54948000Y-12836845D01*
X54718110Y-12715524D01*
X54308076Y-12885355D01*
X53879817Y-13275642D01*
X53818843Y-13405478D01*
X53605625Y-13086375D01*
X53424000Y-12965017D01*
X53424000Y-12212556D01*
X53441416Y-12125000D01*
X53372419Y-11778129D01*
X53225529Y-11558293D01*
X53175933Y-11484067D01*
X53101707Y-11434471D01*
X51574531Y-9907296D01*
X51524933Y-9833067D01*
X51230870Y-9636581D01*
X50971556Y-9585000D01*
X50971555Y-9585000D01*
X50884000Y-9567584D01*
X50796445Y-9585000D01*
X38398555Y-9585000D01*
X38311000Y-9567584D01*
X38223445Y-9585000D01*
X38223444Y-9585000D01*
X37964130Y-9636581D01*
X37670067Y-9833067D01*
X37620471Y-9907293D01*
X35839294Y-11688471D01*
X35765068Y-11738067D01*
X35715472Y-11812293D01*
X35715471Y-11812294D01*
X35568582Y-12032130D01*
X35499584Y-12379000D01*
X35517001Y-12466559D01*
X35517000Y-23213445D01*
X35499584Y-23301000D01*
X35517000Y-23388555D01*
X35568581Y-23647869D01*
X35765067Y-23941933D01*
X35839296Y-23991531D01*
X38255470Y-26407706D01*
X38305067Y-26481933D01*
X38599130Y-26678419D01*
X38858444Y-26730000D01*
X38858448Y-26730000D01*
X38945999Y-26747415D01*
X39033550Y-26730000D01*
X40990765Y-26730000D01*
X44153001Y-29892237D01*
X44153000Y-39696231D01*
X44135584Y-39783786D01*
X44153000Y-39871341D01*
X44204581Y-40130655D01*
X44401067Y-40424719D01*
X44475296Y-40474317D01*
X45394685Y-41393706D01*
X45444281Y-41467933D01*
X45738344Y-41664419D01*
X45997658Y-41716000D01*
X45997662Y-41716000D01*
X46085213Y-41733415D01*
X46092211Y-41732023D01*
X46446110Y-42085922D01*
X46991910Y-42312000D01*
X47125764Y-42312000D01*
X44433294Y-45004471D01*
X44359068Y-45054067D01*
X44309472Y-45128293D01*
X44309471Y-45128294D01*
X44162582Y-45348130D01*
X44093584Y-45695000D01*
X44111001Y-45782559D01*
X44111000Y-55671449D01*
X32645155Y-67137295D01*
X32547874Y-67097000D01*
X32136126Y-67097000D01*
X31755720Y-67254569D01*
X31464569Y-67545720D01*
X31307000Y-67926126D01*
X28186362Y-67926126D01*
X20023000Y-59762765D01*
X20023000Y-52064345D01*
X33458000Y-52064345D01*
X33458000Y-52935654D01*
X33567369Y-53485489D01*
X33983991Y-54109009D01*
X34607510Y-54525631D01*
X35343000Y-54671929D01*
X36078489Y-54525631D01*
X36702009Y-54109009D01*
X37118631Y-53485490D01*
X37228000Y-52935655D01*
X37228000Y-52924040D01*
X38457885Y-52924040D01*
X38667983Y-53632194D01*
X39133087Y-54206042D01*
X39782389Y-54558221D01*
X39923355Y-54587695D01*
X40216000Y-54471572D01*
X40216000Y-52627000D01*
X40470000Y-52627000D01*
X40470000Y-54471572D01*
X40762645Y-54587695D01*
X40903611Y-54558221D01*
X41552913Y-54206042D01*
X42018017Y-53632194D01*
X42228115Y-52924040D01*
X42073382Y-52627000D01*
X40470000Y-52627000D01*
X40216000Y-52627000D01*
X38612618Y-52627000D01*
X38457885Y-52924040D01*
X37228000Y-52924040D01*
X37228000Y-52075960D01*
X38457885Y-52075960D01*
X38612618Y-52373000D01*
X40216000Y-52373000D01*
X40216000Y-50528428D01*
X40470000Y-50528428D01*
X40470000Y-52373000D01*
X42073382Y-52373000D01*
X42228115Y-52075960D01*
X42018017Y-51367806D01*
X41552913Y-50793958D01*
X40903611Y-50441779D01*
X40762645Y-50412305D01*
X40470000Y-50528428D01*
X40216000Y-50528428D01*
X39923355Y-50412305D01*
X39782389Y-50441779D01*
X39133087Y-50793958D01*
X38667983Y-51367806D01*
X38457885Y-52075960D01*
X37228000Y-52075960D01*
X37228000Y-52064346D01*
X37118631Y-51514510D01*
X36702009Y-50890991D01*
X36078490Y-50474369D01*
X35343000Y-50328071D01*
X34607511Y-50474369D01*
X33983991Y-50890991D01*
X33567369Y-51514510D01*
X33458000Y-52064345D01*
X20023000Y-52064345D01*
X20023000Y-42338235D01*
X21915236Y-40446000D01*
X22895017Y-40446000D01*
X23016375Y-40627625D01*
X23314761Y-40827000D01*
X23016375Y-41026375D01*
X22688161Y-41517582D01*
X22572908Y-42097000D01*
X22688161Y-42676418D01*
X23016375Y-43167625D01*
X23314761Y-43367000D01*
X23016375Y-43566375D01*
X22688161Y-44057582D01*
X22572908Y-44637000D01*
X22688161Y-45216418D01*
X23016375Y-45707625D01*
X23314761Y-45907000D01*
X23016375Y-46106375D01*
X22688161Y-46597582D01*
X22572908Y-47177000D01*
X22688161Y-47756418D01*
X23016375Y-48247625D01*
X23034619Y-48259816D01*
X22989235Y-48268843D01*
X22779191Y-48409191D01*
X22638843Y-48619235D01*
X22589560Y-48867000D01*
X22589560Y-50567000D01*
X22638843Y-50814765D01*
X22779191Y-51024809D01*
X22989235Y-51165157D01*
X23237000Y-51214440D01*
X24937000Y-51214440D01*
X25184765Y-51165157D01*
X25394809Y-51024809D01*
X25535157Y-50814765D01*
X25584440Y-50567000D01*
X25584440Y-48867000D01*
X25535157Y-48619235D01*
X25394809Y-48409191D01*
X25184765Y-48268843D01*
X25139381Y-48259816D01*
X25157625Y-48247625D01*
X25485839Y-47756418D01*
X25601092Y-47177000D01*
X25485839Y-46597582D01*
X25157625Y-46106375D01*
X24859239Y-45907000D01*
X25157625Y-45707625D01*
X25485839Y-45216418D01*
X25601092Y-44637000D01*
X25485839Y-44057582D01*
X25157625Y-43566375D01*
X24859239Y-43367000D01*
X25157625Y-43167625D01*
X25485839Y-42676418D01*
X25601092Y-42097000D01*
X25485839Y-41517582D01*
X25157625Y-41026375D01*
X24859239Y-40827000D01*
X25157625Y-40627625D01*
X25485839Y-40136418D01*
X25599630Y-39564345D01*
X33458000Y-39564345D01*
X33458000Y-40435654D01*
X33567369Y-40985489D01*
X33983991Y-41609009D01*
X34607510Y-42025631D01*
X35343000Y-42171929D01*
X36078489Y-42025631D01*
X36702009Y-41609009D01*
X37118631Y-40985490D01*
X37228000Y-40435655D01*
X37228000Y-40424040D01*
X38457885Y-40424040D01*
X38667983Y-41132194D01*
X39133087Y-41706042D01*
X39782389Y-42058221D01*
X39923355Y-42087695D01*
X40216000Y-41971572D01*
X40216000Y-40127000D01*
X40470000Y-40127000D01*
X40470000Y-41971572D01*
X40762645Y-42087695D01*
X40903611Y-42058221D01*
X41552913Y-41706042D01*
X42018017Y-41132194D01*
X42228115Y-40424040D01*
X42073382Y-40127000D01*
X40470000Y-40127000D01*
X40216000Y-40127000D01*
X38612618Y-40127000D01*
X38457885Y-40424040D01*
X37228000Y-40424040D01*
X37228000Y-39575960D01*
X38457885Y-39575960D01*
X38612618Y-39873000D01*
X40216000Y-39873000D01*
X40216000Y-38028428D01*
X40470000Y-38028428D01*
X40470000Y-39873000D01*
X42073382Y-39873000D01*
X42228115Y-39575960D01*
X42018017Y-38867806D01*
X41552913Y-38293958D01*
X40903611Y-37941779D01*
X40762645Y-37912305D01*
X40470000Y-38028428D01*
X40216000Y-38028428D01*
X39923355Y-37912305D01*
X39782389Y-37941779D01*
X39133087Y-38293958D01*
X38667983Y-38867806D01*
X38457885Y-39575960D01*
X37228000Y-39575960D01*
X37228000Y-39564346D01*
X37118631Y-39014510D01*
X36702009Y-38390991D01*
X36078490Y-37974369D01*
X35343000Y-37828071D01*
X34607511Y-37974369D01*
X33983991Y-38390991D01*
X33567369Y-39014510D01*
X33458000Y-39564345D01*
X25599630Y-39564345D01*
X25601092Y-39557000D01*
X25485839Y-38977582D01*
X25157625Y-38486375D01*
X24859239Y-38287000D01*
X25157625Y-38087625D01*
X25485839Y-37596418D01*
X25601092Y-37017000D01*
X25485839Y-36437582D01*
X25157625Y-35946375D01*
X24859239Y-35747000D01*
X25157625Y-35547625D01*
X25485839Y-35056418D01*
X25601092Y-34477000D01*
X25485839Y-33897582D01*
X25157625Y-33406375D01*
X24859239Y-33207000D01*
X25157625Y-33007625D01*
X25485839Y-32516418D01*
X25601092Y-31937000D01*
X25485839Y-31357582D01*
X25157625Y-30866375D01*
X24859239Y-30667000D01*
X25157625Y-30467625D01*
X25485839Y-29976418D01*
X25601092Y-29397000D01*
X25485839Y-28817582D01*
X25157625Y-28326375D01*
X24859239Y-28127000D01*
X25157625Y-27927625D01*
X25485839Y-27436418D01*
X25601092Y-26857000D01*
X25485839Y-26277582D01*
X25157625Y-25786375D01*
X24859239Y-25587000D01*
X25157625Y-25387625D01*
X25485839Y-24896418D01*
X25601092Y-24317000D01*
X25485839Y-23737582D01*
X25157625Y-23246375D01*
X24859239Y-23047000D01*
X25157625Y-22847625D01*
X25485839Y-22356418D01*
X25601092Y-21777000D01*
X25485839Y-21197582D01*
X25157625Y-20706375D01*
X24666418Y-20378161D01*
X24233256Y-20292000D01*
X23940744Y-20292000D01*
X23507582Y-20378161D01*
X23016375Y-20706375D01*
X22688161Y-21197582D01*
X22572908Y-21777000D01*
X22688161Y-22356418D01*
X23016375Y-22847625D01*
X23314761Y-23047000D01*
X23016375Y-23246375D01*
X22688161Y-23737582D01*
X22572908Y-24317000D01*
X22688161Y-24896418D01*
X23016375Y-25387625D01*
X23314761Y-25587000D01*
X23016375Y-25786375D01*
X22688161Y-26277582D01*
X22572908Y-26857000D01*
X22688161Y-27436418D01*
X23016375Y-27927625D01*
X23314761Y-28127000D01*
X23016375Y-28326375D01*
X22688161Y-28817582D01*
X22572908Y-29397000D01*
X22688161Y-29976418D01*
X23016375Y-30467625D01*
X23314761Y-30667000D01*
X23016375Y-30866375D01*
X22688161Y-31357582D01*
X22572908Y-31937000D01*
X22688161Y-32516418D01*
X23016375Y-33007625D01*
X23314761Y-33207000D01*
X23016375Y-33406375D01*
X22688161Y-33897582D01*
X22572908Y-34477000D01*
X22688161Y-35056418D01*
X23016375Y-35547625D01*
X23314761Y-35747000D01*
X23016375Y-35946375D01*
X22895017Y-36128000D01*
X19856550Y-36128000D01*
X19768999Y-36110585D01*
X19681448Y-36128000D01*
X19681444Y-36128000D01*
X19422130Y-36179581D01*
X19128067Y-36376067D01*
X19078471Y-36450293D01*
X6248294Y-49280471D01*
X6174068Y-49330067D01*
X6124472Y-49404293D01*
X6124471Y-49404294D01*
X5977582Y-49624130D01*
X5908584Y-49971000D01*
X710000Y-49971000D01*
X710000Y-2605159D01*
X1015000Y-2605159D01*
X1015000Y-3394841D01*
X1317199Y-4124412D01*
X1875588Y-4682801D01*
X2605159Y-4985000D01*
X3394841Y-4985000D01*
X4124412Y-4682801D01*
X4682801Y-4124412D01*
X4985000Y-3394841D01*
X4985000Y-2605159D01*
X85015000Y-2605159D01*
X85015000Y-3394841D01*
X85317199Y-4124412D01*
X85875588Y-4682801D01*
X86605159Y-4985000D01*
X87394841Y-4985000D01*
X88124412Y-4682801D01*
X88682801Y-4124412D01*
X88985000Y-3394841D01*
X88985000Y-2605159D01*
X88682801Y-1875588D01*
X88124412Y-1317199D01*
X87394841Y-1015000D01*
X86605159Y-1015000D01*
X85875588Y-1317199D01*
X85317199Y-1875588D01*
X85015000Y-2605159D01*
X4985000Y-2605159D01*
X4682801Y-1875588D01*
X4124412Y-1317199D01*
X3394841Y-1015000D01*
X2605159Y-1015000D01*
X1875588Y-1317199D01*
X1317199Y-1875588D01*
X1015000Y-2605159D01*
X710000Y-2605159D01*
X710000Y-710000D01*
X89290001Y-710000D01*
X89290000Y-112290000D01*
X89290000Y-112290000D01*
G37*
X89290000Y-112290000D02*
X710000Y-112290000D01*
X710000Y-109605159D01*
X1015000Y-109605159D01*
X1015000Y-110394841D01*
X1317199Y-111124412D01*
X1875588Y-111682801D01*
X2605159Y-111985000D01*
X3394841Y-111985000D01*
X4124412Y-111682801D01*
X4682801Y-111124412D01*
X4985000Y-110394841D01*
X4985000Y-109605159D01*
X85015000Y-109605159D01*
X85015000Y-110394841D01*
X85317199Y-111124412D01*
X85875588Y-111682801D01*
X86605159Y-111985000D01*
X87394841Y-111985000D01*
X88124412Y-111682801D01*
X88682801Y-111124412D01*
X88985000Y-110394841D01*
X88985000Y-109605159D01*
X88682801Y-108875588D01*
X88124412Y-108317199D01*
X87394841Y-108015000D01*
X86605159Y-108015000D01*
X85875588Y-108317199D01*
X85317199Y-108875588D01*
X85015000Y-109605159D01*
X4985000Y-109605159D01*
X4682801Y-108875588D01*
X4124412Y-108317199D01*
X3394841Y-108015000D01*
X2605159Y-108015000D01*
X1875588Y-108317199D01*
X1317199Y-108875588D01*
X1015000Y-109605159D01*
X710000Y-109605159D01*
X710000Y-106231345D01*
X8115000Y-106231345D01*
X8115000Y-107102654D01*
X8224369Y-107652489D01*
X8640991Y-108276009D01*
X9264510Y-108692631D01*
X10000000Y-108838929D01*
X10735489Y-108692631D01*
X11359009Y-108276009D01*
X11775631Y-107652490D01*
X11885000Y-107102655D01*
X11885000Y-107091040D01*
X13114885Y-107091040D01*
X13324983Y-107799194D01*
X13790087Y-108373042D01*
X14439389Y-108725221D01*
X14580355Y-108754695D01*
X14873000Y-108638572D01*
X14873000Y-106794000D01*
X15127000Y-106794000D01*
X15127000Y-108638572D01*
X15419645Y-108754695D01*
X15560611Y-108725221D01*
X16209913Y-108373042D01*
X16675017Y-107799194D01*
X16885115Y-107091040D01*
X16730382Y-106794000D01*
X15127000Y-106794000D01*
X14873000Y-106794000D01*
X13269618Y-106794000D01*
X13114885Y-107091040D01*
X11885000Y-107091040D01*
X11885000Y-106242960D01*
X13114885Y-106242960D01*
X13269618Y-106540000D01*
X14873000Y-106540000D01*
X14873000Y-104695428D01*
X15127000Y-104695428D01*
X15127000Y-106540000D01*
X16730382Y-106540000D01*
X16885115Y-106242960D01*
X16881670Y-106231345D01*
X22282000Y-106231345D01*
X22282000Y-107102654D01*
X22391369Y-107652489D01*
X22807991Y-108276009D01*
X23431510Y-108692631D01*
X24167000Y-108838929D01*
X24902489Y-108692631D01*
X25526009Y-108276009D01*
X25942631Y-107652490D01*
X26052000Y-107102655D01*
X26052000Y-107091040D01*
X27281885Y-107091040D01*
X27491983Y-107799194D01*
X27957087Y-108373042D01*
X28606389Y-108725221D01*
X28747355Y-108754695D01*
X29040000Y-108638572D01*
X29040000Y-106794000D01*
X29294000Y-106794000D01*
X29294000Y-108638572D01*
X29586645Y-108754695D01*
X29727611Y-108725221D01*
X30376913Y-108373042D01*
X30842017Y-107799194D01*
X31052115Y-107091040D01*
X30897382Y-106794000D01*
X29294000Y-106794000D01*
X29040000Y-106794000D01*
X27436618Y-106794000D01*
X27281885Y-107091040D01*
X26052000Y-107091040D01*
X26052000Y-106242960D01*
X27281885Y-106242960D01*
X27436618Y-106540000D01*
X29040000Y-106540000D01*
X29040000Y-104695428D01*
X29294000Y-104695428D01*
X29294000Y-106540000D01*
X30897382Y-106540000D01*
X31014408Y-106315345D01*
X39046000Y-106315345D01*
X39046000Y-107186654D01*
X39155369Y-107736489D01*
X39571991Y-108360009D01*
X40195510Y-108776631D01*
X40931000Y-108922929D01*
X41666489Y-108776631D01*
X42290009Y-108360009D01*
X42706631Y-107736490D01*
X42816000Y-107186655D01*
X42816000Y-107175040D01*
X44045885Y-107175040D01*
X44255983Y-107883194D01*
X44721087Y-108457042D01*
X45370389Y-108809221D01*
X45511355Y-108838695D01*
X45804000Y-108722572D01*
X45804000Y-106878000D01*
X46058000Y-106878000D01*
X46058000Y-108722572D01*
X46350645Y-108838695D01*
X46491611Y-108809221D01*
X47140913Y-108457042D01*
X47606017Y-107883194D01*
X47816115Y-107175040D01*
X47661382Y-106878000D01*
X46058000Y-106878000D01*
X45804000Y-106878000D01*
X44200618Y-106878000D01*
X44045885Y-107175040D01*
X42816000Y-107175040D01*
X42816000Y-106326960D01*
X44045885Y-106326960D01*
X44200618Y-106624000D01*
X45804000Y-106624000D01*
X45804000Y-104779428D01*
X46058000Y-104779428D01*
X46058000Y-106624000D01*
X47661382Y-106624000D01*
X47799766Y-106358345D01*
X55429000Y-106358345D01*
X55429000Y-107229654D01*
X55538369Y-107779489D01*
X55954991Y-108403009D01*
X56578510Y-108819631D01*
X57314000Y-108965929D01*
X58049489Y-108819631D01*
X58673009Y-108403009D01*
X59089631Y-107779490D01*
X59199000Y-107229655D01*
X59199000Y-107218040D01*
X60428885Y-107218040D01*
X60638983Y-107926194D01*
X61104087Y-108500042D01*
X61753389Y-108852221D01*
X61894355Y-108881695D01*
X62187000Y-108765572D01*
X62187000Y-106921000D01*
X62441000Y-106921000D01*
X62441000Y-108765572D01*
X62733645Y-108881695D01*
X62874611Y-108852221D01*
X63523913Y-108500042D01*
X63989017Y-107926194D01*
X64199115Y-107218040D01*
X64044382Y-106921000D01*
X62441000Y-106921000D01*
X62187000Y-106921000D01*
X60583618Y-106921000D01*
X60428885Y-107218040D01*
X59199000Y-107218040D01*
X59199000Y-106369960D01*
X60428885Y-106369960D01*
X60583618Y-106667000D01*
X62187000Y-106667000D01*
X62187000Y-104822428D01*
X62441000Y-104822428D01*
X62441000Y-106667000D01*
X64044382Y-106667000D01*
X64199115Y-106369960D01*
X63989017Y-105661806D01*
X63523913Y-105087958D01*
X62874611Y-104735779D01*
X62733645Y-104706305D01*
X62441000Y-104822428D01*
X62187000Y-104822428D01*
X61894355Y-104706305D01*
X61753389Y-104735779D01*
X61104087Y-105087958D01*
X60638983Y-105661806D01*
X60428885Y-106369960D01*
X59199000Y-106369960D01*
X59199000Y-106358346D01*
X59089631Y-105808510D01*
X58673009Y-105184991D01*
X58049490Y-104768369D01*
X57314000Y-104622071D01*
X56578511Y-104768369D01*
X55954991Y-105184991D01*
X55538369Y-105808510D01*
X55429000Y-106358345D01*
X47799766Y-106358345D01*
X47816115Y-106326960D01*
X47606017Y-105618806D01*
X47140913Y-105044958D01*
X46491611Y-104692779D01*
X46350645Y-104663305D01*
X46058000Y-104779428D01*
X45804000Y-104779428D01*
X45511355Y-104663305D01*
X45370389Y-104692779D01*
X44721087Y-105044958D01*
X44255983Y-105618806D01*
X44045885Y-106326960D01*
X42816000Y-106326960D01*
X42816000Y-106315346D01*
X42706631Y-105765510D01*
X42290009Y-105141991D01*
X41666490Y-104725369D01*
X40931000Y-104579071D01*
X40195511Y-104725369D01*
X39571991Y-105141991D01*
X39155369Y-105765510D01*
X39046000Y-106315345D01*
X31014408Y-106315345D01*
X31052115Y-106242960D01*
X30842017Y-105534806D01*
X30376913Y-104960958D01*
X29727611Y-104608779D01*
X29586645Y-104579305D01*
X29294000Y-104695428D01*
X29040000Y-104695428D01*
X28747355Y-104579305D01*
X28606389Y-104608779D01*
X27957087Y-104960958D01*
X27491983Y-105534806D01*
X27281885Y-106242960D01*
X26052000Y-106242960D01*
X26052000Y-106231346D01*
X25942631Y-105681510D01*
X25526009Y-105057991D01*
X24902490Y-104641369D01*
X24167000Y-104495071D01*
X23431511Y-104641369D01*
X22807991Y-105057991D01*
X22391369Y-105681510D01*
X22282000Y-106231345D01*
X16881670Y-106231345D01*
X16675017Y-105534806D01*
X16209913Y-104960958D01*
X15560611Y-104608779D01*
X15419645Y-104579305D01*
X15127000Y-104695428D01*
X14873000Y-104695428D01*
X14580355Y-104579305D01*
X14439389Y-104608779D01*
X13790087Y-104960958D01*
X13324983Y-105534806D01*
X13114885Y-106242960D01*
X11885000Y-106242960D01*
X11885000Y-106231346D01*
X11775631Y-105681510D01*
X11359009Y-105057991D01*
X10735490Y-104641369D01*
X10000000Y-104495071D01*
X9264511Y-104641369D01*
X8640991Y-105057991D01*
X8224369Y-105681510D01*
X8115000Y-106231345D01*
X710000Y-106231345D01*
X710000Y-104149000D01*
X84772560Y-104149000D01*
X84772560Y-105849000D01*
X84821843Y-106096765D01*
X84962191Y-106306809D01*
X85172235Y-106447157D01*
X85420000Y-106496440D01*
X87120000Y-106496440D01*
X87367765Y-106447157D01*
X87577809Y-106306809D01*
X87718157Y-106096765D01*
X87767440Y-105849000D01*
X87767440Y-104149000D01*
X87718157Y-103901235D01*
X87577809Y-103691191D01*
X87367765Y-103550843D01*
X87264292Y-103530261D01*
X87541645Y-103225924D01*
X87711476Y-102815890D01*
X87590155Y-102586000D01*
X86397000Y-102586000D01*
X86397000Y-102606000D01*
X86143000Y-102606000D01*
X86143000Y-102586000D01*
X84949845Y-102586000D01*
X84828524Y-102815890D01*
X84998355Y-103225924D01*
X85275708Y-103530261D01*
X85172235Y-103550843D01*
X84962191Y-103691191D01*
X84821843Y-103901235D01*
X84772560Y-104149000D01*
X710000Y-104149000D01*
X710000Y-93731345D01*
X8115000Y-93731345D01*
X8115000Y-94602654D01*
X8224369Y-95152489D01*
X8640991Y-95776009D01*
X9264510Y-96192631D01*
X10000000Y-96338929D01*
X10735489Y-96192631D01*
X11359009Y-95776009D01*
X11775631Y-95152490D01*
X11885000Y-94602655D01*
X11885000Y-94591040D01*
X13114885Y-94591040D01*
X13324983Y-95299194D01*
X13790087Y-95873042D01*
X14439389Y-96225221D01*
X14580355Y-96254695D01*
X14873000Y-96138572D01*
X14873000Y-94294000D01*
X15127000Y-94294000D01*
X15127000Y-96138572D01*
X15419645Y-96254695D01*
X15560611Y-96225221D01*
X16209913Y-95873042D01*
X16675017Y-95299194D01*
X16885115Y-94591040D01*
X16730382Y-94294000D01*
X15127000Y-94294000D01*
X14873000Y-94294000D01*
X13269618Y-94294000D01*
X13114885Y-94591040D01*
X11885000Y-94591040D01*
X11885000Y-93742960D01*
X13114885Y-93742960D01*
X13269618Y-94040000D01*
X14873000Y-94040000D01*
X14873000Y-92195428D01*
X15127000Y-92195428D01*
X15127000Y-94040000D01*
X16730382Y-94040000D01*
X16885115Y-93742960D01*
X16881670Y-93731345D01*
X22282000Y-93731345D01*
X22282000Y-94602654D01*
X22391369Y-95152489D01*
X22807991Y-95776009D01*
X23431510Y-96192631D01*
X24167000Y-96338929D01*
X24902489Y-96192631D01*
X25526009Y-95776009D01*
X25942631Y-95152490D01*
X26052000Y-94602655D01*
X26052000Y-94591040D01*
X27281885Y-94591040D01*
X27491983Y-95299194D01*
X27957087Y-95873042D01*
X28606389Y-96225221D01*
X28747355Y-96254695D01*
X29040000Y-96138572D01*
X29040000Y-94294000D01*
X29294000Y-94294000D01*
X29294000Y-96138572D01*
X29586645Y-96254695D01*
X29727611Y-96225221D01*
X30376913Y-95873042D01*
X30842017Y-95299194D01*
X31052115Y-94591040D01*
X30897382Y-94294000D01*
X29294000Y-94294000D01*
X29040000Y-94294000D01*
X27436618Y-94294000D01*
X27281885Y-94591040D01*
X26052000Y-94591040D01*
X26052000Y-93742960D01*
X27281885Y-93742960D01*
X27436618Y-94040000D01*
X29040000Y-94040000D01*
X29040000Y-92195428D01*
X29294000Y-92195428D01*
X29294000Y-94040000D01*
X30897382Y-94040000D01*
X31052115Y-93742960D01*
X30842017Y-93034806D01*
X30376913Y-92460958D01*
X29727611Y-92108779D01*
X29586645Y-92079305D01*
X29294000Y-92195428D01*
X29040000Y-92195428D01*
X28747355Y-92079305D01*
X28606389Y-92108779D01*
X27957087Y-92460958D01*
X27491983Y-93034806D01*
X27281885Y-93742960D01*
X26052000Y-93742960D01*
X26052000Y-93731346D01*
X25942631Y-93181510D01*
X25526009Y-92557991D01*
X25185359Y-92330376D01*
X27414296Y-90101440D01*
X28142000Y-90101440D01*
X28485435Y-90033126D01*
X28776586Y-89838586D01*
X28971126Y-89547435D01*
X29039440Y-89204000D01*
X29039440Y-87954000D01*
X28971126Y-87610565D01*
X28776586Y-87319414D01*
X28485435Y-87124874D01*
X28142000Y-87056560D01*
X27217000Y-87056560D01*
X26873565Y-87124874D01*
X26582414Y-87319414D01*
X26387874Y-87610565D01*
X26319560Y-87954000D01*
X26319560Y-88681704D01*
X23600294Y-91400971D01*
X23526068Y-91450567D01*
X23476472Y-91524793D01*
X23476471Y-91524794D01*
X23329582Y-91744630D01*
X23260584Y-92091500D01*
X23278001Y-92179059D01*
X23278001Y-92243941D01*
X22807991Y-92557991D01*
X22391369Y-93181510D01*
X22282000Y-93731345D01*
X16881670Y-93731345D01*
X16675017Y-93034806D01*
X16209913Y-92460958D01*
X15560611Y-92108779D01*
X15419645Y-92079305D01*
X15127000Y-92195428D01*
X14873000Y-92195428D01*
X14580355Y-92079305D01*
X14439389Y-92108779D01*
X13790087Y-92460958D01*
X13324983Y-93034806D01*
X13114885Y-93742960D01*
X11885000Y-93742960D01*
X11885000Y-93731346D01*
X11775631Y-93181510D01*
X11359009Y-92557991D01*
X11058822Y-92357413D01*
X11952736Y-91463500D01*
X14687376Y-91463500D01*
X14826414Y-91671586D01*
X15117565Y-91866126D01*
X15461000Y-91934440D01*
X16711000Y-91934440D01*
X17054435Y-91866126D01*
X17345586Y-91671586D01*
X17540126Y-91380435D01*
X17608440Y-91037000D01*
X17608440Y-90112000D01*
X17540126Y-89768565D01*
X17345586Y-89477414D01*
X17054435Y-89282874D01*
X16711000Y-89214560D01*
X15461000Y-89214560D01*
X15117565Y-89282874D01*
X14826414Y-89477414D01*
X14687376Y-89685500D01*
X11672050Y-89685500D01*
X11584499Y-89668085D01*
X11496948Y-89685500D01*
X11496944Y-89685500D01*
X11237630Y-89737081D01*
X10943567Y-89933567D01*
X10893971Y-90007793D01*
X9433294Y-91468471D01*
X9359068Y-91518067D01*
X9309472Y-91592293D01*
X9309471Y-91592294D01*
X9162582Y-91812130D01*
X9093584Y-92159000D01*
X9110541Y-92244248D01*
X8640991Y-92557991D01*
X8224369Y-93181510D01*
X8115000Y-93731345D01*
X710000Y-93731345D01*
X710000Y-51605159D01*
X1015000Y-51605159D01*
X1015000Y-52394841D01*
X1317199Y-53124412D01*
X1875588Y-53682801D01*
X2605159Y-53985000D01*
X3394841Y-53985000D01*
X4124412Y-53682801D01*
X4682801Y-53124412D01*
X4985000Y-52394841D01*
X4985000Y-51605159D01*
X4682801Y-50875588D01*
X4124412Y-50317199D01*
X3394841Y-50015000D01*
X2605159Y-50015000D01*
X1875588Y-50317199D01*
X1317199Y-50875588D01*
X1015000Y-51605159D01*
X710000Y-51605159D01*
X710000Y-49971000D01*
X5908584Y-49971000D01*
X5926001Y-50058560D01*
X5926000Y-82909945D01*
X5908584Y-82997500D01*
X5926000Y-83085055D01*
X5977581Y-83344369D01*
X6174067Y-83638433D01*
X6248296Y-83688031D01*
X8494471Y-85934207D01*
X8544067Y-86008433D01*
X8692824Y-86107829D01*
X8705874Y-86173435D01*
X8900414Y-86464586D01*
X9191565Y-86659126D01*
X9535000Y-86727440D01*
X10785000Y-86727440D01*
X11128435Y-86659126D01*
X11419586Y-86464586D01*
X11614126Y-86173435D01*
X11682440Y-85830000D01*
X11682440Y-84905000D01*
X11614126Y-84561565D01*
X11592161Y-84528691D01*
X14576000Y-84528691D01*
X14576000Y-85081750D01*
X14734750Y-85240500D01*
X15959000Y-85240500D01*
X15959000Y-84178750D01*
X16213000Y-84178750D01*
X16213000Y-85240500D01*
X17437250Y-85240500D01*
X17596000Y-85081750D01*
X17596000Y-84528691D01*
X17499327Y-84295302D01*
X17320699Y-84116673D01*
X17087310Y-84020000D01*
X16371750Y-84020000D01*
X16213000Y-84178750D01*
X15959000Y-84178750D01*
X15800250Y-84020000D01*
X15084690Y-84020000D01*
X14851301Y-84116673D01*
X14672673Y-84295302D01*
X14576000Y-84528691D01*
X11592161Y-84528691D01*
X11419586Y-84270414D01*
X11128435Y-84075874D01*
X10785000Y-84007560D01*
X9535000Y-84007560D01*
X9191565Y-84075874D01*
X9167014Y-84092278D01*
X7704000Y-82629265D01*
X7704000Y-81930000D01*
X8637560Y-81930000D01*
X8637560Y-82855000D01*
X8705874Y-83198435D01*
X8900414Y-83489586D01*
X9191565Y-83684126D01*
X9535000Y-83752440D01*
X10785000Y-83752440D01*
X11128435Y-83684126D01*
X11419586Y-83489586D01*
X11614126Y-83198435D01*
X11682440Y-82855000D01*
X11682440Y-81930000D01*
X14563560Y-81930000D01*
X14563560Y-82855000D01*
X14631874Y-83198435D01*
X14826414Y-83489586D01*
X15117565Y-83684126D01*
X15461000Y-83752440D01*
X16711000Y-83752440D01*
X17054435Y-83684126D01*
X17201575Y-83585811D01*
X17737001Y-84121237D01*
X17737000Y-85666264D01*
X17596000Y-85807264D01*
X17596000Y-85653250D01*
X17437250Y-85494500D01*
X16213000Y-85494500D01*
X16213000Y-85514500D01*
X15959000Y-85514500D01*
X15959000Y-85494500D01*
X14734750Y-85494500D01*
X14576000Y-85653250D01*
X14576000Y-86206309D01*
X14672673Y-86439698D01*
X14789954Y-86556980D01*
X14631874Y-86793565D01*
X14563560Y-87137000D01*
X14563560Y-88062000D01*
X14631874Y-88405435D01*
X14826414Y-88696586D01*
X15117565Y-88891126D01*
X15461000Y-88959440D01*
X16711000Y-88959440D01*
X17054435Y-88891126D01*
X17345586Y-88696586D01*
X17540126Y-88405435D01*
X17553176Y-88339829D01*
X17701933Y-88240433D01*
X17751531Y-88166204D01*
X19192707Y-86725029D01*
X19266933Y-86675433D01*
X19463419Y-86381370D01*
X19515000Y-86122056D01*
X19515000Y-86122052D01*
X19532415Y-86034501D01*
X19515000Y-85946950D01*
X19515000Y-84642000D01*
X21305765Y-84642000D01*
X23015471Y-86351707D01*
X23065067Y-86425933D01*
X23359130Y-86622419D01*
X23618444Y-86674000D01*
X23618445Y-86674000D01*
X23706000Y-86691416D01*
X23793555Y-86674000D01*
X27465650Y-86674000D01*
X27818126Y-86820000D01*
X28229874Y-86820000D01*
X28610280Y-86662431D01*
X28901431Y-86371280D01*
X29059000Y-85990874D01*
X29059000Y-85579126D01*
X28901431Y-85198720D01*
X28610280Y-84907569D01*
X28229874Y-84750000D01*
X27818126Y-84750000D01*
X27465650Y-84896000D01*
X24074236Y-84896000D01*
X22762986Y-83584750D01*
X26303000Y-83584750D01*
X26303000Y-84137809D01*
X26399673Y-84371198D01*
X26578301Y-84549827D01*
X26811690Y-84646500D01*
X27527250Y-84646500D01*
X27686000Y-84487750D01*
X27686000Y-83426000D01*
X27940000Y-83426000D01*
X27940000Y-84487750D01*
X28098750Y-84646500D01*
X28814310Y-84646500D01*
X29047699Y-84549827D01*
X29192547Y-84404979D01*
X29193673Y-84407698D01*
X29372301Y-84586327D01*
X29605690Y-84683000D01*
X30321250Y-84683000D01*
X30480000Y-84524250D01*
X30480000Y-83462500D01*
X30734000Y-83462500D01*
X30734000Y-84524250D01*
X30892750Y-84683000D01*
X31608310Y-84683000D01*
X31841699Y-84586327D01*
X32020327Y-84407698D01*
X32117000Y-84174309D01*
X32117000Y-83621250D01*
X31958250Y-83462500D01*
X30734000Y-83462500D01*
X30480000Y-83462500D01*
X29255750Y-83462500D01*
X29228250Y-83490000D01*
X29164250Y-83426000D01*
X27940000Y-83426000D01*
X27686000Y-83426000D01*
X26461750Y-83426000D01*
X26303000Y-83584750D01*
X22762986Y-83584750D01*
X22364531Y-83186296D01*
X22314933Y-83112067D01*
X22020870Y-82915581D01*
X21761556Y-82864000D01*
X21761555Y-82864000D01*
X21674000Y-82846584D01*
X21586445Y-82864000D01*
X18994236Y-82864000D01*
X18590427Y-82460191D01*
X26303000Y-82460191D01*
X26303000Y-83013250D01*
X26461750Y-83172000D01*
X27686000Y-83172000D01*
X27686000Y-82110250D01*
X27940000Y-82110250D01*
X27940000Y-83172000D01*
X29164250Y-83172000D01*
X29191750Y-83144500D01*
X29255750Y-83208500D01*
X30480000Y-83208500D01*
X30480000Y-82146750D01*
X30734000Y-82146750D01*
X30734000Y-83208500D01*
X31958250Y-83208500D01*
X32117000Y-83049750D01*
X32117000Y-82496691D01*
X32020327Y-82263302D01*
X31841699Y-82084673D01*
X31608310Y-81988000D01*
X30892750Y-81988000D01*
X30734000Y-82146750D01*
X30480000Y-82146750D01*
X30321250Y-81988000D01*
X29605690Y-81988000D01*
X29372301Y-82084673D01*
X29227453Y-82229521D01*
X29226327Y-82226802D01*
X29047699Y-82048173D01*
X28814310Y-81951500D01*
X28098750Y-81951500D01*
X27940000Y-82110250D01*
X27686000Y-82110250D01*
X27527250Y-81951500D01*
X26811690Y-81951500D01*
X26578301Y-82048173D01*
X26399673Y-82226802D01*
X26303000Y-82460191D01*
X18590427Y-82460191D01*
X17956031Y-81825796D01*
X17906433Y-81751567D01*
X17612370Y-81555081D01*
X17504791Y-81533682D01*
X17345586Y-81295414D01*
X17054435Y-81100874D01*
X16711000Y-81032560D01*
X15461000Y-81032560D01*
X15117565Y-81100874D01*
X14826414Y-81295414D01*
X14631874Y-81586565D01*
X14563560Y-81930000D01*
X11682440Y-81930000D01*
X11614126Y-81586565D01*
X11419586Y-81295414D01*
X11128435Y-81100874D01*
X11049000Y-81085073D01*
X11049000Y-78668250D01*
X11782000Y-78668250D01*
X11782000Y-79221309D01*
X11878673Y-79454698D01*
X12057301Y-79633327D01*
X12290690Y-79730000D01*
X13006250Y-79730000D01*
X13165000Y-79571250D01*
X13165000Y-78509500D01*
X13419000Y-78509500D01*
X13419000Y-79571250D01*
X13577750Y-79730000D01*
X14293310Y-79730000D01*
X14526699Y-79633327D01*
X14705327Y-79454698D01*
X14802000Y-79221309D01*
X14802000Y-78668250D01*
X14643250Y-78509500D01*
X13419000Y-78509500D01*
X13165000Y-78509500D01*
X11940750Y-78509500D01*
X11782000Y-78668250D01*
X11049000Y-78668250D01*
X11049000Y-77601235D01*
X11106544Y-77543691D01*
X11782000Y-77543691D01*
X11782000Y-78096750D01*
X11940750Y-78255500D01*
X13165000Y-78255500D01*
X13165000Y-77193750D01*
X13419000Y-77193750D01*
X13419000Y-78255500D01*
X14643250Y-78255500D01*
X14802000Y-78096750D01*
X14802000Y-77543691D01*
X14705327Y-77310302D01*
X14526699Y-77131673D01*
X14293310Y-77035000D01*
X13577750Y-77035000D01*
X13419000Y-77193750D01*
X13165000Y-77193750D01*
X13006250Y-77035000D01*
X12290690Y-77035000D01*
X12057301Y-77131673D01*
X11878673Y-77310302D01*
X11782000Y-77543691D01*
X11106544Y-77543691D01*
X12100294Y-76549942D01*
X12323565Y-76699126D01*
X12667000Y-76767440D01*
X13917000Y-76767440D01*
X14260435Y-76699126D01*
X14551586Y-76504586D01*
X14690624Y-76296500D01*
X29280150Y-76296500D01*
X29632626Y-76442500D01*
X30044374Y-76442500D01*
X30424780Y-76284931D01*
X30715931Y-75993780D01*
X30873500Y-75613374D01*
X30873500Y-75201626D01*
X30715931Y-74821220D01*
X30424780Y-74530069D01*
X30044374Y-74372500D01*
X29632626Y-74372500D01*
X29280150Y-74518500D01*
X14690624Y-74518500D01*
X14551586Y-74310414D01*
X14260435Y-74115874D01*
X13917000Y-74047560D01*
X12667000Y-74047560D01*
X12323565Y-74115874D01*
X12032414Y-74310414D01*
X11892676Y-74519548D01*
X11638630Y-74570081D01*
X11344567Y-74766567D01*
X11294971Y-74840793D01*
X9593294Y-76542471D01*
X9519068Y-76592067D01*
X9469472Y-76666293D01*
X9469471Y-76666294D01*
X9322582Y-76886130D01*
X9253584Y-77233000D01*
X9271001Y-77320559D01*
X9271000Y-81085073D01*
X9191565Y-81100874D01*
X8900414Y-81295414D01*
X8705874Y-81586565D01*
X8637560Y-81930000D01*
X7704000Y-81930000D01*
X7704000Y-50339235D01*
X20137236Y-37906000D01*
X22895017Y-37906000D01*
X23016375Y-38087625D01*
X23314761Y-38287000D01*
X23016375Y-38486375D01*
X22895017Y-38668000D01*
X21634550Y-38668000D01*
X21546999Y-38650585D01*
X21459448Y-38668000D01*
X21459444Y-38668000D01*
X21200130Y-38719581D01*
X20906067Y-38916067D01*
X20856471Y-38990293D01*
X18567294Y-41279471D01*
X18493068Y-41329067D01*
X18443472Y-41403293D01*
X18443471Y-41403294D01*
X18296582Y-41623130D01*
X18227584Y-41970000D01*
X18245001Y-42057560D01*
X18245000Y-60043445D01*
X18227584Y-60131000D01*
X18245000Y-60218555D01*
X18296581Y-60477869D01*
X18493067Y-60771933D01*
X18567296Y-60821531D01*
X32122971Y-74377207D01*
X32172567Y-74451433D01*
X32466630Y-74647919D01*
X32725944Y-74699500D01*
X32725948Y-74699500D01*
X32813499Y-74716915D01*
X32901050Y-74699500D01*
X38049650Y-74699500D01*
X38402126Y-74845500D01*
X38813874Y-74845500D01*
X39166350Y-74699500D01*
X40892376Y-74699500D01*
X41031414Y-74907586D01*
X41322565Y-75102126D01*
X41666000Y-75170440D01*
X42461324Y-75170440D01*
X39828765Y-77803000D01*
X28720054Y-77803000D01*
X28632499Y-77785584D01*
X28544944Y-77803000D01*
X28285630Y-77854581D01*
X27991567Y-78051067D01*
X27941971Y-78125294D01*
X27246294Y-78820971D01*
X27172068Y-78870567D01*
X27122472Y-78944793D01*
X27122471Y-78944794D01*
X27097580Y-78982046D01*
X26844565Y-79032374D01*
X26553414Y-79226914D01*
X26358874Y-79518065D01*
X26290560Y-79861500D01*
X26290560Y-80786500D01*
X26358874Y-81129935D01*
X26553414Y-81421086D01*
X26844565Y-81615626D01*
X27188000Y-81683940D01*
X28438000Y-81683940D01*
X28781435Y-81615626D01*
X29072586Y-81421086D01*
X29197806Y-81233680D01*
X29347414Y-81457586D01*
X29638565Y-81652126D01*
X29982000Y-81720440D01*
X31232000Y-81720440D01*
X31575435Y-81652126D01*
X31849061Y-81469296D01*
X32469001Y-82089237D01*
X32469000Y-86319764D01*
X31582398Y-87206367D01*
X31460435Y-87124874D01*
X31117000Y-87056560D01*
X30192000Y-87056560D01*
X29848565Y-87124874D01*
X29557414Y-87319414D01*
X29362874Y-87610565D01*
X29294560Y-87954000D01*
X29294560Y-89204000D01*
X29362874Y-89547435D01*
X29557414Y-89838586D01*
X29765500Y-89977624D01*
X29765500Y-90843945D01*
X29748084Y-90931500D01*
X29765500Y-91019055D01*
X29817081Y-91278369D01*
X30013567Y-91572433D01*
X30087796Y-91622031D01*
X36647471Y-98181707D01*
X36697067Y-98255933D01*
X36991130Y-98452419D01*
X37250444Y-98504000D01*
X37250448Y-98504000D01*
X37337999Y-98521415D01*
X37425550Y-98504000D01*
X41568445Y-98504000D01*
X41656000Y-98521416D01*
X41743555Y-98504000D01*
X41743556Y-98504000D01*
X42002870Y-98452419D01*
X42296933Y-98255933D01*
X42346531Y-98181704D01*
X44000707Y-96527529D01*
X44074933Y-96477933D01*
X44271419Y-96183870D01*
X44323000Y-95924556D01*
X44323000Y-95924555D01*
X44340416Y-95837000D01*
X44323000Y-95749445D01*
X44323000Y-95465880D01*
X44721087Y-95957042D01*
X45370389Y-96309221D01*
X45511355Y-96338695D01*
X45804000Y-96222572D01*
X45804000Y-94378000D01*
X46058000Y-94378000D01*
X46058000Y-96222572D01*
X46350645Y-96338695D01*
X46491611Y-96309221D01*
X47140913Y-95957042D01*
X47606017Y-95383194D01*
X47816115Y-94675040D01*
X47661382Y-94378000D01*
X46058000Y-94378000D01*
X45804000Y-94378000D01*
X45784000Y-94378000D01*
X45784000Y-94124000D01*
X45804000Y-94124000D01*
X45804000Y-92279428D01*
X46058000Y-92279428D01*
X46058000Y-94124000D01*
X47661382Y-94124000D01*
X47799766Y-93858345D01*
X55429000Y-93858345D01*
X55429000Y-94729654D01*
X55538369Y-95279489D01*
X55954991Y-95903009D01*
X56578510Y-96319631D01*
X57314000Y-96465929D01*
X58049489Y-96319631D01*
X58673009Y-95903009D01*
X59089631Y-95279490D01*
X59199000Y-94729655D01*
X59199000Y-94718040D01*
X60428885Y-94718040D01*
X60638983Y-95426194D01*
X61104087Y-96000042D01*
X61753389Y-96352221D01*
X61894355Y-96381695D01*
X62187000Y-96265572D01*
X62187000Y-94421000D01*
X62441000Y-94421000D01*
X62441000Y-96265572D01*
X62733645Y-96381695D01*
X62874611Y-96352221D01*
X63523913Y-96000042D01*
X63989017Y-95426194D01*
X64199115Y-94718040D01*
X64044382Y-94421000D01*
X62441000Y-94421000D01*
X62187000Y-94421000D01*
X60583618Y-94421000D01*
X60428885Y-94718040D01*
X59199000Y-94718040D01*
X59199000Y-93869960D01*
X60428885Y-93869960D01*
X60583618Y-94167000D01*
X62187000Y-94167000D01*
X62187000Y-92322428D01*
X62441000Y-92322428D01*
X62441000Y-94167000D01*
X64044382Y-94167000D01*
X64199115Y-93869960D01*
X63989017Y-93161806D01*
X63523913Y-92587958D01*
X62874611Y-92235779D01*
X62733645Y-92206305D01*
X62441000Y-92322428D01*
X62187000Y-92322428D01*
X61894355Y-92206305D01*
X61753389Y-92235779D01*
X61104087Y-92587958D01*
X60638983Y-93161806D01*
X60428885Y-93869960D01*
X59199000Y-93869960D01*
X59199000Y-93858346D01*
X59089631Y-93308510D01*
X58673009Y-92684991D01*
X58049490Y-92268369D01*
X57314000Y-92122071D01*
X56578511Y-92268369D01*
X55954991Y-92684991D01*
X55538369Y-93308510D01*
X55429000Y-93858345D01*
X47799766Y-93858345D01*
X47816115Y-93826960D01*
X47606017Y-93118806D01*
X47140913Y-92544958D01*
X46491611Y-92192779D01*
X46350645Y-92163305D01*
X46058000Y-92279428D01*
X45804000Y-92279428D01*
X45511355Y-92163305D01*
X45370389Y-92192779D01*
X44721087Y-92544958D01*
X44323000Y-93036120D01*
X44323000Y-92522235D01*
X46928000Y-89917235D01*
X46928000Y-90054874D01*
X47085569Y-90435280D01*
X47376720Y-90726431D01*
X47757126Y-90884000D01*
X48168874Y-90884000D01*
X48521350Y-90738000D01*
X70200765Y-90738000D01*
X74625570Y-95162805D01*
X74771569Y-95515280D01*
X75062720Y-95806431D01*
X75443126Y-95964000D01*
X75854874Y-95964000D01*
X76235280Y-95806431D01*
X76526431Y-95515280D01*
X76684000Y-95134874D01*
X76684000Y-94723126D01*
X76526431Y-94342720D01*
X76235280Y-94051569D01*
X75882805Y-93905570D01*
X71259531Y-89282296D01*
X71209933Y-89208067D01*
X70915870Y-89011581D01*
X70656556Y-88960000D01*
X70656555Y-88960000D01*
X70569000Y-88942584D01*
X70481445Y-88960000D01*
X48521350Y-88960000D01*
X48168874Y-88814000D01*
X48031236Y-88814000D01*
X49771236Y-87074000D01*
X62560650Y-87074000D01*
X62913126Y-87220000D01*
X63324874Y-87220000D01*
X63705280Y-87062431D01*
X63996431Y-86771280D01*
X64154000Y-86390874D01*
X64154000Y-85979126D01*
X63996431Y-85598720D01*
X63705280Y-85307569D01*
X63324874Y-85150000D01*
X62913126Y-85150000D01*
X62560650Y-85296000D01*
X58218235Y-85296000D01*
X59380236Y-84134000D01*
X68422765Y-84134000D01*
X79099293Y-94810529D01*
X79099296Y-94810531D01*
X79694470Y-95405706D01*
X79744067Y-95479933D01*
X79818293Y-95529529D01*
X80038129Y-95676419D01*
X80385000Y-95745416D01*
X80472556Y-95728000D01*
X85078017Y-95728000D01*
X85199375Y-95909625D01*
X85497761Y-96109000D01*
X85199375Y-96308375D01*
X84871161Y-96799582D01*
X84755908Y-97379000D01*
X84871161Y-97958418D01*
X85199375Y-98449625D01*
X85497761Y-98649000D01*
X85199375Y-98848375D01*
X84871161Y-99339582D01*
X84755908Y-99919000D01*
X84871161Y-100498418D01*
X85199375Y-100989625D01*
X85518478Y-101202843D01*
X85388642Y-101263817D01*
X84998355Y-101692076D01*
X84828524Y-102102110D01*
X84949845Y-102332000D01*
X86143000Y-102332000D01*
X86143000Y-102312000D01*
X86397000Y-102312000D01*
X86397000Y-102332000D01*
X87590155Y-102332000D01*
X87711476Y-102102110D01*
X87541645Y-101692076D01*
X87151358Y-101263817D01*
X87021522Y-101202843D01*
X87340625Y-100989625D01*
X87668839Y-100498418D01*
X87784092Y-99919000D01*
X87668839Y-99339582D01*
X87340625Y-98848375D01*
X87042239Y-98649000D01*
X87340625Y-98449625D01*
X87668839Y-97958418D01*
X87784092Y-97379000D01*
X87668839Y-96799582D01*
X87340625Y-96308375D01*
X87042239Y-96109000D01*
X87340625Y-95909625D01*
X87668839Y-95418418D01*
X87784092Y-94839000D01*
X87668839Y-94259582D01*
X87340625Y-93768375D01*
X87042239Y-93569000D01*
X87340625Y-93369625D01*
X87668839Y-92878418D01*
X87784092Y-92299000D01*
X87668839Y-91719582D01*
X87340625Y-91228375D01*
X87042239Y-91029000D01*
X87340625Y-90829625D01*
X87668839Y-90338418D01*
X87784092Y-89759000D01*
X87668839Y-89179582D01*
X87340625Y-88688375D01*
X87042239Y-88489000D01*
X87340625Y-88289625D01*
X87668839Y-87798418D01*
X87784092Y-87219000D01*
X87668839Y-86639582D01*
X87340625Y-86148375D01*
X87042239Y-85949000D01*
X87340625Y-85749625D01*
X87668839Y-85258418D01*
X87784092Y-84679000D01*
X87668839Y-84099582D01*
X87340625Y-83608375D01*
X87042239Y-83409000D01*
X87340625Y-83209625D01*
X87668839Y-82718418D01*
X87784092Y-82139000D01*
X87668839Y-81559582D01*
X87340625Y-81068375D01*
X87042239Y-80869000D01*
X87340625Y-80669625D01*
X87668839Y-80178418D01*
X87784092Y-79599000D01*
X87668839Y-79019582D01*
X87340625Y-78528375D01*
X87042239Y-78329000D01*
X87340625Y-78129625D01*
X87668839Y-77638418D01*
X87784092Y-77059000D01*
X87668839Y-76479582D01*
X87340625Y-75988375D01*
X86849418Y-75660161D01*
X86416256Y-75574000D01*
X86123744Y-75574000D01*
X85690582Y-75660161D01*
X85199375Y-75988375D01*
X84871161Y-76479582D01*
X84755908Y-77059000D01*
X84871161Y-77638418D01*
X85199375Y-78129625D01*
X85497761Y-78329000D01*
X85199375Y-78528375D01*
X84871161Y-79019582D01*
X84755908Y-79599000D01*
X84871161Y-80178418D01*
X85199375Y-80669625D01*
X85497761Y-80869000D01*
X85199375Y-81068375D01*
X84871161Y-81559582D01*
X84755908Y-82139000D01*
X84871161Y-82718418D01*
X85199375Y-83209625D01*
X85497761Y-83409000D01*
X85199375Y-83608375D01*
X84871161Y-84099582D01*
X84755908Y-84679000D01*
X84871161Y-85258418D01*
X85199375Y-85749625D01*
X85497761Y-85949000D01*
X85199375Y-86148375D01*
X85078017Y-86330000D01*
X83547236Y-86330000D01*
X74942531Y-77725296D01*
X74908354Y-77674146D01*
X75070370Y-77641919D01*
X75364433Y-77445433D01*
X75414031Y-77371204D01*
X77485707Y-75299529D01*
X77559933Y-75249933D01*
X77756419Y-74955870D01*
X77808000Y-74696556D01*
X77808000Y-74696555D01*
X77825416Y-74609000D01*
X77808000Y-74521445D01*
X77808000Y-52605159D01*
X85015000Y-52605159D01*
X85015000Y-53394841D01*
X85317199Y-54124412D01*
X85875588Y-54682801D01*
X86605159Y-54985000D01*
X87394841Y-54985000D01*
X88124412Y-54682801D01*
X88682801Y-54124412D01*
X88985000Y-53394841D01*
X88985000Y-52605159D01*
X88682801Y-51875588D01*
X88124412Y-51317199D01*
X87394841Y-51015000D01*
X86605159Y-51015000D01*
X85875588Y-51317199D01*
X85317199Y-51875588D01*
X85015000Y-52605159D01*
X77808000Y-52605159D01*
X77808000Y-32346469D01*
X77825415Y-32258918D01*
X77808000Y-32171367D01*
X77808000Y-32171363D01*
X77756419Y-31912049D01*
X77559933Y-31617986D01*
X77485707Y-31568390D01*
X59507612Y-13590296D01*
X59458014Y-13516067D01*
X59163951Y-13319581D01*
X58904637Y-13268000D01*
X58904636Y-13268000D01*
X58817081Y-13250584D01*
X58797896Y-13254400D01*
X58685625Y-13086375D01*
X58194418Y-12758161D01*
X57761256Y-12672000D01*
X57468744Y-12672000D01*
X57035582Y-12758161D01*
X56544375Y-13086375D01*
X56331157Y-13405478D01*
X56270183Y-13275642D01*
X55841924Y-12885355D01*
X55431890Y-12715524D01*
X55202000Y-12836845D01*
X55202000Y-14030000D01*
X55222000Y-14030000D01*
X55222000Y-14284000D01*
X55202000Y-14284000D01*
X55202000Y-15477155D01*
X55431890Y-15598476D01*
X55841924Y-15428645D01*
X56270183Y-15038358D01*
X56331157Y-14908522D01*
X56544375Y-15227625D01*
X57035582Y-15555839D01*
X57468744Y-15642000D01*
X57761256Y-15642000D01*
X58194418Y-15555839D01*
X58652563Y-15249717D01*
X76030000Y-32627155D01*
X76030001Y-74240763D01*
X74355265Y-75915500D01*
X73618624Y-75915500D01*
X73479586Y-75707414D01*
X73188435Y-75512874D01*
X73109000Y-75497073D01*
X73109000Y-74659350D01*
X73255000Y-74306874D01*
X73255000Y-73895126D01*
X73097431Y-73514720D01*
X72806280Y-73223569D01*
X72425874Y-73066000D01*
X72014126Y-73066000D01*
X71633720Y-73223569D01*
X71342569Y-73514720D01*
X71185000Y-73895126D01*
X71185000Y-74306874D01*
X71331001Y-74659352D01*
X71331000Y-75497073D01*
X71251565Y-75512874D01*
X70960414Y-75707414D01*
X70765874Y-75998565D01*
X70697560Y-76342000D01*
X70697560Y-77267000D01*
X70724612Y-77403000D01*
X70612000Y-77403000D01*
X70612000Y-71053927D01*
X70691435Y-71038126D01*
X70982586Y-70843586D01*
X71177126Y-70552435D01*
X71245440Y-70209000D01*
X71245440Y-69481295D01*
X73421707Y-67305029D01*
X73495933Y-67255433D01*
X73692419Y-66961370D01*
X73744000Y-66702056D01*
X73744000Y-66702055D01*
X73761416Y-66614500D01*
X73744000Y-66526945D01*
X73744000Y-65806550D01*
X73761415Y-65718999D01*
X73744000Y-65631448D01*
X73744000Y-65631444D01*
X73692419Y-65372130D01*
X73495933Y-65078067D01*
X73421707Y-65028471D01*
X72021531Y-63628296D01*
X71971933Y-63554067D01*
X71677870Y-63357581D01*
X71418556Y-63306000D01*
X71418555Y-63306000D01*
X71331000Y-63288584D01*
X71243445Y-63306000D01*
X65576555Y-63306000D01*
X65489000Y-63288584D01*
X65401445Y-63306000D01*
X65401444Y-63306000D01*
X65142130Y-63357581D01*
X64848067Y-63554067D01*
X64798471Y-63628293D01*
X56992765Y-71434000D01*
X52041388Y-71434000D01*
X52068440Y-71298000D01*
X52068440Y-70373000D01*
X52000126Y-70029565D01*
X51805586Y-69738414D01*
X51514435Y-69543874D01*
X51435000Y-69528073D01*
X51435000Y-58767235D01*
X56543277Y-53658958D01*
X56843991Y-54109009D01*
X57467510Y-54525631D01*
X58203000Y-54671929D01*
X58938489Y-54525631D01*
X59562009Y-54109009D01*
X59978631Y-53485490D01*
X60088000Y-52935655D01*
X60088000Y-52924040D01*
X61317885Y-52924040D01*
X61527983Y-53632194D01*
X61993087Y-54206042D01*
X62642389Y-54558221D01*
X62783355Y-54587695D01*
X63076000Y-54471572D01*
X63076000Y-52627000D01*
X63330000Y-52627000D01*
X63330000Y-54471572D01*
X63622645Y-54587695D01*
X63763611Y-54558221D01*
X64412913Y-54206042D01*
X64878017Y-53632194D01*
X65088115Y-52924040D01*
X64933382Y-52627000D01*
X63330000Y-52627000D01*
X63076000Y-52627000D01*
X61472618Y-52627000D01*
X61317885Y-52924040D01*
X60088000Y-52924040D01*
X60088000Y-52075960D01*
X61317885Y-52075960D01*
X61472618Y-52373000D01*
X63076000Y-52373000D01*
X63076000Y-50528428D01*
X63330000Y-50528428D01*
X63330000Y-52373000D01*
X64933382Y-52373000D01*
X65088115Y-52075960D01*
X64878017Y-51367806D01*
X64412913Y-50793958D01*
X63763611Y-50441779D01*
X63622645Y-50412305D01*
X63330000Y-50528428D01*
X63076000Y-50528428D01*
X62783355Y-50412305D01*
X62642389Y-50441779D01*
X61993087Y-50793958D01*
X61527983Y-51367806D01*
X61317885Y-52075960D01*
X60088000Y-52075960D01*
X60088000Y-52064346D01*
X59978631Y-51514510D01*
X59562009Y-50890991D01*
X58938490Y-50474369D01*
X58203000Y-50328071D01*
X57467511Y-50474369D01*
X56843991Y-50890991D01*
X56427369Y-51514510D01*
X56410266Y-51600493D01*
X56357445Y-51611000D01*
X56357444Y-51611000D01*
X56098130Y-51662581D01*
X55804067Y-51859067D01*
X55754471Y-51933293D01*
X49979294Y-57708471D01*
X49905068Y-57758067D01*
X49855472Y-57832293D01*
X49855471Y-57832294D01*
X49708582Y-58052130D01*
X49639584Y-58399000D01*
X49657001Y-58486559D01*
X49657000Y-69528073D01*
X49577565Y-69543874D01*
X49286414Y-69738414D01*
X49091874Y-70029565D01*
X49023560Y-70373000D01*
X49023560Y-71298000D01*
X49050612Y-71434000D01*
X47865000Y-71434000D01*
X47865000Y-71121250D01*
X47706250Y-70962500D01*
X46482000Y-70962500D01*
X46482000Y-70982500D01*
X46228000Y-70982500D01*
X46228000Y-70962500D01*
X45003750Y-70962500D01*
X44845000Y-71121250D01*
X44845000Y-71455770D01*
X44695129Y-71485581D01*
X44599571Y-71549431D01*
X44401067Y-71682067D01*
X44351470Y-71756294D01*
X43840294Y-72267471D01*
X43766068Y-72317067D01*
X43716472Y-72391293D01*
X43716471Y-72391294D01*
X43569582Y-72611130D01*
X43549394Y-72712618D01*
X43259435Y-72518874D01*
X42916000Y-72450560D01*
X41666000Y-72450560D01*
X41322565Y-72518874D01*
X41031414Y-72713414D01*
X40892376Y-72921500D01*
X39166350Y-72921500D01*
X38813874Y-72775500D01*
X38402126Y-72775500D01*
X38049650Y-72921500D01*
X33181736Y-72921500D01*
X30726362Y-70466126D01*
X34990000Y-70466126D01*
X34990000Y-70877874D01*
X35147569Y-71258280D01*
X35438720Y-71549431D01*
X35819126Y-71707000D01*
X36230874Y-71707000D01*
X36583350Y-71561000D01*
X40820874Y-71561000D01*
X40836874Y-71641435D01*
X41031414Y-71932586D01*
X41322565Y-72127126D01*
X41666000Y-72195440D01*
X42916000Y-72195440D01*
X43259435Y-72127126D01*
X43550586Y-71932586D01*
X43745126Y-71641435D01*
X43813440Y-71298000D01*
X43813440Y-70373000D01*
X43745126Y-70029565D01*
X43723161Y-69996691D01*
X44845000Y-69996691D01*
X44845000Y-70549750D01*
X45003750Y-70708500D01*
X46228000Y-70708500D01*
X46228000Y-69646750D01*
X46482000Y-69646750D01*
X46482000Y-70708500D01*
X47706250Y-70708500D01*
X47865000Y-70549750D01*
X47865000Y-69996691D01*
X47768327Y-69763302D01*
X47589699Y-69584673D01*
X47356310Y-69488000D01*
X46640750Y-69488000D01*
X46482000Y-69646750D01*
X46228000Y-69646750D01*
X46069250Y-69488000D01*
X45353690Y-69488000D01*
X45120301Y-69584673D01*
X44941673Y-69763302D01*
X44845000Y-69996691D01*
X43723161Y-69996691D01*
X43550586Y-69738414D01*
X43259435Y-69543874D01*
X42916000Y-69475560D01*
X41666000Y-69475560D01*
X41322565Y-69543874D01*
X41031414Y-69738414D01*
X41001623Y-69783000D01*
X36583350Y-69783000D01*
X36230874Y-69637000D01*
X35819126Y-69637000D01*
X35438720Y-69794569D01*
X35147569Y-70085720D01*
X34990000Y-70466126D01*
X30726362Y-70466126D01*
X28186362Y-67926126D01*
X31307000Y-67926126D01*
X31307000Y-68337874D01*
X31464569Y-68718280D01*
X31755720Y-69009431D01*
X32136126Y-69167000D01*
X32547874Y-69167000D01*
X32874324Y-69031780D01*
X32907685Y-69038416D01*
X32995240Y-69021000D01*
X32995241Y-69021000D01*
X33254555Y-68969419D01*
X33548618Y-68772933D01*
X33598216Y-68698704D01*
X45566707Y-56730214D01*
X45640933Y-56680618D01*
X45837419Y-56386555D01*
X45889000Y-56127241D01*
X45889000Y-56127240D01*
X45906416Y-56039685D01*
X45889000Y-55952130D01*
X45889000Y-48867000D01*
X47989560Y-48867000D01*
X47989560Y-50567000D01*
X48038843Y-50814765D01*
X48179191Y-51024809D01*
X48389235Y-51165157D01*
X48637000Y-51214440D01*
X50337000Y-51214440D01*
X50584765Y-51165157D01*
X50794809Y-51024809D01*
X50935157Y-50814765D01*
X50984440Y-50567000D01*
X50984440Y-48867000D01*
X50935157Y-48619235D01*
X50794809Y-48409191D01*
X50584765Y-48268843D01*
X50481292Y-48248261D01*
X50758645Y-47943924D01*
X50928476Y-47533890D01*
X50807155Y-47304000D01*
X49614000Y-47304000D01*
X49614000Y-47324000D01*
X49360000Y-47324000D01*
X49360000Y-47304000D01*
X48166845Y-47304000D01*
X48045524Y-47533890D01*
X48215355Y-47943924D01*
X48492708Y-48248261D01*
X48389235Y-48268843D01*
X48179191Y-48409191D01*
X48038843Y-48619235D01*
X47989560Y-48867000D01*
X45889000Y-48867000D01*
X45889000Y-46063235D01*
X48637116Y-43315120D01*
X48714761Y-43367000D01*
X48416375Y-43566375D01*
X48088161Y-44057582D01*
X47972908Y-44637000D01*
X48088161Y-45216418D01*
X48416375Y-45707625D01*
X48735478Y-45920843D01*
X48605642Y-45981817D01*
X48215355Y-46410076D01*
X48045524Y-46820110D01*
X48166845Y-47050000D01*
X49360000Y-47050000D01*
X49360000Y-47030000D01*
X49614000Y-47030000D01*
X49614000Y-47050000D01*
X50807155Y-47050000D01*
X50928476Y-46820110D01*
X50758645Y-46410076D01*
X50368358Y-45981817D01*
X50238522Y-45920843D01*
X50557625Y-45707625D01*
X50885839Y-45216418D01*
X51001092Y-44637000D01*
X50885839Y-44057582D01*
X50557625Y-43566375D01*
X50259239Y-43367000D01*
X50557625Y-43167625D01*
X50885839Y-42676418D01*
X51001092Y-42097000D01*
X50885839Y-41517582D01*
X50557625Y-41026375D01*
X50259239Y-40827000D01*
X50557625Y-40627625D01*
X50885839Y-40136418D01*
X50999630Y-39564345D01*
X56318000Y-39564345D01*
X56318000Y-40435654D01*
X56427369Y-40985489D01*
X56843991Y-41609009D01*
X57467510Y-42025631D01*
X58203000Y-42171929D01*
X58938489Y-42025631D01*
X59562009Y-41609009D01*
X59978631Y-40985490D01*
X60088000Y-40435655D01*
X60088000Y-40424040D01*
X61317885Y-40424040D01*
X61527983Y-41132194D01*
X61993087Y-41706042D01*
X62642389Y-42058221D01*
X62783355Y-42087695D01*
X63076000Y-41971572D01*
X63076000Y-40127000D01*
X63330000Y-40127000D01*
X63330000Y-41971572D01*
X63622645Y-42087695D01*
X63763611Y-42058221D01*
X64412913Y-41706042D01*
X64878017Y-41132194D01*
X65088115Y-40424040D01*
X64933382Y-40127000D01*
X63330000Y-40127000D01*
X63076000Y-40127000D01*
X61472618Y-40127000D01*
X61317885Y-40424040D01*
X60088000Y-40424040D01*
X60088000Y-39575960D01*
X61317885Y-39575960D01*
X61472618Y-39873000D01*
X63076000Y-39873000D01*
X63076000Y-38028428D01*
X63330000Y-38028428D01*
X63330000Y-39873000D01*
X64933382Y-39873000D01*
X65088115Y-39575960D01*
X64878017Y-38867806D01*
X64412913Y-38293958D01*
X63763611Y-37941779D01*
X63622645Y-37912305D01*
X63330000Y-38028428D01*
X63076000Y-38028428D01*
X62783355Y-37912305D01*
X62642389Y-37941779D01*
X61993087Y-38293958D01*
X61527983Y-38867806D01*
X61317885Y-39575960D01*
X60088000Y-39575960D01*
X60088000Y-39564346D01*
X59978631Y-39014510D01*
X59562009Y-38390991D01*
X58938490Y-37974369D01*
X58203000Y-37828071D01*
X57467511Y-37974369D01*
X56843991Y-38390991D01*
X56427369Y-39014510D01*
X56318000Y-39564345D01*
X50999630Y-39564345D01*
X51001092Y-39557000D01*
X50885839Y-38977582D01*
X50557625Y-38486375D01*
X50259239Y-38287000D01*
X50557625Y-38087625D01*
X50885839Y-37596418D01*
X51001092Y-37017000D01*
X50885839Y-36437582D01*
X50557625Y-35946375D01*
X50259239Y-35747000D01*
X50557625Y-35547625D01*
X50885839Y-35056418D01*
X51001092Y-34477000D01*
X50885839Y-33897582D01*
X50557625Y-33406375D01*
X50259239Y-33207000D01*
X50557625Y-33007625D01*
X50885839Y-32516418D01*
X51001092Y-31937000D01*
X50885839Y-31357582D01*
X50557625Y-30866375D01*
X50259239Y-30667000D01*
X50557625Y-30467625D01*
X50885839Y-29976418D01*
X51001092Y-29397000D01*
X50885839Y-28817582D01*
X50557625Y-28326375D01*
X50259239Y-28127000D01*
X50557625Y-27927625D01*
X50885839Y-27436418D01*
X51001092Y-26857000D01*
X50885839Y-26277582D01*
X50557625Y-25786375D01*
X50259239Y-25587000D01*
X50557625Y-25387625D01*
X50885839Y-24896418D01*
X51001092Y-24317000D01*
X50885839Y-23737582D01*
X50557625Y-23246375D01*
X50259239Y-23047000D01*
X50557625Y-22847625D01*
X50885839Y-22356418D01*
X51001092Y-21777000D01*
X50885839Y-21197582D01*
X50557625Y-20706375D01*
X50066418Y-20378161D01*
X49633256Y-20292000D01*
X49340744Y-20292000D01*
X48907582Y-20378161D01*
X48416375Y-20706375D01*
X48227791Y-20988611D01*
X48205922Y-20935815D01*
X47788185Y-20518078D01*
X47242385Y-20292000D01*
X46651615Y-20292000D01*
X46105815Y-20518078D01*
X45688078Y-20935815D01*
X45677000Y-20962560D01*
X45665922Y-20935815D01*
X45248185Y-20518078D01*
X44702385Y-20292000D01*
X44111615Y-20292000D01*
X43565815Y-20518078D01*
X43148078Y-20935815D01*
X43137000Y-20962560D01*
X43125922Y-20935815D01*
X42708185Y-20518078D01*
X42162385Y-20292000D01*
X41571615Y-20292000D01*
X41025815Y-20518078D01*
X40608078Y-20935815D01*
X40382000Y-21481615D01*
X40382000Y-22072385D01*
X40608078Y-22618185D01*
X41025815Y-23035922D01*
X41571615Y-23262000D01*
X42162385Y-23262000D01*
X42708185Y-23035922D01*
X43125922Y-22618185D01*
X43137000Y-22591440D01*
X43148078Y-22618185D01*
X43565815Y-23035922D01*
X44111615Y-23262000D01*
X44702385Y-23262000D01*
X45248185Y-23035922D01*
X45665922Y-22618185D01*
X45677000Y-22591440D01*
X45688078Y-22618185D01*
X46105815Y-23035922D01*
X46651615Y-23262000D01*
X47242385Y-23262000D01*
X47788185Y-23035922D01*
X48205922Y-22618185D01*
X48227791Y-22565389D01*
X48416375Y-22847625D01*
X48714761Y-23047000D01*
X48416375Y-23246375D01*
X48088161Y-23737582D01*
X47972908Y-24317000D01*
X48088161Y-24896418D01*
X48416375Y-25387625D01*
X48714761Y-25587000D01*
X48416375Y-25786375D01*
X48088161Y-26277582D01*
X47972908Y-26857000D01*
X48088161Y-27436418D01*
X48416375Y-27927625D01*
X48714761Y-28127000D01*
X48416375Y-28326375D01*
X48088161Y-28817582D01*
X47972908Y-29397000D01*
X48088161Y-29976418D01*
X48416375Y-30467625D01*
X48714761Y-30667000D01*
X48416375Y-30866375D01*
X48088161Y-31357582D01*
X47972908Y-31937000D01*
X48088161Y-32516418D01*
X48416375Y-33007625D01*
X48714761Y-33207000D01*
X48416375Y-33406375D01*
X48088161Y-33897582D01*
X47972908Y-34477000D01*
X48088161Y-35056418D01*
X48416375Y-35547625D01*
X48714761Y-35747000D01*
X48416375Y-35946375D01*
X48088161Y-36437582D01*
X47982714Y-36967700D01*
X47582680Y-36802000D01*
X47326296Y-36802000D01*
X47326296Y-27450846D01*
X47343711Y-27363295D01*
X47326296Y-27275744D01*
X47326296Y-27275740D01*
X47274715Y-27016426D01*
X47078229Y-26722363D01*
X47004003Y-26672767D01*
X43954531Y-23623296D01*
X43904933Y-23549067D01*
X43610870Y-23352581D01*
X43351556Y-23301000D01*
X43351555Y-23301000D01*
X43264000Y-23283584D01*
X43176445Y-23301000D01*
X40457236Y-23301000D01*
X40089000Y-22932765D01*
X40089000Y-20748235D01*
X41727236Y-19110000D01*
X47748445Y-19110000D01*
X47836000Y-19127416D01*
X47923555Y-19110000D01*
X47923556Y-19110000D01*
X48182870Y-19058419D01*
X48476933Y-18861933D01*
X48526531Y-18787704D01*
X50561707Y-16752529D01*
X50635933Y-16702933D01*
X50832419Y-16408870D01*
X50884000Y-16149556D01*
X50884000Y-16149555D01*
X50901416Y-16062001D01*
X50884000Y-15974446D01*
X50884000Y-15348983D01*
X51065625Y-15227625D01*
X51265000Y-14929239D01*
X51464375Y-15227625D01*
X51955582Y-15555839D01*
X52388744Y-15642000D01*
X52681256Y-15642000D01*
X53114418Y-15555839D01*
X53605625Y-15227625D01*
X53818843Y-14908522D01*
X53879817Y-15038358D01*
X54308076Y-15428645D01*
X54718110Y-15598476D01*
X54948000Y-15477155D01*
X54948000Y-14284000D01*
X54928000Y-14284000D01*
X54928000Y-14030000D01*
X54948000Y-14030000D01*
X54948000Y-12836845D01*
X54718110Y-12715524D01*
X54308076Y-12885355D01*
X53879817Y-13275642D01*
X53818843Y-13405478D01*
X53605625Y-13086375D01*
X53424000Y-12965017D01*
X53424000Y-12212556D01*
X53441416Y-12125000D01*
X53372419Y-11778129D01*
X53225529Y-11558293D01*
X53175933Y-11484067D01*
X53101707Y-11434471D01*
X51574531Y-9907296D01*
X51524933Y-9833067D01*
X51230870Y-9636581D01*
X50971556Y-9585000D01*
X50971555Y-9585000D01*
X50884000Y-9567584D01*
X50796445Y-9585000D01*
X38398555Y-9585000D01*
X38311000Y-9567584D01*
X38223445Y-9585000D01*
X38223444Y-9585000D01*
X37964130Y-9636581D01*
X37670067Y-9833067D01*
X37620471Y-9907293D01*
X35839294Y-11688471D01*
X35765068Y-11738067D01*
X35715472Y-11812293D01*
X35715471Y-11812294D01*
X35568582Y-12032130D01*
X35499584Y-12379000D01*
X35517001Y-12466559D01*
X35517000Y-23213445D01*
X35499584Y-23301000D01*
X35517000Y-23388555D01*
X35568581Y-23647869D01*
X35765067Y-23941933D01*
X35839296Y-23991531D01*
X38255470Y-26407706D01*
X38305067Y-26481933D01*
X38599130Y-26678419D01*
X38858444Y-26730000D01*
X38858448Y-26730000D01*
X38945999Y-26747415D01*
X39033550Y-26730000D01*
X40990765Y-26730000D01*
X44153001Y-29892237D01*
X44153000Y-39696231D01*
X44135584Y-39783786D01*
X44153000Y-39871341D01*
X44204581Y-40130655D01*
X44401067Y-40424719D01*
X44475296Y-40474317D01*
X45394685Y-41393706D01*
X45444281Y-41467933D01*
X45738344Y-41664419D01*
X45997658Y-41716000D01*
X45997662Y-41716000D01*
X46085213Y-41733415D01*
X46092211Y-41732023D01*
X46446110Y-42085922D01*
X46991910Y-42312000D01*
X47125764Y-42312000D01*
X44433294Y-45004471D01*
X44359068Y-45054067D01*
X44309472Y-45128293D01*
X44309471Y-45128294D01*
X44162582Y-45348130D01*
X44093584Y-45695000D01*
X44111001Y-45782559D01*
X44111000Y-55671449D01*
X32645155Y-67137295D01*
X32547874Y-67097000D01*
X32136126Y-67097000D01*
X31755720Y-67254569D01*
X31464569Y-67545720D01*
X31307000Y-67926126D01*
X28186362Y-67926126D01*
X20023000Y-59762765D01*
X20023000Y-52064345D01*
X33458000Y-52064345D01*
X33458000Y-52935654D01*
X33567369Y-53485489D01*
X33983991Y-54109009D01*
X34607510Y-54525631D01*
X35343000Y-54671929D01*
X36078489Y-54525631D01*
X36702009Y-54109009D01*
X37118631Y-53485490D01*
X37228000Y-52935655D01*
X37228000Y-52924040D01*
X38457885Y-52924040D01*
X38667983Y-53632194D01*
X39133087Y-54206042D01*
X39782389Y-54558221D01*
X39923355Y-54587695D01*
X40216000Y-54471572D01*
X40216000Y-52627000D01*
X40470000Y-52627000D01*
X40470000Y-54471572D01*
X40762645Y-54587695D01*
X40903611Y-54558221D01*
X41552913Y-54206042D01*
X42018017Y-53632194D01*
X42228115Y-52924040D01*
X42073382Y-52627000D01*
X40470000Y-52627000D01*
X40216000Y-52627000D01*
X38612618Y-52627000D01*
X38457885Y-52924040D01*
X37228000Y-52924040D01*
X37228000Y-52075960D01*
X38457885Y-52075960D01*
X38612618Y-52373000D01*
X40216000Y-52373000D01*
X40216000Y-50528428D01*
X40470000Y-50528428D01*
X40470000Y-52373000D01*
X42073382Y-52373000D01*
X42228115Y-52075960D01*
X42018017Y-51367806D01*
X41552913Y-50793958D01*
X40903611Y-50441779D01*
X40762645Y-50412305D01*
X40470000Y-50528428D01*
X40216000Y-50528428D01*
X39923355Y-50412305D01*
X39782389Y-50441779D01*
X39133087Y-50793958D01*
X38667983Y-51367806D01*
X38457885Y-52075960D01*
X37228000Y-52075960D01*
X37228000Y-52064346D01*
X37118631Y-51514510D01*
X36702009Y-50890991D01*
X36078490Y-50474369D01*
X35343000Y-50328071D01*
X34607511Y-50474369D01*
X33983991Y-50890991D01*
X33567369Y-51514510D01*
X33458000Y-52064345D01*
X20023000Y-52064345D01*
X20023000Y-42338235D01*
X21915236Y-40446000D01*
X22895017Y-40446000D01*
X23016375Y-40627625D01*
X23314761Y-40827000D01*
X23016375Y-41026375D01*
X22688161Y-41517582D01*
X22572908Y-42097000D01*
X22688161Y-42676418D01*
X23016375Y-43167625D01*
X23314761Y-43367000D01*
X23016375Y-43566375D01*
X22688161Y-44057582D01*
X22572908Y-44637000D01*
X22688161Y-45216418D01*
X23016375Y-45707625D01*
X23314761Y-45907000D01*
X23016375Y-46106375D01*
X22688161Y-46597582D01*
X22572908Y-47177000D01*
X22688161Y-47756418D01*
X23016375Y-48247625D01*
X23034619Y-48259816D01*
X22989235Y-48268843D01*
X22779191Y-48409191D01*
X22638843Y-48619235D01*
X22589560Y-48867000D01*
X22589560Y-50567000D01*
X22638843Y-50814765D01*
X22779191Y-51024809D01*
X22989235Y-51165157D01*
X23237000Y-51214440D01*
X24937000Y-51214440D01*
X25184765Y-51165157D01*
X25394809Y-51024809D01*
X25535157Y-50814765D01*
X25584440Y-50567000D01*
X25584440Y-48867000D01*
X25535157Y-48619235D01*
X25394809Y-48409191D01*
X25184765Y-48268843D01*
X25139381Y-48259816D01*
X25157625Y-48247625D01*
X25485839Y-47756418D01*
X25601092Y-47177000D01*
X25485839Y-46597582D01*
X25157625Y-46106375D01*
X24859239Y-45907000D01*
X25157625Y-45707625D01*
X25485839Y-45216418D01*
X25601092Y-44637000D01*
X25485839Y-44057582D01*
X25157625Y-43566375D01*
X24859239Y-43367000D01*
X25157625Y-43167625D01*
X25485839Y-42676418D01*
X25601092Y-42097000D01*
X25485839Y-41517582D01*
X25157625Y-41026375D01*
X24859239Y-40827000D01*
X25157625Y-40627625D01*
X25485839Y-40136418D01*
X25599630Y-39564345D01*
X33458000Y-39564345D01*
X33458000Y-40435654D01*
X33567369Y-40985489D01*
X33983991Y-41609009D01*
X34607510Y-42025631D01*
X35343000Y-42171929D01*
X36078489Y-42025631D01*
X36702009Y-41609009D01*
X37118631Y-40985490D01*
X37228000Y-40435655D01*
X37228000Y-40424040D01*
X38457885Y-40424040D01*
X38667983Y-41132194D01*
X39133087Y-41706042D01*
X39782389Y-42058221D01*
X39923355Y-42087695D01*
X40216000Y-41971572D01*
X40216000Y-40127000D01*
X40470000Y-40127000D01*
X40470000Y-41971572D01*
X40762645Y-42087695D01*
X40903611Y-42058221D01*
X41552913Y-41706042D01*
X42018017Y-41132194D01*
X42228115Y-40424040D01*
X42073382Y-40127000D01*
X40470000Y-40127000D01*
X40216000Y-40127000D01*
X38612618Y-40127000D01*
X38457885Y-40424040D01*
X37228000Y-40424040D01*
X37228000Y-39575960D01*
X38457885Y-39575960D01*
X38612618Y-39873000D01*
X40216000Y-39873000D01*
X40216000Y-38028428D01*
X40470000Y-38028428D01*
X40470000Y-39873000D01*
X42073382Y-39873000D01*
X42228115Y-39575960D01*
X42018017Y-38867806D01*
X41552913Y-38293958D01*
X40903611Y-37941779D01*
X40762645Y-37912305D01*
X40470000Y-38028428D01*
X40216000Y-38028428D01*
X39923355Y-37912305D01*
X39782389Y-37941779D01*
X39133087Y-38293958D01*
X38667983Y-38867806D01*
X38457885Y-39575960D01*
X37228000Y-39575960D01*
X37228000Y-39564346D01*
X37118631Y-39014510D01*
X36702009Y-38390991D01*
X36078490Y-37974369D01*
X35343000Y-37828071D01*
X34607511Y-37974369D01*
X33983991Y-38390991D01*
X33567369Y-39014510D01*
X33458000Y-39564345D01*
X25599630Y-39564345D01*
X25601092Y-39557000D01*
X25485839Y-38977582D01*
X25157625Y-38486375D01*
X24859239Y-38287000D01*
X25157625Y-38087625D01*
X25485839Y-37596418D01*
X25601092Y-37017000D01*
X25485839Y-36437582D01*
X25157625Y-35946375D01*
X24859239Y-35747000D01*
X25157625Y-35547625D01*
X25485839Y-35056418D01*
X25601092Y-34477000D01*
X25485839Y-33897582D01*
X25157625Y-33406375D01*
X24859239Y-33207000D01*
X25157625Y-33007625D01*
X25485839Y-32516418D01*
X25601092Y-31937000D01*
X25485839Y-31357582D01*
X25157625Y-30866375D01*
X24859239Y-30667000D01*
X25157625Y-30467625D01*
X25485839Y-29976418D01*
X25601092Y-29397000D01*
X25485839Y-28817582D01*
X25157625Y-28326375D01*
X24859239Y-28127000D01*
X25157625Y-27927625D01*
X25485839Y-27436418D01*
X25601092Y-26857000D01*
X25485839Y-26277582D01*
X25157625Y-25786375D01*
X24859239Y-25587000D01*
X25157625Y-25387625D01*
X25485839Y-24896418D01*
X25601092Y-24317000D01*
X25485839Y-23737582D01*
X25157625Y-23246375D01*
X24859239Y-23047000D01*
X25157625Y-22847625D01*
X25485839Y-22356418D01*
X25601092Y-21777000D01*
X25485839Y-21197582D01*
X25157625Y-20706375D01*
X24666418Y-20378161D01*
X24233256Y-20292000D01*
X23940744Y-20292000D01*
X23507582Y-20378161D01*
X23016375Y-20706375D01*
X22688161Y-21197582D01*
X22572908Y-21777000D01*
X22688161Y-22356418D01*
X23016375Y-22847625D01*
X23314761Y-23047000D01*
X23016375Y-23246375D01*
X22688161Y-23737582D01*
X22572908Y-24317000D01*
X22688161Y-24896418D01*
X23016375Y-25387625D01*
X23314761Y-25587000D01*
X23016375Y-25786375D01*
X22688161Y-26277582D01*
X22572908Y-26857000D01*
X22688161Y-27436418D01*
X23016375Y-27927625D01*
X23314761Y-28127000D01*
X23016375Y-28326375D01*
X22688161Y-28817582D01*
X22572908Y-29397000D01*
X22688161Y-29976418D01*
X23016375Y-30467625D01*
X23314761Y-30667000D01*
X23016375Y-30866375D01*
X22688161Y-31357582D01*
X22572908Y-31937000D01*
X22688161Y-32516418D01*
X23016375Y-33007625D01*
X23314761Y-33207000D01*
X23016375Y-33406375D01*
X22688161Y-33897582D01*
X22572908Y-34477000D01*
X22688161Y-35056418D01*
X23016375Y-35547625D01*
X23314761Y-35747000D01*
X23016375Y-35946375D01*
X22895017Y-36128000D01*
X19856550Y-36128000D01*
X19768999Y-36110585D01*
X19681448Y-36128000D01*
X19681444Y-36128000D01*
X19422130Y-36179581D01*
X19128067Y-36376067D01*
X19078471Y-36450293D01*
X6248294Y-49280471D01*
X6174068Y-49330067D01*
X6124472Y-49404293D01*
X6124471Y-49404294D01*
X5977582Y-49624130D01*
X5908584Y-49971000D01*
X710000Y-49971000D01*
X710000Y-2605159D01*
X1015000Y-2605159D01*
X1015000Y-3394841D01*
X1317199Y-4124412D01*
X1875588Y-4682801D01*
X2605159Y-4985000D01*
X3394841Y-4985000D01*
X4124412Y-4682801D01*
X4682801Y-4124412D01*
X4985000Y-3394841D01*
X4985000Y-2605159D01*
X85015000Y-2605159D01*
X85015000Y-3394841D01*
X85317199Y-4124412D01*
X85875588Y-4682801D01*
X86605159Y-4985000D01*
X87394841Y-4985000D01*
X88124412Y-4682801D01*
X88682801Y-4124412D01*
X88985000Y-3394841D01*
X88985000Y-2605159D01*
X88682801Y-1875588D01*
X88124412Y-1317199D01*
X87394841Y-1015000D01*
X86605159Y-1015000D01*
X85875588Y-1317199D01*
X85317199Y-1875588D01*
X85015000Y-2605159D01*
X4985000Y-2605159D01*
X4682801Y-1875588D01*
X4124412Y-1317199D01*
X3394841Y-1015000D01*
X2605159Y-1015000D01*
X1875588Y-1317199D01*
X1317199Y-1875588D01*
X1015000Y-2605159D01*
X710000Y-2605159D01*
X710000Y-710000D01*
X89290001Y-710000D01*
X89290000Y-112290000D01*
G36*
X71966000Y-66087236D02*
X71966001Y-66246264D01*
X71245440Y-66966824D01*
X71245440Y-66309000D01*
X71177126Y-65965565D01*
X70982586Y-65674414D01*
X70691435Y-65479874D01*
X70348000Y-65411560D01*
X69098000Y-65411560D01*
X68754565Y-65479874D01*
X68463414Y-65674414D01*
X68324376Y-65882500D01*
X67572056Y-65882500D01*
X67484500Y-65865084D01*
X67137629Y-65934081D01*
X67078533Y-65973568D01*
X66843567Y-66130567D01*
X66793971Y-66204793D01*
X64414294Y-68584471D01*
X64340068Y-68634067D01*
X64290472Y-68708293D01*
X64290471Y-68708294D01*
X64143582Y-68928130D01*
X64074584Y-69275000D01*
X64092001Y-69362559D01*
X64092000Y-70811764D01*
X60167765Y-74736000D01*
X56940550Y-74736000D01*
X56852999Y-74718585D01*
X56765448Y-74736000D01*
X56765444Y-74736000D01*
X56506130Y-74787581D01*
X56212067Y-74984067D01*
X56162471Y-75058293D01*
X54762294Y-76458471D01*
X54688068Y-76508067D01*
X54638472Y-76582293D01*
X54638471Y-76582294D01*
X54592319Y-76651366D01*
X54468310Y-76600000D01*
X53752750Y-76600000D01*
X53594000Y-76758750D01*
X53594000Y-77820500D01*
X53614000Y-77820500D01*
X53614000Y-78074500D01*
X53594000Y-78074500D01*
X53594000Y-79136250D01*
X53752750Y-79295000D01*
X54440001Y-79295000D01*
X54440001Y-79633925D01*
X54435435Y-79630874D01*
X54092000Y-79562560D01*
X53403297Y-79562560D01*
X53386182Y-79536946D01*
X53336586Y-79462720D01*
X53262359Y-79413124D01*
X53144236Y-79295000D01*
X53181250Y-79295000D01*
X53340000Y-79136250D01*
X53340000Y-78074500D01*
X53320000Y-78074500D01*
X53320000Y-77820500D01*
X53340000Y-77820500D01*
X53340000Y-76758750D01*
X53181250Y-76600000D01*
X52789000Y-76600000D01*
X52789000Y-76474554D01*
X52806416Y-76386999D01*
X52776737Y-76237794D01*
X52737419Y-76040130D01*
X52540933Y-75746067D01*
X52466707Y-75696471D01*
X51728997Y-74958761D01*
X51805586Y-74907586D01*
X52000126Y-74616435D01*
X52068440Y-74273000D01*
X52068440Y-73348000D01*
X52041388Y-73212000D01*
X57273445Y-73212000D01*
X57361000Y-73229416D01*
X57448555Y-73212000D01*
X57448556Y-73212000D01*
X57707870Y-73160419D01*
X58001933Y-72963933D01*
X58051531Y-72889704D01*
X65857236Y-65084000D01*
X70962765Y-65084000D01*
X71966000Y-66087236D01*
X71966000Y-66087236D01*
G37*
X71966000Y-66087236D02*
X71966001Y-66246264D01*
X71245440Y-66966824D01*
X71245440Y-66309000D01*
X71177126Y-65965565D01*
X70982586Y-65674414D01*
X70691435Y-65479874D01*
X70348000Y-65411560D01*
X69098000Y-65411560D01*
X68754565Y-65479874D01*
X68463414Y-65674414D01*
X68324376Y-65882500D01*
X67572056Y-65882500D01*
X67484500Y-65865084D01*
X67137629Y-65934081D01*
X67078533Y-65973568D01*
X66843567Y-66130567D01*
X66793971Y-66204793D01*
X64414294Y-68584471D01*
X64340068Y-68634067D01*
X64290472Y-68708293D01*
X64290471Y-68708294D01*
X64143582Y-68928130D01*
X64074584Y-69275000D01*
X64092001Y-69362559D01*
X64092000Y-70811764D01*
X60167765Y-74736000D01*
X56940550Y-74736000D01*
X56852999Y-74718585D01*
X56765448Y-74736000D01*
X56765444Y-74736000D01*
X56506130Y-74787581D01*
X56212067Y-74984067D01*
X56162471Y-75058293D01*
X54762294Y-76458471D01*
X54688068Y-76508067D01*
X54638472Y-76582293D01*
X54638471Y-76582294D01*
X54592319Y-76651366D01*
X54468310Y-76600000D01*
X53752750Y-76600000D01*
X53594000Y-76758750D01*
X53594000Y-77820500D01*
X53614000Y-77820500D01*
X53614000Y-78074500D01*
X53594000Y-78074500D01*
X53594000Y-79136250D01*
X53752750Y-79295000D01*
X54440001Y-79295000D01*
X54440001Y-79633925D01*
X54435435Y-79630874D01*
X54092000Y-79562560D01*
X53403297Y-79562560D01*
X53386182Y-79536946D01*
X53336586Y-79462720D01*
X53262359Y-79413124D01*
X53144236Y-79295000D01*
X53181250Y-79295000D01*
X53340000Y-79136250D01*
X53340000Y-78074500D01*
X53320000Y-78074500D01*
X53320000Y-77820500D01*
X53340000Y-77820500D01*
X53340000Y-76758750D01*
X53181250Y-76600000D01*
X52789000Y-76600000D01*
X52789000Y-76474554D01*
X52806416Y-76386999D01*
X52776737Y-76237794D01*
X52737419Y-76040130D01*
X52540933Y-75746067D01*
X52466707Y-75696471D01*
X51728997Y-74958761D01*
X51805586Y-74907586D01*
X52000126Y-74616435D01*
X52068440Y-74273000D01*
X52068440Y-73348000D01*
X52041388Y-73212000D01*
X57273445Y-73212000D01*
X57361000Y-73229416D01*
X57448555Y-73212000D01*
X57448556Y-73212000D01*
X57707870Y-73160419D01*
X58001933Y-72963933D01*
X58051531Y-72889704D01*
X65857236Y-65084000D01*
X70962765Y-65084000D01*
X71966000Y-66087236D01*
M02*
