%TF.GenerationSoftware,KiCad,Pcbnew,5.0.2-bee76a0~70~ubuntu18.04.1*%
%TF.CreationDate,2019-03-20T00:35:03+07:00*%
%TF.ProjectId,Display,44697370-6c61-4792-9e6b-696361645f70,rev?*%
%TF.SameCoordinates,PX1036640PY112a880*%
%TF.FileFunction,Legend,Bot*%
%TF.FilePolarity,Positive*%
%FSLAX46Y46*%
G04 Gerber Fmt 4.6, Leading zero omitted, Abs format (unit mm)*
G04 Created by KiCad (PCBNEW 5.0.2-bee76a0~70~ubuntu18.04.1) date Wed 20 Mar 2019 12:35:03 AM +07*
%MOMM*%
%LPD*%
G01*
G04 APERTURE LIST*
%ADD10C,0.120000*%
%ADD11C,0.150000*%
G04 APERTURE END LIST*
D10*
X22757000Y-20447000D02*
X25417000Y-20447000D01*
X22757000Y-48447000D02*
X22757000Y-20447000D01*
X25417000Y-48447000D02*
X25417000Y-20447000D01*
X22757000Y-48447000D02*
X25417000Y-48447000D01*
X22757000Y-49717000D02*
X22757000Y-51047000D01*
X22757000Y-51047000D02*
X24087000Y-51047000D01*
X48157000Y-48447000D02*
X48157000Y-20447000D01*
X48157000Y-51047000D02*
X49487000Y-51047000D01*
X50817000Y-48447000D02*
X50817000Y-20447000D01*
X48157000Y-20447000D02*
X50817000Y-20447000D01*
X48157000Y-48447000D02*
X50817000Y-48447000D01*
X48157000Y-49717000D02*
X48157000Y-51047000D01*
D11*
X24848904Y-51499380D02*
X24848904Y-52308904D01*
X24801285Y-52404142D01*
X24753666Y-52451761D01*
X24658428Y-52499380D01*
X24467952Y-52499380D01*
X24372714Y-52451761D01*
X24325095Y-52404142D01*
X24277476Y-52308904D01*
X24277476Y-51499380D01*
X23277476Y-52499380D02*
X23848904Y-52499380D01*
X23563190Y-52499380D02*
X23563190Y-51499380D01*
X23658428Y-51642238D01*
X23753666Y-51737476D01*
X23848904Y-51785095D01*
M02*
