%TF.GenerationSoftware,KiCad,Pcbnew,5.0.2-bee76a0~70~ubuntu18.04.1*%
%TF.CreationDate,2019-03-20T00:35:03+07:00*%
%TF.ProjectId,Display,44697370-6c61-4792-9e6b-696361645f70,rev?*%
%TF.SameCoordinates,PX1036640PY112a880*%
%TF.FileFunction,Copper,L2,Bot*%
%TF.FilePolarity,Positive*%
%FSLAX46Y46*%
G04 Gerber Fmt 4.6, Leading zero omitted, Abs format (unit mm)*
G04 Created by KiCad (PCBNEW 5.0.2-bee76a0~70~ubuntu18.04.1) date Wed 20 Mar 2019 12:35:03 AM +07*
%MOMM*%
%LPD*%
G01*
G04 APERTURE LIST*
%ADD10R,1.700000X1.700000*%
%ADD11O,1.700000X1.700000*%
%ADD12C,1.700000*%
%ADD13O,2.500000X3.000000*%
%ADD14C,0.800000*%
%ADD15C,0.508000*%
%ADD16C,0.254000*%
G04 APERTURE END LIST*
D10*
X24087000Y-49717000D03*
D11*
X24087000Y-47177000D03*
X24087000Y-44637000D03*
X24087000Y-42097000D03*
X24087000Y-39557000D03*
X24087000Y-37017000D03*
X24087000Y-34477000D03*
X24087000Y-31937000D03*
X24087000Y-29397000D03*
X24087000Y-26857000D03*
X24087000Y-24317000D03*
X24087000Y-21777000D03*
X49487000Y-42097000D03*
X49487000Y-31937000D03*
X49487000Y-44637000D03*
X49487000Y-37017000D03*
X49487000Y-34477000D03*
X49487000Y-29397000D03*
X49487000Y-39557000D03*
X49487000Y-26857000D03*
X49487000Y-21777000D03*
D10*
X49487000Y-49717000D03*
D11*
X49487000Y-47177000D03*
X49487000Y-24317000D03*
D12*
X46947000Y-21777000D03*
X44407000Y-21777000D03*
X41867000Y-21777000D03*
X47287295Y-40827000D03*
X47287295Y-38287000D03*
D10*
X39835000Y-14157000D03*
D11*
X42375000Y-14157000D03*
X44915000Y-14157000D03*
X47455000Y-14157000D03*
X49995000Y-14157000D03*
X52535000Y-14157000D03*
X55075000Y-14157000D03*
X57615000Y-14157000D03*
D13*
X40931000Y-94251000D03*
X45931000Y-94251000D03*
X40931000Y-106751000D03*
X45931000Y-106751000D03*
X29167000Y-106667000D03*
X24167000Y-106667000D03*
X29167000Y-94167000D03*
X24167000Y-94167000D03*
X10000000Y-94167000D03*
X15000000Y-94167000D03*
X10000000Y-106667000D03*
X15000000Y-106667000D03*
X63203000Y-52500000D03*
X58203000Y-52500000D03*
X63203000Y-40000000D03*
X58203000Y-40000000D03*
X35343000Y-40000000D03*
X40343000Y-40000000D03*
X35343000Y-52500000D03*
X40343000Y-52500000D03*
X62314000Y-106794000D03*
X57314000Y-106794000D03*
X62314000Y-94294000D03*
X57314000Y-94294000D03*
D11*
X86270000Y-77059000D03*
X86270000Y-79599000D03*
X86270000Y-82139000D03*
X86270000Y-84679000D03*
X86270000Y-87219000D03*
X86270000Y-89759000D03*
X86270000Y-92299000D03*
X86270000Y-94839000D03*
X86270000Y-97379000D03*
X86270000Y-99919000D03*
X86270000Y-102459000D03*
D10*
X86270000Y-104999000D03*
D14*
X54821000Y-73720000D03*
X78570000Y-42605000D03*
X29838500Y-75407500D03*
X41994000Y-83118000D03*
X32342000Y-68132000D03*
X39835000Y-80832000D03*
X72220000Y-74101000D03*
X67013000Y-74101000D03*
X63119000Y-86185000D03*
X28024000Y-85785000D03*
X47963000Y-89849000D03*
X75649000Y-94929000D03*
X53467000Y-82629000D03*
X55626000Y-84788000D03*
X43070500Y-77947500D03*
X38608000Y-73810500D03*
X36025000Y-70672000D03*
D15*
X48284919Y-47177000D02*
X49487000Y-47177000D01*
X54821000Y-73720000D02*
X54821000Y-61401000D01*
X46439000Y-53019000D02*
X46439000Y-47177000D01*
X54821000Y-61401000D02*
X46439000Y-53019000D01*
X46439000Y-47177000D02*
X48284919Y-47177000D01*
X62314000Y-106794000D02*
X78506000Y-106794000D01*
X82841000Y-102459000D02*
X86270000Y-102459000D01*
X78506000Y-106794000D02*
X82841000Y-102459000D01*
X43361000Y-47177000D02*
X46439000Y-47177000D01*
X40343000Y-40000000D02*
X40343000Y-44159000D01*
X40343000Y-44159000D02*
X43361000Y-47177000D01*
X78570000Y-42605000D02*
X70605000Y-42605000D01*
X68000000Y-40000000D02*
X63203000Y-40000000D01*
X70605000Y-42605000D02*
X68000000Y-40000000D01*
X55075000Y-12954919D02*
X55075000Y-14157000D01*
X56920919Y-11109000D02*
X55075000Y-12954919D01*
X59647000Y-11109000D02*
X56920919Y-11109000D01*
X63203000Y-40000000D02*
X63203000Y-14665000D01*
X63203000Y-14665000D02*
X59647000Y-11109000D01*
X30404185Y-75407500D02*
X38114685Y-83118000D01*
X29838500Y-75407500D02*
X30404185Y-75407500D01*
X38114685Y-83118000D02*
X41994000Y-83118000D01*
X41994000Y-83118000D02*
X41994000Y-83118000D01*
X50689081Y-42097000D02*
X52916000Y-39870081D01*
X49487000Y-42097000D02*
X50689081Y-42097000D01*
X52916000Y-39870081D02*
X52916000Y-22412000D01*
X57615000Y-17713000D02*
X57615000Y-14157000D01*
X52916000Y-22412000D02*
X57615000Y-17713000D01*
X32342000Y-68132000D02*
X32342000Y-73339000D01*
X32342000Y-73339000D02*
X39835000Y-80832000D01*
X39835000Y-80832000D02*
X39835000Y-80832000D01*
X72220000Y-74101000D02*
X71654315Y-74101000D01*
X71654315Y-74101000D02*
X67013000Y-74101000D01*
X67013000Y-74101000D02*
X67013000Y-74101000D01*
X70442000Y-49717000D02*
X49487000Y-49717000D01*
X88476000Y-67751000D02*
X70442000Y-49717000D01*
X88476000Y-104151000D02*
X88476000Y-103983000D01*
X87628000Y-104999000D02*
X88476000Y-104151000D01*
X86270000Y-104999000D02*
X87628000Y-104999000D01*
X88476000Y-103983000D02*
X88476000Y-67751000D01*
X24087000Y-55051000D02*
X24087000Y-49717000D01*
X59901000Y-90865000D02*
X24087000Y-55051000D01*
X64600000Y-90865000D02*
X59901000Y-90865000D01*
X85067919Y-99919000D02*
X73654000Y-99919000D01*
X86270000Y-99919000D02*
X85067919Y-99919000D01*
X73654000Y-99919000D02*
X64600000Y-90865000D01*
X27262000Y-48828000D02*
X25611000Y-47177000D01*
X25611000Y-47177000D02*
X24087000Y-47177000D01*
X27262000Y-53781000D02*
X27262000Y-48828000D01*
X64473000Y-88833000D02*
X62314000Y-88833000D01*
X62314000Y-88833000D02*
X27262000Y-53781000D01*
X73019000Y-97379000D02*
X71368000Y-95728000D01*
X86270000Y-97379000D02*
X73019000Y-97379000D01*
X71368000Y-95728000D02*
X64473000Y-88833000D01*
X68072000Y-86185000D02*
X63119000Y-86185000D01*
X63119000Y-86185000D02*
X63119000Y-86185000D01*
X68072000Y-86185000D02*
X79140000Y-86185000D01*
X82714000Y-89759000D02*
X86270000Y-89759000D01*
X79140000Y-86185000D02*
X82714000Y-89759000D01*
X28024000Y-85785000D02*
X43899000Y-85785000D01*
X43899000Y-85785000D02*
X47963000Y-89849000D01*
X47963000Y-89849000D02*
X47963000Y-89849000D01*
X82841000Y-92299000D02*
X86270000Y-92299000D01*
X75649000Y-94929000D02*
X80211000Y-94929000D01*
X80211000Y-94929000D02*
X82841000Y-92299000D01*
X53467000Y-82629000D02*
X53866999Y-83028999D01*
X53866999Y-83028999D02*
X55626000Y-84788000D01*
X55626000Y-84788000D02*
X55626000Y-84788000D01*
X42504815Y-77947500D02*
X38608000Y-74050685D01*
X43070500Y-77947500D02*
X42504815Y-77947500D01*
X38608000Y-74050685D02*
X38608000Y-73739000D01*
X33000000Y-40000000D02*
X35343000Y-40000000D01*
X24087000Y-37017000D02*
X30017000Y-37017000D01*
X30017000Y-37017000D02*
X33000000Y-40000000D01*
X55556000Y-94294000D02*
X36025000Y-74763000D01*
X57314000Y-94294000D02*
X55556000Y-94294000D01*
X36025000Y-74763000D02*
X36025000Y-70672000D01*
X36025000Y-70672000D02*
X36025000Y-70672000D01*
X49487000Y-29397000D02*
X47963000Y-29397000D01*
X47963000Y-29397000D02*
X45296000Y-26730000D01*
X45296000Y-26730000D02*
X38946000Y-26730000D01*
X38946000Y-26730000D02*
X37295000Y-25079000D01*
X37295000Y-25079000D02*
X37295000Y-19364000D01*
X39835000Y-16824000D02*
X39835000Y-14157000D01*
X37295000Y-19364000D02*
X39835000Y-16824000D01*
X48284919Y-26857000D02*
X47014919Y-25587000D01*
X49487000Y-26857000D02*
X48284919Y-26857000D01*
X47014919Y-25587000D02*
X39962000Y-25587000D01*
X39962000Y-25587000D02*
X38438000Y-24063000D01*
X38438000Y-24063000D02*
X38438000Y-20126000D01*
X38438000Y-20126000D02*
X39835000Y-18729000D01*
X39835000Y-18729000D02*
X40470000Y-18729000D01*
X42375000Y-16824000D02*
X42375000Y-14157000D01*
X40470000Y-18729000D02*
X42375000Y-16824000D01*
X49487000Y-21777000D02*
X49487000Y-19364000D01*
X47455000Y-17332000D02*
X47455000Y-14157000D01*
X49487000Y-19364000D02*
X47455000Y-17332000D01*
X44915000Y-17840000D02*
X44915000Y-14157000D01*
X41105000Y-24317000D02*
X39581000Y-22793000D01*
X49487000Y-24317000D02*
X41105000Y-24317000D01*
X39581000Y-22793000D02*
X39581000Y-20761000D01*
X39581000Y-20761000D02*
X40470000Y-19872000D01*
X40470000Y-19872000D02*
X42883000Y-19872000D01*
X42883000Y-19872000D02*
X44915000Y-17840000D01*
D16*
G36*
X89290000Y-67369081D02*
X89116933Y-67110067D01*
X89042707Y-67060471D01*
X74587395Y-52605159D01*
X85015000Y-52605159D01*
X85015000Y-53394841D01*
X85317199Y-54124412D01*
X85875588Y-54682801D01*
X86605159Y-54985000D01*
X87394841Y-54985000D01*
X88124412Y-54682801D01*
X88682801Y-54124412D01*
X88985000Y-53394841D01*
X88985000Y-52605159D01*
X88682801Y-51875588D01*
X88124412Y-51317199D01*
X87394841Y-51015000D01*
X86605159Y-51015000D01*
X85875588Y-51317199D01*
X85317199Y-51875588D01*
X85015000Y-52605159D01*
X74587395Y-52605159D01*
X71132531Y-49150296D01*
X71082933Y-49076067D01*
X70788870Y-48879581D01*
X70529556Y-48828000D01*
X70529555Y-48828000D01*
X70442000Y-48810584D01*
X70354445Y-48828000D01*
X50976682Y-48828000D01*
X50935157Y-48619235D01*
X50794809Y-48409191D01*
X50584765Y-48268843D01*
X50481292Y-48248261D01*
X50758645Y-47943924D01*
X50928476Y-47533890D01*
X50807155Y-47304000D01*
X49614000Y-47304000D01*
X49614000Y-47324000D01*
X49360000Y-47324000D01*
X49360000Y-47304000D01*
X48166845Y-47304000D01*
X48045524Y-47533890D01*
X48215355Y-47943924D01*
X48492708Y-48248261D01*
X48389235Y-48268843D01*
X48179191Y-48409191D01*
X48038843Y-48619235D01*
X47989560Y-48867000D01*
X47989560Y-50567000D01*
X48038843Y-50814765D01*
X48179191Y-51024809D01*
X48389235Y-51165157D01*
X48637000Y-51214440D01*
X50337000Y-51214440D01*
X50584765Y-51165157D01*
X50794809Y-51024809D01*
X50935157Y-50814765D01*
X50976682Y-50606000D01*
X57270511Y-50606000D01*
X56843991Y-50890991D01*
X56427369Y-51514510D01*
X56318000Y-52064345D01*
X56318000Y-52935654D01*
X56427369Y-53485489D01*
X56843991Y-54109009D01*
X57467510Y-54525631D01*
X58203000Y-54671929D01*
X58938489Y-54525631D01*
X59562009Y-54109009D01*
X59978631Y-53485490D01*
X60088000Y-52935655D01*
X60088000Y-52924040D01*
X61317885Y-52924040D01*
X61527983Y-53632194D01*
X61993087Y-54206042D01*
X62642389Y-54558221D01*
X62783355Y-54587695D01*
X63076000Y-54471572D01*
X63076000Y-52627000D01*
X63330000Y-52627000D01*
X63330000Y-54471572D01*
X63622645Y-54587695D01*
X63763611Y-54558221D01*
X64412913Y-54206042D01*
X64878017Y-53632194D01*
X65088115Y-52924040D01*
X64933382Y-52627000D01*
X63330000Y-52627000D01*
X63076000Y-52627000D01*
X61472618Y-52627000D01*
X61317885Y-52924040D01*
X60088000Y-52924040D01*
X60088000Y-52064346D01*
X59978631Y-51514510D01*
X59562009Y-50890991D01*
X59135490Y-50606000D01*
X62339620Y-50606000D01*
X61993087Y-50793958D01*
X61527983Y-51367806D01*
X61317885Y-52075960D01*
X61472618Y-52373000D01*
X63076000Y-52373000D01*
X63076000Y-52353000D01*
X63330000Y-52353000D01*
X63330000Y-52373000D01*
X64933382Y-52373000D01*
X65088115Y-52075960D01*
X64878017Y-51367806D01*
X64412913Y-50793958D01*
X64066380Y-50606000D01*
X70073765Y-50606000D01*
X87587001Y-68119237D01*
X87587001Y-76357102D01*
X87340625Y-75988375D01*
X86849418Y-75660161D01*
X86416256Y-75574000D01*
X86123744Y-75574000D01*
X85690582Y-75660161D01*
X85199375Y-75988375D01*
X84871161Y-76479582D01*
X84755908Y-77059000D01*
X84871161Y-77638418D01*
X85199375Y-78129625D01*
X85497761Y-78329000D01*
X85199375Y-78528375D01*
X84871161Y-79019582D01*
X84755908Y-79599000D01*
X84871161Y-80178418D01*
X85199375Y-80669625D01*
X85497761Y-80869000D01*
X85199375Y-81068375D01*
X84871161Y-81559582D01*
X84755908Y-82139000D01*
X84871161Y-82718418D01*
X85199375Y-83209625D01*
X85497761Y-83409000D01*
X85199375Y-83608375D01*
X84871161Y-84099582D01*
X84755908Y-84679000D01*
X84871161Y-85258418D01*
X85199375Y-85749625D01*
X85497761Y-85949000D01*
X85199375Y-86148375D01*
X84871161Y-86639582D01*
X84755908Y-87219000D01*
X84871161Y-87798418D01*
X85199375Y-88289625D01*
X85497761Y-88489000D01*
X85199375Y-88688375D01*
X85078017Y-88870000D01*
X83082236Y-88870000D01*
X79830531Y-85618296D01*
X79780933Y-85544067D01*
X79486870Y-85347581D01*
X79227556Y-85296000D01*
X79227555Y-85296000D01*
X79140000Y-85278584D01*
X79052445Y-85296000D01*
X63677350Y-85296000D01*
X63324874Y-85150000D01*
X62913126Y-85150000D01*
X62532720Y-85307569D01*
X62241569Y-85598720D01*
X62084000Y-85979126D01*
X62084000Y-86390874D01*
X62241569Y-86771280D01*
X62532720Y-87062431D01*
X62913126Y-87220000D01*
X63324874Y-87220000D01*
X63677350Y-87074000D01*
X78771765Y-87074000D01*
X82023471Y-90325707D01*
X82073067Y-90399933D01*
X82367130Y-90596419D01*
X82626444Y-90648000D01*
X82626448Y-90648000D01*
X82713999Y-90665415D01*
X82801550Y-90648000D01*
X85078017Y-90648000D01*
X85199375Y-90829625D01*
X85497761Y-91029000D01*
X85199375Y-91228375D01*
X85078017Y-91410000D01*
X82928556Y-91410000D01*
X82841000Y-91392584D01*
X82494129Y-91461581D01*
X82427752Y-91505933D01*
X82200067Y-91658067D01*
X82150471Y-91732293D01*
X79842765Y-94040000D01*
X76207350Y-94040000D01*
X75854874Y-93894000D01*
X75443126Y-93894000D01*
X75062720Y-94051569D01*
X74771569Y-94342720D01*
X74614000Y-94723126D01*
X74614000Y-95134874D01*
X74771569Y-95515280D01*
X75062720Y-95806431D01*
X75443126Y-95964000D01*
X75854874Y-95964000D01*
X76207350Y-95818000D01*
X80123445Y-95818000D01*
X80211000Y-95835416D01*
X80298555Y-95818000D01*
X80298556Y-95818000D01*
X80557870Y-95766419D01*
X80851933Y-95569933D01*
X80901531Y-95495704D01*
X83209236Y-93188000D01*
X85078017Y-93188000D01*
X85199375Y-93369625D01*
X85497761Y-93569000D01*
X85199375Y-93768375D01*
X84871161Y-94259582D01*
X84755908Y-94839000D01*
X84871161Y-95418418D01*
X85199375Y-95909625D01*
X85497761Y-96109000D01*
X85199375Y-96308375D01*
X85078017Y-96490000D01*
X73387236Y-96490000D01*
X72058531Y-95161296D01*
X72058529Y-95161293D01*
X65163531Y-88266296D01*
X65113933Y-88192067D01*
X64819870Y-87995581D01*
X64560556Y-87944000D01*
X64560555Y-87944000D01*
X64473000Y-87926584D01*
X64385445Y-87944000D01*
X62682236Y-87944000D01*
X48633362Y-73895126D01*
X65978000Y-73895126D01*
X65978000Y-74306874D01*
X66135569Y-74687280D01*
X66426720Y-74978431D01*
X66807126Y-75136000D01*
X67218874Y-75136000D01*
X67571350Y-74990000D01*
X71661650Y-74990000D01*
X72014126Y-75136000D01*
X72425874Y-75136000D01*
X72806280Y-74978431D01*
X73097431Y-74687280D01*
X73255000Y-74306874D01*
X73255000Y-73895126D01*
X73097431Y-73514720D01*
X72806280Y-73223569D01*
X72425874Y-73066000D01*
X72014126Y-73066000D01*
X71661650Y-73212000D01*
X67571350Y-73212000D01*
X67218874Y-73066000D01*
X66807126Y-73066000D01*
X66426720Y-73223569D01*
X66135569Y-73514720D01*
X65978000Y-73895126D01*
X48633362Y-73895126D01*
X28151000Y-53412765D01*
X28151000Y-52064345D01*
X33458000Y-52064345D01*
X33458000Y-52935654D01*
X33567369Y-53485489D01*
X33983991Y-54109009D01*
X34607510Y-54525631D01*
X35343000Y-54671929D01*
X36078489Y-54525631D01*
X36702009Y-54109009D01*
X37118631Y-53485490D01*
X37228000Y-52935655D01*
X37228000Y-52924040D01*
X38457885Y-52924040D01*
X38667983Y-53632194D01*
X39133087Y-54206042D01*
X39782389Y-54558221D01*
X39923355Y-54587695D01*
X40216000Y-54471572D01*
X40216000Y-52627000D01*
X40470000Y-52627000D01*
X40470000Y-54471572D01*
X40762645Y-54587695D01*
X40903611Y-54558221D01*
X41552913Y-54206042D01*
X42018017Y-53632194D01*
X42228115Y-52924040D01*
X42073382Y-52627000D01*
X40470000Y-52627000D01*
X40216000Y-52627000D01*
X38612618Y-52627000D01*
X38457885Y-52924040D01*
X37228000Y-52924040D01*
X37228000Y-52075960D01*
X38457885Y-52075960D01*
X38612618Y-52373000D01*
X40216000Y-52373000D01*
X40216000Y-50528428D01*
X40470000Y-50528428D01*
X40470000Y-52373000D01*
X42073382Y-52373000D01*
X42228115Y-52075960D01*
X42018017Y-51367806D01*
X41552913Y-50793958D01*
X40903611Y-50441779D01*
X40762645Y-50412305D01*
X40470000Y-50528428D01*
X40216000Y-50528428D01*
X39923355Y-50412305D01*
X39782389Y-50441779D01*
X39133087Y-50793958D01*
X38667983Y-51367806D01*
X38457885Y-52075960D01*
X37228000Y-52075960D01*
X37228000Y-52064346D01*
X37118631Y-51514510D01*
X36702009Y-50890991D01*
X36078490Y-50474369D01*
X35343000Y-50328071D01*
X34607511Y-50474369D01*
X33983991Y-50890991D01*
X33567369Y-51514510D01*
X33458000Y-52064345D01*
X28151000Y-52064345D01*
X28151000Y-48915556D01*
X28168416Y-48828000D01*
X28099419Y-48481129D01*
X27952529Y-48261293D01*
X27902933Y-48187067D01*
X27828707Y-48137471D01*
X26301531Y-46610296D01*
X26251933Y-46536067D01*
X25957870Y-46339581D01*
X25698556Y-46288000D01*
X25698555Y-46288000D01*
X25611000Y-46270584D01*
X25523445Y-46288000D01*
X25278983Y-46288000D01*
X25157625Y-46106375D01*
X24859239Y-45907000D01*
X25157625Y-45707625D01*
X25485839Y-45216418D01*
X25601092Y-44637000D01*
X25485839Y-44057582D01*
X25157625Y-43566375D01*
X24859239Y-43367000D01*
X25157625Y-43167625D01*
X25485839Y-42676418D01*
X25601092Y-42097000D01*
X25485839Y-41517582D01*
X25157625Y-41026375D01*
X24859239Y-40827000D01*
X25157625Y-40627625D01*
X25485839Y-40136418D01*
X25601092Y-39557000D01*
X25485839Y-38977582D01*
X25157625Y-38486375D01*
X24859239Y-38287000D01*
X25157625Y-38087625D01*
X25278983Y-37906000D01*
X29648765Y-37906000D01*
X32309471Y-40566707D01*
X32359067Y-40640933D01*
X32653130Y-40837419D01*
X32912444Y-40889000D01*
X32999999Y-40906416D01*
X33087554Y-40889000D01*
X33548176Y-40889000D01*
X33567369Y-40985489D01*
X33983991Y-41609009D01*
X34607510Y-42025631D01*
X35343000Y-42171929D01*
X36078489Y-42025631D01*
X36702009Y-41609009D01*
X37118631Y-40985490D01*
X37228000Y-40435655D01*
X37228000Y-40424040D01*
X38457885Y-40424040D01*
X38667983Y-41132194D01*
X39133087Y-41706042D01*
X39782389Y-42058221D01*
X39923355Y-42087695D01*
X40216000Y-41971572D01*
X40216000Y-40127000D01*
X40470000Y-40127000D01*
X40470000Y-41971572D01*
X40762645Y-42087695D01*
X40903611Y-42058221D01*
X41552913Y-41706042D01*
X42018017Y-41132194D01*
X42228115Y-40424040D01*
X42073382Y-40127000D01*
X40470000Y-40127000D01*
X40216000Y-40127000D01*
X38612618Y-40127000D01*
X38457885Y-40424040D01*
X37228000Y-40424040D01*
X37228000Y-39575960D01*
X38457885Y-39575960D01*
X38612618Y-39873000D01*
X40216000Y-39873000D01*
X40216000Y-38028428D01*
X40470000Y-38028428D01*
X40470000Y-39873000D01*
X42073382Y-39873000D01*
X42228115Y-39575960D01*
X42018017Y-38867806D01*
X41552913Y-38293958D01*
X40903611Y-37941779D01*
X40762645Y-37912305D01*
X40470000Y-38028428D01*
X40216000Y-38028428D01*
X39923355Y-37912305D01*
X39782389Y-37941779D01*
X39133087Y-38293958D01*
X38667983Y-38867806D01*
X38457885Y-39575960D01*
X37228000Y-39575960D01*
X37228000Y-39564346D01*
X37118631Y-39014510D01*
X36702009Y-38390991D01*
X36078490Y-37974369D01*
X35343000Y-37828071D01*
X34607511Y-37974369D01*
X33983991Y-38390991D01*
X33567369Y-39014510D01*
X33548176Y-39111000D01*
X33368236Y-39111000D01*
X30707531Y-36450296D01*
X30657933Y-36376067D01*
X30363870Y-36179581D01*
X30104556Y-36128000D01*
X30104555Y-36128000D01*
X30017000Y-36110584D01*
X29929445Y-36128000D01*
X25278983Y-36128000D01*
X25157625Y-35946375D01*
X24859239Y-35747000D01*
X25157625Y-35547625D01*
X25485839Y-35056418D01*
X25601092Y-34477000D01*
X25485839Y-33897582D01*
X25157625Y-33406375D01*
X24859239Y-33207000D01*
X25157625Y-33007625D01*
X25485839Y-32516418D01*
X25601092Y-31937000D01*
X25485839Y-31357582D01*
X25157625Y-30866375D01*
X24859239Y-30667000D01*
X25157625Y-30467625D01*
X25485839Y-29976418D01*
X25601092Y-29397000D01*
X25485839Y-28817582D01*
X25157625Y-28326375D01*
X24859239Y-28127000D01*
X25157625Y-27927625D01*
X25485839Y-27436418D01*
X25601092Y-26857000D01*
X25485839Y-26277582D01*
X25157625Y-25786375D01*
X24859239Y-25587000D01*
X25157625Y-25387625D01*
X25485839Y-24896418D01*
X25601092Y-24317000D01*
X25485839Y-23737582D01*
X25157625Y-23246375D01*
X24859239Y-23047000D01*
X25157625Y-22847625D01*
X25485839Y-22356418D01*
X25601092Y-21777000D01*
X25485839Y-21197582D01*
X25157625Y-20706375D01*
X24666418Y-20378161D01*
X24233256Y-20292000D01*
X23940744Y-20292000D01*
X23507582Y-20378161D01*
X23016375Y-20706375D01*
X22688161Y-21197582D01*
X22572908Y-21777000D01*
X22688161Y-22356418D01*
X23016375Y-22847625D01*
X23314761Y-23047000D01*
X23016375Y-23246375D01*
X22688161Y-23737582D01*
X22572908Y-24317000D01*
X22688161Y-24896418D01*
X23016375Y-25387625D01*
X23314761Y-25587000D01*
X23016375Y-25786375D01*
X22688161Y-26277582D01*
X22572908Y-26857000D01*
X22688161Y-27436418D01*
X23016375Y-27927625D01*
X23314761Y-28127000D01*
X23016375Y-28326375D01*
X22688161Y-28817582D01*
X22572908Y-29397000D01*
X22688161Y-29976418D01*
X23016375Y-30467625D01*
X23314761Y-30667000D01*
X23016375Y-30866375D01*
X22688161Y-31357582D01*
X22572908Y-31937000D01*
X22688161Y-32516418D01*
X23016375Y-33007625D01*
X23314761Y-33207000D01*
X23016375Y-33406375D01*
X22688161Y-33897582D01*
X22572908Y-34477000D01*
X22688161Y-35056418D01*
X23016375Y-35547625D01*
X23314761Y-35747000D01*
X23016375Y-35946375D01*
X22688161Y-36437582D01*
X22572908Y-37017000D01*
X22688161Y-37596418D01*
X23016375Y-38087625D01*
X23314761Y-38287000D01*
X23016375Y-38486375D01*
X22688161Y-38977582D01*
X22572908Y-39557000D01*
X22688161Y-40136418D01*
X23016375Y-40627625D01*
X23314761Y-40827000D01*
X23016375Y-41026375D01*
X22688161Y-41517582D01*
X22572908Y-42097000D01*
X22688161Y-42676418D01*
X23016375Y-43167625D01*
X23314761Y-43367000D01*
X23016375Y-43566375D01*
X22688161Y-44057582D01*
X22572908Y-44637000D01*
X22688161Y-45216418D01*
X23016375Y-45707625D01*
X23314761Y-45907000D01*
X23016375Y-46106375D01*
X22688161Y-46597582D01*
X22572908Y-47177000D01*
X22688161Y-47756418D01*
X23016375Y-48247625D01*
X23034619Y-48259816D01*
X22989235Y-48268843D01*
X22779191Y-48409191D01*
X22638843Y-48619235D01*
X22589560Y-48867000D01*
X22589560Y-50567000D01*
X22638843Y-50814765D01*
X22779191Y-51024809D01*
X22989235Y-51165157D01*
X23198001Y-51206683D01*
X23198000Y-54963445D01*
X23180584Y-55051000D01*
X23198000Y-55138555D01*
X23249581Y-55397869D01*
X23446067Y-55691933D01*
X23520296Y-55741531D01*
X59210470Y-91431706D01*
X59260067Y-91505933D01*
X59334293Y-91555529D01*
X59554129Y-91702419D01*
X59901000Y-91771416D01*
X59988556Y-91754000D01*
X64231765Y-91754000D01*
X72963471Y-100485707D01*
X73013067Y-100559933D01*
X73087293Y-100609529D01*
X73307129Y-100756419D01*
X73654000Y-100825416D01*
X73741556Y-100808000D01*
X85078017Y-100808000D01*
X85199375Y-100989625D01*
X85518478Y-101202843D01*
X85388642Y-101263817D01*
X84998355Y-101692076D01*
X84828524Y-102102110D01*
X84949845Y-102332000D01*
X86143000Y-102332000D01*
X86143000Y-102312000D01*
X86397000Y-102312000D01*
X86397000Y-102332000D01*
X86417000Y-102332000D01*
X86417000Y-102586000D01*
X86397000Y-102586000D01*
X86397000Y-102606000D01*
X86143000Y-102606000D01*
X86143000Y-102586000D01*
X84949845Y-102586000D01*
X84828524Y-102815890D01*
X84998355Y-103225924D01*
X85275708Y-103530261D01*
X85172235Y-103550843D01*
X84962191Y-103691191D01*
X84821843Y-103901235D01*
X84772560Y-104149000D01*
X84772560Y-105849000D01*
X84821843Y-106096765D01*
X84962191Y-106306809D01*
X85172235Y-106447157D01*
X85420000Y-106496440D01*
X87120000Y-106496440D01*
X87367765Y-106447157D01*
X87577809Y-106306809D01*
X87718157Y-106096765D01*
X87761500Y-105878861D01*
X87974870Y-105836419D01*
X88268933Y-105639933D01*
X88318531Y-105565704D01*
X89042707Y-104841529D01*
X89116933Y-104791933D01*
X89290000Y-104532919D01*
X89290000Y-112290000D01*
X710000Y-112290000D01*
X710000Y-109605159D01*
X1015000Y-109605159D01*
X1015000Y-110394841D01*
X1317199Y-111124412D01*
X1875588Y-111682801D01*
X2605159Y-111985000D01*
X3394841Y-111985000D01*
X4124412Y-111682801D01*
X4682801Y-111124412D01*
X4985000Y-110394841D01*
X4985000Y-109605159D01*
X85015000Y-109605159D01*
X85015000Y-110394841D01*
X85317199Y-111124412D01*
X85875588Y-111682801D01*
X86605159Y-111985000D01*
X87394841Y-111985000D01*
X88124412Y-111682801D01*
X88682801Y-111124412D01*
X88985000Y-110394841D01*
X88985000Y-109605159D01*
X88682801Y-108875588D01*
X88124412Y-108317199D01*
X87394841Y-108015000D01*
X86605159Y-108015000D01*
X85875588Y-108317199D01*
X85317199Y-108875588D01*
X85015000Y-109605159D01*
X4985000Y-109605159D01*
X4682801Y-108875588D01*
X4124412Y-108317199D01*
X3394841Y-108015000D01*
X2605159Y-108015000D01*
X1875588Y-108317199D01*
X1317199Y-108875588D01*
X1015000Y-109605159D01*
X710000Y-109605159D01*
X710000Y-106231345D01*
X8115000Y-106231345D01*
X8115000Y-107102654D01*
X8224369Y-107652489D01*
X8640991Y-108276009D01*
X9264510Y-108692631D01*
X10000000Y-108838929D01*
X10735489Y-108692631D01*
X11359009Y-108276009D01*
X11775631Y-107652490D01*
X11885000Y-107102655D01*
X11885000Y-107091040D01*
X13114885Y-107091040D01*
X13324983Y-107799194D01*
X13790087Y-108373042D01*
X14439389Y-108725221D01*
X14580355Y-108754695D01*
X14873000Y-108638572D01*
X14873000Y-106794000D01*
X15127000Y-106794000D01*
X15127000Y-108638572D01*
X15419645Y-108754695D01*
X15560611Y-108725221D01*
X16209913Y-108373042D01*
X16675017Y-107799194D01*
X16885115Y-107091040D01*
X16730382Y-106794000D01*
X15127000Y-106794000D01*
X14873000Y-106794000D01*
X13269618Y-106794000D01*
X13114885Y-107091040D01*
X11885000Y-107091040D01*
X11885000Y-106242960D01*
X13114885Y-106242960D01*
X13269618Y-106540000D01*
X14873000Y-106540000D01*
X14873000Y-104695428D01*
X15127000Y-104695428D01*
X15127000Y-106540000D01*
X16730382Y-106540000D01*
X16885115Y-106242960D01*
X16881670Y-106231345D01*
X22282000Y-106231345D01*
X22282000Y-107102654D01*
X22391369Y-107652489D01*
X22807991Y-108276009D01*
X23431510Y-108692631D01*
X24167000Y-108838929D01*
X24902489Y-108692631D01*
X25526009Y-108276009D01*
X25942631Y-107652490D01*
X26052000Y-107102655D01*
X26052000Y-107091040D01*
X27281885Y-107091040D01*
X27491983Y-107799194D01*
X27957087Y-108373042D01*
X28606389Y-108725221D01*
X28747355Y-108754695D01*
X29040000Y-108638572D01*
X29040000Y-106794000D01*
X29294000Y-106794000D01*
X29294000Y-108638572D01*
X29586645Y-108754695D01*
X29727611Y-108725221D01*
X30376913Y-108373042D01*
X30842017Y-107799194D01*
X31052115Y-107091040D01*
X30897382Y-106794000D01*
X29294000Y-106794000D01*
X29040000Y-106794000D01*
X27436618Y-106794000D01*
X27281885Y-107091040D01*
X26052000Y-107091040D01*
X26052000Y-106242960D01*
X27281885Y-106242960D01*
X27436618Y-106540000D01*
X29040000Y-106540000D01*
X29040000Y-104695428D01*
X29294000Y-104695428D01*
X29294000Y-106540000D01*
X30897382Y-106540000D01*
X31014408Y-106315345D01*
X39046000Y-106315345D01*
X39046000Y-107186654D01*
X39155369Y-107736489D01*
X39571991Y-108360009D01*
X40195510Y-108776631D01*
X40931000Y-108922929D01*
X41666489Y-108776631D01*
X42290009Y-108360009D01*
X42706631Y-107736490D01*
X42816000Y-107186655D01*
X42816000Y-107175040D01*
X44045885Y-107175040D01*
X44255983Y-107883194D01*
X44721087Y-108457042D01*
X45370389Y-108809221D01*
X45511355Y-108838695D01*
X45804000Y-108722572D01*
X45804000Y-106878000D01*
X46058000Y-106878000D01*
X46058000Y-108722572D01*
X46350645Y-108838695D01*
X46491611Y-108809221D01*
X47140913Y-108457042D01*
X47606017Y-107883194D01*
X47816115Y-107175040D01*
X47661382Y-106878000D01*
X46058000Y-106878000D01*
X45804000Y-106878000D01*
X44200618Y-106878000D01*
X44045885Y-107175040D01*
X42816000Y-107175040D01*
X42816000Y-106326960D01*
X44045885Y-106326960D01*
X44200618Y-106624000D01*
X45804000Y-106624000D01*
X45804000Y-104779428D01*
X46058000Y-104779428D01*
X46058000Y-106624000D01*
X47661382Y-106624000D01*
X47799766Y-106358345D01*
X55429000Y-106358345D01*
X55429000Y-107229654D01*
X55538369Y-107779489D01*
X55954991Y-108403009D01*
X56578510Y-108819631D01*
X57314000Y-108965929D01*
X58049489Y-108819631D01*
X58673009Y-108403009D01*
X59089631Y-107779490D01*
X59199000Y-107229655D01*
X59199000Y-107218040D01*
X60428885Y-107218040D01*
X60638983Y-107926194D01*
X61104087Y-108500042D01*
X61753389Y-108852221D01*
X61894355Y-108881695D01*
X62187000Y-108765572D01*
X62187000Y-106921000D01*
X62441000Y-106921000D01*
X62441000Y-108765572D01*
X62733645Y-108881695D01*
X62874611Y-108852221D01*
X63523913Y-108500042D01*
X63989017Y-107926194D01*
X64199115Y-107218040D01*
X64044382Y-106921000D01*
X62441000Y-106921000D01*
X62187000Y-106921000D01*
X60583618Y-106921000D01*
X60428885Y-107218040D01*
X59199000Y-107218040D01*
X59199000Y-106369960D01*
X60428885Y-106369960D01*
X60583618Y-106667000D01*
X62187000Y-106667000D01*
X62187000Y-104822428D01*
X62441000Y-104822428D01*
X62441000Y-106667000D01*
X64044382Y-106667000D01*
X64199115Y-106369960D01*
X63989017Y-105661806D01*
X63523913Y-105087958D01*
X62874611Y-104735779D01*
X62733645Y-104706305D01*
X62441000Y-104822428D01*
X62187000Y-104822428D01*
X61894355Y-104706305D01*
X61753389Y-104735779D01*
X61104087Y-105087958D01*
X60638983Y-105661806D01*
X60428885Y-106369960D01*
X59199000Y-106369960D01*
X59199000Y-106358346D01*
X59089631Y-105808510D01*
X58673009Y-105184991D01*
X58049490Y-104768369D01*
X57314000Y-104622071D01*
X56578511Y-104768369D01*
X55954991Y-105184991D01*
X55538369Y-105808510D01*
X55429000Y-106358345D01*
X47799766Y-106358345D01*
X47816115Y-106326960D01*
X47606017Y-105618806D01*
X47140913Y-105044958D01*
X46491611Y-104692779D01*
X46350645Y-104663305D01*
X46058000Y-104779428D01*
X45804000Y-104779428D01*
X45511355Y-104663305D01*
X45370389Y-104692779D01*
X44721087Y-105044958D01*
X44255983Y-105618806D01*
X44045885Y-106326960D01*
X42816000Y-106326960D01*
X42816000Y-106315346D01*
X42706631Y-105765510D01*
X42290009Y-105141991D01*
X41666490Y-104725369D01*
X40931000Y-104579071D01*
X40195511Y-104725369D01*
X39571991Y-105141991D01*
X39155369Y-105765510D01*
X39046000Y-106315345D01*
X31014408Y-106315345D01*
X31052115Y-106242960D01*
X30842017Y-105534806D01*
X30376913Y-104960958D01*
X29727611Y-104608779D01*
X29586645Y-104579305D01*
X29294000Y-104695428D01*
X29040000Y-104695428D01*
X28747355Y-104579305D01*
X28606389Y-104608779D01*
X27957087Y-104960958D01*
X27491983Y-105534806D01*
X27281885Y-106242960D01*
X26052000Y-106242960D01*
X26052000Y-106231346D01*
X25942631Y-105681510D01*
X25526009Y-105057991D01*
X24902490Y-104641369D01*
X24167000Y-104495071D01*
X23431511Y-104641369D01*
X22807991Y-105057991D01*
X22391369Y-105681510D01*
X22282000Y-106231345D01*
X16881670Y-106231345D01*
X16675017Y-105534806D01*
X16209913Y-104960958D01*
X15560611Y-104608779D01*
X15419645Y-104579305D01*
X15127000Y-104695428D01*
X14873000Y-104695428D01*
X14580355Y-104579305D01*
X14439389Y-104608779D01*
X13790087Y-104960958D01*
X13324983Y-105534806D01*
X13114885Y-106242960D01*
X11885000Y-106242960D01*
X11885000Y-106231346D01*
X11775631Y-105681510D01*
X11359009Y-105057991D01*
X10735490Y-104641369D01*
X10000000Y-104495071D01*
X9264511Y-104641369D01*
X8640991Y-105057991D01*
X8224369Y-105681510D01*
X8115000Y-106231345D01*
X710000Y-106231345D01*
X710000Y-93731345D01*
X8115000Y-93731345D01*
X8115000Y-94602654D01*
X8224369Y-95152489D01*
X8640991Y-95776009D01*
X9264510Y-96192631D01*
X10000000Y-96338929D01*
X10735489Y-96192631D01*
X11359009Y-95776009D01*
X11775631Y-95152490D01*
X11885000Y-94602655D01*
X11885000Y-94591040D01*
X13114885Y-94591040D01*
X13324983Y-95299194D01*
X13790087Y-95873042D01*
X14439389Y-96225221D01*
X14580355Y-96254695D01*
X14873000Y-96138572D01*
X14873000Y-94294000D01*
X15127000Y-94294000D01*
X15127000Y-96138572D01*
X15419645Y-96254695D01*
X15560611Y-96225221D01*
X16209913Y-95873042D01*
X16675017Y-95299194D01*
X16885115Y-94591040D01*
X16730382Y-94294000D01*
X15127000Y-94294000D01*
X14873000Y-94294000D01*
X13269618Y-94294000D01*
X13114885Y-94591040D01*
X11885000Y-94591040D01*
X11885000Y-93742960D01*
X13114885Y-93742960D01*
X13269618Y-94040000D01*
X14873000Y-94040000D01*
X14873000Y-92195428D01*
X15127000Y-92195428D01*
X15127000Y-94040000D01*
X16730382Y-94040000D01*
X16885115Y-93742960D01*
X16881670Y-93731345D01*
X22282000Y-93731345D01*
X22282000Y-94602654D01*
X22391369Y-95152489D01*
X22807991Y-95776009D01*
X23431510Y-96192631D01*
X24167000Y-96338929D01*
X24902489Y-96192631D01*
X25526009Y-95776009D01*
X25942631Y-95152490D01*
X26052000Y-94602655D01*
X26052000Y-94591040D01*
X27281885Y-94591040D01*
X27491983Y-95299194D01*
X27957087Y-95873042D01*
X28606389Y-96225221D01*
X28747355Y-96254695D01*
X29040000Y-96138572D01*
X29040000Y-94294000D01*
X29294000Y-94294000D01*
X29294000Y-96138572D01*
X29586645Y-96254695D01*
X29727611Y-96225221D01*
X30376913Y-95873042D01*
X30842017Y-95299194D01*
X31052115Y-94591040D01*
X30897382Y-94294000D01*
X29294000Y-94294000D01*
X29040000Y-94294000D01*
X27436618Y-94294000D01*
X27281885Y-94591040D01*
X26052000Y-94591040D01*
X26052000Y-93742960D01*
X27281885Y-93742960D01*
X27436618Y-94040000D01*
X29040000Y-94040000D01*
X29040000Y-92195428D01*
X29294000Y-92195428D01*
X29294000Y-94040000D01*
X30897382Y-94040000D01*
X31014408Y-93815345D01*
X39046000Y-93815345D01*
X39046000Y-94686654D01*
X39155369Y-95236489D01*
X39571991Y-95860009D01*
X40195510Y-96276631D01*
X40931000Y-96422929D01*
X41666489Y-96276631D01*
X42290009Y-95860009D01*
X42706631Y-95236490D01*
X42816000Y-94686655D01*
X42816000Y-94675040D01*
X44045885Y-94675040D01*
X44255983Y-95383194D01*
X44721087Y-95957042D01*
X45370389Y-96309221D01*
X45511355Y-96338695D01*
X45804000Y-96222572D01*
X45804000Y-94378000D01*
X46058000Y-94378000D01*
X46058000Y-96222572D01*
X46350645Y-96338695D01*
X46491611Y-96309221D01*
X47140913Y-95957042D01*
X47606017Y-95383194D01*
X47816115Y-94675040D01*
X47661382Y-94378000D01*
X46058000Y-94378000D01*
X45804000Y-94378000D01*
X44200618Y-94378000D01*
X44045885Y-94675040D01*
X42816000Y-94675040D01*
X42816000Y-93826960D01*
X44045885Y-93826960D01*
X44200618Y-94124000D01*
X45804000Y-94124000D01*
X45804000Y-92279428D01*
X46058000Y-92279428D01*
X46058000Y-94124000D01*
X47661382Y-94124000D01*
X47816115Y-93826960D01*
X47606017Y-93118806D01*
X47140913Y-92544958D01*
X46491611Y-92192779D01*
X46350645Y-92163305D01*
X46058000Y-92279428D01*
X45804000Y-92279428D01*
X45511355Y-92163305D01*
X45370389Y-92192779D01*
X44721087Y-92544958D01*
X44255983Y-93118806D01*
X44045885Y-93826960D01*
X42816000Y-93826960D01*
X42816000Y-93815346D01*
X42706631Y-93265510D01*
X42290009Y-92641991D01*
X41666490Y-92225369D01*
X40931000Y-92079071D01*
X40195511Y-92225369D01*
X39571991Y-92641991D01*
X39155369Y-93265510D01*
X39046000Y-93815345D01*
X31014408Y-93815345D01*
X31052115Y-93742960D01*
X30842017Y-93034806D01*
X30376913Y-92460958D01*
X29727611Y-92108779D01*
X29586645Y-92079305D01*
X29294000Y-92195428D01*
X29040000Y-92195428D01*
X28747355Y-92079305D01*
X28606389Y-92108779D01*
X27957087Y-92460958D01*
X27491983Y-93034806D01*
X27281885Y-93742960D01*
X26052000Y-93742960D01*
X26052000Y-93731346D01*
X25942631Y-93181510D01*
X25526009Y-92557991D01*
X24902490Y-92141369D01*
X24167000Y-91995071D01*
X23431511Y-92141369D01*
X22807991Y-92557991D01*
X22391369Y-93181510D01*
X22282000Y-93731345D01*
X16881670Y-93731345D01*
X16675017Y-93034806D01*
X16209913Y-92460958D01*
X15560611Y-92108779D01*
X15419645Y-92079305D01*
X15127000Y-92195428D01*
X14873000Y-92195428D01*
X14580355Y-92079305D01*
X14439389Y-92108779D01*
X13790087Y-92460958D01*
X13324983Y-93034806D01*
X13114885Y-93742960D01*
X11885000Y-93742960D01*
X11885000Y-93731346D01*
X11775631Y-93181510D01*
X11359009Y-92557991D01*
X10735490Y-92141369D01*
X10000000Y-91995071D01*
X9264511Y-92141369D01*
X8640991Y-92557991D01*
X8224369Y-93181510D01*
X8115000Y-93731345D01*
X710000Y-93731345D01*
X710000Y-85579126D01*
X26989000Y-85579126D01*
X26989000Y-85990874D01*
X27146569Y-86371280D01*
X27437720Y-86662431D01*
X27818126Y-86820000D01*
X28229874Y-86820000D01*
X28582350Y-86674000D01*
X43530765Y-86674000D01*
X46939570Y-90082805D01*
X47085569Y-90435280D01*
X47376720Y-90726431D01*
X47757126Y-90884000D01*
X48168874Y-90884000D01*
X48549280Y-90726431D01*
X48840431Y-90435280D01*
X48998000Y-90054874D01*
X48998000Y-89643126D01*
X48840431Y-89262720D01*
X48549280Y-88971569D01*
X48196805Y-88825570D01*
X44589531Y-85218296D01*
X44539933Y-85144067D01*
X44245870Y-84947581D01*
X43986556Y-84896000D01*
X43986555Y-84896000D01*
X43899000Y-84878584D01*
X43811445Y-84896000D01*
X28582350Y-84896000D01*
X28229874Y-84750000D01*
X27818126Y-84750000D01*
X27437720Y-84907569D01*
X27146569Y-85198720D01*
X26989000Y-85579126D01*
X710000Y-85579126D01*
X710000Y-75201626D01*
X28803500Y-75201626D01*
X28803500Y-75613374D01*
X28961069Y-75993780D01*
X29252220Y-76284931D01*
X29632626Y-76442500D01*
X30044374Y-76442500D01*
X30141655Y-76402205D01*
X37424156Y-83684707D01*
X37473752Y-83758933D01*
X37547978Y-83808529D01*
X37767814Y-83955419D01*
X38114685Y-84024416D01*
X38202241Y-84007000D01*
X41435650Y-84007000D01*
X41788126Y-84153000D01*
X42199874Y-84153000D01*
X42580280Y-83995431D01*
X42871431Y-83704280D01*
X43029000Y-83323874D01*
X43029000Y-83024235D01*
X54865471Y-94860707D01*
X54915067Y-94934933D01*
X55209130Y-95131419D01*
X55468444Y-95183000D01*
X55521266Y-95193507D01*
X55538369Y-95279489D01*
X55954991Y-95903009D01*
X56578510Y-96319631D01*
X57314000Y-96465929D01*
X58049489Y-96319631D01*
X58673009Y-95903009D01*
X59089631Y-95279490D01*
X59199000Y-94729655D01*
X59199000Y-94718040D01*
X60428885Y-94718040D01*
X60638983Y-95426194D01*
X61104087Y-96000042D01*
X61753389Y-96352221D01*
X61894355Y-96381695D01*
X62187000Y-96265572D01*
X62187000Y-94421000D01*
X62441000Y-94421000D01*
X62441000Y-96265572D01*
X62733645Y-96381695D01*
X62874611Y-96352221D01*
X63523913Y-96000042D01*
X63989017Y-95426194D01*
X64199115Y-94718040D01*
X64044382Y-94421000D01*
X62441000Y-94421000D01*
X62187000Y-94421000D01*
X60583618Y-94421000D01*
X60428885Y-94718040D01*
X59199000Y-94718040D01*
X59199000Y-93869960D01*
X60428885Y-93869960D01*
X60583618Y-94167000D01*
X62187000Y-94167000D01*
X62187000Y-92322428D01*
X62441000Y-92322428D01*
X62441000Y-94167000D01*
X64044382Y-94167000D01*
X64199115Y-93869960D01*
X63989017Y-93161806D01*
X63523913Y-92587958D01*
X62874611Y-92235779D01*
X62733645Y-92206305D01*
X62441000Y-92322428D01*
X62187000Y-92322428D01*
X61894355Y-92206305D01*
X61753389Y-92235779D01*
X61104087Y-92587958D01*
X60638983Y-93161806D01*
X60428885Y-93869960D01*
X59199000Y-93869960D01*
X59199000Y-93858346D01*
X59089631Y-93308510D01*
X58673009Y-92684991D01*
X58049490Y-92268369D01*
X57314000Y-92122071D01*
X56578511Y-92268369D01*
X55954991Y-92684991D01*
X55654277Y-93135041D01*
X36914000Y-74394765D01*
X36914000Y-73604626D01*
X37573000Y-73604626D01*
X37573000Y-74016374D01*
X37730569Y-74396780D01*
X37849592Y-74515803D01*
X37967067Y-74691618D01*
X38041296Y-74741216D01*
X41814286Y-78514207D01*
X41863882Y-78588433D01*
X41938108Y-78638029D01*
X42157944Y-78784919D01*
X42504815Y-78853916D01*
X42538176Y-78847280D01*
X42864626Y-78982500D01*
X43276374Y-78982500D01*
X43656780Y-78824931D01*
X43947931Y-78533780D01*
X44105500Y-78153374D01*
X44105500Y-77741626D01*
X43947931Y-77361220D01*
X43656780Y-77070069D01*
X43276374Y-76912500D01*
X42864626Y-76912500D01*
X42767346Y-76952795D01*
X39643000Y-73828450D01*
X39643000Y-73604626D01*
X39485431Y-73224220D01*
X39194280Y-72933069D01*
X38813874Y-72775500D01*
X38402126Y-72775500D01*
X38021720Y-72933069D01*
X37730569Y-73224220D01*
X37573000Y-73604626D01*
X36914000Y-73604626D01*
X36914000Y-71230350D01*
X37060000Y-70877874D01*
X37060000Y-70466126D01*
X36902431Y-70085720D01*
X36611280Y-69794569D01*
X36230874Y-69637000D01*
X35819126Y-69637000D01*
X35438720Y-69794569D01*
X35147569Y-70085720D01*
X34990000Y-70466126D01*
X34990000Y-70877874D01*
X35136001Y-71230352D01*
X35136000Y-74675445D01*
X35118584Y-74763000D01*
X35136000Y-74850555D01*
X35142260Y-74882024D01*
X33231000Y-72970765D01*
X33231000Y-68690350D01*
X33377000Y-68337874D01*
X33377000Y-67926126D01*
X33219431Y-67545720D01*
X32928280Y-67254569D01*
X32547874Y-67097000D01*
X32136126Y-67097000D01*
X31755720Y-67254569D01*
X31464569Y-67545720D01*
X31307000Y-67926126D01*
X31307000Y-68337874D01*
X31453000Y-68690350D01*
X31453001Y-73251441D01*
X31435584Y-73339000D01*
X31470538Y-73514720D01*
X31504582Y-73685870D01*
X31701068Y-73979933D01*
X31775294Y-74029529D01*
X38811570Y-81065806D01*
X38957569Y-81418280D01*
X39248720Y-81709431D01*
X39629126Y-81867000D01*
X40040874Y-81867000D01*
X40421280Y-81709431D01*
X40712431Y-81418280D01*
X40870000Y-81037874D01*
X40870000Y-80865235D01*
X42087765Y-82083000D01*
X41788126Y-82083000D01*
X41435650Y-82229000D01*
X38482921Y-82229000D01*
X31094716Y-74840796D01*
X31045118Y-74766567D01*
X30751055Y-74570081D01*
X30491741Y-74518500D01*
X30491740Y-74518500D01*
X30404185Y-74501084D01*
X30370824Y-74507720D01*
X30044374Y-74372500D01*
X29632626Y-74372500D01*
X29252220Y-74530069D01*
X28961069Y-74821220D01*
X28803500Y-75201626D01*
X710000Y-75201626D01*
X710000Y-51605159D01*
X1015000Y-51605159D01*
X1015000Y-52394841D01*
X1317199Y-53124412D01*
X1875588Y-53682801D01*
X2605159Y-53985000D01*
X3394841Y-53985000D01*
X4124412Y-53682801D01*
X4682801Y-53124412D01*
X4985000Y-52394841D01*
X4985000Y-51605159D01*
X4682801Y-50875588D01*
X4124412Y-50317199D01*
X3394841Y-50015000D01*
X2605159Y-50015000D01*
X1875588Y-50317199D01*
X1317199Y-50875588D01*
X1015000Y-51605159D01*
X710000Y-51605159D01*
X710000Y-19364000D01*
X36388584Y-19364000D01*
X36406001Y-19451559D01*
X36406000Y-24991445D01*
X36388584Y-25079000D01*
X36406000Y-25166555D01*
X36457581Y-25425869D01*
X36654067Y-25719933D01*
X36728296Y-25769531D01*
X38255470Y-27296706D01*
X38305067Y-27370933D01*
X38379293Y-27420529D01*
X38599129Y-27567419D01*
X38946000Y-27636416D01*
X39033556Y-27619000D01*
X44927765Y-27619000D01*
X47272471Y-29963707D01*
X47322067Y-30037933D01*
X47396293Y-30087529D01*
X47616129Y-30234419D01*
X47963000Y-30303416D01*
X48050556Y-30286000D01*
X48295017Y-30286000D01*
X48416375Y-30467625D01*
X48714761Y-30667000D01*
X48416375Y-30866375D01*
X48088161Y-31357582D01*
X47972908Y-31937000D01*
X48088161Y-32516418D01*
X48416375Y-33007625D01*
X48714761Y-33207000D01*
X48416375Y-33406375D01*
X48088161Y-33897582D01*
X47972908Y-34477000D01*
X48088161Y-35056418D01*
X48416375Y-35547625D01*
X48714761Y-35747000D01*
X48416375Y-35946375D01*
X48088161Y-36437582D01*
X47982714Y-36967700D01*
X47582680Y-36802000D01*
X46991910Y-36802000D01*
X46446110Y-37028078D01*
X46028373Y-37445815D01*
X45802295Y-37991615D01*
X45802295Y-38582385D01*
X46028373Y-39128185D01*
X46446110Y-39545922D01*
X46472855Y-39557000D01*
X46446110Y-39568078D01*
X46028373Y-39985815D01*
X45802295Y-40531615D01*
X45802295Y-41122385D01*
X46028373Y-41668185D01*
X46446110Y-42085922D01*
X46991910Y-42312000D01*
X47582680Y-42312000D01*
X47982714Y-42146300D01*
X48088161Y-42676418D01*
X48416375Y-43167625D01*
X48714761Y-43367000D01*
X48416375Y-43566375D01*
X48088161Y-44057582D01*
X47972908Y-44637000D01*
X48088161Y-45216418D01*
X48416375Y-45707625D01*
X48735478Y-45920843D01*
X48605642Y-45981817D01*
X48215355Y-46410076D01*
X48045524Y-46820110D01*
X48166845Y-47050000D01*
X49360000Y-47050000D01*
X49360000Y-47030000D01*
X49614000Y-47030000D01*
X49614000Y-47050000D01*
X50807155Y-47050000D01*
X50928476Y-46820110D01*
X50758645Y-46410076D01*
X50368358Y-45981817D01*
X50238522Y-45920843D01*
X50557625Y-45707625D01*
X50885839Y-45216418D01*
X51001092Y-44637000D01*
X50885839Y-44057582D01*
X50557625Y-43566375D01*
X50259239Y-43367000D01*
X50557625Y-43167625D01*
X50669896Y-42999600D01*
X50689081Y-43003416D01*
X50776636Y-42986000D01*
X50776637Y-42986000D01*
X51035951Y-42934419D01*
X51330014Y-42737933D01*
X51379612Y-42663704D01*
X53482707Y-40560610D01*
X53556933Y-40511014D01*
X53753419Y-40216951D01*
X53805000Y-39957637D01*
X53805000Y-39957636D01*
X53822416Y-39870082D01*
X53805000Y-39782527D01*
X53805000Y-39564345D01*
X56318000Y-39564345D01*
X56318000Y-40435654D01*
X56427369Y-40985489D01*
X56843991Y-41609009D01*
X57467510Y-42025631D01*
X58203000Y-42171929D01*
X58938489Y-42025631D01*
X59562009Y-41609009D01*
X59978631Y-40985490D01*
X60088000Y-40435655D01*
X60088000Y-40424040D01*
X61317885Y-40424040D01*
X61527983Y-41132194D01*
X61993087Y-41706042D01*
X62642389Y-42058221D01*
X62783355Y-42087695D01*
X63076000Y-41971572D01*
X63076000Y-40127000D01*
X63330000Y-40127000D01*
X63330000Y-41971572D01*
X63622645Y-42087695D01*
X63763611Y-42058221D01*
X64412913Y-41706042D01*
X64878017Y-41132194D01*
X65088115Y-40424040D01*
X64933382Y-40127000D01*
X63330000Y-40127000D01*
X63076000Y-40127000D01*
X61472618Y-40127000D01*
X61317885Y-40424040D01*
X60088000Y-40424040D01*
X60088000Y-39575960D01*
X61317885Y-39575960D01*
X61472618Y-39873000D01*
X63076000Y-39873000D01*
X63076000Y-38028428D01*
X63330000Y-38028428D01*
X63330000Y-39873000D01*
X64933382Y-39873000D01*
X65088115Y-39575960D01*
X64878017Y-38867806D01*
X64412913Y-38293958D01*
X63763611Y-37941779D01*
X63622645Y-37912305D01*
X63330000Y-38028428D01*
X63076000Y-38028428D01*
X62783355Y-37912305D01*
X62642389Y-37941779D01*
X61993087Y-38293958D01*
X61527983Y-38867806D01*
X61317885Y-39575960D01*
X60088000Y-39575960D01*
X60088000Y-39564346D01*
X59978631Y-39014510D01*
X59562009Y-38390991D01*
X58938490Y-37974369D01*
X58203000Y-37828071D01*
X57467511Y-37974369D01*
X56843991Y-38390991D01*
X56427369Y-39014510D01*
X56318000Y-39564345D01*
X53805000Y-39564345D01*
X53805000Y-22780235D01*
X58181707Y-18403529D01*
X58255933Y-18353933D01*
X58433578Y-18088068D01*
X58452419Y-18059871D01*
X58521416Y-17713000D01*
X58504000Y-17625444D01*
X58504000Y-15348983D01*
X58685625Y-15227625D01*
X59013839Y-14736418D01*
X59129092Y-14157000D01*
X59013839Y-13577582D01*
X58685625Y-13086375D01*
X58194418Y-12758161D01*
X57761256Y-12672000D01*
X57468744Y-12672000D01*
X57035582Y-12758161D01*
X56544375Y-13086375D01*
X56331157Y-13405478D01*
X56270183Y-13275642D01*
X55841924Y-12885355D01*
X55431890Y-12715524D01*
X55202000Y-12836845D01*
X55202000Y-14030000D01*
X55222000Y-14030000D01*
X55222000Y-14284000D01*
X55202000Y-14284000D01*
X55202000Y-15477155D01*
X55431890Y-15598476D01*
X55841924Y-15428645D01*
X56270183Y-15038358D01*
X56331157Y-14908522D01*
X56544375Y-15227625D01*
X56726001Y-15348983D01*
X56726000Y-17344764D01*
X52349294Y-21721471D01*
X52275068Y-21771067D01*
X52225472Y-21845293D01*
X52225471Y-21845294D01*
X52078582Y-22065130D01*
X52009584Y-22412000D01*
X52027001Y-22499560D01*
X52027000Y-39501845D01*
X50524562Y-41004283D01*
X50259239Y-40827000D01*
X50557625Y-40627625D01*
X50885839Y-40136418D01*
X51001092Y-39557000D01*
X50885839Y-38977582D01*
X50557625Y-38486375D01*
X50259239Y-38287000D01*
X50557625Y-38087625D01*
X50885839Y-37596418D01*
X51001092Y-37017000D01*
X50885839Y-36437582D01*
X50557625Y-35946375D01*
X50259239Y-35747000D01*
X50557625Y-35547625D01*
X50885839Y-35056418D01*
X51001092Y-34477000D01*
X50885839Y-33897582D01*
X50557625Y-33406375D01*
X50259239Y-33207000D01*
X50557625Y-33007625D01*
X50885839Y-32516418D01*
X51001092Y-31937000D01*
X50885839Y-31357582D01*
X50557625Y-30866375D01*
X50259239Y-30667000D01*
X50557625Y-30467625D01*
X50885839Y-29976418D01*
X51001092Y-29397000D01*
X50885839Y-28817582D01*
X50557625Y-28326375D01*
X50259239Y-28127000D01*
X50557625Y-27927625D01*
X50885839Y-27436418D01*
X51001092Y-26857000D01*
X50885839Y-26277582D01*
X50557625Y-25786375D01*
X50259239Y-25587000D01*
X50557625Y-25387625D01*
X50885839Y-24896418D01*
X51001092Y-24317000D01*
X50885839Y-23737582D01*
X50557625Y-23246375D01*
X50259239Y-23047000D01*
X50557625Y-22847625D01*
X50885839Y-22356418D01*
X51001092Y-21777000D01*
X50885839Y-21197582D01*
X50557625Y-20706375D01*
X50376000Y-20585017D01*
X50376000Y-19451555D01*
X50393416Y-19364000D01*
X50366974Y-19231067D01*
X50324419Y-19017130D01*
X50127933Y-18723067D01*
X50053707Y-18673471D01*
X48344000Y-16963765D01*
X48344000Y-15348983D01*
X48525625Y-15227625D01*
X48725000Y-14929239D01*
X48924375Y-15227625D01*
X49415582Y-15555839D01*
X49848744Y-15642000D01*
X50141256Y-15642000D01*
X50574418Y-15555839D01*
X51065625Y-15227625D01*
X51265000Y-14929239D01*
X51464375Y-15227625D01*
X51955582Y-15555839D01*
X52388744Y-15642000D01*
X52681256Y-15642000D01*
X53114418Y-15555839D01*
X53605625Y-15227625D01*
X53818843Y-14908522D01*
X53879817Y-15038358D01*
X54308076Y-15428645D01*
X54718110Y-15598476D01*
X54948000Y-15477155D01*
X54948000Y-14284000D01*
X54928000Y-14284000D01*
X54928000Y-14030000D01*
X54948000Y-14030000D01*
X54948000Y-12836845D01*
X54718110Y-12715524D01*
X54308076Y-12885355D01*
X53879817Y-13275642D01*
X53818843Y-13405478D01*
X53605625Y-13086375D01*
X53114418Y-12758161D01*
X52681256Y-12672000D01*
X52388744Y-12672000D01*
X51955582Y-12758161D01*
X51464375Y-13086375D01*
X51265000Y-13384761D01*
X51065625Y-13086375D01*
X50574418Y-12758161D01*
X50141256Y-12672000D01*
X49848744Y-12672000D01*
X49415582Y-12758161D01*
X48924375Y-13086375D01*
X48725000Y-13384761D01*
X48525625Y-13086375D01*
X48034418Y-12758161D01*
X47601256Y-12672000D01*
X47308744Y-12672000D01*
X46875582Y-12758161D01*
X46384375Y-13086375D01*
X46185000Y-13384761D01*
X45985625Y-13086375D01*
X45494418Y-12758161D01*
X45061256Y-12672000D01*
X44768744Y-12672000D01*
X44335582Y-12758161D01*
X43844375Y-13086375D01*
X43645000Y-13384761D01*
X43445625Y-13086375D01*
X42954418Y-12758161D01*
X42521256Y-12672000D01*
X42228744Y-12672000D01*
X41795582Y-12758161D01*
X41304375Y-13086375D01*
X41292184Y-13104619D01*
X41283157Y-13059235D01*
X41142809Y-12849191D01*
X40932765Y-12708843D01*
X40685000Y-12659560D01*
X38985000Y-12659560D01*
X38737235Y-12708843D01*
X38527191Y-12849191D01*
X38386843Y-13059235D01*
X38337560Y-13307000D01*
X38337560Y-15007000D01*
X38386843Y-15254765D01*
X38527191Y-15464809D01*
X38737235Y-15605157D01*
X38946000Y-15646683D01*
X38946000Y-16455764D01*
X36728294Y-18673471D01*
X36654068Y-18723067D01*
X36604472Y-18797293D01*
X36604471Y-18797294D01*
X36457582Y-19017130D01*
X36388584Y-19364000D01*
X710000Y-19364000D01*
X710000Y-2605159D01*
X1015000Y-2605159D01*
X1015000Y-3394841D01*
X1317199Y-4124412D01*
X1875588Y-4682801D01*
X2605159Y-4985000D01*
X3394841Y-4985000D01*
X4124412Y-4682801D01*
X4682801Y-4124412D01*
X4985000Y-3394841D01*
X4985000Y-2605159D01*
X85015000Y-2605159D01*
X85015000Y-3394841D01*
X85317199Y-4124412D01*
X85875588Y-4682801D01*
X86605159Y-4985000D01*
X87394841Y-4985000D01*
X88124412Y-4682801D01*
X88682801Y-4124412D01*
X88985000Y-3394841D01*
X88985000Y-2605159D01*
X88682801Y-1875588D01*
X88124412Y-1317199D01*
X87394841Y-1015000D01*
X86605159Y-1015000D01*
X85875588Y-1317199D01*
X85317199Y-1875588D01*
X85015000Y-2605159D01*
X4985000Y-2605159D01*
X4682801Y-1875588D01*
X4124412Y-1317199D01*
X3394841Y-1015000D01*
X2605159Y-1015000D01*
X1875588Y-1317199D01*
X1317199Y-1875588D01*
X1015000Y-2605159D01*
X710000Y-2605159D01*
X710000Y-710000D01*
X89290001Y-710000D01*
X89290000Y-67369081D01*
X89290000Y-67369081D01*
G37*
X89290000Y-67369081D02*
X89116933Y-67110067D01*
X89042707Y-67060471D01*
X74587395Y-52605159D01*
X85015000Y-52605159D01*
X85015000Y-53394841D01*
X85317199Y-54124412D01*
X85875588Y-54682801D01*
X86605159Y-54985000D01*
X87394841Y-54985000D01*
X88124412Y-54682801D01*
X88682801Y-54124412D01*
X88985000Y-53394841D01*
X88985000Y-52605159D01*
X88682801Y-51875588D01*
X88124412Y-51317199D01*
X87394841Y-51015000D01*
X86605159Y-51015000D01*
X85875588Y-51317199D01*
X85317199Y-51875588D01*
X85015000Y-52605159D01*
X74587395Y-52605159D01*
X71132531Y-49150296D01*
X71082933Y-49076067D01*
X70788870Y-48879581D01*
X70529556Y-48828000D01*
X70529555Y-48828000D01*
X70442000Y-48810584D01*
X70354445Y-48828000D01*
X50976682Y-48828000D01*
X50935157Y-48619235D01*
X50794809Y-48409191D01*
X50584765Y-48268843D01*
X50481292Y-48248261D01*
X50758645Y-47943924D01*
X50928476Y-47533890D01*
X50807155Y-47304000D01*
X49614000Y-47304000D01*
X49614000Y-47324000D01*
X49360000Y-47324000D01*
X49360000Y-47304000D01*
X48166845Y-47304000D01*
X48045524Y-47533890D01*
X48215355Y-47943924D01*
X48492708Y-48248261D01*
X48389235Y-48268843D01*
X48179191Y-48409191D01*
X48038843Y-48619235D01*
X47989560Y-48867000D01*
X47989560Y-50567000D01*
X48038843Y-50814765D01*
X48179191Y-51024809D01*
X48389235Y-51165157D01*
X48637000Y-51214440D01*
X50337000Y-51214440D01*
X50584765Y-51165157D01*
X50794809Y-51024809D01*
X50935157Y-50814765D01*
X50976682Y-50606000D01*
X57270511Y-50606000D01*
X56843991Y-50890991D01*
X56427369Y-51514510D01*
X56318000Y-52064345D01*
X56318000Y-52935654D01*
X56427369Y-53485489D01*
X56843991Y-54109009D01*
X57467510Y-54525631D01*
X58203000Y-54671929D01*
X58938489Y-54525631D01*
X59562009Y-54109009D01*
X59978631Y-53485490D01*
X60088000Y-52935655D01*
X60088000Y-52924040D01*
X61317885Y-52924040D01*
X61527983Y-53632194D01*
X61993087Y-54206042D01*
X62642389Y-54558221D01*
X62783355Y-54587695D01*
X63076000Y-54471572D01*
X63076000Y-52627000D01*
X63330000Y-52627000D01*
X63330000Y-54471572D01*
X63622645Y-54587695D01*
X63763611Y-54558221D01*
X64412913Y-54206042D01*
X64878017Y-53632194D01*
X65088115Y-52924040D01*
X64933382Y-52627000D01*
X63330000Y-52627000D01*
X63076000Y-52627000D01*
X61472618Y-52627000D01*
X61317885Y-52924040D01*
X60088000Y-52924040D01*
X60088000Y-52064346D01*
X59978631Y-51514510D01*
X59562009Y-50890991D01*
X59135490Y-50606000D01*
X62339620Y-50606000D01*
X61993087Y-50793958D01*
X61527983Y-51367806D01*
X61317885Y-52075960D01*
X61472618Y-52373000D01*
X63076000Y-52373000D01*
X63076000Y-52353000D01*
X63330000Y-52353000D01*
X63330000Y-52373000D01*
X64933382Y-52373000D01*
X65088115Y-52075960D01*
X64878017Y-51367806D01*
X64412913Y-50793958D01*
X64066380Y-50606000D01*
X70073765Y-50606000D01*
X87587001Y-68119237D01*
X87587001Y-76357102D01*
X87340625Y-75988375D01*
X86849418Y-75660161D01*
X86416256Y-75574000D01*
X86123744Y-75574000D01*
X85690582Y-75660161D01*
X85199375Y-75988375D01*
X84871161Y-76479582D01*
X84755908Y-77059000D01*
X84871161Y-77638418D01*
X85199375Y-78129625D01*
X85497761Y-78329000D01*
X85199375Y-78528375D01*
X84871161Y-79019582D01*
X84755908Y-79599000D01*
X84871161Y-80178418D01*
X85199375Y-80669625D01*
X85497761Y-80869000D01*
X85199375Y-81068375D01*
X84871161Y-81559582D01*
X84755908Y-82139000D01*
X84871161Y-82718418D01*
X85199375Y-83209625D01*
X85497761Y-83409000D01*
X85199375Y-83608375D01*
X84871161Y-84099582D01*
X84755908Y-84679000D01*
X84871161Y-85258418D01*
X85199375Y-85749625D01*
X85497761Y-85949000D01*
X85199375Y-86148375D01*
X84871161Y-86639582D01*
X84755908Y-87219000D01*
X84871161Y-87798418D01*
X85199375Y-88289625D01*
X85497761Y-88489000D01*
X85199375Y-88688375D01*
X85078017Y-88870000D01*
X83082236Y-88870000D01*
X79830531Y-85618296D01*
X79780933Y-85544067D01*
X79486870Y-85347581D01*
X79227556Y-85296000D01*
X79227555Y-85296000D01*
X79140000Y-85278584D01*
X79052445Y-85296000D01*
X63677350Y-85296000D01*
X63324874Y-85150000D01*
X62913126Y-85150000D01*
X62532720Y-85307569D01*
X62241569Y-85598720D01*
X62084000Y-85979126D01*
X62084000Y-86390874D01*
X62241569Y-86771280D01*
X62532720Y-87062431D01*
X62913126Y-87220000D01*
X63324874Y-87220000D01*
X63677350Y-87074000D01*
X78771765Y-87074000D01*
X82023471Y-90325707D01*
X82073067Y-90399933D01*
X82367130Y-90596419D01*
X82626444Y-90648000D01*
X82626448Y-90648000D01*
X82713999Y-90665415D01*
X82801550Y-90648000D01*
X85078017Y-90648000D01*
X85199375Y-90829625D01*
X85497761Y-91029000D01*
X85199375Y-91228375D01*
X85078017Y-91410000D01*
X82928556Y-91410000D01*
X82841000Y-91392584D01*
X82494129Y-91461581D01*
X82427752Y-91505933D01*
X82200067Y-91658067D01*
X82150471Y-91732293D01*
X79842765Y-94040000D01*
X76207350Y-94040000D01*
X75854874Y-93894000D01*
X75443126Y-93894000D01*
X75062720Y-94051569D01*
X74771569Y-94342720D01*
X74614000Y-94723126D01*
X74614000Y-95134874D01*
X74771569Y-95515280D01*
X75062720Y-95806431D01*
X75443126Y-95964000D01*
X75854874Y-95964000D01*
X76207350Y-95818000D01*
X80123445Y-95818000D01*
X80211000Y-95835416D01*
X80298555Y-95818000D01*
X80298556Y-95818000D01*
X80557870Y-95766419D01*
X80851933Y-95569933D01*
X80901531Y-95495704D01*
X83209236Y-93188000D01*
X85078017Y-93188000D01*
X85199375Y-93369625D01*
X85497761Y-93569000D01*
X85199375Y-93768375D01*
X84871161Y-94259582D01*
X84755908Y-94839000D01*
X84871161Y-95418418D01*
X85199375Y-95909625D01*
X85497761Y-96109000D01*
X85199375Y-96308375D01*
X85078017Y-96490000D01*
X73387236Y-96490000D01*
X72058531Y-95161296D01*
X72058529Y-95161293D01*
X65163531Y-88266296D01*
X65113933Y-88192067D01*
X64819870Y-87995581D01*
X64560556Y-87944000D01*
X64560555Y-87944000D01*
X64473000Y-87926584D01*
X64385445Y-87944000D01*
X62682236Y-87944000D01*
X48633362Y-73895126D01*
X65978000Y-73895126D01*
X65978000Y-74306874D01*
X66135569Y-74687280D01*
X66426720Y-74978431D01*
X66807126Y-75136000D01*
X67218874Y-75136000D01*
X67571350Y-74990000D01*
X71661650Y-74990000D01*
X72014126Y-75136000D01*
X72425874Y-75136000D01*
X72806280Y-74978431D01*
X73097431Y-74687280D01*
X73255000Y-74306874D01*
X73255000Y-73895126D01*
X73097431Y-73514720D01*
X72806280Y-73223569D01*
X72425874Y-73066000D01*
X72014126Y-73066000D01*
X71661650Y-73212000D01*
X67571350Y-73212000D01*
X67218874Y-73066000D01*
X66807126Y-73066000D01*
X66426720Y-73223569D01*
X66135569Y-73514720D01*
X65978000Y-73895126D01*
X48633362Y-73895126D01*
X28151000Y-53412765D01*
X28151000Y-52064345D01*
X33458000Y-52064345D01*
X33458000Y-52935654D01*
X33567369Y-53485489D01*
X33983991Y-54109009D01*
X34607510Y-54525631D01*
X35343000Y-54671929D01*
X36078489Y-54525631D01*
X36702009Y-54109009D01*
X37118631Y-53485490D01*
X37228000Y-52935655D01*
X37228000Y-52924040D01*
X38457885Y-52924040D01*
X38667983Y-53632194D01*
X39133087Y-54206042D01*
X39782389Y-54558221D01*
X39923355Y-54587695D01*
X40216000Y-54471572D01*
X40216000Y-52627000D01*
X40470000Y-52627000D01*
X40470000Y-54471572D01*
X40762645Y-54587695D01*
X40903611Y-54558221D01*
X41552913Y-54206042D01*
X42018017Y-53632194D01*
X42228115Y-52924040D01*
X42073382Y-52627000D01*
X40470000Y-52627000D01*
X40216000Y-52627000D01*
X38612618Y-52627000D01*
X38457885Y-52924040D01*
X37228000Y-52924040D01*
X37228000Y-52075960D01*
X38457885Y-52075960D01*
X38612618Y-52373000D01*
X40216000Y-52373000D01*
X40216000Y-50528428D01*
X40470000Y-50528428D01*
X40470000Y-52373000D01*
X42073382Y-52373000D01*
X42228115Y-52075960D01*
X42018017Y-51367806D01*
X41552913Y-50793958D01*
X40903611Y-50441779D01*
X40762645Y-50412305D01*
X40470000Y-50528428D01*
X40216000Y-50528428D01*
X39923355Y-50412305D01*
X39782389Y-50441779D01*
X39133087Y-50793958D01*
X38667983Y-51367806D01*
X38457885Y-52075960D01*
X37228000Y-52075960D01*
X37228000Y-52064346D01*
X37118631Y-51514510D01*
X36702009Y-50890991D01*
X36078490Y-50474369D01*
X35343000Y-50328071D01*
X34607511Y-50474369D01*
X33983991Y-50890991D01*
X33567369Y-51514510D01*
X33458000Y-52064345D01*
X28151000Y-52064345D01*
X28151000Y-48915556D01*
X28168416Y-48828000D01*
X28099419Y-48481129D01*
X27952529Y-48261293D01*
X27902933Y-48187067D01*
X27828707Y-48137471D01*
X26301531Y-46610296D01*
X26251933Y-46536067D01*
X25957870Y-46339581D01*
X25698556Y-46288000D01*
X25698555Y-46288000D01*
X25611000Y-46270584D01*
X25523445Y-46288000D01*
X25278983Y-46288000D01*
X25157625Y-46106375D01*
X24859239Y-45907000D01*
X25157625Y-45707625D01*
X25485839Y-45216418D01*
X25601092Y-44637000D01*
X25485839Y-44057582D01*
X25157625Y-43566375D01*
X24859239Y-43367000D01*
X25157625Y-43167625D01*
X25485839Y-42676418D01*
X25601092Y-42097000D01*
X25485839Y-41517582D01*
X25157625Y-41026375D01*
X24859239Y-40827000D01*
X25157625Y-40627625D01*
X25485839Y-40136418D01*
X25601092Y-39557000D01*
X25485839Y-38977582D01*
X25157625Y-38486375D01*
X24859239Y-38287000D01*
X25157625Y-38087625D01*
X25278983Y-37906000D01*
X29648765Y-37906000D01*
X32309471Y-40566707D01*
X32359067Y-40640933D01*
X32653130Y-40837419D01*
X32912444Y-40889000D01*
X32999999Y-40906416D01*
X33087554Y-40889000D01*
X33548176Y-40889000D01*
X33567369Y-40985489D01*
X33983991Y-41609009D01*
X34607510Y-42025631D01*
X35343000Y-42171929D01*
X36078489Y-42025631D01*
X36702009Y-41609009D01*
X37118631Y-40985490D01*
X37228000Y-40435655D01*
X37228000Y-40424040D01*
X38457885Y-40424040D01*
X38667983Y-41132194D01*
X39133087Y-41706042D01*
X39782389Y-42058221D01*
X39923355Y-42087695D01*
X40216000Y-41971572D01*
X40216000Y-40127000D01*
X40470000Y-40127000D01*
X40470000Y-41971572D01*
X40762645Y-42087695D01*
X40903611Y-42058221D01*
X41552913Y-41706042D01*
X42018017Y-41132194D01*
X42228115Y-40424040D01*
X42073382Y-40127000D01*
X40470000Y-40127000D01*
X40216000Y-40127000D01*
X38612618Y-40127000D01*
X38457885Y-40424040D01*
X37228000Y-40424040D01*
X37228000Y-39575960D01*
X38457885Y-39575960D01*
X38612618Y-39873000D01*
X40216000Y-39873000D01*
X40216000Y-38028428D01*
X40470000Y-38028428D01*
X40470000Y-39873000D01*
X42073382Y-39873000D01*
X42228115Y-39575960D01*
X42018017Y-38867806D01*
X41552913Y-38293958D01*
X40903611Y-37941779D01*
X40762645Y-37912305D01*
X40470000Y-38028428D01*
X40216000Y-38028428D01*
X39923355Y-37912305D01*
X39782389Y-37941779D01*
X39133087Y-38293958D01*
X38667983Y-38867806D01*
X38457885Y-39575960D01*
X37228000Y-39575960D01*
X37228000Y-39564346D01*
X37118631Y-39014510D01*
X36702009Y-38390991D01*
X36078490Y-37974369D01*
X35343000Y-37828071D01*
X34607511Y-37974369D01*
X33983991Y-38390991D01*
X33567369Y-39014510D01*
X33548176Y-39111000D01*
X33368236Y-39111000D01*
X30707531Y-36450296D01*
X30657933Y-36376067D01*
X30363870Y-36179581D01*
X30104556Y-36128000D01*
X30104555Y-36128000D01*
X30017000Y-36110584D01*
X29929445Y-36128000D01*
X25278983Y-36128000D01*
X25157625Y-35946375D01*
X24859239Y-35747000D01*
X25157625Y-35547625D01*
X25485839Y-35056418D01*
X25601092Y-34477000D01*
X25485839Y-33897582D01*
X25157625Y-33406375D01*
X24859239Y-33207000D01*
X25157625Y-33007625D01*
X25485839Y-32516418D01*
X25601092Y-31937000D01*
X25485839Y-31357582D01*
X25157625Y-30866375D01*
X24859239Y-30667000D01*
X25157625Y-30467625D01*
X25485839Y-29976418D01*
X25601092Y-29397000D01*
X25485839Y-28817582D01*
X25157625Y-28326375D01*
X24859239Y-28127000D01*
X25157625Y-27927625D01*
X25485839Y-27436418D01*
X25601092Y-26857000D01*
X25485839Y-26277582D01*
X25157625Y-25786375D01*
X24859239Y-25587000D01*
X25157625Y-25387625D01*
X25485839Y-24896418D01*
X25601092Y-24317000D01*
X25485839Y-23737582D01*
X25157625Y-23246375D01*
X24859239Y-23047000D01*
X25157625Y-22847625D01*
X25485839Y-22356418D01*
X25601092Y-21777000D01*
X25485839Y-21197582D01*
X25157625Y-20706375D01*
X24666418Y-20378161D01*
X24233256Y-20292000D01*
X23940744Y-20292000D01*
X23507582Y-20378161D01*
X23016375Y-20706375D01*
X22688161Y-21197582D01*
X22572908Y-21777000D01*
X22688161Y-22356418D01*
X23016375Y-22847625D01*
X23314761Y-23047000D01*
X23016375Y-23246375D01*
X22688161Y-23737582D01*
X22572908Y-24317000D01*
X22688161Y-24896418D01*
X23016375Y-25387625D01*
X23314761Y-25587000D01*
X23016375Y-25786375D01*
X22688161Y-26277582D01*
X22572908Y-26857000D01*
X22688161Y-27436418D01*
X23016375Y-27927625D01*
X23314761Y-28127000D01*
X23016375Y-28326375D01*
X22688161Y-28817582D01*
X22572908Y-29397000D01*
X22688161Y-29976418D01*
X23016375Y-30467625D01*
X23314761Y-30667000D01*
X23016375Y-30866375D01*
X22688161Y-31357582D01*
X22572908Y-31937000D01*
X22688161Y-32516418D01*
X23016375Y-33007625D01*
X23314761Y-33207000D01*
X23016375Y-33406375D01*
X22688161Y-33897582D01*
X22572908Y-34477000D01*
X22688161Y-35056418D01*
X23016375Y-35547625D01*
X23314761Y-35747000D01*
X23016375Y-35946375D01*
X22688161Y-36437582D01*
X22572908Y-37017000D01*
X22688161Y-37596418D01*
X23016375Y-38087625D01*
X23314761Y-38287000D01*
X23016375Y-38486375D01*
X22688161Y-38977582D01*
X22572908Y-39557000D01*
X22688161Y-40136418D01*
X23016375Y-40627625D01*
X23314761Y-40827000D01*
X23016375Y-41026375D01*
X22688161Y-41517582D01*
X22572908Y-42097000D01*
X22688161Y-42676418D01*
X23016375Y-43167625D01*
X23314761Y-43367000D01*
X23016375Y-43566375D01*
X22688161Y-44057582D01*
X22572908Y-44637000D01*
X22688161Y-45216418D01*
X23016375Y-45707625D01*
X23314761Y-45907000D01*
X23016375Y-46106375D01*
X22688161Y-46597582D01*
X22572908Y-47177000D01*
X22688161Y-47756418D01*
X23016375Y-48247625D01*
X23034619Y-48259816D01*
X22989235Y-48268843D01*
X22779191Y-48409191D01*
X22638843Y-48619235D01*
X22589560Y-48867000D01*
X22589560Y-50567000D01*
X22638843Y-50814765D01*
X22779191Y-51024809D01*
X22989235Y-51165157D01*
X23198001Y-51206683D01*
X23198000Y-54963445D01*
X23180584Y-55051000D01*
X23198000Y-55138555D01*
X23249581Y-55397869D01*
X23446067Y-55691933D01*
X23520296Y-55741531D01*
X59210470Y-91431706D01*
X59260067Y-91505933D01*
X59334293Y-91555529D01*
X59554129Y-91702419D01*
X59901000Y-91771416D01*
X59988556Y-91754000D01*
X64231765Y-91754000D01*
X72963471Y-100485707D01*
X73013067Y-100559933D01*
X73087293Y-100609529D01*
X73307129Y-100756419D01*
X73654000Y-100825416D01*
X73741556Y-100808000D01*
X85078017Y-100808000D01*
X85199375Y-100989625D01*
X85518478Y-101202843D01*
X85388642Y-101263817D01*
X84998355Y-101692076D01*
X84828524Y-102102110D01*
X84949845Y-102332000D01*
X86143000Y-102332000D01*
X86143000Y-102312000D01*
X86397000Y-102312000D01*
X86397000Y-102332000D01*
X86417000Y-102332000D01*
X86417000Y-102586000D01*
X86397000Y-102586000D01*
X86397000Y-102606000D01*
X86143000Y-102606000D01*
X86143000Y-102586000D01*
X84949845Y-102586000D01*
X84828524Y-102815890D01*
X84998355Y-103225924D01*
X85275708Y-103530261D01*
X85172235Y-103550843D01*
X84962191Y-103691191D01*
X84821843Y-103901235D01*
X84772560Y-104149000D01*
X84772560Y-105849000D01*
X84821843Y-106096765D01*
X84962191Y-106306809D01*
X85172235Y-106447157D01*
X85420000Y-106496440D01*
X87120000Y-106496440D01*
X87367765Y-106447157D01*
X87577809Y-106306809D01*
X87718157Y-106096765D01*
X87761500Y-105878861D01*
X87974870Y-105836419D01*
X88268933Y-105639933D01*
X88318531Y-105565704D01*
X89042707Y-104841529D01*
X89116933Y-104791933D01*
X89290000Y-104532919D01*
X89290000Y-112290000D01*
X710000Y-112290000D01*
X710000Y-109605159D01*
X1015000Y-109605159D01*
X1015000Y-110394841D01*
X1317199Y-111124412D01*
X1875588Y-111682801D01*
X2605159Y-111985000D01*
X3394841Y-111985000D01*
X4124412Y-111682801D01*
X4682801Y-111124412D01*
X4985000Y-110394841D01*
X4985000Y-109605159D01*
X85015000Y-109605159D01*
X85015000Y-110394841D01*
X85317199Y-111124412D01*
X85875588Y-111682801D01*
X86605159Y-111985000D01*
X87394841Y-111985000D01*
X88124412Y-111682801D01*
X88682801Y-111124412D01*
X88985000Y-110394841D01*
X88985000Y-109605159D01*
X88682801Y-108875588D01*
X88124412Y-108317199D01*
X87394841Y-108015000D01*
X86605159Y-108015000D01*
X85875588Y-108317199D01*
X85317199Y-108875588D01*
X85015000Y-109605159D01*
X4985000Y-109605159D01*
X4682801Y-108875588D01*
X4124412Y-108317199D01*
X3394841Y-108015000D01*
X2605159Y-108015000D01*
X1875588Y-108317199D01*
X1317199Y-108875588D01*
X1015000Y-109605159D01*
X710000Y-109605159D01*
X710000Y-106231345D01*
X8115000Y-106231345D01*
X8115000Y-107102654D01*
X8224369Y-107652489D01*
X8640991Y-108276009D01*
X9264510Y-108692631D01*
X10000000Y-108838929D01*
X10735489Y-108692631D01*
X11359009Y-108276009D01*
X11775631Y-107652490D01*
X11885000Y-107102655D01*
X11885000Y-107091040D01*
X13114885Y-107091040D01*
X13324983Y-107799194D01*
X13790087Y-108373042D01*
X14439389Y-108725221D01*
X14580355Y-108754695D01*
X14873000Y-108638572D01*
X14873000Y-106794000D01*
X15127000Y-106794000D01*
X15127000Y-108638572D01*
X15419645Y-108754695D01*
X15560611Y-108725221D01*
X16209913Y-108373042D01*
X16675017Y-107799194D01*
X16885115Y-107091040D01*
X16730382Y-106794000D01*
X15127000Y-106794000D01*
X14873000Y-106794000D01*
X13269618Y-106794000D01*
X13114885Y-107091040D01*
X11885000Y-107091040D01*
X11885000Y-106242960D01*
X13114885Y-106242960D01*
X13269618Y-106540000D01*
X14873000Y-106540000D01*
X14873000Y-104695428D01*
X15127000Y-104695428D01*
X15127000Y-106540000D01*
X16730382Y-106540000D01*
X16885115Y-106242960D01*
X16881670Y-106231345D01*
X22282000Y-106231345D01*
X22282000Y-107102654D01*
X22391369Y-107652489D01*
X22807991Y-108276009D01*
X23431510Y-108692631D01*
X24167000Y-108838929D01*
X24902489Y-108692631D01*
X25526009Y-108276009D01*
X25942631Y-107652490D01*
X26052000Y-107102655D01*
X26052000Y-107091040D01*
X27281885Y-107091040D01*
X27491983Y-107799194D01*
X27957087Y-108373042D01*
X28606389Y-108725221D01*
X28747355Y-108754695D01*
X29040000Y-108638572D01*
X29040000Y-106794000D01*
X29294000Y-106794000D01*
X29294000Y-108638572D01*
X29586645Y-108754695D01*
X29727611Y-108725221D01*
X30376913Y-108373042D01*
X30842017Y-107799194D01*
X31052115Y-107091040D01*
X30897382Y-106794000D01*
X29294000Y-106794000D01*
X29040000Y-106794000D01*
X27436618Y-106794000D01*
X27281885Y-107091040D01*
X26052000Y-107091040D01*
X26052000Y-106242960D01*
X27281885Y-106242960D01*
X27436618Y-106540000D01*
X29040000Y-106540000D01*
X29040000Y-104695428D01*
X29294000Y-104695428D01*
X29294000Y-106540000D01*
X30897382Y-106540000D01*
X31014408Y-106315345D01*
X39046000Y-106315345D01*
X39046000Y-107186654D01*
X39155369Y-107736489D01*
X39571991Y-108360009D01*
X40195510Y-108776631D01*
X40931000Y-108922929D01*
X41666489Y-108776631D01*
X42290009Y-108360009D01*
X42706631Y-107736490D01*
X42816000Y-107186655D01*
X42816000Y-107175040D01*
X44045885Y-107175040D01*
X44255983Y-107883194D01*
X44721087Y-108457042D01*
X45370389Y-108809221D01*
X45511355Y-108838695D01*
X45804000Y-108722572D01*
X45804000Y-106878000D01*
X46058000Y-106878000D01*
X46058000Y-108722572D01*
X46350645Y-108838695D01*
X46491611Y-108809221D01*
X47140913Y-108457042D01*
X47606017Y-107883194D01*
X47816115Y-107175040D01*
X47661382Y-106878000D01*
X46058000Y-106878000D01*
X45804000Y-106878000D01*
X44200618Y-106878000D01*
X44045885Y-107175040D01*
X42816000Y-107175040D01*
X42816000Y-106326960D01*
X44045885Y-106326960D01*
X44200618Y-106624000D01*
X45804000Y-106624000D01*
X45804000Y-104779428D01*
X46058000Y-104779428D01*
X46058000Y-106624000D01*
X47661382Y-106624000D01*
X47799766Y-106358345D01*
X55429000Y-106358345D01*
X55429000Y-107229654D01*
X55538369Y-107779489D01*
X55954991Y-108403009D01*
X56578510Y-108819631D01*
X57314000Y-108965929D01*
X58049489Y-108819631D01*
X58673009Y-108403009D01*
X59089631Y-107779490D01*
X59199000Y-107229655D01*
X59199000Y-107218040D01*
X60428885Y-107218040D01*
X60638983Y-107926194D01*
X61104087Y-108500042D01*
X61753389Y-108852221D01*
X61894355Y-108881695D01*
X62187000Y-108765572D01*
X62187000Y-106921000D01*
X62441000Y-106921000D01*
X62441000Y-108765572D01*
X62733645Y-108881695D01*
X62874611Y-108852221D01*
X63523913Y-108500042D01*
X63989017Y-107926194D01*
X64199115Y-107218040D01*
X64044382Y-106921000D01*
X62441000Y-106921000D01*
X62187000Y-106921000D01*
X60583618Y-106921000D01*
X60428885Y-107218040D01*
X59199000Y-107218040D01*
X59199000Y-106369960D01*
X60428885Y-106369960D01*
X60583618Y-106667000D01*
X62187000Y-106667000D01*
X62187000Y-104822428D01*
X62441000Y-104822428D01*
X62441000Y-106667000D01*
X64044382Y-106667000D01*
X64199115Y-106369960D01*
X63989017Y-105661806D01*
X63523913Y-105087958D01*
X62874611Y-104735779D01*
X62733645Y-104706305D01*
X62441000Y-104822428D01*
X62187000Y-104822428D01*
X61894355Y-104706305D01*
X61753389Y-104735779D01*
X61104087Y-105087958D01*
X60638983Y-105661806D01*
X60428885Y-106369960D01*
X59199000Y-106369960D01*
X59199000Y-106358346D01*
X59089631Y-105808510D01*
X58673009Y-105184991D01*
X58049490Y-104768369D01*
X57314000Y-104622071D01*
X56578511Y-104768369D01*
X55954991Y-105184991D01*
X55538369Y-105808510D01*
X55429000Y-106358345D01*
X47799766Y-106358345D01*
X47816115Y-106326960D01*
X47606017Y-105618806D01*
X47140913Y-105044958D01*
X46491611Y-104692779D01*
X46350645Y-104663305D01*
X46058000Y-104779428D01*
X45804000Y-104779428D01*
X45511355Y-104663305D01*
X45370389Y-104692779D01*
X44721087Y-105044958D01*
X44255983Y-105618806D01*
X44045885Y-106326960D01*
X42816000Y-106326960D01*
X42816000Y-106315346D01*
X42706631Y-105765510D01*
X42290009Y-105141991D01*
X41666490Y-104725369D01*
X40931000Y-104579071D01*
X40195511Y-104725369D01*
X39571991Y-105141991D01*
X39155369Y-105765510D01*
X39046000Y-106315345D01*
X31014408Y-106315345D01*
X31052115Y-106242960D01*
X30842017Y-105534806D01*
X30376913Y-104960958D01*
X29727611Y-104608779D01*
X29586645Y-104579305D01*
X29294000Y-104695428D01*
X29040000Y-104695428D01*
X28747355Y-104579305D01*
X28606389Y-104608779D01*
X27957087Y-104960958D01*
X27491983Y-105534806D01*
X27281885Y-106242960D01*
X26052000Y-106242960D01*
X26052000Y-106231346D01*
X25942631Y-105681510D01*
X25526009Y-105057991D01*
X24902490Y-104641369D01*
X24167000Y-104495071D01*
X23431511Y-104641369D01*
X22807991Y-105057991D01*
X22391369Y-105681510D01*
X22282000Y-106231345D01*
X16881670Y-106231345D01*
X16675017Y-105534806D01*
X16209913Y-104960958D01*
X15560611Y-104608779D01*
X15419645Y-104579305D01*
X15127000Y-104695428D01*
X14873000Y-104695428D01*
X14580355Y-104579305D01*
X14439389Y-104608779D01*
X13790087Y-104960958D01*
X13324983Y-105534806D01*
X13114885Y-106242960D01*
X11885000Y-106242960D01*
X11885000Y-106231346D01*
X11775631Y-105681510D01*
X11359009Y-105057991D01*
X10735490Y-104641369D01*
X10000000Y-104495071D01*
X9264511Y-104641369D01*
X8640991Y-105057991D01*
X8224369Y-105681510D01*
X8115000Y-106231345D01*
X710000Y-106231345D01*
X710000Y-93731345D01*
X8115000Y-93731345D01*
X8115000Y-94602654D01*
X8224369Y-95152489D01*
X8640991Y-95776009D01*
X9264510Y-96192631D01*
X10000000Y-96338929D01*
X10735489Y-96192631D01*
X11359009Y-95776009D01*
X11775631Y-95152490D01*
X11885000Y-94602655D01*
X11885000Y-94591040D01*
X13114885Y-94591040D01*
X13324983Y-95299194D01*
X13790087Y-95873042D01*
X14439389Y-96225221D01*
X14580355Y-96254695D01*
X14873000Y-96138572D01*
X14873000Y-94294000D01*
X15127000Y-94294000D01*
X15127000Y-96138572D01*
X15419645Y-96254695D01*
X15560611Y-96225221D01*
X16209913Y-95873042D01*
X16675017Y-95299194D01*
X16885115Y-94591040D01*
X16730382Y-94294000D01*
X15127000Y-94294000D01*
X14873000Y-94294000D01*
X13269618Y-94294000D01*
X13114885Y-94591040D01*
X11885000Y-94591040D01*
X11885000Y-93742960D01*
X13114885Y-93742960D01*
X13269618Y-94040000D01*
X14873000Y-94040000D01*
X14873000Y-92195428D01*
X15127000Y-92195428D01*
X15127000Y-94040000D01*
X16730382Y-94040000D01*
X16885115Y-93742960D01*
X16881670Y-93731345D01*
X22282000Y-93731345D01*
X22282000Y-94602654D01*
X22391369Y-95152489D01*
X22807991Y-95776009D01*
X23431510Y-96192631D01*
X24167000Y-96338929D01*
X24902489Y-96192631D01*
X25526009Y-95776009D01*
X25942631Y-95152490D01*
X26052000Y-94602655D01*
X26052000Y-94591040D01*
X27281885Y-94591040D01*
X27491983Y-95299194D01*
X27957087Y-95873042D01*
X28606389Y-96225221D01*
X28747355Y-96254695D01*
X29040000Y-96138572D01*
X29040000Y-94294000D01*
X29294000Y-94294000D01*
X29294000Y-96138572D01*
X29586645Y-96254695D01*
X29727611Y-96225221D01*
X30376913Y-95873042D01*
X30842017Y-95299194D01*
X31052115Y-94591040D01*
X30897382Y-94294000D01*
X29294000Y-94294000D01*
X29040000Y-94294000D01*
X27436618Y-94294000D01*
X27281885Y-94591040D01*
X26052000Y-94591040D01*
X26052000Y-93742960D01*
X27281885Y-93742960D01*
X27436618Y-94040000D01*
X29040000Y-94040000D01*
X29040000Y-92195428D01*
X29294000Y-92195428D01*
X29294000Y-94040000D01*
X30897382Y-94040000D01*
X31014408Y-93815345D01*
X39046000Y-93815345D01*
X39046000Y-94686654D01*
X39155369Y-95236489D01*
X39571991Y-95860009D01*
X40195510Y-96276631D01*
X40931000Y-96422929D01*
X41666489Y-96276631D01*
X42290009Y-95860009D01*
X42706631Y-95236490D01*
X42816000Y-94686655D01*
X42816000Y-94675040D01*
X44045885Y-94675040D01*
X44255983Y-95383194D01*
X44721087Y-95957042D01*
X45370389Y-96309221D01*
X45511355Y-96338695D01*
X45804000Y-96222572D01*
X45804000Y-94378000D01*
X46058000Y-94378000D01*
X46058000Y-96222572D01*
X46350645Y-96338695D01*
X46491611Y-96309221D01*
X47140913Y-95957042D01*
X47606017Y-95383194D01*
X47816115Y-94675040D01*
X47661382Y-94378000D01*
X46058000Y-94378000D01*
X45804000Y-94378000D01*
X44200618Y-94378000D01*
X44045885Y-94675040D01*
X42816000Y-94675040D01*
X42816000Y-93826960D01*
X44045885Y-93826960D01*
X44200618Y-94124000D01*
X45804000Y-94124000D01*
X45804000Y-92279428D01*
X46058000Y-92279428D01*
X46058000Y-94124000D01*
X47661382Y-94124000D01*
X47816115Y-93826960D01*
X47606017Y-93118806D01*
X47140913Y-92544958D01*
X46491611Y-92192779D01*
X46350645Y-92163305D01*
X46058000Y-92279428D01*
X45804000Y-92279428D01*
X45511355Y-92163305D01*
X45370389Y-92192779D01*
X44721087Y-92544958D01*
X44255983Y-93118806D01*
X44045885Y-93826960D01*
X42816000Y-93826960D01*
X42816000Y-93815346D01*
X42706631Y-93265510D01*
X42290009Y-92641991D01*
X41666490Y-92225369D01*
X40931000Y-92079071D01*
X40195511Y-92225369D01*
X39571991Y-92641991D01*
X39155369Y-93265510D01*
X39046000Y-93815345D01*
X31014408Y-93815345D01*
X31052115Y-93742960D01*
X30842017Y-93034806D01*
X30376913Y-92460958D01*
X29727611Y-92108779D01*
X29586645Y-92079305D01*
X29294000Y-92195428D01*
X29040000Y-92195428D01*
X28747355Y-92079305D01*
X28606389Y-92108779D01*
X27957087Y-92460958D01*
X27491983Y-93034806D01*
X27281885Y-93742960D01*
X26052000Y-93742960D01*
X26052000Y-93731346D01*
X25942631Y-93181510D01*
X25526009Y-92557991D01*
X24902490Y-92141369D01*
X24167000Y-91995071D01*
X23431511Y-92141369D01*
X22807991Y-92557991D01*
X22391369Y-93181510D01*
X22282000Y-93731345D01*
X16881670Y-93731345D01*
X16675017Y-93034806D01*
X16209913Y-92460958D01*
X15560611Y-92108779D01*
X15419645Y-92079305D01*
X15127000Y-92195428D01*
X14873000Y-92195428D01*
X14580355Y-92079305D01*
X14439389Y-92108779D01*
X13790087Y-92460958D01*
X13324983Y-93034806D01*
X13114885Y-93742960D01*
X11885000Y-93742960D01*
X11885000Y-93731346D01*
X11775631Y-93181510D01*
X11359009Y-92557991D01*
X10735490Y-92141369D01*
X10000000Y-91995071D01*
X9264511Y-92141369D01*
X8640991Y-92557991D01*
X8224369Y-93181510D01*
X8115000Y-93731345D01*
X710000Y-93731345D01*
X710000Y-85579126D01*
X26989000Y-85579126D01*
X26989000Y-85990874D01*
X27146569Y-86371280D01*
X27437720Y-86662431D01*
X27818126Y-86820000D01*
X28229874Y-86820000D01*
X28582350Y-86674000D01*
X43530765Y-86674000D01*
X46939570Y-90082805D01*
X47085569Y-90435280D01*
X47376720Y-90726431D01*
X47757126Y-90884000D01*
X48168874Y-90884000D01*
X48549280Y-90726431D01*
X48840431Y-90435280D01*
X48998000Y-90054874D01*
X48998000Y-89643126D01*
X48840431Y-89262720D01*
X48549280Y-88971569D01*
X48196805Y-88825570D01*
X44589531Y-85218296D01*
X44539933Y-85144067D01*
X44245870Y-84947581D01*
X43986556Y-84896000D01*
X43986555Y-84896000D01*
X43899000Y-84878584D01*
X43811445Y-84896000D01*
X28582350Y-84896000D01*
X28229874Y-84750000D01*
X27818126Y-84750000D01*
X27437720Y-84907569D01*
X27146569Y-85198720D01*
X26989000Y-85579126D01*
X710000Y-85579126D01*
X710000Y-75201626D01*
X28803500Y-75201626D01*
X28803500Y-75613374D01*
X28961069Y-75993780D01*
X29252220Y-76284931D01*
X29632626Y-76442500D01*
X30044374Y-76442500D01*
X30141655Y-76402205D01*
X37424156Y-83684707D01*
X37473752Y-83758933D01*
X37547978Y-83808529D01*
X37767814Y-83955419D01*
X38114685Y-84024416D01*
X38202241Y-84007000D01*
X41435650Y-84007000D01*
X41788126Y-84153000D01*
X42199874Y-84153000D01*
X42580280Y-83995431D01*
X42871431Y-83704280D01*
X43029000Y-83323874D01*
X43029000Y-83024235D01*
X54865471Y-94860707D01*
X54915067Y-94934933D01*
X55209130Y-95131419D01*
X55468444Y-95183000D01*
X55521266Y-95193507D01*
X55538369Y-95279489D01*
X55954991Y-95903009D01*
X56578510Y-96319631D01*
X57314000Y-96465929D01*
X58049489Y-96319631D01*
X58673009Y-95903009D01*
X59089631Y-95279490D01*
X59199000Y-94729655D01*
X59199000Y-94718040D01*
X60428885Y-94718040D01*
X60638983Y-95426194D01*
X61104087Y-96000042D01*
X61753389Y-96352221D01*
X61894355Y-96381695D01*
X62187000Y-96265572D01*
X62187000Y-94421000D01*
X62441000Y-94421000D01*
X62441000Y-96265572D01*
X62733645Y-96381695D01*
X62874611Y-96352221D01*
X63523913Y-96000042D01*
X63989017Y-95426194D01*
X64199115Y-94718040D01*
X64044382Y-94421000D01*
X62441000Y-94421000D01*
X62187000Y-94421000D01*
X60583618Y-94421000D01*
X60428885Y-94718040D01*
X59199000Y-94718040D01*
X59199000Y-93869960D01*
X60428885Y-93869960D01*
X60583618Y-94167000D01*
X62187000Y-94167000D01*
X62187000Y-92322428D01*
X62441000Y-92322428D01*
X62441000Y-94167000D01*
X64044382Y-94167000D01*
X64199115Y-93869960D01*
X63989017Y-93161806D01*
X63523913Y-92587958D01*
X62874611Y-92235779D01*
X62733645Y-92206305D01*
X62441000Y-92322428D01*
X62187000Y-92322428D01*
X61894355Y-92206305D01*
X61753389Y-92235779D01*
X61104087Y-92587958D01*
X60638983Y-93161806D01*
X60428885Y-93869960D01*
X59199000Y-93869960D01*
X59199000Y-93858346D01*
X59089631Y-93308510D01*
X58673009Y-92684991D01*
X58049490Y-92268369D01*
X57314000Y-92122071D01*
X56578511Y-92268369D01*
X55954991Y-92684991D01*
X55654277Y-93135041D01*
X36914000Y-74394765D01*
X36914000Y-73604626D01*
X37573000Y-73604626D01*
X37573000Y-74016374D01*
X37730569Y-74396780D01*
X37849592Y-74515803D01*
X37967067Y-74691618D01*
X38041296Y-74741216D01*
X41814286Y-78514207D01*
X41863882Y-78588433D01*
X41938108Y-78638029D01*
X42157944Y-78784919D01*
X42504815Y-78853916D01*
X42538176Y-78847280D01*
X42864626Y-78982500D01*
X43276374Y-78982500D01*
X43656780Y-78824931D01*
X43947931Y-78533780D01*
X44105500Y-78153374D01*
X44105500Y-77741626D01*
X43947931Y-77361220D01*
X43656780Y-77070069D01*
X43276374Y-76912500D01*
X42864626Y-76912500D01*
X42767346Y-76952795D01*
X39643000Y-73828450D01*
X39643000Y-73604626D01*
X39485431Y-73224220D01*
X39194280Y-72933069D01*
X38813874Y-72775500D01*
X38402126Y-72775500D01*
X38021720Y-72933069D01*
X37730569Y-73224220D01*
X37573000Y-73604626D01*
X36914000Y-73604626D01*
X36914000Y-71230350D01*
X37060000Y-70877874D01*
X37060000Y-70466126D01*
X36902431Y-70085720D01*
X36611280Y-69794569D01*
X36230874Y-69637000D01*
X35819126Y-69637000D01*
X35438720Y-69794569D01*
X35147569Y-70085720D01*
X34990000Y-70466126D01*
X34990000Y-70877874D01*
X35136001Y-71230352D01*
X35136000Y-74675445D01*
X35118584Y-74763000D01*
X35136000Y-74850555D01*
X35142260Y-74882024D01*
X33231000Y-72970765D01*
X33231000Y-68690350D01*
X33377000Y-68337874D01*
X33377000Y-67926126D01*
X33219431Y-67545720D01*
X32928280Y-67254569D01*
X32547874Y-67097000D01*
X32136126Y-67097000D01*
X31755720Y-67254569D01*
X31464569Y-67545720D01*
X31307000Y-67926126D01*
X31307000Y-68337874D01*
X31453000Y-68690350D01*
X31453001Y-73251441D01*
X31435584Y-73339000D01*
X31470538Y-73514720D01*
X31504582Y-73685870D01*
X31701068Y-73979933D01*
X31775294Y-74029529D01*
X38811570Y-81065806D01*
X38957569Y-81418280D01*
X39248720Y-81709431D01*
X39629126Y-81867000D01*
X40040874Y-81867000D01*
X40421280Y-81709431D01*
X40712431Y-81418280D01*
X40870000Y-81037874D01*
X40870000Y-80865235D01*
X42087765Y-82083000D01*
X41788126Y-82083000D01*
X41435650Y-82229000D01*
X38482921Y-82229000D01*
X31094716Y-74840796D01*
X31045118Y-74766567D01*
X30751055Y-74570081D01*
X30491741Y-74518500D01*
X30491740Y-74518500D01*
X30404185Y-74501084D01*
X30370824Y-74507720D01*
X30044374Y-74372500D01*
X29632626Y-74372500D01*
X29252220Y-74530069D01*
X28961069Y-74821220D01*
X28803500Y-75201626D01*
X710000Y-75201626D01*
X710000Y-51605159D01*
X1015000Y-51605159D01*
X1015000Y-52394841D01*
X1317199Y-53124412D01*
X1875588Y-53682801D01*
X2605159Y-53985000D01*
X3394841Y-53985000D01*
X4124412Y-53682801D01*
X4682801Y-53124412D01*
X4985000Y-52394841D01*
X4985000Y-51605159D01*
X4682801Y-50875588D01*
X4124412Y-50317199D01*
X3394841Y-50015000D01*
X2605159Y-50015000D01*
X1875588Y-50317199D01*
X1317199Y-50875588D01*
X1015000Y-51605159D01*
X710000Y-51605159D01*
X710000Y-19364000D01*
X36388584Y-19364000D01*
X36406001Y-19451559D01*
X36406000Y-24991445D01*
X36388584Y-25079000D01*
X36406000Y-25166555D01*
X36457581Y-25425869D01*
X36654067Y-25719933D01*
X36728296Y-25769531D01*
X38255470Y-27296706D01*
X38305067Y-27370933D01*
X38379293Y-27420529D01*
X38599129Y-27567419D01*
X38946000Y-27636416D01*
X39033556Y-27619000D01*
X44927765Y-27619000D01*
X47272471Y-29963707D01*
X47322067Y-30037933D01*
X47396293Y-30087529D01*
X47616129Y-30234419D01*
X47963000Y-30303416D01*
X48050556Y-30286000D01*
X48295017Y-30286000D01*
X48416375Y-30467625D01*
X48714761Y-30667000D01*
X48416375Y-30866375D01*
X48088161Y-31357582D01*
X47972908Y-31937000D01*
X48088161Y-32516418D01*
X48416375Y-33007625D01*
X48714761Y-33207000D01*
X48416375Y-33406375D01*
X48088161Y-33897582D01*
X47972908Y-34477000D01*
X48088161Y-35056418D01*
X48416375Y-35547625D01*
X48714761Y-35747000D01*
X48416375Y-35946375D01*
X48088161Y-36437582D01*
X47982714Y-36967700D01*
X47582680Y-36802000D01*
X46991910Y-36802000D01*
X46446110Y-37028078D01*
X46028373Y-37445815D01*
X45802295Y-37991615D01*
X45802295Y-38582385D01*
X46028373Y-39128185D01*
X46446110Y-39545922D01*
X46472855Y-39557000D01*
X46446110Y-39568078D01*
X46028373Y-39985815D01*
X45802295Y-40531615D01*
X45802295Y-41122385D01*
X46028373Y-41668185D01*
X46446110Y-42085922D01*
X46991910Y-42312000D01*
X47582680Y-42312000D01*
X47982714Y-42146300D01*
X48088161Y-42676418D01*
X48416375Y-43167625D01*
X48714761Y-43367000D01*
X48416375Y-43566375D01*
X48088161Y-44057582D01*
X47972908Y-44637000D01*
X48088161Y-45216418D01*
X48416375Y-45707625D01*
X48735478Y-45920843D01*
X48605642Y-45981817D01*
X48215355Y-46410076D01*
X48045524Y-46820110D01*
X48166845Y-47050000D01*
X49360000Y-47050000D01*
X49360000Y-47030000D01*
X49614000Y-47030000D01*
X49614000Y-47050000D01*
X50807155Y-47050000D01*
X50928476Y-46820110D01*
X50758645Y-46410076D01*
X50368358Y-45981817D01*
X50238522Y-45920843D01*
X50557625Y-45707625D01*
X50885839Y-45216418D01*
X51001092Y-44637000D01*
X50885839Y-44057582D01*
X50557625Y-43566375D01*
X50259239Y-43367000D01*
X50557625Y-43167625D01*
X50669896Y-42999600D01*
X50689081Y-43003416D01*
X50776636Y-42986000D01*
X50776637Y-42986000D01*
X51035951Y-42934419D01*
X51330014Y-42737933D01*
X51379612Y-42663704D01*
X53482707Y-40560610D01*
X53556933Y-40511014D01*
X53753419Y-40216951D01*
X53805000Y-39957637D01*
X53805000Y-39957636D01*
X53822416Y-39870082D01*
X53805000Y-39782527D01*
X53805000Y-39564345D01*
X56318000Y-39564345D01*
X56318000Y-40435654D01*
X56427369Y-40985489D01*
X56843991Y-41609009D01*
X57467510Y-42025631D01*
X58203000Y-42171929D01*
X58938489Y-42025631D01*
X59562009Y-41609009D01*
X59978631Y-40985490D01*
X60088000Y-40435655D01*
X60088000Y-40424040D01*
X61317885Y-40424040D01*
X61527983Y-41132194D01*
X61993087Y-41706042D01*
X62642389Y-42058221D01*
X62783355Y-42087695D01*
X63076000Y-41971572D01*
X63076000Y-40127000D01*
X63330000Y-40127000D01*
X63330000Y-41971572D01*
X63622645Y-42087695D01*
X63763611Y-42058221D01*
X64412913Y-41706042D01*
X64878017Y-41132194D01*
X65088115Y-40424040D01*
X64933382Y-40127000D01*
X63330000Y-40127000D01*
X63076000Y-40127000D01*
X61472618Y-40127000D01*
X61317885Y-40424040D01*
X60088000Y-40424040D01*
X60088000Y-39575960D01*
X61317885Y-39575960D01*
X61472618Y-39873000D01*
X63076000Y-39873000D01*
X63076000Y-38028428D01*
X63330000Y-38028428D01*
X63330000Y-39873000D01*
X64933382Y-39873000D01*
X65088115Y-39575960D01*
X64878017Y-38867806D01*
X64412913Y-38293958D01*
X63763611Y-37941779D01*
X63622645Y-37912305D01*
X63330000Y-38028428D01*
X63076000Y-38028428D01*
X62783355Y-37912305D01*
X62642389Y-37941779D01*
X61993087Y-38293958D01*
X61527983Y-38867806D01*
X61317885Y-39575960D01*
X60088000Y-39575960D01*
X60088000Y-39564346D01*
X59978631Y-39014510D01*
X59562009Y-38390991D01*
X58938490Y-37974369D01*
X58203000Y-37828071D01*
X57467511Y-37974369D01*
X56843991Y-38390991D01*
X56427369Y-39014510D01*
X56318000Y-39564345D01*
X53805000Y-39564345D01*
X53805000Y-22780235D01*
X58181707Y-18403529D01*
X58255933Y-18353933D01*
X58433578Y-18088068D01*
X58452419Y-18059871D01*
X58521416Y-17713000D01*
X58504000Y-17625444D01*
X58504000Y-15348983D01*
X58685625Y-15227625D01*
X59013839Y-14736418D01*
X59129092Y-14157000D01*
X59013839Y-13577582D01*
X58685625Y-13086375D01*
X58194418Y-12758161D01*
X57761256Y-12672000D01*
X57468744Y-12672000D01*
X57035582Y-12758161D01*
X56544375Y-13086375D01*
X56331157Y-13405478D01*
X56270183Y-13275642D01*
X55841924Y-12885355D01*
X55431890Y-12715524D01*
X55202000Y-12836845D01*
X55202000Y-14030000D01*
X55222000Y-14030000D01*
X55222000Y-14284000D01*
X55202000Y-14284000D01*
X55202000Y-15477155D01*
X55431890Y-15598476D01*
X55841924Y-15428645D01*
X56270183Y-15038358D01*
X56331157Y-14908522D01*
X56544375Y-15227625D01*
X56726001Y-15348983D01*
X56726000Y-17344764D01*
X52349294Y-21721471D01*
X52275068Y-21771067D01*
X52225472Y-21845293D01*
X52225471Y-21845294D01*
X52078582Y-22065130D01*
X52009584Y-22412000D01*
X52027001Y-22499560D01*
X52027000Y-39501845D01*
X50524562Y-41004283D01*
X50259239Y-40827000D01*
X50557625Y-40627625D01*
X50885839Y-40136418D01*
X51001092Y-39557000D01*
X50885839Y-38977582D01*
X50557625Y-38486375D01*
X50259239Y-38287000D01*
X50557625Y-38087625D01*
X50885839Y-37596418D01*
X51001092Y-37017000D01*
X50885839Y-36437582D01*
X50557625Y-35946375D01*
X50259239Y-35747000D01*
X50557625Y-35547625D01*
X50885839Y-35056418D01*
X51001092Y-34477000D01*
X50885839Y-33897582D01*
X50557625Y-33406375D01*
X50259239Y-33207000D01*
X50557625Y-33007625D01*
X50885839Y-32516418D01*
X51001092Y-31937000D01*
X50885839Y-31357582D01*
X50557625Y-30866375D01*
X50259239Y-30667000D01*
X50557625Y-30467625D01*
X50885839Y-29976418D01*
X51001092Y-29397000D01*
X50885839Y-28817582D01*
X50557625Y-28326375D01*
X50259239Y-28127000D01*
X50557625Y-27927625D01*
X50885839Y-27436418D01*
X51001092Y-26857000D01*
X50885839Y-26277582D01*
X50557625Y-25786375D01*
X50259239Y-25587000D01*
X50557625Y-25387625D01*
X50885839Y-24896418D01*
X51001092Y-24317000D01*
X50885839Y-23737582D01*
X50557625Y-23246375D01*
X50259239Y-23047000D01*
X50557625Y-22847625D01*
X50885839Y-22356418D01*
X51001092Y-21777000D01*
X50885839Y-21197582D01*
X50557625Y-20706375D01*
X50376000Y-20585017D01*
X50376000Y-19451555D01*
X50393416Y-19364000D01*
X50366974Y-19231067D01*
X50324419Y-19017130D01*
X50127933Y-18723067D01*
X50053707Y-18673471D01*
X48344000Y-16963765D01*
X48344000Y-15348983D01*
X48525625Y-15227625D01*
X48725000Y-14929239D01*
X48924375Y-15227625D01*
X49415582Y-15555839D01*
X49848744Y-15642000D01*
X50141256Y-15642000D01*
X50574418Y-15555839D01*
X51065625Y-15227625D01*
X51265000Y-14929239D01*
X51464375Y-15227625D01*
X51955582Y-15555839D01*
X52388744Y-15642000D01*
X52681256Y-15642000D01*
X53114418Y-15555839D01*
X53605625Y-15227625D01*
X53818843Y-14908522D01*
X53879817Y-15038358D01*
X54308076Y-15428645D01*
X54718110Y-15598476D01*
X54948000Y-15477155D01*
X54948000Y-14284000D01*
X54928000Y-14284000D01*
X54928000Y-14030000D01*
X54948000Y-14030000D01*
X54948000Y-12836845D01*
X54718110Y-12715524D01*
X54308076Y-12885355D01*
X53879817Y-13275642D01*
X53818843Y-13405478D01*
X53605625Y-13086375D01*
X53114418Y-12758161D01*
X52681256Y-12672000D01*
X52388744Y-12672000D01*
X51955582Y-12758161D01*
X51464375Y-13086375D01*
X51265000Y-13384761D01*
X51065625Y-13086375D01*
X50574418Y-12758161D01*
X50141256Y-12672000D01*
X49848744Y-12672000D01*
X49415582Y-12758161D01*
X48924375Y-13086375D01*
X48725000Y-13384761D01*
X48525625Y-13086375D01*
X48034418Y-12758161D01*
X47601256Y-12672000D01*
X47308744Y-12672000D01*
X46875582Y-12758161D01*
X46384375Y-13086375D01*
X46185000Y-13384761D01*
X45985625Y-13086375D01*
X45494418Y-12758161D01*
X45061256Y-12672000D01*
X44768744Y-12672000D01*
X44335582Y-12758161D01*
X43844375Y-13086375D01*
X43645000Y-13384761D01*
X43445625Y-13086375D01*
X42954418Y-12758161D01*
X42521256Y-12672000D01*
X42228744Y-12672000D01*
X41795582Y-12758161D01*
X41304375Y-13086375D01*
X41292184Y-13104619D01*
X41283157Y-13059235D01*
X41142809Y-12849191D01*
X40932765Y-12708843D01*
X40685000Y-12659560D01*
X38985000Y-12659560D01*
X38737235Y-12708843D01*
X38527191Y-12849191D01*
X38386843Y-13059235D01*
X38337560Y-13307000D01*
X38337560Y-15007000D01*
X38386843Y-15254765D01*
X38527191Y-15464809D01*
X38737235Y-15605157D01*
X38946000Y-15646683D01*
X38946000Y-16455764D01*
X36728294Y-18673471D01*
X36654068Y-18723067D01*
X36604472Y-18797293D01*
X36604471Y-18797294D01*
X36457582Y-19017130D01*
X36388584Y-19364000D01*
X710000Y-19364000D01*
X710000Y-2605159D01*
X1015000Y-2605159D01*
X1015000Y-3394841D01*
X1317199Y-4124412D01*
X1875588Y-4682801D01*
X2605159Y-4985000D01*
X3394841Y-4985000D01*
X4124412Y-4682801D01*
X4682801Y-4124412D01*
X4985000Y-3394841D01*
X4985000Y-2605159D01*
X85015000Y-2605159D01*
X85015000Y-3394841D01*
X85317199Y-4124412D01*
X85875588Y-4682801D01*
X86605159Y-4985000D01*
X87394841Y-4985000D01*
X88124412Y-4682801D01*
X88682801Y-4124412D01*
X88985000Y-3394841D01*
X88985000Y-2605159D01*
X88682801Y-1875588D01*
X88124412Y-1317199D01*
X87394841Y-1015000D01*
X86605159Y-1015000D01*
X85875588Y-1317199D01*
X85317199Y-1875588D01*
X85015000Y-2605159D01*
X4985000Y-2605159D01*
X4682801Y-1875588D01*
X4124412Y-1317199D01*
X3394841Y-1015000D01*
X2605159Y-1015000D01*
X1875588Y-1317199D01*
X1317199Y-1875588D01*
X1015000Y-2605159D01*
X710000Y-2605159D01*
X710000Y-710000D01*
X89290001Y-710000D01*
X89290000Y-67369081D01*
M02*
