G04 #@! TF.GenerationSoftware,KiCad,Pcbnew,(5.0.1)-3*
G04 #@! TF.CreationDate,2019-03-18T16:45:20+07:00*
G04 #@! TF.ProjectId,Infrared,496E6672617265642E6B696361645F70,rev?*
G04 #@! TF.SameCoordinates,Original*
G04 #@! TF.FileFunction,Copper,L2,Bot,Signal*
G04 #@! TF.FilePolarity,Positive*
%FSLAX46Y46*%
G04 Gerber Fmt 4.6, Leading zero omitted, Abs format (unit mm)*
G04 Created by KiCad (PCBNEW (5.0.1)-3) date 18-Mar-19 16:45:20*
%MOMM*%
%LPD*%
G01*
G04 APERTURE LIST*
G04 #@! TA.AperFunction,ComponentPad*
%ADD10R,1.700000X1.700000*%
G04 #@! TD*
G04 #@! TA.AperFunction,ComponentPad*
%ADD11O,1.700000X1.700000*%
G04 #@! TD*
G04 #@! TA.AperFunction,ComponentPad*
%ADD12C,1.524000*%
G04 #@! TD*
G04 #@! TA.AperFunction,ComponentPad*
%ADD13C,1.600000*%
G04 #@! TD*
G04 #@! TA.AperFunction,ComponentPad*
%ADD14R,1.600000X1.600000*%
G04 #@! TD*
G04 #@! TA.AperFunction,ComponentPad*
%ADD15O,2.032000X2.032000*%
G04 #@! TD*
G04 #@! TA.AperFunction,ComponentPad*
%ADD16R,2.032000X2.032000*%
G04 #@! TD*
G04 #@! TA.AperFunction,ComponentPad*
%ADD17C,1.800000*%
G04 #@! TD*
G04 #@! TA.AperFunction,ComponentPad*
%ADD18R,1.800000X1.800000*%
G04 #@! TD*
G04 #@! TA.AperFunction,Conductor*
%ADD19C,0.100000*%
G04 #@! TD*
G04 #@! TA.AperFunction,ComponentPad*
%ADD20O,2.000000X1.905000*%
G04 #@! TD*
G04 #@! TA.AperFunction,ComponentPad*
%ADD21R,2.000000X1.905000*%
G04 #@! TD*
G04 #@! TA.AperFunction,ComponentPad*
%ADD22R,1.500000X1.500000*%
G04 #@! TD*
G04 #@! TA.AperFunction,ComponentPad*
%ADD23C,1.500000*%
G04 #@! TD*
G04 #@! TA.AperFunction,ComponentPad*
%ADD24O,1.400000X1.400000*%
G04 #@! TD*
G04 #@! TA.AperFunction,ComponentPad*
%ADD25C,1.400000*%
G04 #@! TD*
G04 #@! TA.AperFunction,Conductor*
%ADD26C,1.016000*%
G04 #@! TD*
G04 #@! TA.AperFunction,Conductor*
%ADD27C,0.254000*%
G04 #@! TD*
G04 APERTURE END LIST*
D10*
G04 #@! TO.P,J1,1*
G04 #@! TO.N,+5V*
X56675000Y-9939000D03*
D11*
G04 #@! TO.P,J1,2*
G04 #@! TO.N,Net-(J1-Pad2)*
X56675000Y-12479000D03*
G04 #@! TO.P,J1,3*
G04 #@! TO.N,Net-(J1-Pad3)*
X56675000Y-15019000D03*
G04 #@! TO.P,J1,4*
G04 #@! TO.N,Net-(J1-Pad4)*
X56675000Y-17559000D03*
G04 #@! TO.P,J1,5*
G04 #@! TO.N,GND*
X56675000Y-20099000D03*
D12*
G04 #@! TO.P,J1,6*
G04 #@! TO.N,N/C*
X64295000Y-9939000D03*
G04 #@! TO.P,J1,7*
X64295000Y-20099000D03*
G04 #@! TD*
D11*
G04 #@! TO.P,U3,4*
G04 #@! TO.N,+3V3*
X3222000Y-32222000D03*
G04 #@! TO.P,U3,3*
G04 #@! TO.N,GND*
X3222000Y-34762000D03*
G04 #@! TO.P,U3,2*
G04 #@! TO.N,SCL*
X3222000Y-37302000D03*
D10*
G04 #@! TO.P,U3,1*
G04 #@! TO.N,SDA*
X3222000Y-39842000D03*
G04 #@! TD*
D13*
G04 #@! TO.P,C1,2*
G04 #@! TO.N,GND*
X46876000Y-13798000D03*
D14*
G04 #@! TO.P,C1,1*
G04 #@! TO.N,+5V*
X44376000Y-13798000D03*
G04 #@! TD*
D13*
G04 #@! TO.P,C2,2*
G04 #@! TO.N,GND*
X57143000Y-26703000D03*
D14*
G04 #@! TO.P,C2,1*
G04 #@! TO.N,Net-(C2-Pad1)*
X54643000Y-26703000D03*
G04 #@! TD*
D15*
G04 #@! TO.P,U2,26*
G04 #@! TO.N,Net-(U2-Pad26)*
X36502000Y-28149000D03*
G04 #@! TO.P,U2,16*
G04 #@! TO.N,Net-(U2-Pad16)*
X36502000Y-53549000D03*
G04 #@! TO.P,U2,27*
G04 #@! TO.N,Net-(U2-Pad27)*
X36502000Y-25609000D03*
G04 #@! TO.P,U2,21*
G04 #@! TO.N,Net-(U2-Pad21)*
X36502000Y-40849000D03*
G04 #@! TO.P,U2,20*
G04 #@! TO.N,Net-(U2-Pad20)*
X36502000Y-43389000D03*
G04 #@! TO.P,U2,22*
G04 #@! TO.N,Net-(U2-Pad22)*
X36502000Y-38309000D03*
G04 #@! TO.P,U2,19*
G04 #@! TO.N,Net-(U2-Pad19)*
X36502000Y-45929000D03*
G04 #@! TO.P,U2,23*
G04 #@! TO.N,Net-(U2-Pad23)*
X36502000Y-35769000D03*
G04 #@! TO.P,U2,17*
G04 #@! TO.N,Net-(U2-Pad17)*
X36502000Y-51009000D03*
D16*
G04 #@! TO.P,U2,30*
G04 #@! TO.N,+5V*
X36502000Y-17989000D03*
D15*
G04 #@! TO.P,U2,28*
G04 #@! TO.N,Net-(U2-Pad28)*
X36502000Y-23069000D03*
G04 #@! TO.P,U2,18*
G04 #@! TO.N,Net-(U2-Pad18)*
X36502000Y-48469000D03*
G04 #@! TO.P,U2,24*
G04 #@! TO.N,Net-(U2-Pad24)*
X36502000Y-33229000D03*
G04 #@! TO.P,U2,29*
G04 #@! TO.N,Net-(U2-Pad29)*
X36502000Y-20529000D03*
G04 #@! TO.P,U2,25*
G04 #@! TO.N,Net-(U2-Pad25)*
X36502000Y-30689000D03*
G04 #@! TO.P,U2,15*
G04 #@! TO.N,Net-(U2-Pad15)*
X11102000Y-53549000D03*
G04 #@! TO.P,U2,14*
G04 #@! TO.N,SCL*
X11102000Y-51009000D03*
G04 #@! TO.P,U2,13*
G04 #@! TO.N,Net-(U2-Pad13)*
X11102000Y-48469000D03*
G04 #@! TO.P,U2,12*
G04 #@! TO.N,Net-(U2-Pad12)*
X11102000Y-45929000D03*
G04 #@! TO.P,U2,11*
G04 #@! TO.N,SDA*
X11102000Y-43389000D03*
G04 #@! TO.P,U2,10*
G04 #@! TO.N,Net-(U2-Pad10)*
X11102000Y-40849000D03*
G04 #@! TO.P,U2,9*
G04 #@! TO.N,Net-(U2-Pad9)*
X11102000Y-38309000D03*
G04 #@! TO.P,U2,8*
G04 #@! TO.N,Net-(U2-Pad8)*
X11102000Y-35769000D03*
G04 #@! TO.P,U2,7*
G04 #@! TO.N,Net-(U2-Pad7)*
X11102000Y-33229000D03*
G04 #@! TO.P,U2,6*
G04 #@! TO.N,Net-(U2-Pad6)*
X11102000Y-30689000D03*
G04 #@! TO.P,U2,5*
G04 #@! TO.N,Net-(U2-Pad5)*
X11102000Y-28149000D03*
G04 #@! TO.P,U2,4*
G04 #@! TO.N,Net-(R2-Pad1)*
X11102000Y-25609000D03*
G04 #@! TO.P,U2,3*
G04 #@! TO.N,Net-(U2-Pad3)*
X11102000Y-23069000D03*
G04 #@! TO.P,U2,2*
G04 #@! TO.N,GND*
X11102000Y-20529000D03*
D16*
G04 #@! TO.P,U2,1*
G04 #@! TO.N,+3V3*
X11102000Y-17989000D03*
G04 #@! TD*
D17*
G04 #@! TO.P,D3,2*
G04 #@! TO.N,Net-(D1-Pad2)*
X65712000Y-35388000D03*
D18*
G04 #@! TO.P,D3,1*
G04 #@! TO.N,GND*
X65712000Y-37928000D03*
G04 #@! TD*
D17*
G04 #@! TO.P,D7,2*
G04 #@! TO.N,Net-(D1-Pad2)*
X53520000Y-44024000D03*
G04 #@! TO.P,D7,1*
G04 #@! TO.N,GND*
X51723949Y-42227949D03*
D19*
G04 #@! TD*
G04 #@! TO.N,GND*
G04 #@! TO.C,D7*
G36*
X50451157Y-42227949D02*
X51723949Y-40955157D01*
X52996741Y-42227949D01*
X51723949Y-43500741D01*
X50451157Y-42227949D01*
X50451157Y-42227949D01*
G37*
D17*
G04 #@! TO.P,D5,2*
G04 #@! TO.N,Net-(D1-Pad2)*
X47805000Y-38563000D03*
D18*
G04 #@! TO.P,D5,1*
G04 #@! TO.N,GND*
X47805000Y-36023000D03*
G04 #@! TD*
D17*
G04 #@! TO.P,D4,2*
G04 #@! TO.N,Net-(D1-Pad2)*
X58346000Y-37293000D03*
D18*
G04 #@! TO.P,D4,1*
G04 #@! TO.N,GND*
X55806000Y-37293000D03*
G04 #@! TD*
D17*
G04 #@! TO.P,D2,2*
G04 #@! TO.N,Net-(D1-Pad2)*
X61666051Y-31977051D03*
G04 #@! TO.P,D2,1*
G04 #@! TO.N,GND*
X59870000Y-30181000D03*
D19*
G04 #@! TD*
G04 #@! TO.N,GND*
G04 #@! TO.C,D2*
G36*
X58597208Y-30181000D02*
X59870000Y-28908208D01*
X61142792Y-30181000D01*
X59870000Y-31453792D01*
X58597208Y-30181000D01*
X58597208Y-30181000D01*
G37*
D17*
G04 #@! TO.P,D1,2*
G04 #@! TO.N,Net-(D1-Pad2)*
X53030051Y-30416949D03*
G04 #@! TO.P,D1,1*
G04 #@! TO.N,GND*
X51234000Y-32213000D03*
D19*
G04 #@! TD*
G04 #@! TO.N,GND*
G04 #@! TO.C,D1*
G36*
X51234000Y-33485792D02*
X49961208Y-32213000D01*
X51234000Y-30940208D01*
X52506792Y-32213000D01*
X51234000Y-33485792D01*
X51234000Y-33485792D01*
G37*
D17*
G04 #@! TO.P,D6,2*
G04 #@! TO.N,Net-(D1-Pad2)*
X62047051Y-41973949D03*
G04 #@! TO.P,D6,1*
G04 #@! TO.N,GND*
X60251000Y-43770000D03*
D19*
G04 #@! TD*
G04 #@! TO.N,GND*
G04 #@! TO.C,D6*
G36*
X60251000Y-45042792D02*
X58978208Y-43770000D01*
X60251000Y-42497208D01*
X61523792Y-43770000D01*
X60251000Y-45042792D01*
X60251000Y-45042792D01*
G37*
D20*
G04 #@! TO.P,U1,3*
G04 #@! TO.N,+5V*
X47043000Y-20275000D03*
G04 #@! TO.P,U1,2*
G04 #@! TO.N,Net-(C2-Pad1)*
X47043000Y-22815000D03*
D21*
G04 #@! TO.P,U1,1*
G04 #@! TO.N,GND*
X47043000Y-25355000D03*
G04 #@! TD*
D22*
G04 #@! TO.P,Q1,1*
G04 #@! TO.N,Net-(Q1-Pad1)*
X46154000Y-54184000D03*
D23*
G04 #@! TO.P,Q1,3*
G04 #@! TO.N,Net-(C2-Pad1)*
X46154000Y-49104000D03*
G04 #@! TO.P,Q1,2*
G04 #@! TO.N,Net-(Q1-Pad2)*
X46154000Y-51644000D03*
G04 #@! TD*
D24*
G04 #@! TO.P,R2,2*
G04 #@! TO.N,Net-(Q1-Pad2)*
X25072000Y-44151000D03*
D25*
G04 #@! TO.P,R2,1*
G04 #@! TO.N,Net-(R2-Pad1)*
X17452000Y-44151000D03*
G04 #@! TD*
D24*
G04 #@! TO.P,R1,2*
G04 #@! TO.N,Net-(D1-Pad2)*
X59235000Y-52279000D03*
D25*
G04 #@! TO.P,R1,1*
G04 #@! TO.N,Net-(Q1-Pad1)*
X51615000Y-52279000D03*
G04 #@! TD*
D24*
G04 #@! TO.P,R3,2*
G04 #@! TO.N,Net-(D1-Pad2)*
X59235000Y-55327000D03*
D25*
G04 #@! TO.P,R3,1*
G04 #@! TO.N,Net-(Q1-Pad1)*
X51615000Y-55327000D03*
G04 #@! TD*
D26*
G04 #@! TO.N,Net-(Q1-Pad1)*
X46154000Y-54184000D02*
X48694000Y-54184000D01*
X49837000Y-55327000D02*
X51615000Y-55327000D01*
X48694000Y-54184000D02*
X49837000Y-55327000D01*
X51615000Y-52279000D02*
X51615000Y-55327000D01*
G04 #@! TO.N,Net-(D1-Pad2)*
X59235000Y-52279000D02*
X59235000Y-55327000D01*
X59235000Y-49739000D02*
X59235000Y-52279000D01*
X53520000Y-44024000D02*
X59235000Y-49739000D01*
X59235000Y-49739000D02*
X62537000Y-49739000D01*
X62537000Y-49739000D02*
X65585000Y-46691000D01*
X65585000Y-45511898D02*
X62047051Y-41973949D01*
X65585000Y-46691000D02*
X65585000Y-45511898D01*
X62047051Y-40994051D02*
X58346000Y-37293000D01*
X62047051Y-41973949D02*
X62047051Y-40994051D01*
X58346000Y-35297102D02*
X61666051Y-31977051D01*
X58346000Y-37293000D02*
X58346000Y-35297102D01*
X61666051Y-31977051D02*
X65095051Y-31977051D01*
X65712000Y-32594000D02*
X65712000Y-35388000D01*
X65095051Y-31977051D02*
X65712000Y-32594000D01*
X57910204Y-35297102D02*
X53030051Y-30416949D01*
X58346000Y-35297102D02*
X57910204Y-35297102D01*
X47805000Y-44024000D02*
X47805000Y-38563000D01*
X49964000Y-46183000D02*
X47805000Y-44024000D01*
X53520000Y-44024000D02*
X51361000Y-46183000D01*
X51361000Y-46183000D02*
X49964000Y-46183000D01*
G04 #@! TO.N,Net-(R2-Pad1)*
X11102000Y-25609000D02*
X14531000Y-25609000D01*
X17452000Y-28530000D02*
X17452000Y-44151000D01*
X14531000Y-25609000D02*
X17452000Y-28530000D01*
G04 #@! TO.N,Net-(Q1-Pad2)*
X43741000Y-51644000D02*
X46154000Y-51644000D01*
X25072000Y-49358000D02*
X34343000Y-58629000D01*
X25072000Y-44151000D02*
X25072000Y-49358000D01*
X34343000Y-58629000D02*
X40185000Y-58629000D01*
X40185000Y-58629000D02*
X41709000Y-57105000D01*
X41709000Y-57105000D02*
X41709000Y-53676000D01*
X41709000Y-53676000D02*
X43741000Y-51644000D01*
G04 #@! TO.N,Net-(C2-Pad1)*
X43995000Y-22815000D02*
X47043000Y-22815000D01*
X41074000Y-25736000D02*
X43995000Y-22815000D01*
X46154000Y-49104000D02*
X41074000Y-44024000D01*
X41074000Y-44024000D02*
X41074000Y-25736000D01*
X54643000Y-24887000D02*
X54643000Y-26703000D01*
X52571000Y-22815000D02*
X54643000Y-24887000D01*
X47043000Y-22815000D02*
X52571000Y-22815000D01*
G04 #@! TO.N,+5V*
X46995500Y-20275000D02*
X44376000Y-17655500D01*
X47043000Y-20275000D02*
X46995500Y-20275000D01*
X44376000Y-17655500D02*
X44376000Y-13798000D01*
X36502000Y-15322000D02*
X36502000Y-17989000D01*
X44376000Y-13798000D02*
X38026000Y-13798000D01*
X38026000Y-13798000D02*
X36502000Y-15322000D01*
X54809000Y-9939000D02*
X56675000Y-9939000D01*
X46419000Y-9939000D02*
X54809000Y-9939000D01*
X44376000Y-11982000D02*
X46419000Y-9939000D01*
X44376000Y-13798000D02*
X44376000Y-11982000D01*
G04 #@! TO.N,+3V3*
X3222000Y-32222000D02*
X3222000Y-19222000D01*
X4455000Y-17989000D02*
X11102000Y-17989000D01*
X3222000Y-19222000D02*
X4455000Y-17989000D01*
G04 #@! TO.N,SCL*
X3222000Y-37302000D02*
X5755200Y-37302000D01*
X5755200Y-37302000D02*
X7094200Y-38641000D01*
X7094200Y-38641000D02*
X7094200Y-49334400D01*
X8768800Y-51009000D02*
X7094200Y-49334400D01*
X11102000Y-51009000D02*
X8768800Y-51009000D01*
G04 #@! TO.N,SDA*
X3222000Y-39842000D02*
X3222000Y-56638200D01*
X3222000Y-56638200D02*
X4122400Y-57538600D01*
X4122400Y-57538600D02*
X13749000Y-57538600D01*
X13749000Y-57538600D02*
X14612600Y-56675000D01*
X14612600Y-56675000D02*
X14612600Y-44483000D01*
X13518600Y-43389000D02*
X11102000Y-43389000D01*
X14612600Y-44483000D02*
X13518600Y-43389000D01*
G04 #@! TD*
D27*
G04 #@! TO.N,GND*
G36*
X69512001Y-69512000D02*
X932000Y-69512000D01*
X932000Y-66777431D01*
X987000Y-66777431D01*
X987000Y-67666569D01*
X1327259Y-68488026D01*
X1955974Y-69116741D01*
X2777431Y-69457000D01*
X3666569Y-69457000D01*
X4488026Y-69116741D01*
X5116741Y-68488026D01*
X5457000Y-67666569D01*
X5457000Y-66777431D01*
X64987000Y-66777431D01*
X64987000Y-67666569D01*
X65327259Y-68488026D01*
X65955974Y-69116741D01*
X66777431Y-69457000D01*
X67666569Y-69457000D01*
X68488026Y-69116741D01*
X69116741Y-68488026D01*
X69457000Y-67666569D01*
X69457000Y-66777431D01*
X69116741Y-65955974D01*
X68488026Y-65327259D01*
X67666569Y-64987000D01*
X66777431Y-64987000D01*
X65955974Y-65327259D01*
X65327259Y-65955974D01*
X64987000Y-66777431D01*
X5457000Y-66777431D01*
X5116741Y-65955974D01*
X4488026Y-65327259D01*
X3666569Y-64987000D01*
X2777431Y-64987000D01*
X1955974Y-65327259D01*
X1327259Y-65955974D01*
X987000Y-66777431D01*
X932000Y-66777431D01*
X932000Y-37302000D01*
X1707908Y-37302000D01*
X1823161Y-37881418D01*
X2151375Y-38372625D01*
X2169619Y-38384816D01*
X2124235Y-38393843D01*
X1914191Y-38534191D01*
X1773843Y-38744235D01*
X1724560Y-38992000D01*
X1724560Y-40692000D01*
X1773843Y-40939765D01*
X1914191Y-41149809D01*
X2079000Y-41259932D01*
X2079001Y-56525624D01*
X2056608Y-56638200D01*
X2145319Y-57084176D01*
X2397944Y-57462257D01*
X2493380Y-57526025D01*
X3234574Y-58267220D01*
X3298343Y-58362657D01*
X3676424Y-58615282D01*
X4009828Y-58681600D01*
X4009829Y-58681600D01*
X4122400Y-58703992D01*
X4234971Y-58681600D01*
X13636429Y-58681600D01*
X13749000Y-58703992D01*
X13861571Y-58681600D01*
X13861572Y-58681600D01*
X14194976Y-58615282D01*
X14573057Y-58362657D01*
X14636827Y-58267218D01*
X15341221Y-57562825D01*
X15436657Y-57499057D01*
X15689282Y-57120976D01*
X15755600Y-56787572D01*
X15755600Y-56787571D01*
X15777992Y-56675000D01*
X15755600Y-56562429D01*
X15755600Y-44595572D01*
X15777992Y-44483000D01*
X15689282Y-44037023D01*
X15554278Y-43834976D01*
X15436657Y-43658943D01*
X15341220Y-43595174D01*
X14406427Y-42660382D01*
X14342657Y-42564943D01*
X13964576Y-42312318D01*
X13631172Y-42246000D01*
X13631171Y-42246000D01*
X13518600Y-42223608D01*
X13406029Y-42246000D01*
X12323913Y-42246000D01*
X12292305Y-42198695D01*
X12173033Y-42119000D01*
X12292305Y-42039305D01*
X12657208Y-41493188D01*
X12785345Y-40849000D01*
X12657208Y-40204812D01*
X12292305Y-39658695D01*
X12173033Y-39579000D01*
X12292305Y-39499305D01*
X12657208Y-38953188D01*
X12785345Y-38309000D01*
X12657208Y-37664812D01*
X12292305Y-37118695D01*
X12173033Y-37039000D01*
X12292305Y-36959305D01*
X12657208Y-36413188D01*
X12785345Y-35769000D01*
X12657208Y-35124812D01*
X12292305Y-34578695D01*
X12173033Y-34499000D01*
X12292305Y-34419305D01*
X12657208Y-33873188D01*
X12785345Y-33229000D01*
X12657208Y-32584812D01*
X12292305Y-32038695D01*
X12173033Y-31959000D01*
X12292305Y-31879305D01*
X12657208Y-31333188D01*
X12785345Y-30689000D01*
X12657208Y-30044812D01*
X12292305Y-29498695D01*
X12173033Y-29419000D01*
X12292305Y-29339305D01*
X12657208Y-28793188D01*
X12785345Y-28149000D01*
X12657208Y-27504812D01*
X12292305Y-26958695D01*
X12173033Y-26879000D01*
X12292305Y-26799305D01*
X12323913Y-26752000D01*
X14057555Y-26752000D01*
X16309000Y-29003446D01*
X16309001Y-43421921D01*
X16117000Y-43885452D01*
X16117000Y-44416548D01*
X16320242Y-44907217D01*
X16695783Y-45282758D01*
X17186452Y-45486000D01*
X17717548Y-45486000D01*
X18208217Y-45282758D01*
X18583758Y-44907217D01*
X18787000Y-44416548D01*
X18787000Y-44151000D01*
X23710846Y-44151000D01*
X23814458Y-44671891D01*
X23929000Y-44843315D01*
X23929001Y-49245424D01*
X23906608Y-49358000D01*
X23990625Y-49780376D01*
X23995319Y-49803976D01*
X24247944Y-50182057D01*
X24343380Y-50245825D01*
X33455175Y-59357621D01*
X33518943Y-59453057D01*
X33897024Y-59705682D01*
X34230428Y-59772000D01*
X34230429Y-59772000D01*
X34343000Y-59794392D01*
X34455571Y-59772000D01*
X40072429Y-59772000D01*
X40185000Y-59794392D01*
X40297571Y-59772000D01*
X40297572Y-59772000D01*
X40630976Y-59705682D01*
X41009057Y-59453057D01*
X41072827Y-59357618D01*
X42437621Y-57992825D01*
X42533057Y-57929057D01*
X42785682Y-57550976D01*
X42852000Y-57217572D01*
X42852000Y-57217571D01*
X42874392Y-57105001D01*
X42852000Y-56992430D01*
X42852000Y-54149445D01*
X44214446Y-52787000D01*
X45338313Y-52787000D01*
X45348844Y-52797531D01*
X45156235Y-52835843D01*
X44946191Y-52976191D01*
X44805843Y-53186235D01*
X44756560Y-53434000D01*
X44756560Y-54934000D01*
X44805843Y-55181765D01*
X44946191Y-55391809D01*
X45156235Y-55532157D01*
X45404000Y-55581440D01*
X46904000Y-55581440D01*
X47151765Y-55532157D01*
X47361809Y-55391809D01*
X47405113Y-55327000D01*
X48220555Y-55327000D01*
X48949174Y-56055620D01*
X49012943Y-56151057D01*
X49391024Y-56403682D01*
X49724428Y-56470000D01*
X49836999Y-56492392D01*
X49949570Y-56470000D01*
X50885924Y-56470000D01*
X51349452Y-56662000D01*
X51880548Y-56662000D01*
X52371217Y-56458758D01*
X52746758Y-56083217D01*
X52950000Y-55592548D01*
X52950000Y-55061452D01*
X52758000Y-54597924D01*
X52758000Y-53008076D01*
X52950000Y-52544548D01*
X52950000Y-52013452D01*
X52746758Y-51522783D01*
X52371217Y-51147242D01*
X51880548Y-50944000D01*
X51349452Y-50944000D01*
X50858783Y-51147242D01*
X50483242Y-51522783D01*
X50280000Y-52013452D01*
X50280000Y-52544548D01*
X50472000Y-53008077D01*
X50472001Y-54184000D01*
X50310446Y-54184000D01*
X49581827Y-53455382D01*
X49518057Y-53359943D01*
X49139976Y-53107318D01*
X48806572Y-53041000D01*
X48806571Y-53041000D01*
X48694000Y-53018608D01*
X48581429Y-53041000D01*
X47405113Y-53041000D01*
X47361809Y-52976191D01*
X47151765Y-52835843D01*
X46959156Y-52797531D01*
X47328147Y-52428540D01*
X47539000Y-51919494D01*
X47539000Y-51368506D01*
X47328147Y-50859460D01*
X46938540Y-50469853D01*
X46707130Y-50374000D01*
X46938540Y-50278147D01*
X47328147Y-49888540D01*
X47539000Y-49379494D01*
X47539000Y-48828506D01*
X47328147Y-48319460D01*
X46938540Y-47929853D01*
X46429494Y-47719000D01*
X46385446Y-47719000D01*
X42217000Y-43550555D01*
X42217000Y-36308750D01*
X46270000Y-36308750D01*
X46270000Y-37049309D01*
X46366673Y-37282698D01*
X46545301Y-37461327D01*
X46680044Y-37517139D01*
X46503690Y-37693493D01*
X46270000Y-38257670D01*
X46270000Y-38868330D01*
X46503690Y-39432507D01*
X46662001Y-39590818D01*
X46662000Y-43911429D01*
X46639608Y-44024000D01*
X46662000Y-44136571D01*
X46728318Y-44469975D01*
X46980943Y-44848057D01*
X47076382Y-44911827D01*
X49076174Y-46911620D01*
X49139943Y-47007057D01*
X49518024Y-47259682D01*
X49851428Y-47326000D01*
X49963999Y-47348392D01*
X50076570Y-47326000D01*
X51248429Y-47326000D01*
X51361000Y-47348392D01*
X51473571Y-47326000D01*
X51473572Y-47326000D01*
X51806976Y-47259682D01*
X52185057Y-47007057D01*
X52248827Y-46911618D01*
X53520000Y-45640445D01*
X58092000Y-50212446D01*
X58092001Y-51586684D01*
X57977458Y-51758109D01*
X57873846Y-52279000D01*
X57977458Y-52799891D01*
X58092000Y-52971316D01*
X58092001Y-54634684D01*
X57977458Y-54806109D01*
X57873846Y-55327000D01*
X57977458Y-55847891D01*
X58272519Y-56289481D01*
X58714109Y-56584542D01*
X59103515Y-56662000D01*
X59366485Y-56662000D01*
X59755891Y-56584542D01*
X60197481Y-56289481D01*
X60492542Y-55847891D01*
X60596154Y-55327000D01*
X60492542Y-54806109D01*
X60378000Y-54634685D01*
X60378000Y-52971315D01*
X60492542Y-52799891D01*
X60596154Y-52279000D01*
X60492542Y-51758109D01*
X60378000Y-51586685D01*
X60378000Y-50882000D01*
X62424429Y-50882000D01*
X62537000Y-50904392D01*
X62649571Y-50882000D01*
X62649572Y-50882000D01*
X62982976Y-50815682D01*
X63361057Y-50563057D01*
X63424827Y-50467618D01*
X66313621Y-47578825D01*
X66409057Y-47515057D01*
X66661682Y-47136976D01*
X66728000Y-46803572D01*
X66728000Y-46803571D01*
X66750392Y-46691000D01*
X66728000Y-46578429D01*
X66728000Y-45624468D01*
X66750392Y-45511897D01*
X66693858Y-45227682D01*
X66661682Y-45065922D01*
X66409057Y-44687841D01*
X66313620Y-44624073D01*
X63582051Y-41892504D01*
X63582051Y-41668619D01*
X63348361Y-41104442D01*
X63206105Y-40962186D01*
X63123733Y-40548074D01*
X62971443Y-40320157D01*
X62871108Y-40169994D01*
X62775671Y-40106226D01*
X60883195Y-38213750D01*
X64177000Y-38213750D01*
X64177000Y-38954309D01*
X64273673Y-39187698D01*
X64452301Y-39366327D01*
X64685690Y-39463000D01*
X65426250Y-39463000D01*
X65585000Y-39304250D01*
X65585000Y-38055000D01*
X65839000Y-38055000D01*
X65839000Y-39304250D01*
X65997750Y-39463000D01*
X66738310Y-39463000D01*
X66971699Y-39366327D01*
X67150327Y-39187698D01*
X67247000Y-38954309D01*
X67247000Y-38213750D01*
X67088250Y-38055000D01*
X65839000Y-38055000D01*
X65585000Y-38055000D01*
X64335750Y-38055000D01*
X64177000Y-38213750D01*
X60883195Y-38213750D01*
X59881000Y-37211555D01*
X59881000Y-36987670D01*
X59647310Y-36423493D01*
X59489000Y-36265183D01*
X59489000Y-35770547D01*
X61747497Y-33512051D01*
X61971381Y-33512051D01*
X62535558Y-33278361D01*
X62693868Y-33120051D01*
X64569000Y-33120051D01*
X64569001Y-34360182D01*
X64410690Y-34518493D01*
X64177000Y-35082670D01*
X64177000Y-35693330D01*
X64410690Y-36257507D01*
X64587044Y-36433861D01*
X64452301Y-36489673D01*
X64273673Y-36668302D01*
X64177000Y-36901691D01*
X64177000Y-37642250D01*
X64335750Y-37801000D01*
X65585000Y-37801000D01*
X65585000Y-37781000D01*
X65839000Y-37781000D01*
X65839000Y-37801000D01*
X67088250Y-37801000D01*
X67247000Y-37642250D01*
X67247000Y-36901691D01*
X67150327Y-36668302D01*
X66971699Y-36489673D01*
X66836956Y-36433861D01*
X67013310Y-36257507D01*
X67247000Y-35693330D01*
X67247000Y-35082670D01*
X67013310Y-34518493D01*
X66855000Y-34360183D01*
X66855000Y-32706572D01*
X66877392Y-32594000D01*
X66788682Y-32148023D01*
X66715631Y-32038695D01*
X66536057Y-31769943D01*
X66440618Y-31706173D01*
X65982878Y-31248433D01*
X65919108Y-31152994D01*
X65541027Y-30900369D01*
X65207623Y-30834051D01*
X65207622Y-30834051D01*
X65095051Y-30811659D01*
X64982480Y-30834051D01*
X62693868Y-30834051D01*
X62535558Y-30675741D01*
X61971381Y-30442051D01*
X61721981Y-30442051D01*
X61777792Y-30307309D01*
X61777792Y-30054690D01*
X61681119Y-29821301D01*
X61157465Y-29297647D01*
X60932958Y-29297647D01*
X60049605Y-30181000D01*
X60063748Y-30195143D01*
X59884143Y-30374748D01*
X59870000Y-30360605D01*
X58986647Y-31243958D01*
X58986647Y-31468465D01*
X59510301Y-31992119D01*
X59743690Y-32088792D01*
X59937864Y-32088792D01*
X58128102Y-33898554D01*
X54565051Y-30335504D01*
X54565051Y-30111619D01*
X54541471Y-30054691D01*
X57962208Y-30054691D01*
X57962208Y-30307310D01*
X58058881Y-30540699D01*
X58582535Y-31064353D01*
X58807042Y-31064353D01*
X59690395Y-30181000D01*
X58807042Y-29297647D01*
X58582535Y-29297647D01*
X58058880Y-29821302D01*
X57962208Y-30054691D01*
X54541471Y-30054691D01*
X54331361Y-29547442D01*
X53899558Y-29115639D01*
X53363353Y-28893535D01*
X58986647Y-28893535D01*
X58986647Y-29118042D01*
X59870000Y-30001395D01*
X60753353Y-29118042D01*
X60753353Y-28893535D01*
X60229699Y-28369881D01*
X59996310Y-28273208D01*
X59743691Y-28273208D01*
X59510302Y-28369880D01*
X58986647Y-28893535D01*
X53363353Y-28893535D01*
X53335381Y-28881949D01*
X52724721Y-28881949D01*
X52160544Y-29115639D01*
X51728741Y-29547442D01*
X51495051Y-30111619D01*
X51495051Y-30361019D01*
X51360309Y-30305208D01*
X51107690Y-30305208D01*
X50874301Y-30401881D01*
X50350647Y-30925535D01*
X50350647Y-31150042D01*
X51234000Y-32033395D01*
X51248143Y-32019253D01*
X51427748Y-32198858D01*
X51413605Y-32213000D01*
X52296958Y-33096353D01*
X52521465Y-33096353D01*
X53045119Y-32572699D01*
X53141792Y-32339310D01*
X53141792Y-32145135D01*
X56754656Y-35758000D01*
X56091750Y-35758000D01*
X55933000Y-35916750D01*
X55933000Y-37166000D01*
X55953000Y-37166000D01*
X55953000Y-37420000D01*
X55933000Y-37420000D01*
X55933000Y-38669250D01*
X56091750Y-38828000D01*
X56832309Y-38828000D01*
X57065698Y-38731327D01*
X57244327Y-38552699D01*
X57300139Y-38417956D01*
X57476493Y-38594310D01*
X58040670Y-38828000D01*
X58264555Y-38828000D01*
X60685773Y-41249218D01*
X60512051Y-41668619D01*
X60512051Y-41918019D01*
X60377309Y-41862208D01*
X60124690Y-41862208D01*
X59891301Y-41958881D01*
X59367647Y-42482535D01*
X59367647Y-42707042D01*
X60251000Y-43590395D01*
X60265143Y-43576253D01*
X60444748Y-43755858D01*
X60430605Y-43770000D01*
X61313958Y-44653353D01*
X61538465Y-44653353D01*
X62062119Y-44129699D01*
X62158792Y-43896310D01*
X62158792Y-43702135D01*
X64442000Y-45985344D01*
X64442000Y-46217554D01*
X62063555Y-48596000D01*
X59708446Y-48596000D01*
X55945404Y-44832958D01*
X59367647Y-44832958D01*
X59367647Y-45057465D01*
X59891302Y-45581120D01*
X60124691Y-45677792D01*
X60377310Y-45677792D01*
X60610699Y-45581119D01*
X61134353Y-45057465D01*
X61134353Y-44832958D01*
X60251000Y-43949605D01*
X59367647Y-44832958D01*
X55945404Y-44832958D01*
X55055000Y-43942555D01*
X55055000Y-43718670D01*
X55023943Y-43643690D01*
X58343208Y-43643690D01*
X58343208Y-43896309D01*
X58439880Y-44129698D01*
X58963535Y-44653353D01*
X59188042Y-44653353D01*
X60071395Y-43770000D01*
X59188042Y-42886647D01*
X58963535Y-42886647D01*
X58439881Y-43410301D01*
X58343208Y-43643690D01*
X55023943Y-43643690D01*
X54821310Y-43154493D01*
X54389507Y-42722690D01*
X53825330Y-42489000D01*
X53575930Y-42489000D01*
X53631741Y-42354258D01*
X53631741Y-42101639D01*
X53535068Y-41868250D01*
X53011414Y-41344596D01*
X52786907Y-41344596D01*
X51903554Y-42227949D01*
X51917697Y-42242092D01*
X51738092Y-42421697D01*
X51723949Y-42407554D01*
X50840596Y-43290907D01*
X50840596Y-43515414D01*
X51364250Y-44039068D01*
X51597639Y-44135741D01*
X51791813Y-44135741D01*
X50887555Y-45040000D01*
X50437446Y-45040000D01*
X48948000Y-43550555D01*
X48948000Y-42101640D01*
X49816157Y-42101640D01*
X49816157Y-42354259D01*
X49912830Y-42587648D01*
X50436484Y-43111302D01*
X50660991Y-43111302D01*
X51544344Y-42227949D01*
X50660991Y-41344596D01*
X50436484Y-41344596D01*
X49912829Y-41868251D01*
X49816157Y-42101640D01*
X48948000Y-42101640D01*
X48948000Y-40940484D01*
X50840596Y-40940484D01*
X50840596Y-41164991D01*
X51723949Y-42048344D01*
X52607302Y-41164991D01*
X52607302Y-40940484D01*
X52083648Y-40416830D01*
X51850259Y-40320157D01*
X51597640Y-40320157D01*
X51364251Y-40416829D01*
X50840596Y-40940484D01*
X48948000Y-40940484D01*
X48948000Y-39590817D01*
X49106310Y-39432507D01*
X49340000Y-38868330D01*
X49340000Y-38257670D01*
X49106310Y-37693493D01*
X48991567Y-37578750D01*
X54271000Y-37578750D01*
X54271000Y-38319310D01*
X54367673Y-38552699D01*
X54546302Y-38731327D01*
X54779691Y-38828000D01*
X55520250Y-38828000D01*
X55679000Y-38669250D01*
X55679000Y-37420000D01*
X54429750Y-37420000D01*
X54271000Y-37578750D01*
X48991567Y-37578750D01*
X48929956Y-37517139D01*
X49064699Y-37461327D01*
X49243327Y-37282698D01*
X49340000Y-37049309D01*
X49340000Y-36308750D01*
X49297940Y-36266690D01*
X54271000Y-36266690D01*
X54271000Y-37007250D01*
X54429750Y-37166000D01*
X55679000Y-37166000D01*
X55679000Y-35916750D01*
X55520250Y-35758000D01*
X54779691Y-35758000D01*
X54546302Y-35854673D01*
X54367673Y-36033301D01*
X54271000Y-36266690D01*
X49297940Y-36266690D01*
X49181250Y-36150000D01*
X47932000Y-36150000D01*
X47932000Y-36170000D01*
X47678000Y-36170000D01*
X47678000Y-36150000D01*
X46428750Y-36150000D01*
X46270000Y-36308750D01*
X42217000Y-36308750D01*
X42217000Y-34996691D01*
X46270000Y-34996691D01*
X46270000Y-35737250D01*
X46428750Y-35896000D01*
X47678000Y-35896000D01*
X47678000Y-34646750D01*
X47932000Y-34646750D01*
X47932000Y-35896000D01*
X49181250Y-35896000D01*
X49340000Y-35737250D01*
X49340000Y-34996691D01*
X49243327Y-34763302D01*
X49064699Y-34584673D01*
X48831310Y-34488000D01*
X48090750Y-34488000D01*
X47932000Y-34646750D01*
X47678000Y-34646750D01*
X47519250Y-34488000D01*
X46778690Y-34488000D01*
X46545301Y-34584673D01*
X46366673Y-34763302D01*
X46270000Y-34996691D01*
X42217000Y-34996691D01*
X42217000Y-33275958D01*
X50350647Y-33275958D01*
X50350647Y-33500465D01*
X50874302Y-34024120D01*
X51107691Y-34120792D01*
X51360310Y-34120792D01*
X51593699Y-34024119D01*
X52117353Y-33500465D01*
X52117353Y-33275958D01*
X51234000Y-32392605D01*
X50350647Y-33275958D01*
X42217000Y-33275958D01*
X42217000Y-32086690D01*
X49326208Y-32086690D01*
X49326208Y-32339309D01*
X49422880Y-32572698D01*
X49946535Y-33096353D01*
X50171042Y-33096353D01*
X51054395Y-32213000D01*
X50171042Y-31329647D01*
X49946535Y-31329647D01*
X49422881Y-31853301D01*
X49326208Y-32086690D01*
X42217000Y-32086690D01*
X42217000Y-26209445D01*
X42785695Y-25640750D01*
X45408000Y-25640750D01*
X45408000Y-26433809D01*
X45504673Y-26667198D01*
X45683301Y-26845827D01*
X45916690Y-26942500D01*
X46757250Y-26942500D01*
X46916000Y-26783750D01*
X46916000Y-25482000D01*
X47170000Y-25482000D01*
X47170000Y-26783750D01*
X47328750Y-26942500D01*
X48169310Y-26942500D01*
X48402699Y-26845827D01*
X48581327Y-26667198D01*
X48678000Y-26433809D01*
X48678000Y-25640750D01*
X48519250Y-25482000D01*
X47170000Y-25482000D01*
X46916000Y-25482000D01*
X45566750Y-25482000D01*
X45408000Y-25640750D01*
X42785695Y-25640750D01*
X44468446Y-23958000D01*
X45589475Y-23958000D01*
X45504673Y-24042802D01*
X45408000Y-24276191D01*
X45408000Y-25069250D01*
X45566750Y-25228000D01*
X46916000Y-25228000D01*
X46916000Y-25208000D01*
X47170000Y-25208000D01*
X47170000Y-25228000D01*
X48519250Y-25228000D01*
X48678000Y-25069250D01*
X48678000Y-24276191D01*
X48581327Y-24042802D01*
X48496525Y-23958000D01*
X52097555Y-23958000D01*
X53500000Y-25360446D01*
X53500000Y-25368477D01*
X53385191Y-25445191D01*
X53244843Y-25655235D01*
X53195560Y-25903000D01*
X53195560Y-27503000D01*
X53244843Y-27750765D01*
X53385191Y-27960809D01*
X53595235Y-28101157D01*
X53843000Y-28150440D01*
X55443000Y-28150440D01*
X55690765Y-28101157D01*
X55900809Y-27960809D01*
X56041157Y-27750765D01*
X56049117Y-27710745D01*
X56314861Y-27710745D01*
X56388995Y-27956864D01*
X56926223Y-28149965D01*
X57496454Y-28122778D01*
X57897005Y-27956864D01*
X57971139Y-27710745D01*
X57143000Y-26882605D01*
X56314861Y-27710745D01*
X56049117Y-27710745D01*
X56087693Y-27516813D01*
X56135255Y-27531139D01*
X56963395Y-26703000D01*
X57322605Y-26703000D01*
X58150745Y-27531139D01*
X58396864Y-27457005D01*
X58589965Y-26919777D01*
X58562778Y-26349546D01*
X58396864Y-25948995D01*
X58150745Y-25874861D01*
X57322605Y-26703000D01*
X56963395Y-26703000D01*
X56135255Y-25874861D01*
X56087693Y-25889187D01*
X56049118Y-25695255D01*
X56314861Y-25695255D01*
X57143000Y-26523395D01*
X57971139Y-25695255D01*
X57897005Y-25449136D01*
X57359777Y-25256035D01*
X56789546Y-25283222D01*
X56388995Y-25449136D01*
X56314861Y-25695255D01*
X56049118Y-25695255D01*
X56041157Y-25655235D01*
X55900809Y-25445191D01*
X55786000Y-25368477D01*
X55786000Y-24999572D01*
X55808392Y-24887000D01*
X55719682Y-24441023D01*
X55609544Y-24276191D01*
X55467057Y-24062943D01*
X55371621Y-23999175D01*
X53458827Y-22086382D01*
X53395057Y-21990943D01*
X53016976Y-21738318D01*
X52683572Y-21672000D01*
X52683571Y-21672000D01*
X52571000Y-21649608D01*
X52458429Y-21672000D01*
X48236041Y-21672000D01*
X48235023Y-21670477D01*
X48047233Y-21545000D01*
X48235023Y-21419523D01*
X48585891Y-20894411D01*
X48673118Y-20455890D01*
X55233524Y-20455890D01*
X55403355Y-20865924D01*
X55793642Y-21294183D01*
X56318108Y-21540486D01*
X56548000Y-21419819D01*
X56548000Y-20226000D01*
X56802000Y-20226000D01*
X56802000Y-21419819D01*
X57031892Y-21540486D01*
X57556358Y-21294183D01*
X57946645Y-20865924D01*
X58116476Y-20455890D01*
X57995155Y-20226000D01*
X56802000Y-20226000D01*
X56548000Y-20226000D01*
X55354845Y-20226000D01*
X55233524Y-20455890D01*
X48673118Y-20455890D01*
X48709100Y-20275000D01*
X48585891Y-19655589D01*
X48235023Y-19130477D01*
X47709911Y-18779609D01*
X47246850Y-18687500D01*
X47024446Y-18687500D01*
X45519000Y-17182055D01*
X45519000Y-15132523D01*
X45633809Y-15055809D01*
X45774157Y-14845765D01*
X45782117Y-14805745D01*
X46047861Y-14805745D01*
X46121995Y-15051864D01*
X46659223Y-15244965D01*
X47229454Y-15217778D01*
X47630005Y-15051864D01*
X47704139Y-14805745D01*
X46876000Y-13977605D01*
X46047861Y-14805745D01*
X45782117Y-14805745D01*
X45820693Y-14611813D01*
X45868255Y-14626139D01*
X46696395Y-13798000D01*
X47055605Y-13798000D01*
X47883745Y-14626139D01*
X48129864Y-14552005D01*
X48322965Y-14014777D01*
X48295778Y-13444546D01*
X48129864Y-13043995D01*
X47883745Y-12969861D01*
X47055605Y-13798000D01*
X46696395Y-13798000D01*
X45868255Y-12969861D01*
X45820693Y-12984187D01*
X45782118Y-12790255D01*
X46047861Y-12790255D01*
X46876000Y-13618395D01*
X47704139Y-12790255D01*
X47630005Y-12544136D01*
X47092777Y-12351035D01*
X46522546Y-12378222D01*
X46121995Y-12544136D01*
X46047861Y-12790255D01*
X45782118Y-12790255D01*
X45774157Y-12750235D01*
X45633809Y-12540191D01*
X45519000Y-12463477D01*
X45519000Y-12455445D01*
X46892446Y-11082000D01*
X55257068Y-11082000D01*
X55367191Y-11246809D01*
X55577235Y-11387157D01*
X55622619Y-11396184D01*
X55604375Y-11408375D01*
X55276161Y-11899582D01*
X55160908Y-12479000D01*
X55276161Y-13058418D01*
X55604375Y-13549625D01*
X55902761Y-13749000D01*
X55604375Y-13948375D01*
X55276161Y-14439582D01*
X55160908Y-15019000D01*
X55276161Y-15598418D01*
X55604375Y-16089625D01*
X55902761Y-16289000D01*
X55604375Y-16488375D01*
X55276161Y-16979582D01*
X55160908Y-17559000D01*
X55276161Y-18138418D01*
X55604375Y-18629625D01*
X55923478Y-18842843D01*
X55793642Y-18903817D01*
X55403355Y-19332076D01*
X55233524Y-19742110D01*
X55354845Y-19972000D01*
X56548000Y-19972000D01*
X56548000Y-19952000D01*
X56802000Y-19952000D01*
X56802000Y-19972000D01*
X57995155Y-19972000D01*
X58074780Y-19821119D01*
X62898000Y-19821119D01*
X62898000Y-20376881D01*
X63110680Y-20890337D01*
X63503663Y-21283320D01*
X64017119Y-21496000D01*
X64572881Y-21496000D01*
X65086337Y-21283320D01*
X65479320Y-20890337D01*
X65692000Y-20376881D01*
X65692000Y-19821119D01*
X65479320Y-19307663D01*
X65086337Y-18914680D01*
X64572881Y-18702000D01*
X64017119Y-18702000D01*
X63503663Y-18914680D01*
X63110680Y-19307663D01*
X62898000Y-19821119D01*
X58074780Y-19821119D01*
X58116476Y-19742110D01*
X57946645Y-19332076D01*
X57556358Y-18903817D01*
X57426522Y-18842843D01*
X57745625Y-18629625D01*
X58073839Y-18138418D01*
X58189092Y-17559000D01*
X58073839Y-16979582D01*
X57745625Y-16488375D01*
X57447239Y-16289000D01*
X57745625Y-16089625D01*
X58073839Y-15598418D01*
X58189092Y-15019000D01*
X58073839Y-14439582D01*
X57745625Y-13948375D01*
X57447239Y-13749000D01*
X57745625Y-13549625D01*
X58073839Y-13058418D01*
X58189092Y-12479000D01*
X58073839Y-11899582D01*
X57745625Y-11408375D01*
X57727381Y-11396184D01*
X57772765Y-11387157D01*
X57982809Y-11246809D01*
X58123157Y-11036765D01*
X58172440Y-10789000D01*
X58172440Y-9661119D01*
X62898000Y-9661119D01*
X62898000Y-10216881D01*
X63110680Y-10730337D01*
X63503663Y-11123320D01*
X64017119Y-11336000D01*
X64572881Y-11336000D01*
X65086337Y-11123320D01*
X65479320Y-10730337D01*
X65692000Y-10216881D01*
X65692000Y-9661119D01*
X65479320Y-9147663D01*
X65086337Y-8754680D01*
X64572881Y-8542000D01*
X64017119Y-8542000D01*
X63503663Y-8754680D01*
X63110680Y-9147663D01*
X62898000Y-9661119D01*
X58172440Y-9661119D01*
X58172440Y-9089000D01*
X58123157Y-8841235D01*
X57982809Y-8631191D01*
X57772765Y-8490843D01*
X57525000Y-8441560D01*
X55825000Y-8441560D01*
X55577235Y-8490843D01*
X55367191Y-8631191D01*
X55257068Y-8796000D01*
X46531570Y-8796000D01*
X46418999Y-8773608D01*
X46306428Y-8796000D01*
X45973024Y-8862318D01*
X45594943Y-9114943D01*
X45531174Y-9210380D01*
X43647380Y-11094175D01*
X43551944Y-11157943D01*
X43384611Y-11408375D01*
X43299319Y-11536024D01*
X43210608Y-11982000D01*
X43233001Y-12094576D01*
X43233001Y-12463477D01*
X43118191Y-12540191D01*
X43041477Y-12655000D01*
X38138570Y-12655000D01*
X38025999Y-12632608D01*
X37913428Y-12655000D01*
X37580024Y-12721318D01*
X37201943Y-12973943D01*
X37138174Y-13069380D01*
X35773382Y-14434173D01*
X35677943Y-14497943D01*
X35425318Y-14876025D01*
X35412394Y-14941000D01*
X35336608Y-15322000D01*
X35359000Y-15434571D01*
X35359000Y-16350822D01*
X35238235Y-16374843D01*
X35028191Y-16515191D01*
X34887843Y-16725235D01*
X34838560Y-16973000D01*
X34838560Y-19005000D01*
X34887843Y-19252765D01*
X35028191Y-19462809D01*
X35166856Y-19555463D01*
X34946792Y-19884812D01*
X34818655Y-20529000D01*
X34946792Y-21173188D01*
X35311695Y-21719305D01*
X35430967Y-21799000D01*
X35311695Y-21878695D01*
X34946792Y-22424812D01*
X34818655Y-23069000D01*
X34946792Y-23713188D01*
X35311695Y-24259305D01*
X35430967Y-24339000D01*
X35311695Y-24418695D01*
X34946792Y-24964812D01*
X34818655Y-25609000D01*
X34946792Y-26253188D01*
X35311695Y-26799305D01*
X35430967Y-26879000D01*
X35311695Y-26958695D01*
X34946792Y-27504812D01*
X34818655Y-28149000D01*
X34946792Y-28793188D01*
X35311695Y-29339305D01*
X35430967Y-29419000D01*
X35311695Y-29498695D01*
X34946792Y-30044812D01*
X34818655Y-30689000D01*
X34946792Y-31333188D01*
X35311695Y-31879305D01*
X35430967Y-31959000D01*
X35311695Y-32038695D01*
X34946792Y-32584812D01*
X34818655Y-33229000D01*
X34946792Y-33873188D01*
X35311695Y-34419305D01*
X35430967Y-34499000D01*
X35311695Y-34578695D01*
X34946792Y-35124812D01*
X34818655Y-35769000D01*
X34946792Y-36413188D01*
X35311695Y-36959305D01*
X35430967Y-37039000D01*
X35311695Y-37118695D01*
X34946792Y-37664812D01*
X34818655Y-38309000D01*
X34946792Y-38953188D01*
X35311695Y-39499305D01*
X35430967Y-39579000D01*
X35311695Y-39658695D01*
X34946792Y-40204812D01*
X34818655Y-40849000D01*
X34946792Y-41493188D01*
X35311695Y-42039305D01*
X35430967Y-42119000D01*
X35311695Y-42198695D01*
X34946792Y-42744812D01*
X34818655Y-43389000D01*
X34946792Y-44033188D01*
X35311695Y-44579305D01*
X35430967Y-44659000D01*
X35311695Y-44738695D01*
X34946792Y-45284812D01*
X34818655Y-45929000D01*
X34946792Y-46573188D01*
X35311695Y-47119305D01*
X35430967Y-47199000D01*
X35311695Y-47278695D01*
X34946792Y-47824812D01*
X34818655Y-48469000D01*
X34946792Y-49113188D01*
X35311695Y-49659305D01*
X35430967Y-49739000D01*
X35311695Y-49818695D01*
X34946792Y-50364812D01*
X34818655Y-51009000D01*
X34946792Y-51653188D01*
X35311695Y-52199305D01*
X35430967Y-52279000D01*
X35311695Y-52358695D01*
X34946792Y-52904812D01*
X34818655Y-53549000D01*
X34946792Y-54193188D01*
X35311695Y-54739305D01*
X35857812Y-55104208D01*
X36339391Y-55200000D01*
X36664609Y-55200000D01*
X37146188Y-55104208D01*
X37692305Y-54739305D01*
X38057208Y-54193188D01*
X38185345Y-53549000D01*
X38057208Y-52904812D01*
X37692305Y-52358695D01*
X37573033Y-52279000D01*
X37692305Y-52199305D01*
X38057208Y-51653188D01*
X38185345Y-51009000D01*
X38057208Y-50364812D01*
X37692305Y-49818695D01*
X37573033Y-49739000D01*
X37692305Y-49659305D01*
X38057208Y-49113188D01*
X38185345Y-48469000D01*
X38057208Y-47824812D01*
X37692305Y-47278695D01*
X37573033Y-47199000D01*
X37692305Y-47119305D01*
X38057208Y-46573188D01*
X38185345Y-45929000D01*
X38057208Y-45284812D01*
X37692305Y-44738695D01*
X37573033Y-44659000D01*
X37692305Y-44579305D01*
X38057208Y-44033188D01*
X38185345Y-43389000D01*
X38057208Y-42744812D01*
X37692305Y-42198695D01*
X37573033Y-42119000D01*
X37692305Y-42039305D01*
X38057208Y-41493188D01*
X38185345Y-40849000D01*
X38057208Y-40204812D01*
X37692305Y-39658695D01*
X37573033Y-39579000D01*
X37692305Y-39499305D01*
X38057208Y-38953188D01*
X38185345Y-38309000D01*
X38057208Y-37664812D01*
X37692305Y-37118695D01*
X37573033Y-37039000D01*
X37692305Y-36959305D01*
X38057208Y-36413188D01*
X38185345Y-35769000D01*
X38057208Y-35124812D01*
X37692305Y-34578695D01*
X37573033Y-34499000D01*
X37692305Y-34419305D01*
X38057208Y-33873188D01*
X38185345Y-33229000D01*
X38057208Y-32584812D01*
X37692305Y-32038695D01*
X37573033Y-31959000D01*
X37692305Y-31879305D01*
X38057208Y-31333188D01*
X38185345Y-30689000D01*
X38057208Y-30044812D01*
X37692305Y-29498695D01*
X37573033Y-29419000D01*
X37692305Y-29339305D01*
X38057208Y-28793188D01*
X38185345Y-28149000D01*
X38057208Y-27504812D01*
X37692305Y-26958695D01*
X37573033Y-26879000D01*
X37692305Y-26799305D01*
X38057208Y-26253188D01*
X38185345Y-25609000D01*
X38057208Y-24964812D01*
X37692305Y-24418695D01*
X37573033Y-24339000D01*
X37692305Y-24259305D01*
X38057208Y-23713188D01*
X38185345Y-23069000D01*
X38057208Y-22424812D01*
X37692305Y-21878695D01*
X37573033Y-21799000D01*
X37692305Y-21719305D01*
X38057208Y-21173188D01*
X38185345Y-20529000D01*
X38057208Y-19884812D01*
X37837144Y-19555463D01*
X37975809Y-19462809D01*
X38116157Y-19252765D01*
X38165440Y-19005000D01*
X38165440Y-16973000D01*
X38116157Y-16725235D01*
X37975809Y-16515191D01*
X37765765Y-16374843D01*
X37645000Y-16350822D01*
X37645000Y-15795445D01*
X38499446Y-14941000D01*
X43041477Y-14941000D01*
X43118191Y-15055809D01*
X43233001Y-15132523D01*
X43233000Y-17542929D01*
X43210608Y-17655500D01*
X43233000Y-17768071D01*
X43299318Y-18101475D01*
X43551943Y-18479557D01*
X43647382Y-18543327D01*
X45377257Y-20273203D01*
X45376900Y-20275000D01*
X45500109Y-20894411D01*
X45850977Y-21419523D01*
X46038767Y-21545000D01*
X45850977Y-21670477D01*
X45849959Y-21672000D01*
X44107571Y-21672000D01*
X43995000Y-21649608D01*
X43882429Y-21672000D01*
X43882428Y-21672000D01*
X43549024Y-21738318D01*
X43170943Y-21990943D01*
X43107174Y-22086380D01*
X40345380Y-24848175D01*
X40249944Y-24911943D01*
X40038762Y-25228000D01*
X39997319Y-25290024D01*
X39908608Y-25736000D01*
X39931001Y-25848576D01*
X39931000Y-43911429D01*
X39908608Y-44024000D01*
X39931000Y-44136571D01*
X39997318Y-44469975D01*
X40249943Y-44848057D01*
X40345382Y-44911827D01*
X44769000Y-49335446D01*
X44769000Y-49379494D01*
X44979853Y-49888540D01*
X45369460Y-50278147D01*
X45600870Y-50374000D01*
X45369460Y-50469853D01*
X45338313Y-50501000D01*
X43853571Y-50501000D01*
X43741000Y-50478608D01*
X43628429Y-50501000D01*
X43628428Y-50501000D01*
X43295024Y-50567318D01*
X42916943Y-50819943D01*
X42853174Y-50915380D01*
X40980380Y-52788175D01*
X40884944Y-52851943D01*
X40714308Y-53107319D01*
X40632319Y-53230024D01*
X40543608Y-53676000D01*
X40566001Y-53788576D01*
X40566000Y-56631554D01*
X39711555Y-57486000D01*
X34816446Y-57486000D01*
X26215000Y-48884555D01*
X26215000Y-44843315D01*
X26329542Y-44671891D01*
X26433154Y-44151000D01*
X26329542Y-43630109D01*
X26034481Y-43188519D01*
X25592891Y-42893458D01*
X25203485Y-42816000D01*
X24940515Y-42816000D01*
X24551109Y-42893458D01*
X24109519Y-43188519D01*
X23814458Y-43630109D01*
X23710846Y-44151000D01*
X18787000Y-44151000D01*
X18787000Y-43885452D01*
X18595000Y-43421924D01*
X18595000Y-28642571D01*
X18617392Y-28530000D01*
X18566313Y-28273208D01*
X18528682Y-28084024D01*
X18276057Y-27705943D01*
X18180621Y-27642175D01*
X15418827Y-24880382D01*
X15355057Y-24784943D01*
X14976976Y-24532318D01*
X14643572Y-24466000D01*
X14643571Y-24466000D01*
X14531000Y-24443608D01*
X14418429Y-24466000D01*
X12323913Y-24466000D01*
X12292305Y-24418695D01*
X12173033Y-24339000D01*
X12292305Y-24259305D01*
X12657208Y-23713188D01*
X12785345Y-23069000D01*
X12657208Y-22424812D01*
X12292305Y-21878695D01*
X12148117Y-21782352D01*
X12508385Y-21393818D01*
X12707975Y-20911944D01*
X12588836Y-20656000D01*
X11229000Y-20656000D01*
X11229000Y-20676000D01*
X10975000Y-20676000D01*
X10975000Y-20656000D01*
X9615164Y-20656000D01*
X9496025Y-20911944D01*
X9695615Y-21393818D01*
X10055883Y-21782352D01*
X9911695Y-21878695D01*
X9546792Y-22424812D01*
X9418655Y-23069000D01*
X9546792Y-23713188D01*
X9911695Y-24259305D01*
X10030967Y-24339000D01*
X9911695Y-24418695D01*
X9546792Y-24964812D01*
X9418655Y-25609000D01*
X9546792Y-26253188D01*
X9911695Y-26799305D01*
X10030967Y-26879000D01*
X9911695Y-26958695D01*
X9546792Y-27504812D01*
X9418655Y-28149000D01*
X9546792Y-28793188D01*
X9911695Y-29339305D01*
X10030967Y-29419000D01*
X9911695Y-29498695D01*
X9546792Y-30044812D01*
X9418655Y-30689000D01*
X9546792Y-31333188D01*
X9911695Y-31879305D01*
X10030967Y-31959000D01*
X9911695Y-32038695D01*
X9546792Y-32584812D01*
X9418655Y-33229000D01*
X9546792Y-33873188D01*
X9911695Y-34419305D01*
X10030967Y-34499000D01*
X9911695Y-34578695D01*
X9546792Y-35124812D01*
X9418655Y-35769000D01*
X9546792Y-36413188D01*
X9911695Y-36959305D01*
X10030967Y-37039000D01*
X9911695Y-37118695D01*
X9546792Y-37664812D01*
X9418655Y-38309000D01*
X9546792Y-38953188D01*
X9911695Y-39499305D01*
X10030967Y-39579000D01*
X9911695Y-39658695D01*
X9546792Y-40204812D01*
X9418655Y-40849000D01*
X9546792Y-41493188D01*
X9911695Y-42039305D01*
X10030967Y-42119000D01*
X9911695Y-42198695D01*
X9546792Y-42744812D01*
X9418655Y-43389000D01*
X9546792Y-44033188D01*
X9911695Y-44579305D01*
X10030967Y-44659000D01*
X9911695Y-44738695D01*
X9546792Y-45284812D01*
X9418655Y-45929000D01*
X9546792Y-46573188D01*
X9911695Y-47119305D01*
X10030967Y-47199000D01*
X9911695Y-47278695D01*
X9546792Y-47824812D01*
X9418655Y-48469000D01*
X9546792Y-49113188D01*
X9911695Y-49659305D01*
X10030967Y-49739000D01*
X9911695Y-49818695D01*
X9880087Y-49866000D01*
X9242246Y-49866000D01*
X8237200Y-48860955D01*
X8237200Y-38753571D01*
X8259592Y-38641000D01*
X8210429Y-38393843D01*
X8170882Y-38195024D01*
X7918257Y-37816943D01*
X7822821Y-37753175D01*
X6643027Y-36573382D01*
X6579257Y-36477943D01*
X6201176Y-36225318D01*
X5867772Y-36159000D01*
X5867771Y-36159000D01*
X5755200Y-36136608D01*
X5642629Y-36159000D01*
X4184308Y-36159000D01*
X3973522Y-36018157D01*
X4103358Y-35957183D01*
X4493645Y-35528924D01*
X4663476Y-35118890D01*
X4542155Y-34889000D01*
X3349000Y-34889000D01*
X3349000Y-34909000D01*
X3095000Y-34909000D01*
X3095000Y-34889000D01*
X1901845Y-34889000D01*
X1780524Y-35118890D01*
X1950355Y-35528924D01*
X2340642Y-35957183D01*
X2470478Y-36018157D01*
X2151375Y-36231375D01*
X1823161Y-36722582D01*
X1707908Y-37302000D01*
X932000Y-37302000D01*
X932000Y-32222000D01*
X1707908Y-32222000D01*
X1823161Y-32801418D01*
X2151375Y-33292625D01*
X2470478Y-33505843D01*
X2340642Y-33566817D01*
X1950355Y-33995076D01*
X1780524Y-34405110D01*
X1901845Y-34635000D01*
X3095000Y-34635000D01*
X3095000Y-34615000D01*
X3349000Y-34615000D01*
X3349000Y-34635000D01*
X4542155Y-34635000D01*
X4663476Y-34405110D01*
X4493645Y-33995076D01*
X4103358Y-33566817D01*
X3973522Y-33505843D01*
X4292625Y-33292625D01*
X4620839Y-32801418D01*
X4736092Y-32222000D01*
X4620839Y-31642582D01*
X4365000Y-31259692D01*
X4365000Y-19695445D01*
X4928446Y-19132000D01*
X9463822Y-19132000D01*
X9487843Y-19252765D01*
X9628191Y-19462809D01*
X9785113Y-19567662D01*
X9695615Y-19664182D01*
X9496025Y-20146056D01*
X9615164Y-20402000D01*
X10975000Y-20402000D01*
X10975000Y-20382000D01*
X11229000Y-20382000D01*
X11229000Y-20402000D01*
X12588836Y-20402000D01*
X12707975Y-20146056D01*
X12508385Y-19664182D01*
X12418887Y-19567662D01*
X12575809Y-19462809D01*
X12716157Y-19252765D01*
X12765440Y-19005000D01*
X12765440Y-16973000D01*
X12716157Y-16725235D01*
X12575809Y-16515191D01*
X12365765Y-16374843D01*
X12118000Y-16325560D01*
X10086000Y-16325560D01*
X9838235Y-16374843D01*
X9628191Y-16515191D01*
X9487843Y-16725235D01*
X9463822Y-16846000D01*
X4567570Y-16846000D01*
X4454999Y-16823608D01*
X4342428Y-16846000D01*
X4009024Y-16912318D01*
X3630943Y-17164943D01*
X3567174Y-17260380D01*
X2493380Y-18334175D01*
X2397944Y-18397943D01*
X2224505Y-18657514D01*
X2145319Y-18776024D01*
X2056608Y-19222000D01*
X2079001Y-19334576D01*
X2079000Y-31259692D01*
X1823161Y-31642582D01*
X1707908Y-32222000D01*
X932000Y-32222000D01*
X932000Y-2777431D01*
X987000Y-2777431D01*
X987000Y-3666569D01*
X1327259Y-4488026D01*
X1955974Y-5116741D01*
X2777431Y-5457000D01*
X3666569Y-5457000D01*
X4488026Y-5116741D01*
X5116741Y-4488026D01*
X5457000Y-3666569D01*
X5457000Y-2777431D01*
X64987000Y-2777431D01*
X64987000Y-3666569D01*
X65327259Y-4488026D01*
X65955974Y-5116741D01*
X66777431Y-5457000D01*
X67666569Y-5457000D01*
X68488026Y-5116741D01*
X69116741Y-4488026D01*
X69457000Y-3666569D01*
X69457000Y-2777431D01*
X69116741Y-1955974D01*
X68488026Y-1327259D01*
X67666569Y-987000D01*
X66777431Y-987000D01*
X65955974Y-1327259D01*
X65327259Y-1955974D01*
X64987000Y-2777431D01*
X5457000Y-2777431D01*
X5116741Y-1955974D01*
X4488026Y-1327259D01*
X3666569Y-987000D01*
X2777431Y-987000D01*
X1955974Y-1327259D01*
X1327259Y-1955974D01*
X987000Y-2777431D01*
X932000Y-2777431D01*
X932000Y-932000D01*
X69512000Y-932000D01*
X69512001Y-69512000D01*
X69512001Y-69512000D01*
G37*
X69512001Y-69512000D02*
X932000Y-69512000D01*
X932000Y-66777431D01*
X987000Y-66777431D01*
X987000Y-67666569D01*
X1327259Y-68488026D01*
X1955974Y-69116741D01*
X2777431Y-69457000D01*
X3666569Y-69457000D01*
X4488026Y-69116741D01*
X5116741Y-68488026D01*
X5457000Y-67666569D01*
X5457000Y-66777431D01*
X64987000Y-66777431D01*
X64987000Y-67666569D01*
X65327259Y-68488026D01*
X65955974Y-69116741D01*
X66777431Y-69457000D01*
X67666569Y-69457000D01*
X68488026Y-69116741D01*
X69116741Y-68488026D01*
X69457000Y-67666569D01*
X69457000Y-66777431D01*
X69116741Y-65955974D01*
X68488026Y-65327259D01*
X67666569Y-64987000D01*
X66777431Y-64987000D01*
X65955974Y-65327259D01*
X65327259Y-65955974D01*
X64987000Y-66777431D01*
X5457000Y-66777431D01*
X5116741Y-65955974D01*
X4488026Y-65327259D01*
X3666569Y-64987000D01*
X2777431Y-64987000D01*
X1955974Y-65327259D01*
X1327259Y-65955974D01*
X987000Y-66777431D01*
X932000Y-66777431D01*
X932000Y-37302000D01*
X1707908Y-37302000D01*
X1823161Y-37881418D01*
X2151375Y-38372625D01*
X2169619Y-38384816D01*
X2124235Y-38393843D01*
X1914191Y-38534191D01*
X1773843Y-38744235D01*
X1724560Y-38992000D01*
X1724560Y-40692000D01*
X1773843Y-40939765D01*
X1914191Y-41149809D01*
X2079000Y-41259932D01*
X2079001Y-56525624D01*
X2056608Y-56638200D01*
X2145319Y-57084176D01*
X2397944Y-57462257D01*
X2493380Y-57526025D01*
X3234574Y-58267220D01*
X3298343Y-58362657D01*
X3676424Y-58615282D01*
X4009828Y-58681600D01*
X4009829Y-58681600D01*
X4122400Y-58703992D01*
X4234971Y-58681600D01*
X13636429Y-58681600D01*
X13749000Y-58703992D01*
X13861571Y-58681600D01*
X13861572Y-58681600D01*
X14194976Y-58615282D01*
X14573057Y-58362657D01*
X14636827Y-58267218D01*
X15341221Y-57562825D01*
X15436657Y-57499057D01*
X15689282Y-57120976D01*
X15755600Y-56787572D01*
X15755600Y-56787571D01*
X15777992Y-56675000D01*
X15755600Y-56562429D01*
X15755600Y-44595572D01*
X15777992Y-44483000D01*
X15689282Y-44037023D01*
X15554278Y-43834976D01*
X15436657Y-43658943D01*
X15341220Y-43595174D01*
X14406427Y-42660382D01*
X14342657Y-42564943D01*
X13964576Y-42312318D01*
X13631172Y-42246000D01*
X13631171Y-42246000D01*
X13518600Y-42223608D01*
X13406029Y-42246000D01*
X12323913Y-42246000D01*
X12292305Y-42198695D01*
X12173033Y-42119000D01*
X12292305Y-42039305D01*
X12657208Y-41493188D01*
X12785345Y-40849000D01*
X12657208Y-40204812D01*
X12292305Y-39658695D01*
X12173033Y-39579000D01*
X12292305Y-39499305D01*
X12657208Y-38953188D01*
X12785345Y-38309000D01*
X12657208Y-37664812D01*
X12292305Y-37118695D01*
X12173033Y-37039000D01*
X12292305Y-36959305D01*
X12657208Y-36413188D01*
X12785345Y-35769000D01*
X12657208Y-35124812D01*
X12292305Y-34578695D01*
X12173033Y-34499000D01*
X12292305Y-34419305D01*
X12657208Y-33873188D01*
X12785345Y-33229000D01*
X12657208Y-32584812D01*
X12292305Y-32038695D01*
X12173033Y-31959000D01*
X12292305Y-31879305D01*
X12657208Y-31333188D01*
X12785345Y-30689000D01*
X12657208Y-30044812D01*
X12292305Y-29498695D01*
X12173033Y-29419000D01*
X12292305Y-29339305D01*
X12657208Y-28793188D01*
X12785345Y-28149000D01*
X12657208Y-27504812D01*
X12292305Y-26958695D01*
X12173033Y-26879000D01*
X12292305Y-26799305D01*
X12323913Y-26752000D01*
X14057555Y-26752000D01*
X16309000Y-29003446D01*
X16309001Y-43421921D01*
X16117000Y-43885452D01*
X16117000Y-44416548D01*
X16320242Y-44907217D01*
X16695783Y-45282758D01*
X17186452Y-45486000D01*
X17717548Y-45486000D01*
X18208217Y-45282758D01*
X18583758Y-44907217D01*
X18787000Y-44416548D01*
X18787000Y-44151000D01*
X23710846Y-44151000D01*
X23814458Y-44671891D01*
X23929000Y-44843315D01*
X23929001Y-49245424D01*
X23906608Y-49358000D01*
X23990625Y-49780376D01*
X23995319Y-49803976D01*
X24247944Y-50182057D01*
X24343380Y-50245825D01*
X33455175Y-59357621D01*
X33518943Y-59453057D01*
X33897024Y-59705682D01*
X34230428Y-59772000D01*
X34230429Y-59772000D01*
X34343000Y-59794392D01*
X34455571Y-59772000D01*
X40072429Y-59772000D01*
X40185000Y-59794392D01*
X40297571Y-59772000D01*
X40297572Y-59772000D01*
X40630976Y-59705682D01*
X41009057Y-59453057D01*
X41072827Y-59357618D01*
X42437621Y-57992825D01*
X42533057Y-57929057D01*
X42785682Y-57550976D01*
X42852000Y-57217572D01*
X42852000Y-57217571D01*
X42874392Y-57105001D01*
X42852000Y-56992430D01*
X42852000Y-54149445D01*
X44214446Y-52787000D01*
X45338313Y-52787000D01*
X45348844Y-52797531D01*
X45156235Y-52835843D01*
X44946191Y-52976191D01*
X44805843Y-53186235D01*
X44756560Y-53434000D01*
X44756560Y-54934000D01*
X44805843Y-55181765D01*
X44946191Y-55391809D01*
X45156235Y-55532157D01*
X45404000Y-55581440D01*
X46904000Y-55581440D01*
X47151765Y-55532157D01*
X47361809Y-55391809D01*
X47405113Y-55327000D01*
X48220555Y-55327000D01*
X48949174Y-56055620D01*
X49012943Y-56151057D01*
X49391024Y-56403682D01*
X49724428Y-56470000D01*
X49836999Y-56492392D01*
X49949570Y-56470000D01*
X50885924Y-56470000D01*
X51349452Y-56662000D01*
X51880548Y-56662000D01*
X52371217Y-56458758D01*
X52746758Y-56083217D01*
X52950000Y-55592548D01*
X52950000Y-55061452D01*
X52758000Y-54597924D01*
X52758000Y-53008076D01*
X52950000Y-52544548D01*
X52950000Y-52013452D01*
X52746758Y-51522783D01*
X52371217Y-51147242D01*
X51880548Y-50944000D01*
X51349452Y-50944000D01*
X50858783Y-51147242D01*
X50483242Y-51522783D01*
X50280000Y-52013452D01*
X50280000Y-52544548D01*
X50472000Y-53008077D01*
X50472001Y-54184000D01*
X50310446Y-54184000D01*
X49581827Y-53455382D01*
X49518057Y-53359943D01*
X49139976Y-53107318D01*
X48806572Y-53041000D01*
X48806571Y-53041000D01*
X48694000Y-53018608D01*
X48581429Y-53041000D01*
X47405113Y-53041000D01*
X47361809Y-52976191D01*
X47151765Y-52835843D01*
X46959156Y-52797531D01*
X47328147Y-52428540D01*
X47539000Y-51919494D01*
X47539000Y-51368506D01*
X47328147Y-50859460D01*
X46938540Y-50469853D01*
X46707130Y-50374000D01*
X46938540Y-50278147D01*
X47328147Y-49888540D01*
X47539000Y-49379494D01*
X47539000Y-48828506D01*
X47328147Y-48319460D01*
X46938540Y-47929853D01*
X46429494Y-47719000D01*
X46385446Y-47719000D01*
X42217000Y-43550555D01*
X42217000Y-36308750D01*
X46270000Y-36308750D01*
X46270000Y-37049309D01*
X46366673Y-37282698D01*
X46545301Y-37461327D01*
X46680044Y-37517139D01*
X46503690Y-37693493D01*
X46270000Y-38257670D01*
X46270000Y-38868330D01*
X46503690Y-39432507D01*
X46662001Y-39590818D01*
X46662000Y-43911429D01*
X46639608Y-44024000D01*
X46662000Y-44136571D01*
X46728318Y-44469975D01*
X46980943Y-44848057D01*
X47076382Y-44911827D01*
X49076174Y-46911620D01*
X49139943Y-47007057D01*
X49518024Y-47259682D01*
X49851428Y-47326000D01*
X49963999Y-47348392D01*
X50076570Y-47326000D01*
X51248429Y-47326000D01*
X51361000Y-47348392D01*
X51473571Y-47326000D01*
X51473572Y-47326000D01*
X51806976Y-47259682D01*
X52185057Y-47007057D01*
X52248827Y-46911618D01*
X53520000Y-45640445D01*
X58092000Y-50212446D01*
X58092001Y-51586684D01*
X57977458Y-51758109D01*
X57873846Y-52279000D01*
X57977458Y-52799891D01*
X58092000Y-52971316D01*
X58092001Y-54634684D01*
X57977458Y-54806109D01*
X57873846Y-55327000D01*
X57977458Y-55847891D01*
X58272519Y-56289481D01*
X58714109Y-56584542D01*
X59103515Y-56662000D01*
X59366485Y-56662000D01*
X59755891Y-56584542D01*
X60197481Y-56289481D01*
X60492542Y-55847891D01*
X60596154Y-55327000D01*
X60492542Y-54806109D01*
X60378000Y-54634685D01*
X60378000Y-52971315D01*
X60492542Y-52799891D01*
X60596154Y-52279000D01*
X60492542Y-51758109D01*
X60378000Y-51586685D01*
X60378000Y-50882000D01*
X62424429Y-50882000D01*
X62537000Y-50904392D01*
X62649571Y-50882000D01*
X62649572Y-50882000D01*
X62982976Y-50815682D01*
X63361057Y-50563057D01*
X63424827Y-50467618D01*
X66313621Y-47578825D01*
X66409057Y-47515057D01*
X66661682Y-47136976D01*
X66728000Y-46803572D01*
X66728000Y-46803571D01*
X66750392Y-46691000D01*
X66728000Y-46578429D01*
X66728000Y-45624468D01*
X66750392Y-45511897D01*
X66693858Y-45227682D01*
X66661682Y-45065922D01*
X66409057Y-44687841D01*
X66313620Y-44624073D01*
X63582051Y-41892504D01*
X63582051Y-41668619D01*
X63348361Y-41104442D01*
X63206105Y-40962186D01*
X63123733Y-40548074D01*
X62971443Y-40320157D01*
X62871108Y-40169994D01*
X62775671Y-40106226D01*
X60883195Y-38213750D01*
X64177000Y-38213750D01*
X64177000Y-38954309D01*
X64273673Y-39187698D01*
X64452301Y-39366327D01*
X64685690Y-39463000D01*
X65426250Y-39463000D01*
X65585000Y-39304250D01*
X65585000Y-38055000D01*
X65839000Y-38055000D01*
X65839000Y-39304250D01*
X65997750Y-39463000D01*
X66738310Y-39463000D01*
X66971699Y-39366327D01*
X67150327Y-39187698D01*
X67247000Y-38954309D01*
X67247000Y-38213750D01*
X67088250Y-38055000D01*
X65839000Y-38055000D01*
X65585000Y-38055000D01*
X64335750Y-38055000D01*
X64177000Y-38213750D01*
X60883195Y-38213750D01*
X59881000Y-37211555D01*
X59881000Y-36987670D01*
X59647310Y-36423493D01*
X59489000Y-36265183D01*
X59489000Y-35770547D01*
X61747497Y-33512051D01*
X61971381Y-33512051D01*
X62535558Y-33278361D01*
X62693868Y-33120051D01*
X64569000Y-33120051D01*
X64569001Y-34360182D01*
X64410690Y-34518493D01*
X64177000Y-35082670D01*
X64177000Y-35693330D01*
X64410690Y-36257507D01*
X64587044Y-36433861D01*
X64452301Y-36489673D01*
X64273673Y-36668302D01*
X64177000Y-36901691D01*
X64177000Y-37642250D01*
X64335750Y-37801000D01*
X65585000Y-37801000D01*
X65585000Y-37781000D01*
X65839000Y-37781000D01*
X65839000Y-37801000D01*
X67088250Y-37801000D01*
X67247000Y-37642250D01*
X67247000Y-36901691D01*
X67150327Y-36668302D01*
X66971699Y-36489673D01*
X66836956Y-36433861D01*
X67013310Y-36257507D01*
X67247000Y-35693330D01*
X67247000Y-35082670D01*
X67013310Y-34518493D01*
X66855000Y-34360183D01*
X66855000Y-32706572D01*
X66877392Y-32594000D01*
X66788682Y-32148023D01*
X66715631Y-32038695D01*
X66536057Y-31769943D01*
X66440618Y-31706173D01*
X65982878Y-31248433D01*
X65919108Y-31152994D01*
X65541027Y-30900369D01*
X65207623Y-30834051D01*
X65207622Y-30834051D01*
X65095051Y-30811659D01*
X64982480Y-30834051D01*
X62693868Y-30834051D01*
X62535558Y-30675741D01*
X61971381Y-30442051D01*
X61721981Y-30442051D01*
X61777792Y-30307309D01*
X61777792Y-30054690D01*
X61681119Y-29821301D01*
X61157465Y-29297647D01*
X60932958Y-29297647D01*
X60049605Y-30181000D01*
X60063748Y-30195143D01*
X59884143Y-30374748D01*
X59870000Y-30360605D01*
X58986647Y-31243958D01*
X58986647Y-31468465D01*
X59510301Y-31992119D01*
X59743690Y-32088792D01*
X59937864Y-32088792D01*
X58128102Y-33898554D01*
X54565051Y-30335504D01*
X54565051Y-30111619D01*
X54541471Y-30054691D01*
X57962208Y-30054691D01*
X57962208Y-30307310D01*
X58058881Y-30540699D01*
X58582535Y-31064353D01*
X58807042Y-31064353D01*
X59690395Y-30181000D01*
X58807042Y-29297647D01*
X58582535Y-29297647D01*
X58058880Y-29821302D01*
X57962208Y-30054691D01*
X54541471Y-30054691D01*
X54331361Y-29547442D01*
X53899558Y-29115639D01*
X53363353Y-28893535D01*
X58986647Y-28893535D01*
X58986647Y-29118042D01*
X59870000Y-30001395D01*
X60753353Y-29118042D01*
X60753353Y-28893535D01*
X60229699Y-28369881D01*
X59996310Y-28273208D01*
X59743691Y-28273208D01*
X59510302Y-28369880D01*
X58986647Y-28893535D01*
X53363353Y-28893535D01*
X53335381Y-28881949D01*
X52724721Y-28881949D01*
X52160544Y-29115639D01*
X51728741Y-29547442D01*
X51495051Y-30111619D01*
X51495051Y-30361019D01*
X51360309Y-30305208D01*
X51107690Y-30305208D01*
X50874301Y-30401881D01*
X50350647Y-30925535D01*
X50350647Y-31150042D01*
X51234000Y-32033395D01*
X51248143Y-32019253D01*
X51427748Y-32198858D01*
X51413605Y-32213000D01*
X52296958Y-33096353D01*
X52521465Y-33096353D01*
X53045119Y-32572699D01*
X53141792Y-32339310D01*
X53141792Y-32145135D01*
X56754656Y-35758000D01*
X56091750Y-35758000D01*
X55933000Y-35916750D01*
X55933000Y-37166000D01*
X55953000Y-37166000D01*
X55953000Y-37420000D01*
X55933000Y-37420000D01*
X55933000Y-38669250D01*
X56091750Y-38828000D01*
X56832309Y-38828000D01*
X57065698Y-38731327D01*
X57244327Y-38552699D01*
X57300139Y-38417956D01*
X57476493Y-38594310D01*
X58040670Y-38828000D01*
X58264555Y-38828000D01*
X60685773Y-41249218D01*
X60512051Y-41668619D01*
X60512051Y-41918019D01*
X60377309Y-41862208D01*
X60124690Y-41862208D01*
X59891301Y-41958881D01*
X59367647Y-42482535D01*
X59367647Y-42707042D01*
X60251000Y-43590395D01*
X60265143Y-43576253D01*
X60444748Y-43755858D01*
X60430605Y-43770000D01*
X61313958Y-44653353D01*
X61538465Y-44653353D01*
X62062119Y-44129699D01*
X62158792Y-43896310D01*
X62158792Y-43702135D01*
X64442000Y-45985344D01*
X64442000Y-46217554D01*
X62063555Y-48596000D01*
X59708446Y-48596000D01*
X55945404Y-44832958D01*
X59367647Y-44832958D01*
X59367647Y-45057465D01*
X59891302Y-45581120D01*
X60124691Y-45677792D01*
X60377310Y-45677792D01*
X60610699Y-45581119D01*
X61134353Y-45057465D01*
X61134353Y-44832958D01*
X60251000Y-43949605D01*
X59367647Y-44832958D01*
X55945404Y-44832958D01*
X55055000Y-43942555D01*
X55055000Y-43718670D01*
X55023943Y-43643690D01*
X58343208Y-43643690D01*
X58343208Y-43896309D01*
X58439880Y-44129698D01*
X58963535Y-44653353D01*
X59188042Y-44653353D01*
X60071395Y-43770000D01*
X59188042Y-42886647D01*
X58963535Y-42886647D01*
X58439881Y-43410301D01*
X58343208Y-43643690D01*
X55023943Y-43643690D01*
X54821310Y-43154493D01*
X54389507Y-42722690D01*
X53825330Y-42489000D01*
X53575930Y-42489000D01*
X53631741Y-42354258D01*
X53631741Y-42101639D01*
X53535068Y-41868250D01*
X53011414Y-41344596D01*
X52786907Y-41344596D01*
X51903554Y-42227949D01*
X51917697Y-42242092D01*
X51738092Y-42421697D01*
X51723949Y-42407554D01*
X50840596Y-43290907D01*
X50840596Y-43515414D01*
X51364250Y-44039068D01*
X51597639Y-44135741D01*
X51791813Y-44135741D01*
X50887555Y-45040000D01*
X50437446Y-45040000D01*
X48948000Y-43550555D01*
X48948000Y-42101640D01*
X49816157Y-42101640D01*
X49816157Y-42354259D01*
X49912830Y-42587648D01*
X50436484Y-43111302D01*
X50660991Y-43111302D01*
X51544344Y-42227949D01*
X50660991Y-41344596D01*
X50436484Y-41344596D01*
X49912829Y-41868251D01*
X49816157Y-42101640D01*
X48948000Y-42101640D01*
X48948000Y-40940484D01*
X50840596Y-40940484D01*
X50840596Y-41164991D01*
X51723949Y-42048344D01*
X52607302Y-41164991D01*
X52607302Y-40940484D01*
X52083648Y-40416830D01*
X51850259Y-40320157D01*
X51597640Y-40320157D01*
X51364251Y-40416829D01*
X50840596Y-40940484D01*
X48948000Y-40940484D01*
X48948000Y-39590817D01*
X49106310Y-39432507D01*
X49340000Y-38868330D01*
X49340000Y-38257670D01*
X49106310Y-37693493D01*
X48991567Y-37578750D01*
X54271000Y-37578750D01*
X54271000Y-38319310D01*
X54367673Y-38552699D01*
X54546302Y-38731327D01*
X54779691Y-38828000D01*
X55520250Y-38828000D01*
X55679000Y-38669250D01*
X55679000Y-37420000D01*
X54429750Y-37420000D01*
X54271000Y-37578750D01*
X48991567Y-37578750D01*
X48929956Y-37517139D01*
X49064699Y-37461327D01*
X49243327Y-37282698D01*
X49340000Y-37049309D01*
X49340000Y-36308750D01*
X49297940Y-36266690D01*
X54271000Y-36266690D01*
X54271000Y-37007250D01*
X54429750Y-37166000D01*
X55679000Y-37166000D01*
X55679000Y-35916750D01*
X55520250Y-35758000D01*
X54779691Y-35758000D01*
X54546302Y-35854673D01*
X54367673Y-36033301D01*
X54271000Y-36266690D01*
X49297940Y-36266690D01*
X49181250Y-36150000D01*
X47932000Y-36150000D01*
X47932000Y-36170000D01*
X47678000Y-36170000D01*
X47678000Y-36150000D01*
X46428750Y-36150000D01*
X46270000Y-36308750D01*
X42217000Y-36308750D01*
X42217000Y-34996691D01*
X46270000Y-34996691D01*
X46270000Y-35737250D01*
X46428750Y-35896000D01*
X47678000Y-35896000D01*
X47678000Y-34646750D01*
X47932000Y-34646750D01*
X47932000Y-35896000D01*
X49181250Y-35896000D01*
X49340000Y-35737250D01*
X49340000Y-34996691D01*
X49243327Y-34763302D01*
X49064699Y-34584673D01*
X48831310Y-34488000D01*
X48090750Y-34488000D01*
X47932000Y-34646750D01*
X47678000Y-34646750D01*
X47519250Y-34488000D01*
X46778690Y-34488000D01*
X46545301Y-34584673D01*
X46366673Y-34763302D01*
X46270000Y-34996691D01*
X42217000Y-34996691D01*
X42217000Y-33275958D01*
X50350647Y-33275958D01*
X50350647Y-33500465D01*
X50874302Y-34024120D01*
X51107691Y-34120792D01*
X51360310Y-34120792D01*
X51593699Y-34024119D01*
X52117353Y-33500465D01*
X52117353Y-33275958D01*
X51234000Y-32392605D01*
X50350647Y-33275958D01*
X42217000Y-33275958D01*
X42217000Y-32086690D01*
X49326208Y-32086690D01*
X49326208Y-32339309D01*
X49422880Y-32572698D01*
X49946535Y-33096353D01*
X50171042Y-33096353D01*
X51054395Y-32213000D01*
X50171042Y-31329647D01*
X49946535Y-31329647D01*
X49422881Y-31853301D01*
X49326208Y-32086690D01*
X42217000Y-32086690D01*
X42217000Y-26209445D01*
X42785695Y-25640750D01*
X45408000Y-25640750D01*
X45408000Y-26433809D01*
X45504673Y-26667198D01*
X45683301Y-26845827D01*
X45916690Y-26942500D01*
X46757250Y-26942500D01*
X46916000Y-26783750D01*
X46916000Y-25482000D01*
X47170000Y-25482000D01*
X47170000Y-26783750D01*
X47328750Y-26942500D01*
X48169310Y-26942500D01*
X48402699Y-26845827D01*
X48581327Y-26667198D01*
X48678000Y-26433809D01*
X48678000Y-25640750D01*
X48519250Y-25482000D01*
X47170000Y-25482000D01*
X46916000Y-25482000D01*
X45566750Y-25482000D01*
X45408000Y-25640750D01*
X42785695Y-25640750D01*
X44468446Y-23958000D01*
X45589475Y-23958000D01*
X45504673Y-24042802D01*
X45408000Y-24276191D01*
X45408000Y-25069250D01*
X45566750Y-25228000D01*
X46916000Y-25228000D01*
X46916000Y-25208000D01*
X47170000Y-25208000D01*
X47170000Y-25228000D01*
X48519250Y-25228000D01*
X48678000Y-25069250D01*
X48678000Y-24276191D01*
X48581327Y-24042802D01*
X48496525Y-23958000D01*
X52097555Y-23958000D01*
X53500000Y-25360446D01*
X53500000Y-25368477D01*
X53385191Y-25445191D01*
X53244843Y-25655235D01*
X53195560Y-25903000D01*
X53195560Y-27503000D01*
X53244843Y-27750765D01*
X53385191Y-27960809D01*
X53595235Y-28101157D01*
X53843000Y-28150440D01*
X55443000Y-28150440D01*
X55690765Y-28101157D01*
X55900809Y-27960809D01*
X56041157Y-27750765D01*
X56049117Y-27710745D01*
X56314861Y-27710745D01*
X56388995Y-27956864D01*
X56926223Y-28149965D01*
X57496454Y-28122778D01*
X57897005Y-27956864D01*
X57971139Y-27710745D01*
X57143000Y-26882605D01*
X56314861Y-27710745D01*
X56049117Y-27710745D01*
X56087693Y-27516813D01*
X56135255Y-27531139D01*
X56963395Y-26703000D01*
X57322605Y-26703000D01*
X58150745Y-27531139D01*
X58396864Y-27457005D01*
X58589965Y-26919777D01*
X58562778Y-26349546D01*
X58396864Y-25948995D01*
X58150745Y-25874861D01*
X57322605Y-26703000D01*
X56963395Y-26703000D01*
X56135255Y-25874861D01*
X56087693Y-25889187D01*
X56049118Y-25695255D01*
X56314861Y-25695255D01*
X57143000Y-26523395D01*
X57971139Y-25695255D01*
X57897005Y-25449136D01*
X57359777Y-25256035D01*
X56789546Y-25283222D01*
X56388995Y-25449136D01*
X56314861Y-25695255D01*
X56049118Y-25695255D01*
X56041157Y-25655235D01*
X55900809Y-25445191D01*
X55786000Y-25368477D01*
X55786000Y-24999572D01*
X55808392Y-24887000D01*
X55719682Y-24441023D01*
X55609544Y-24276191D01*
X55467057Y-24062943D01*
X55371621Y-23999175D01*
X53458827Y-22086382D01*
X53395057Y-21990943D01*
X53016976Y-21738318D01*
X52683572Y-21672000D01*
X52683571Y-21672000D01*
X52571000Y-21649608D01*
X52458429Y-21672000D01*
X48236041Y-21672000D01*
X48235023Y-21670477D01*
X48047233Y-21545000D01*
X48235023Y-21419523D01*
X48585891Y-20894411D01*
X48673118Y-20455890D01*
X55233524Y-20455890D01*
X55403355Y-20865924D01*
X55793642Y-21294183D01*
X56318108Y-21540486D01*
X56548000Y-21419819D01*
X56548000Y-20226000D01*
X56802000Y-20226000D01*
X56802000Y-21419819D01*
X57031892Y-21540486D01*
X57556358Y-21294183D01*
X57946645Y-20865924D01*
X58116476Y-20455890D01*
X57995155Y-20226000D01*
X56802000Y-20226000D01*
X56548000Y-20226000D01*
X55354845Y-20226000D01*
X55233524Y-20455890D01*
X48673118Y-20455890D01*
X48709100Y-20275000D01*
X48585891Y-19655589D01*
X48235023Y-19130477D01*
X47709911Y-18779609D01*
X47246850Y-18687500D01*
X47024446Y-18687500D01*
X45519000Y-17182055D01*
X45519000Y-15132523D01*
X45633809Y-15055809D01*
X45774157Y-14845765D01*
X45782117Y-14805745D01*
X46047861Y-14805745D01*
X46121995Y-15051864D01*
X46659223Y-15244965D01*
X47229454Y-15217778D01*
X47630005Y-15051864D01*
X47704139Y-14805745D01*
X46876000Y-13977605D01*
X46047861Y-14805745D01*
X45782117Y-14805745D01*
X45820693Y-14611813D01*
X45868255Y-14626139D01*
X46696395Y-13798000D01*
X47055605Y-13798000D01*
X47883745Y-14626139D01*
X48129864Y-14552005D01*
X48322965Y-14014777D01*
X48295778Y-13444546D01*
X48129864Y-13043995D01*
X47883745Y-12969861D01*
X47055605Y-13798000D01*
X46696395Y-13798000D01*
X45868255Y-12969861D01*
X45820693Y-12984187D01*
X45782118Y-12790255D01*
X46047861Y-12790255D01*
X46876000Y-13618395D01*
X47704139Y-12790255D01*
X47630005Y-12544136D01*
X47092777Y-12351035D01*
X46522546Y-12378222D01*
X46121995Y-12544136D01*
X46047861Y-12790255D01*
X45782118Y-12790255D01*
X45774157Y-12750235D01*
X45633809Y-12540191D01*
X45519000Y-12463477D01*
X45519000Y-12455445D01*
X46892446Y-11082000D01*
X55257068Y-11082000D01*
X55367191Y-11246809D01*
X55577235Y-11387157D01*
X55622619Y-11396184D01*
X55604375Y-11408375D01*
X55276161Y-11899582D01*
X55160908Y-12479000D01*
X55276161Y-13058418D01*
X55604375Y-13549625D01*
X55902761Y-13749000D01*
X55604375Y-13948375D01*
X55276161Y-14439582D01*
X55160908Y-15019000D01*
X55276161Y-15598418D01*
X55604375Y-16089625D01*
X55902761Y-16289000D01*
X55604375Y-16488375D01*
X55276161Y-16979582D01*
X55160908Y-17559000D01*
X55276161Y-18138418D01*
X55604375Y-18629625D01*
X55923478Y-18842843D01*
X55793642Y-18903817D01*
X55403355Y-19332076D01*
X55233524Y-19742110D01*
X55354845Y-19972000D01*
X56548000Y-19972000D01*
X56548000Y-19952000D01*
X56802000Y-19952000D01*
X56802000Y-19972000D01*
X57995155Y-19972000D01*
X58074780Y-19821119D01*
X62898000Y-19821119D01*
X62898000Y-20376881D01*
X63110680Y-20890337D01*
X63503663Y-21283320D01*
X64017119Y-21496000D01*
X64572881Y-21496000D01*
X65086337Y-21283320D01*
X65479320Y-20890337D01*
X65692000Y-20376881D01*
X65692000Y-19821119D01*
X65479320Y-19307663D01*
X65086337Y-18914680D01*
X64572881Y-18702000D01*
X64017119Y-18702000D01*
X63503663Y-18914680D01*
X63110680Y-19307663D01*
X62898000Y-19821119D01*
X58074780Y-19821119D01*
X58116476Y-19742110D01*
X57946645Y-19332076D01*
X57556358Y-18903817D01*
X57426522Y-18842843D01*
X57745625Y-18629625D01*
X58073839Y-18138418D01*
X58189092Y-17559000D01*
X58073839Y-16979582D01*
X57745625Y-16488375D01*
X57447239Y-16289000D01*
X57745625Y-16089625D01*
X58073839Y-15598418D01*
X58189092Y-15019000D01*
X58073839Y-14439582D01*
X57745625Y-13948375D01*
X57447239Y-13749000D01*
X57745625Y-13549625D01*
X58073839Y-13058418D01*
X58189092Y-12479000D01*
X58073839Y-11899582D01*
X57745625Y-11408375D01*
X57727381Y-11396184D01*
X57772765Y-11387157D01*
X57982809Y-11246809D01*
X58123157Y-11036765D01*
X58172440Y-10789000D01*
X58172440Y-9661119D01*
X62898000Y-9661119D01*
X62898000Y-10216881D01*
X63110680Y-10730337D01*
X63503663Y-11123320D01*
X64017119Y-11336000D01*
X64572881Y-11336000D01*
X65086337Y-11123320D01*
X65479320Y-10730337D01*
X65692000Y-10216881D01*
X65692000Y-9661119D01*
X65479320Y-9147663D01*
X65086337Y-8754680D01*
X64572881Y-8542000D01*
X64017119Y-8542000D01*
X63503663Y-8754680D01*
X63110680Y-9147663D01*
X62898000Y-9661119D01*
X58172440Y-9661119D01*
X58172440Y-9089000D01*
X58123157Y-8841235D01*
X57982809Y-8631191D01*
X57772765Y-8490843D01*
X57525000Y-8441560D01*
X55825000Y-8441560D01*
X55577235Y-8490843D01*
X55367191Y-8631191D01*
X55257068Y-8796000D01*
X46531570Y-8796000D01*
X46418999Y-8773608D01*
X46306428Y-8796000D01*
X45973024Y-8862318D01*
X45594943Y-9114943D01*
X45531174Y-9210380D01*
X43647380Y-11094175D01*
X43551944Y-11157943D01*
X43384611Y-11408375D01*
X43299319Y-11536024D01*
X43210608Y-11982000D01*
X43233001Y-12094576D01*
X43233001Y-12463477D01*
X43118191Y-12540191D01*
X43041477Y-12655000D01*
X38138570Y-12655000D01*
X38025999Y-12632608D01*
X37913428Y-12655000D01*
X37580024Y-12721318D01*
X37201943Y-12973943D01*
X37138174Y-13069380D01*
X35773382Y-14434173D01*
X35677943Y-14497943D01*
X35425318Y-14876025D01*
X35412394Y-14941000D01*
X35336608Y-15322000D01*
X35359000Y-15434571D01*
X35359000Y-16350822D01*
X35238235Y-16374843D01*
X35028191Y-16515191D01*
X34887843Y-16725235D01*
X34838560Y-16973000D01*
X34838560Y-19005000D01*
X34887843Y-19252765D01*
X35028191Y-19462809D01*
X35166856Y-19555463D01*
X34946792Y-19884812D01*
X34818655Y-20529000D01*
X34946792Y-21173188D01*
X35311695Y-21719305D01*
X35430967Y-21799000D01*
X35311695Y-21878695D01*
X34946792Y-22424812D01*
X34818655Y-23069000D01*
X34946792Y-23713188D01*
X35311695Y-24259305D01*
X35430967Y-24339000D01*
X35311695Y-24418695D01*
X34946792Y-24964812D01*
X34818655Y-25609000D01*
X34946792Y-26253188D01*
X35311695Y-26799305D01*
X35430967Y-26879000D01*
X35311695Y-26958695D01*
X34946792Y-27504812D01*
X34818655Y-28149000D01*
X34946792Y-28793188D01*
X35311695Y-29339305D01*
X35430967Y-29419000D01*
X35311695Y-29498695D01*
X34946792Y-30044812D01*
X34818655Y-30689000D01*
X34946792Y-31333188D01*
X35311695Y-31879305D01*
X35430967Y-31959000D01*
X35311695Y-32038695D01*
X34946792Y-32584812D01*
X34818655Y-33229000D01*
X34946792Y-33873188D01*
X35311695Y-34419305D01*
X35430967Y-34499000D01*
X35311695Y-34578695D01*
X34946792Y-35124812D01*
X34818655Y-35769000D01*
X34946792Y-36413188D01*
X35311695Y-36959305D01*
X35430967Y-37039000D01*
X35311695Y-37118695D01*
X34946792Y-37664812D01*
X34818655Y-38309000D01*
X34946792Y-38953188D01*
X35311695Y-39499305D01*
X35430967Y-39579000D01*
X35311695Y-39658695D01*
X34946792Y-40204812D01*
X34818655Y-40849000D01*
X34946792Y-41493188D01*
X35311695Y-42039305D01*
X35430967Y-42119000D01*
X35311695Y-42198695D01*
X34946792Y-42744812D01*
X34818655Y-43389000D01*
X34946792Y-44033188D01*
X35311695Y-44579305D01*
X35430967Y-44659000D01*
X35311695Y-44738695D01*
X34946792Y-45284812D01*
X34818655Y-45929000D01*
X34946792Y-46573188D01*
X35311695Y-47119305D01*
X35430967Y-47199000D01*
X35311695Y-47278695D01*
X34946792Y-47824812D01*
X34818655Y-48469000D01*
X34946792Y-49113188D01*
X35311695Y-49659305D01*
X35430967Y-49739000D01*
X35311695Y-49818695D01*
X34946792Y-50364812D01*
X34818655Y-51009000D01*
X34946792Y-51653188D01*
X35311695Y-52199305D01*
X35430967Y-52279000D01*
X35311695Y-52358695D01*
X34946792Y-52904812D01*
X34818655Y-53549000D01*
X34946792Y-54193188D01*
X35311695Y-54739305D01*
X35857812Y-55104208D01*
X36339391Y-55200000D01*
X36664609Y-55200000D01*
X37146188Y-55104208D01*
X37692305Y-54739305D01*
X38057208Y-54193188D01*
X38185345Y-53549000D01*
X38057208Y-52904812D01*
X37692305Y-52358695D01*
X37573033Y-52279000D01*
X37692305Y-52199305D01*
X38057208Y-51653188D01*
X38185345Y-51009000D01*
X38057208Y-50364812D01*
X37692305Y-49818695D01*
X37573033Y-49739000D01*
X37692305Y-49659305D01*
X38057208Y-49113188D01*
X38185345Y-48469000D01*
X38057208Y-47824812D01*
X37692305Y-47278695D01*
X37573033Y-47199000D01*
X37692305Y-47119305D01*
X38057208Y-46573188D01*
X38185345Y-45929000D01*
X38057208Y-45284812D01*
X37692305Y-44738695D01*
X37573033Y-44659000D01*
X37692305Y-44579305D01*
X38057208Y-44033188D01*
X38185345Y-43389000D01*
X38057208Y-42744812D01*
X37692305Y-42198695D01*
X37573033Y-42119000D01*
X37692305Y-42039305D01*
X38057208Y-41493188D01*
X38185345Y-40849000D01*
X38057208Y-40204812D01*
X37692305Y-39658695D01*
X37573033Y-39579000D01*
X37692305Y-39499305D01*
X38057208Y-38953188D01*
X38185345Y-38309000D01*
X38057208Y-37664812D01*
X37692305Y-37118695D01*
X37573033Y-37039000D01*
X37692305Y-36959305D01*
X38057208Y-36413188D01*
X38185345Y-35769000D01*
X38057208Y-35124812D01*
X37692305Y-34578695D01*
X37573033Y-34499000D01*
X37692305Y-34419305D01*
X38057208Y-33873188D01*
X38185345Y-33229000D01*
X38057208Y-32584812D01*
X37692305Y-32038695D01*
X37573033Y-31959000D01*
X37692305Y-31879305D01*
X38057208Y-31333188D01*
X38185345Y-30689000D01*
X38057208Y-30044812D01*
X37692305Y-29498695D01*
X37573033Y-29419000D01*
X37692305Y-29339305D01*
X38057208Y-28793188D01*
X38185345Y-28149000D01*
X38057208Y-27504812D01*
X37692305Y-26958695D01*
X37573033Y-26879000D01*
X37692305Y-26799305D01*
X38057208Y-26253188D01*
X38185345Y-25609000D01*
X38057208Y-24964812D01*
X37692305Y-24418695D01*
X37573033Y-24339000D01*
X37692305Y-24259305D01*
X38057208Y-23713188D01*
X38185345Y-23069000D01*
X38057208Y-22424812D01*
X37692305Y-21878695D01*
X37573033Y-21799000D01*
X37692305Y-21719305D01*
X38057208Y-21173188D01*
X38185345Y-20529000D01*
X38057208Y-19884812D01*
X37837144Y-19555463D01*
X37975809Y-19462809D01*
X38116157Y-19252765D01*
X38165440Y-19005000D01*
X38165440Y-16973000D01*
X38116157Y-16725235D01*
X37975809Y-16515191D01*
X37765765Y-16374843D01*
X37645000Y-16350822D01*
X37645000Y-15795445D01*
X38499446Y-14941000D01*
X43041477Y-14941000D01*
X43118191Y-15055809D01*
X43233001Y-15132523D01*
X43233000Y-17542929D01*
X43210608Y-17655500D01*
X43233000Y-17768071D01*
X43299318Y-18101475D01*
X43551943Y-18479557D01*
X43647382Y-18543327D01*
X45377257Y-20273203D01*
X45376900Y-20275000D01*
X45500109Y-20894411D01*
X45850977Y-21419523D01*
X46038767Y-21545000D01*
X45850977Y-21670477D01*
X45849959Y-21672000D01*
X44107571Y-21672000D01*
X43995000Y-21649608D01*
X43882429Y-21672000D01*
X43882428Y-21672000D01*
X43549024Y-21738318D01*
X43170943Y-21990943D01*
X43107174Y-22086380D01*
X40345380Y-24848175D01*
X40249944Y-24911943D01*
X40038762Y-25228000D01*
X39997319Y-25290024D01*
X39908608Y-25736000D01*
X39931001Y-25848576D01*
X39931000Y-43911429D01*
X39908608Y-44024000D01*
X39931000Y-44136571D01*
X39997318Y-44469975D01*
X40249943Y-44848057D01*
X40345382Y-44911827D01*
X44769000Y-49335446D01*
X44769000Y-49379494D01*
X44979853Y-49888540D01*
X45369460Y-50278147D01*
X45600870Y-50374000D01*
X45369460Y-50469853D01*
X45338313Y-50501000D01*
X43853571Y-50501000D01*
X43741000Y-50478608D01*
X43628429Y-50501000D01*
X43628428Y-50501000D01*
X43295024Y-50567318D01*
X42916943Y-50819943D01*
X42853174Y-50915380D01*
X40980380Y-52788175D01*
X40884944Y-52851943D01*
X40714308Y-53107319D01*
X40632319Y-53230024D01*
X40543608Y-53676000D01*
X40566001Y-53788576D01*
X40566000Y-56631554D01*
X39711555Y-57486000D01*
X34816446Y-57486000D01*
X26215000Y-48884555D01*
X26215000Y-44843315D01*
X26329542Y-44671891D01*
X26433154Y-44151000D01*
X26329542Y-43630109D01*
X26034481Y-43188519D01*
X25592891Y-42893458D01*
X25203485Y-42816000D01*
X24940515Y-42816000D01*
X24551109Y-42893458D01*
X24109519Y-43188519D01*
X23814458Y-43630109D01*
X23710846Y-44151000D01*
X18787000Y-44151000D01*
X18787000Y-43885452D01*
X18595000Y-43421924D01*
X18595000Y-28642571D01*
X18617392Y-28530000D01*
X18566313Y-28273208D01*
X18528682Y-28084024D01*
X18276057Y-27705943D01*
X18180621Y-27642175D01*
X15418827Y-24880382D01*
X15355057Y-24784943D01*
X14976976Y-24532318D01*
X14643572Y-24466000D01*
X14643571Y-24466000D01*
X14531000Y-24443608D01*
X14418429Y-24466000D01*
X12323913Y-24466000D01*
X12292305Y-24418695D01*
X12173033Y-24339000D01*
X12292305Y-24259305D01*
X12657208Y-23713188D01*
X12785345Y-23069000D01*
X12657208Y-22424812D01*
X12292305Y-21878695D01*
X12148117Y-21782352D01*
X12508385Y-21393818D01*
X12707975Y-20911944D01*
X12588836Y-20656000D01*
X11229000Y-20656000D01*
X11229000Y-20676000D01*
X10975000Y-20676000D01*
X10975000Y-20656000D01*
X9615164Y-20656000D01*
X9496025Y-20911944D01*
X9695615Y-21393818D01*
X10055883Y-21782352D01*
X9911695Y-21878695D01*
X9546792Y-22424812D01*
X9418655Y-23069000D01*
X9546792Y-23713188D01*
X9911695Y-24259305D01*
X10030967Y-24339000D01*
X9911695Y-24418695D01*
X9546792Y-24964812D01*
X9418655Y-25609000D01*
X9546792Y-26253188D01*
X9911695Y-26799305D01*
X10030967Y-26879000D01*
X9911695Y-26958695D01*
X9546792Y-27504812D01*
X9418655Y-28149000D01*
X9546792Y-28793188D01*
X9911695Y-29339305D01*
X10030967Y-29419000D01*
X9911695Y-29498695D01*
X9546792Y-30044812D01*
X9418655Y-30689000D01*
X9546792Y-31333188D01*
X9911695Y-31879305D01*
X10030967Y-31959000D01*
X9911695Y-32038695D01*
X9546792Y-32584812D01*
X9418655Y-33229000D01*
X9546792Y-33873188D01*
X9911695Y-34419305D01*
X10030967Y-34499000D01*
X9911695Y-34578695D01*
X9546792Y-35124812D01*
X9418655Y-35769000D01*
X9546792Y-36413188D01*
X9911695Y-36959305D01*
X10030967Y-37039000D01*
X9911695Y-37118695D01*
X9546792Y-37664812D01*
X9418655Y-38309000D01*
X9546792Y-38953188D01*
X9911695Y-39499305D01*
X10030967Y-39579000D01*
X9911695Y-39658695D01*
X9546792Y-40204812D01*
X9418655Y-40849000D01*
X9546792Y-41493188D01*
X9911695Y-42039305D01*
X10030967Y-42119000D01*
X9911695Y-42198695D01*
X9546792Y-42744812D01*
X9418655Y-43389000D01*
X9546792Y-44033188D01*
X9911695Y-44579305D01*
X10030967Y-44659000D01*
X9911695Y-44738695D01*
X9546792Y-45284812D01*
X9418655Y-45929000D01*
X9546792Y-46573188D01*
X9911695Y-47119305D01*
X10030967Y-47199000D01*
X9911695Y-47278695D01*
X9546792Y-47824812D01*
X9418655Y-48469000D01*
X9546792Y-49113188D01*
X9911695Y-49659305D01*
X10030967Y-49739000D01*
X9911695Y-49818695D01*
X9880087Y-49866000D01*
X9242246Y-49866000D01*
X8237200Y-48860955D01*
X8237200Y-38753571D01*
X8259592Y-38641000D01*
X8210429Y-38393843D01*
X8170882Y-38195024D01*
X7918257Y-37816943D01*
X7822821Y-37753175D01*
X6643027Y-36573382D01*
X6579257Y-36477943D01*
X6201176Y-36225318D01*
X5867772Y-36159000D01*
X5867771Y-36159000D01*
X5755200Y-36136608D01*
X5642629Y-36159000D01*
X4184308Y-36159000D01*
X3973522Y-36018157D01*
X4103358Y-35957183D01*
X4493645Y-35528924D01*
X4663476Y-35118890D01*
X4542155Y-34889000D01*
X3349000Y-34889000D01*
X3349000Y-34909000D01*
X3095000Y-34909000D01*
X3095000Y-34889000D01*
X1901845Y-34889000D01*
X1780524Y-35118890D01*
X1950355Y-35528924D01*
X2340642Y-35957183D01*
X2470478Y-36018157D01*
X2151375Y-36231375D01*
X1823161Y-36722582D01*
X1707908Y-37302000D01*
X932000Y-37302000D01*
X932000Y-32222000D01*
X1707908Y-32222000D01*
X1823161Y-32801418D01*
X2151375Y-33292625D01*
X2470478Y-33505843D01*
X2340642Y-33566817D01*
X1950355Y-33995076D01*
X1780524Y-34405110D01*
X1901845Y-34635000D01*
X3095000Y-34635000D01*
X3095000Y-34615000D01*
X3349000Y-34615000D01*
X3349000Y-34635000D01*
X4542155Y-34635000D01*
X4663476Y-34405110D01*
X4493645Y-33995076D01*
X4103358Y-33566817D01*
X3973522Y-33505843D01*
X4292625Y-33292625D01*
X4620839Y-32801418D01*
X4736092Y-32222000D01*
X4620839Y-31642582D01*
X4365000Y-31259692D01*
X4365000Y-19695445D01*
X4928446Y-19132000D01*
X9463822Y-19132000D01*
X9487843Y-19252765D01*
X9628191Y-19462809D01*
X9785113Y-19567662D01*
X9695615Y-19664182D01*
X9496025Y-20146056D01*
X9615164Y-20402000D01*
X10975000Y-20402000D01*
X10975000Y-20382000D01*
X11229000Y-20382000D01*
X11229000Y-20402000D01*
X12588836Y-20402000D01*
X12707975Y-20146056D01*
X12508385Y-19664182D01*
X12418887Y-19567662D01*
X12575809Y-19462809D01*
X12716157Y-19252765D01*
X12765440Y-19005000D01*
X12765440Y-16973000D01*
X12716157Y-16725235D01*
X12575809Y-16515191D01*
X12365765Y-16374843D01*
X12118000Y-16325560D01*
X10086000Y-16325560D01*
X9838235Y-16374843D01*
X9628191Y-16515191D01*
X9487843Y-16725235D01*
X9463822Y-16846000D01*
X4567570Y-16846000D01*
X4454999Y-16823608D01*
X4342428Y-16846000D01*
X4009024Y-16912318D01*
X3630943Y-17164943D01*
X3567174Y-17260380D01*
X2493380Y-18334175D01*
X2397944Y-18397943D01*
X2224505Y-18657514D01*
X2145319Y-18776024D01*
X2056608Y-19222000D01*
X2079001Y-19334576D01*
X2079000Y-31259692D01*
X1823161Y-31642582D01*
X1707908Y-32222000D01*
X932000Y-32222000D01*
X932000Y-2777431D01*
X987000Y-2777431D01*
X987000Y-3666569D01*
X1327259Y-4488026D01*
X1955974Y-5116741D01*
X2777431Y-5457000D01*
X3666569Y-5457000D01*
X4488026Y-5116741D01*
X5116741Y-4488026D01*
X5457000Y-3666569D01*
X5457000Y-2777431D01*
X64987000Y-2777431D01*
X64987000Y-3666569D01*
X65327259Y-4488026D01*
X65955974Y-5116741D01*
X66777431Y-5457000D01*
X67666569Y-5457000D01*
X68488026Y-5116741D01*
X69116741Y-4488026D01*
X69457000Y-3666569D01*
X69457000Y-2777431D01*
X69116741Y-1955974D01*
X68488026Y-1327259D01*
X67666569Y-987000D01*
X66777431Y-987000D01*
X65955974Y-1327259D01*
X65327259Y-1955974D01*
X64987000Y-2777431D01*
X5457000Y-2777431D01*
X5116741Y-1955974D01*
X4488026Y-1327259D01*
X3666569Y-987000D01*
X2777431Y-987000D01*
X1955974Y-1327259D01*
X1327259Y-1955974D01*
X987000Y-2777431D01*
X932000Y-2777431D01*
X932000Y-932000D01*
X69512000Y-932000D01*
X69512001Y-69512000D01*
G04 #@! TD*
M02*
