M48
;DRILL file {KiCad (5.0.1)-3} date 18-Mar-19 16:45:23
;FORMAT={-:-/ absolute / inch / decimal}
FMAT,2
INCH,TZ
T1C0.0276
T2C0.0300
T3C0.0315
T4C0.0354
T5C0.0394
T6C0.0433
T7C0.1260
%
G90
G05
M72
T1
X0.6871Y-1.7382
X2.0321Y-2.0582
X2.3321Y-2.0582
X2.0321Y-2.1782
X2.3321Y-2.1782
X0.9871Y-1.7382
T2
X2.5313Y-0.3913
X2.5313Y-0.7913
T3
X2.1513Y-1.0513
X2.2497Y-1.0513
X1.8171Y-1.9332
X1.8171Y-2.0332
X1.8171Y-2.1332
X1.7471Y-0.5432
X1.8455Y-0.5432
T4
X2.1971Y-1.4682
X2.2971Y-1.4682
X2.3571Y-1.1882
X2.4278Y-1.2589
X2.0171Y-1.2682
X2.0878Y-1.1975
X2.5871Y-1.3932
X2.5871Y-1.4932
X2.0364Y-1.6625
X2.1071Y-1.7332
X1.8821Y-1.4182
X1.8821Y-1.5182
X2.3721Y-1.7232
X2.4428Y-1.6525
T5
X0.1269Y-1.2686
X0.1269Y-1.3686
X0.1269Y-1.4686
X0.1269Y-1.5686
X0.4371Y-0.7082
X0.4371Y-0.8082
X0.4371Y-0.9082
X0.4371Y-1.0082
X0.4371Y-1.1082
X0.4371Y-1.2082
X0.4371Y-1.3082
X0.4371Y-1.4082
X0.4371Y-1.5082
X0.4371Y-1.6082
X0.4371Y-1.7082
X0.4371Y-1.8082
X0.4371Y-1.9082
X0.4371Y-2.0082
X0.4371Y-2.1082
X1.4371Y-0.7082
X1.4371Y-0.8082
X1.4371Y-0.9082
X1.4371Y-1.0082
X1.4371Y-1.1082
X1.4371Y-1.2082
X1.4371Y-1.3082
X1.4371Y-1.4082
X1.4371Y-1.5082
X1.4371Y-1.6082
X1.4371Y-1.7082
X1.4371Y-1.8082
X1.4371Y-1.9082
X1.4371Y-2.0082
X1.4371Y-2.1082
X2.2313Y-0.3913
X2.2313Y-0.4913
X2.2313Y-0.5913
X2.2313Y-0.6913
X2.2313Y-0.7913
T6
X1.8521Y-0.7982
X1.8521Y-0.8982
X1.8521Y-0.9982
T7
X2.6465Y-0.1269
X0.1269Y-2.6465
X0.1269Y-0.1269
X2.6465Y-2.6465
T0
M30
